<svg width="52" height="52" viewBox="0 0 52 52" fill="none" xmlns="http://www.w3.org/2000/svg">
<circle cx="26" cy="26" r="26" fill="#FACC15"/>
<path d="M36.2507 24.279C35.8857 25.5411 35.5884 26.744 35.1694 27.9014C35.0663 28.1869 34.5662 28.5045 34.2452 28.5079C30.4894 28.5518 26.7335 28.5366 22.9777 28.5383C22.4218 28.5383 22.067 28.2646 21.9403 27.7324C21.3456 25.2454 20.7458 22.7584 20.1781 20.2663C20.0058 19.5128 20.3488 19.0482 21.0753 19.0431C24.1367 19.0229 27.1981 19.0347 30.3356 19.0347C30.2984 20.66 30.7411 22.0809 31.9728 23.1639C33.1774 24.23 34.6017 24.5476 36.2507 24.279Z" fill="white"/>
<path d="M21.1615 29.4088C23.689 29.4088 26.1726 29.4088 28.6562 29.4088C30.2816 29.4088 31.9069 29.4054 33.5322 29.4105C34.2891 29.4122 34.7183 29.7518 34.7385 30.338C34.7588 30.9547 34.3162 31.3298 33.5288 31.3298C29.2256 31.3332 24.924 31.3332 20.6208 31.3298C19.749 31.3298 19.5074 31.1169 19.3165 30.2367C18.4987 26.4555 17.6743 22.676 16.8717 18.8914C16.7771 18.4471 16.6031 18.197 16.1452 18.0568C15.096 17.7358 14.0671 17.3472 13.0314 16.9823C12.1613 16.6748 11.8386 16.2051 12.0751 15.6019C12.3083 15.0055 12.8135 14.8535 13.6397 15.1407C14.9254 15.5867 16.1993 16.0665 17.4985 16.472C18.1541 16.6765 18.4666 17.0465 18.6052 17.7088C19.3976 21.4714 20.2204 25.2272 21.0364 28.9847C21.0601 29.0962 21.1006 29.2077 21.1615 29.4088Z" fill="white"/>
<path d="M30.9336 19.6116C30.9218 17.2665 32.8225 15.3607 35.1676 15.3692C37.4654 15.3759 39.3577 17.2851 39.3543 19.5947C39.3509 21.8975 37.4519 23.8016 35.149 23.8067C32.8479 23.8118 30.9455 21.9195 30.9336 19.6116ZM36.9416 17.7396C36.1797 18.5556 35.4329 19.3565 34.5459 20.3077C34.1218 19.7315 33.7788 19.2686 33.3869 18.7381C32.9932 19.1503 32.733 19.4224 32.5641 19.6015C33.2838 20.3448 33.9714 21.0528 34.6067 21.71C35.6373 20.676 36.6983 19.6133 37.8489 18.4593C37.6614 18.3106 37.4367 18.1316 37.2103 17.9525C37.1393 17.8933 37.0667 17.8393 36.9416 17.7396Z" fill="white"/>
<path d="M32.4861 32.1105C33.9779 32.097 35.1944 33.2695 35.2231 34.7495C35.2518 36.2549 34.0286 37.4899 32.5114 37.4899C31.0297 37.4899 29.8183 36.2853 29.8115 34.8103C29.8065 33.3286 30.9993 32.1257 32.4861 32.1105ZM33.7059 34.7918C33.7042 34.1379 33.1906 33.6074 32.5452 33.5939C31.8761 33.5787 31.3186 34.1312 31.322 34.8053C31.3254 35.4524 31.8474 35.9896 32.4861 36.0065C33.1551 36.0234 33.7093 35.4726 33.7059 34.7918Z" fill="white"/>
<path d="M21.557 37.4897C20.0668 37.4779 18.8707 36.28 18.874 34.8017C18.8791 33.276 20.0871 32.0917 21.6212 32.1086C23.1012 32.1255 24.289 33.3453 24.2721 34.8304C24.2535 36.3155 23.0438 37.4999 21.557 37.4897ZM22.7667 34.8034C22.7684 34.1242 22.2142 33.5785 21.5401 33.5954C20.9049 33.6123 20.3625 34.1614 20.3625 34.7932C20.3608 35.4268 20.8981 35.9827 21.53 36.0046C22.2007 36.0283 22.765 35.4792 22.7667 34.8034Z" fill="white"/>
</svg>
