<svg width="52" height="52" viewBox="0 0 52 52" fill="none" xmlns="http://www.w3.org/2000/svg">
<circle cx="26" cy="26" r="26" fill="#B8E716"/>
<path d="M32.8582 12.0043C33.1083 12.133 33.182 12.3469 33.1777 12.6144C33.169 13.1493 33.1748 13.6856 33.1748 14.2551C33.2962 14.2551 33.3931 14.2551 33.4899 14.2551C34.7664 14.2566 36.0414 14.2566 37.3179 14.258C38.0581 14.2595 38.3833 14.5978 38.3674 15.3365C38.3269 17.1449 38.1404 18.9346 37.6142 20.6737C37.2124 22.0051 36.6457 23.2483 35.602 24.2154C34.9558 24.8139 34.1925 25.1782 33.3165 25.2866C33.1517 25.3068 33.0953 25.3661 33.0606 25.5295C32.4737 28.2963 30.8314 30.1019 28.1209 30.9288C28.0038 30.9649 27.9099 30.9924 27.9099 31.1558C27.9157 32.8688 27.9157 34.5819 27.9171 36.2949C27.9171 36.3209 27.9287 36.3469 27.9417 36.399C28.0328 36.4033 28.1296 36.412 28.2265 36.412C28.8004 36.4134 29.3743 36.4163 29.9482 36.4106C30.1968 36.4077 30.3804 36.4958 30.525 36.7055C31.1032 37.5454 31.6901 38.3809 32.2742 39.2165C32.3942 39.3885 32.5113 39.5894 32.3537 39.7629C32.2409 39.8858 32.0356 39.987 31.8708 39.9884C28.0805 40.0014 24.2886 39.9971 20.4982 40C20.2959 40 20.1166 39.9653 20.0082 39.7716C19.8925 39.5634 19.9764 39.39 20.0978 39.2165C20.6775 38.3881 21.2586 37.5613 21.8296 36.7271C21.9858 36.5002 22.1824 36.4077 22.4498 36.4106C23.1047 36.4178 23.7595 36.412 24.4433 36.412C24.4491 36.2949 24.4578 36.198 24.4578 36.1012C24.4592 34.4879 24.4549 32.876 24.4621 31.2627C24.4635 31.0589 24.4086 30.9736 24.199 30.9086C21.5651 30.0875 19.9316 28.3325 19.3374 25.6335C19.2839 25.3907 19.2015 25.3083 18.9457 25.2678C17.6865 25.0726 16.7382 24.3744 16.0111 23.3524C15.1712 22.1713 14.7332 20.8254 14.4382 19.4275C14.152 18.0701 14.0205 16.6924 14.0002 15.3047C13.9901 14.579 14.3226 14.2551 15.0526 14.2537C16.319 14.2523 17.5868 14.2508 18.8531 14.2508C18.9529 14.2508 19.0526 14.2508 19.1957 14.2508C19.1957 13.9949 19.1957 13.7535 19.1957 13.5121C19.1957 13.2114 19.203 12.9107 19.1943 12.61C19.1856 12.3426 19.2637 12.1272 19.5138 12C23.9619 12.0043 28.4101 12.0043 32.8582 12.0043ZM26.1853 16.6086C25.9092 17.1666 25.62 17.6465 25.4307 18.1641C25.2283 18.7177 24.8871 18.9404 24.3089 18.9635C23.7624 18.9866 23.2203 19.1124 22.6305 19.1991C22.7259 19.3003 22.7852 19.3654 22.8488 19.4275C23.3114 19.88 23.7812 20.3253 24.2308 20.7893C24.3146 20.876 24.3681 21.0423 24.3551 21.1623C24.3161 21.5237 24.2351 21.8793 24.173 22.2378C24.1108 22.6064 24.0515 22.9765 23.9836 23.3928C24.6703 23.0314 25.3107 22.7062 25.9395 22.3592C26.1231 22.258 26.2604 22.2682 26.4382 22.365C27.0671 22.7091 27.706 23.0358 28.3609 23.3784C28.3609 23.2974 28.3681 23.2439 28.3595 23.1948C28.2453 22.5313 28.1383 21.8663 28.0096 21.2056C27.972 21.0105 28.014 20.8847 28.1571 20.7517C28.543 20.3918 28.9146 20.0145 29.2948 19.6473C29.435 19.5114 29.5824 19.3827 29.7834 19.2006C28.9999 19.0878 28.3103 18.9808 27.6179 18.8912C27.3938 18.8623 27.2492 18.7929 27.1466 18.5645C26.856 17.9256 26.5279 17.2982 26.1853 16.6086ZM36.6442 16.013C35.4661 16.013 34.3269 16.013 33.195 16.013C33.195 18.537 33.195 21.0365 33.195 23.6053C33.4986 23.4767 33.779 23.3928 34.0219 23.2468C34.7982 22.7799 35.2406 22.0398 35.5832 21.2331C36.053 20.1287 36.3089 18.9664 36.465 17.7824C36.5402 17.197 36.5835 16.61 36.6442 16.013ZM19.1798 23.5548C19.1798 21.0264 19.1798 18.5197 19.1798 16.0072C18.0291 16.0072 16.8972 16.0072 15.7581 16.0072C15.7552 16.0607 15.7494 16.0954 15.7509 16.1301C15.839 17.5786 16.0328 19.0098 16.4794 20.3947C16.7512 21.236 17.0909 22.0528 17.7053 22.7163C18.1029 23.1471 18.5698 23.4579 19.1798 23.5548Z" fill="white"/>
</svg>
