<svg width="52" height="52" viewBox="0 0 52 52" fill="none" xmlns="http://www.w3.org/2000/svg">
<circle cx="26" cy="26" r="26" fill="#95ADFF"/>
<path d="M25.9481 24.3684C25.4776 24.213 25.0352 24.1246 24.6425 23.9303C21.1636 22.2082 17.6912 20.4687 14.2167 18.7379C13.962 18.6106 13.7656 18.4466 13.7613 18.1423C13.757 17.8251 13.9534 17.6481 14.221 17.5143C17.6718 15.7943 21.1226 14.07 24.5712 12.3456C25.564 11.8493 26.5416 11.9054 27.5214 12.3996C29.7377 13.5153 31.9627 14.6203 34.1834 15.7295C35.3164 16.295 36.4473 16.8625 37.5781 17.4301C37.6429 17.4625 37.7076 17.4927 37.7745 17.5251C38.0335 17.6459 38.2126 17.8337 38.2126 18.1337C38.2126 18.438 38.0205 18.6084 37.7659 18.7336C36.1581 19.5343 34.5525 20.3392 32.9447 21.1399C31.0887 22.0657 29.2414 23.0045 27.3746 23.9066C26.93 24.1224 26.4272 24.2173 25.9481 24.3684Z" fill="white"/>
<path d="M25.0538 33.4541C25.0538 35.3834 25.056 37.3128 25.0517 39.2421C25.0495 39.9284 24.6632 40.1701 24.0309 39.8787C20.8671 38.422 17.7012 36.9696 14.5439 35.5021C13.5274 35.0295 13.0095 34.2029 13.0052 33.085C12.9965 29.4076 13.0008 25.7302 13.003 22.0528C13.003 21.3428 13.4023 21.0795 14.0367 21.373C17.3084 22.8815 20.5779 24.3987 23.8518 25.9007C24.6827 26.2827 25.0668 26.9042 25.0603 27.8128C25.0474 29.6947 25.056 31.5744 25.056 33.4562C25.056 33.4541 25.056 33.4541 25.0538 33.4541Z" fill="white"/>
<path d="M26.9187 33.4002C26.9187 31.5076 26.923 29.6149 26.9165 27.7223C26.9144 26.8676 27.305 26.2785 28.0711 25.9246C31.3644 24.4053 34.6598 22.8903 37.953 21.3731C38.553 21.0969 38.9652 21.3451 38.9652 21.999C38.9695 25.7131 38.976 29.425 38.9609 33.1391C38.9566 34.2764 38.3739 35.0706 37.3488 35.5454C34.7893 36.728 32.2276 37.9085 29.6681 39.089C29.1199 39.3415 28.5739 39.594 28.0279 39.8465C27.2855 40.1875 26.9165 39.9565 26.9165 39.1494C26.9165 37.233 26.9165 35.3145 26.9165 33.3981C26.9187 33.4002 26.9187 33.4002 26.9187 33.4002Z" fill="white"/>
</svg>
