<svg width="52" height="52" viewBox="0 0 52 52" fill="none" xmlns="http://www.w3.org/2000/svg">
<circle cx="26" cy="26" r="26" fill="#FF603D"/>
<path d="M21.5404 30.2033C22.185 29.6102 22.818 29.0287 23.451 28.4456C27.4582 24.759 31.4637 21.0724 35.4709 17.3859C35.7849 17.0968 36.0973 16.8044 36.4146 16.517C36.697 16.2611 37.021 16.0834 37.4014 16.0186C38.2055 15.884 38.782 16.4987 38.5877 17.2878C38.5112 17.5985 38.3634 17.8776 38.1574 18.1202C33.9574 23.0362 29.7575 27.9505 25.5576 32.8648C24.5641 34.0261 23.5739 35.1891 22.5787 36.3487C22.3129 36.6594 21.9906 36.8903 21.5786 36.9734C21.2347 37.0431 20.9091 36.975 20.6316 36.779C20.399 36.6145 20.1631 36.4284 19.9937 36.2041C17.7708 33.2237 15.5562 30.2365 13.3465 27.2461C13.0757 26.8789 12.9462 26.4486 13.0209 25.9901C13.1422 25.2342 14.046 24.7274 14.8085 24.9982C15.0445 25.083 15.2721 25.2225 15.4698 25.3787C17.4634 26.957 19.4504 28.5453 21.4391 30.1302C21.4673 30.1535 21.4972 30.1734 21.5404 30.2033Z" fill="white"/>
</svg>
