<svg width="52" height="52" viewBox="0 0 52 52" fill="none" xmlns="http://www.w3.org/2000/svg">
<circle cx="26" cy="26" r="26" fill="#34CAA5"/>
<path d="M23.1046 14.0017C24.5421 14.0092 25.6981 14.1643 26.7653 14.7031C28.6197 15.6394 29.6086 17.1912 29.8931 19.2172C30.0752 20.5117 29.9292 21.7911 29.6191 23.0509C29.2443 24.5682 28.7386 26.0388 27.9348 27.3889C27.4215 28.2514 26.7833 29.007 25.9223 29.5474C24.3253 30.5513 22.3942 30.449 20.8228 29.287C19.8745 28.5855 19.2017 27.6598 18.6703 26.6228C17.9102 25.1356 17.4842 23.5431 17.1907 21.9085C17.0236 20.9798 16.9664 20.0526 17.117 19.1179C17.5053 16.6975 18.9021 15.1366 21.19 14.3344C21.8929 14.0875 22.6185 13.9852 23.1046 14.0017Z" fill="white"/>
<path d="M31.4126 39.0001C31.3434 39.0001 31.2847 39.0001 31.2245 39.0001C24.8936 39.0001 18.5628 39.0001 12.2319 39.0001C12.0061 39.0001 11.9986 39.0001 12.0001 38.7788C12.0062 37.8727 11.9926 36.9636 12.0317 36.0589C12.0739 35.1197 12.5601 34.4032 13.2901 33.8418C14.0126 33.2879 14.8465 32.9688 15.7059 32.7039C17.4248 32.174 19.192 31.9016 20.9786 31.7481C22.538 31.6141 24.1004 31.6081 25.6628 31.6924C26.0842 31.7149 26.5027 31.7691 26.9241 31.7962C27.0731 31.8068 27.1078 31.8655 27.1078 32.0085C27.1032 33.4098 27.4073 34.7374 28.1223 35.9521C28.8703 37.224 29.9134 38.1858 31.2245 38.8616C31.2802 38.8902 31.3359 38.9173 31.3915 38.9474C31.3991 38.9534 31.3991 38.967 31.4126 39.0001Z" fill="white"/>
<path d="M29.4634 30.8568C29.5432 30.8568 29.6109 30.8568 29.6786 30.8568C30.6886 30.8568 31.6971 30.8568 32.7071 30.8568C32.9328 30.8568 32.9344 30.8568 32.9344 30.622C32.9344 29.612 32.9344 28.6035 32.9344 27.5935C32.9344 27.5273 32.9344 27.4596 32.9344 27.3828C33.9278 27.3828 34.8986 27.3828 35.8936 27.3828C35.8936 28.5388 35.8936 29.6858 35.8936 30.8553C37.0646 30.8553 38.2116 30.8553 39.3691 30.8553C39.3691 31.8322 39.3691 32.788 39.3691 33.7648C38.2161 33.7648 37.0676 33.7648 35.8951 33.7648C35.8951 34.9404 35.8951 36.0934 35.8951 37.2584C35.8168 37.2629 35.7611 37.2689 35.7054 37.2689C34.8444 37.2689 33.9835 37.2659 33.1225 37.2734C32.972 37.2749 32.9298 37.2328 32.9298 37.0823C32.9359 36.0557 32.9328 35.0292 32.9328 34.0027C32.9328 33.9349 32.9328 33.8672 32.9328 33.7754C31.7693 33.7754 30.6224 33.7754 29.4634 33.7754C29.4634 32.794 29.4634 31.8397 29.4634 30.8568Z" fill="white"/>
</svg>
