<svg width="26" height="16" viewBox="0 0 26 16" fill="none" xmlns="http://www.w3.org/2000/svg">
<g clip-path="url(#clip0_610_13129)">
<path fill-rule="evenodd" clip-rule="evenodd" d="M9.3877 14.269H16.3464V1.70801H9.3877V14.269Z" fill="#FF5F00"/>
<path fill-rule="evenodd" clip-rule="evenodd" d="M9.82945 7.98847C9.82945 5.44015 11.0173 3.17054 12.867 1.70798C11.5141 0.63819 9.80736 0 7.95215 0C3.56021 0 0 3.57662 0 7.98847C0 12.4003 3.56021 15.9769 7.95215 15.9769C9.80736 15.9769 11.5141 15.3388 12.867 14.269C11.0173 12.8062 9.82945 10.5368 9.82945 7.98847Z" fill="#EB001B"/>
<path fill-rule="evenodd" clip-rule="evenodd" d="M25.4854 12.9387V12.6287H25.4048L25.3122 12.8419L25.2194 12.6287H25.1388V12.9387H25.1955V12.7048L25.2826 12.9065H25.3416L25.4286 12.7043V12.9387H25.4854ZM24.9749 12.9387V12.6815H25.0782V12.6291H24.8154V12.6815H24.9185V12.9387H24.9749ZM25.7337 7.98847C25.7337 12.4003 22.1733 15.9769 17.7815 15.9769C15.9263 15.9769 14.2193 15.3388 12.8667 14.269C14.7164 12.8064 15.9042 10.5368 15.9042 7.98847C15.9042 5.44037 14.7164 3.17076 12.8667 1.70798C14.2193 0.63819 15.9263 0 17.7815 0C22.1733 0 25.7337 3.57662 25.7337 7.98847Z" fill="#F79E1B"/>
</g>
<defs>
<clipPath id="clip0_610_13129">
<rect width="26" height="16" fill="white"/>
</clipPath>
</defs>
</svg>
