<svg width="10" height="11" viewBox="0 0 10 11" fill="none" xmlns="http://www.w3.org/2000/svg">
<path fill-rule="evenodd" clip-rule="evenodd" d="M9.82772 0.791747C10.0574 1.01669 10.0574 1.38138 9.82772 1.60632L3.94536 7.36617C3.71565 7.5911 3.34319 7.5911 3.11347 7.36617L0.172288 4.48624C-0.0574295 4.26132 -0.0574295 3.89661 0.172288 3.67168C0.402012 3.44676 0.77446 3.44676 1.00418 3.67168L3.52942 6.14434L8.99584 0.791747C9.22554 0.566813 9.59801 0.566813 9.82772 0.791747Z" fill="#22C55E"/>
<path fill-rule="evenodd" clip-rule="evenodd" d="M9.82772 4.6129C10.0574 4.81285 10.0574 5.13702 9.82772 5.33697L3.94536 10.4568C3.71565 10.6568 3.34319 10.6568 3.11347 10.4568L0.172288 7.8969C-0.0574295 7.69697 -0.0574295 7.37278 0.172288 7.17285C0.402012 6.97292 0.77446 6.97292 1.00418 7.17285L3.52942 9.37076L8.99584 4.6129C9.22554 4.41296 9.59801 4.41296 9.82772 4.6129Z" fill="#22C55E"/>
</svg>
