<svg width="22" height="22" viewBox="0 0 22 22" fill="none" xmlns="http://www.w3.org/2000/svg">
<path fill-rule="evenodd" clip-rule="evenodd" d="M10.6981 0.254164C10.7984 0.251394 10.899 0.25 11 0.25C16.9371 0.25 21.75 5.06294 21.75 11C21.75 11.101 21.7486 11.2016 21.7458 11.3019C21.7344 11.716 21.3895 12.0424 20.9754 12.0309C20.5614 12.0195 20.235 11.6746 20.2464 11.2605C20.2488 11.174 20.25 11.0871 20.25 11C20.25 5.89137 16.1086 1.75 11 1.75C10.9129 1.75 10.826 1.7512 10.7395 1.75359C10.3254 1.76503 9.9805 1.43864 9.96907 1.02458C9.95763 0.610524 10.284 0.265597 10.6981 0.254164ZM8.13329 1.38743C8.28109 1.77438 8.08722 2.20788 7.70028 2.35568C7.53835 2.41753 7.3786 2.4838 7.22118 2.55436C6.84319 2.72376 6.39944 2.55467 6.23004 2.17668C6.06063 1.79869 6.22972 1.35494 6.60771 1.18554C6.79082 1.10348 6.97666 1.02638 7.16504 0.954421C7.55199 0.80662 7.98549 1.00049 8.13329 1.38743ZM4.67494 3.21802C4.95955 3.51896 4.94632 3.99365 4.64537 4.27827C4.51962 4.3972 4.3972 4.51962 4.27827 4.64537C3.99365 4.94632 3.51896 4.95955 3.21802 4.67494C2.91708 4.39032 2.90384 3.91563 3.18846 3.61469C3.32654 3.46868 3.46868 3.32654 3.61469 3.18846C3.91563 2.90384 4.39032 2.91708 4.67494 3.21802ZM2.17668 6.23004C2.55467 6.39944 2.72376 6.84319 2.55436 7.22118C2.4838 7.3786 2.41753 7.53835 2.35568 7.70028C2.20788 8.08722 1.77438 8.28109 1.38743 8.13329C1.00049 7.98549 0.80662 7.55199 0.954421 7.16504C1.02638 6.97666 1.10348 6.79082 1.18554 6.60771C1.35494 6.22973 1.79869 6.06063 2.17668 6.23004ZM1.02458 9.96907C1.43864 9.9805 1.76503 10.3254 1.75359 10.7395C1.7512 10.826 1.75 10.9129 1.75 11C1.75 11.0871 1.7512 11.174 1.75359 11.2605C1.76503 11.6746 1.43864 12.0195 1.02458 12.0309C0.610524 12.0424 0.265597 11.716 0.254164 11.3019C0.251394 11.2016 0.25 11.101 0.25 11C0.25 10.899 0.251394 10.7984 0.254164 10.6981C0.265597 10.284 0.610524 9.95763 1.02458 9.96907ZM1.38743 13.8667C1.77438 13.7189 2.20788 13.9128 2.35568 14.2997C2.41753 14.4616 2.4838 14.6214 2.55436 14.7788C2.72376 15.1568 2.55467 15.6006 2.17668 15.77C1.79869 15.9394 1.35494 15.7703 1.18554 15.3923C1.10348 15.2092 1.02638 15.0233 0.954421 14.835C0.80662 14.448 1.00049 14.0145 1.38743 13.8667ZM20.6126 13.8667C20.9995 14.0145 21.1934 14.448 21.0456 14.835C20.9736 15.0233 20.8965 15.2092 20.8145 15.3923C20.6451 15.7703 20.2013 15.9394 19.8233 15.77C19.4453 15.6006 19.2762 15.1568 19.4456 14.7788C19.5162 14.6214 19.5825 14.4616 19.6443 14.2997C19.7921 13.9128 20.2256 13.7189 20.6126 13.8667ZM3.21802 17.3251C3.51896 17.0404 3.99365 17.0537 4.27827 17.3546C4.3972 17.4804 4.51962 17.6028 4.64537 17.7217C4.94632 18.0063 4.95955 18.481 4.67494 18.782C4.39032 19.0829 3.91563 19.0962 3.61469 18.8115C3.46868 18.6735 3.32654 18.5313 3.18846 18.3853C2.90384 18.0844 2.91708 17.6097 3.21802 17.3251ZM18.782 17.3251C19.0829 17.6097 19.0962 18.0844 18.8115 18.3853C18.6735 18.5313 18.5313 18.6735 18.3853 18.8115C18.0844 19.0962 17.6097 19.0829 17.3251 18.782C17.0404 18.481 17.0537 18.0063 17.3546 17.7217C17.4804 17.6028 17.6028 17.4804 17.7217 17.3546C18.0063 17.0537 18.481 17.0404 18.782 17.3251ZM15.77 19.8233C15.9394 20.2013 15.7703 20.6451 15.3923 20.8145C15.2092 20.8965 15.0233 20.9736 14.835 21.0456C14.448 21.1934 14.0145 20.9995 13.8667 20.6126C13.7189 20.2256 13.9128 19.7921 14.2997 19.6443C14.4616 19.5825 14.6214 19.5162 14.7788 19.4456C15.1568 19.2762 15.6006 19.4453 15.77 19.8233ZM6.23004 19.8233C6.39944 19.4453 6.84319 19.2762 7.22118 19.4456C7.3786 19.5162 7.53835 19.5825 7.70028 19.6443C8.08722 19.7921 8.28109 20.2256 8.13329 20.6126C7.98549 20.9995 7.55199 21.1934 7.16504 21.0456C6.97666 20.9736 6.79082 20.8965 6.60771 20.8145C6.22973 20.6451 6.06063 20.2013 6.23004 19.8233ZM9.96907 20.9754C9.9805 20.5614 10.3254 20.235 10.7395 20.2464C10.826 20.2488 10.9129 20.25 11 20.25C11.0871 20.25 11.174 20.2488 11.2605 20.2464C11.6746 20.235 12.0195 20.5614 12.0309 20.9754C12.0424 21.3895 11.716 21.7344 11.3019 21.7458C11.2016 21.7486 11.101 21.75 11 21.75C10.899 21.75 10.7984 21.7486 10.6981 21.7458C10.284 21.7344 9.95763 21.3895 9.96907 20.9754ZM11 4.25C10.5858 4.25 10.25 4.58579 10.25 5V9.14538C9.51704 9.44207 9 10.1607 9 11C9 12.1046 9.89543 13 11 13C11.8393 13 12.5579 12.483 12.8546 11.75H15C15.4142 11.75 15.75 11.4142 15.75 11C15.75 10.5858 15.4142 10.25 15 10.25H12.8546C12.6517 9.74865 12.2513 9.34832 11.75 9.14538V5C11.75 4.58579 11.4142 4.25 11 4.25Z" fill="#FF603D"/>
</svg>
