<svg width="17" height="16" viewBox="0 0 17 16" fill="none" xmlns="http://www.w3.org/2000/svg">
<path d="M11.6154 9.11324L11.6154 13.3137" stroke="#96A3BE" stroke-width="1.5" stroke-linecap="round" stroke-linejoin="round"/>
<path d="M5.15372 7.23969L5.15372 3.03921" stroke="#96A3BE" stroke-width="1.5" stroke-linecap="round" stroke-linejoin="round"/>
<path fill-rule="evenodd" clip-rule="evenodd" d="M5.11764 10.1825C4.25387 10.1825 3.55347 10.8879 3.55347 11.7579C3.55347 12.6279 4.25387 13.3333 5.11764 13.3333C5.98141 13.3333 6.68181 12.6279 6.6818 11.7579C6.6818 10.8879 5.98141 10.1825 5.11764 10.1825Z" stroke="#96A3BE" stroke-width="1.5" stroke-linecap="round" stroke-linejoin="round"/>
<path fill-rule="evenodd" clip-rule="evenodd" d="M11.5893 2.66668C10.7255 2.66668 10.0251 3.37157 10.0251 4.24156C10.0251 5.1121 10.7255 5.81754 11.5893 5.81754C12.4531 5.81754 13.1535 5.11209 13.1535 4.24156C13.1535 3.37157 12.4531 2.66668 11.5893 2.66668Z" stroke="#96A3BE" stroke-width="1.5" stroke-linecap="round" stroke-linejoin="round"/>
</svg>
