<svg width="1027" height="358" viewBox="0 0 1027 358" fill="none" xmlns="http://www.w3.org/2000/svg">
<rect x="-0.00012207" width="1027" height="354" rx="8" fill="#FF603D"/>
<mask id="mask0_560_7254" style="mask-type:alpha" maskUnits="userSpaceOnUse" x="-1" y="0" width="1028" height="354">
<rect x="-0.00012207" y="-3.05176e-05" width="1027" height="354" rx="8" fill="#FF603D"/>
</mask>
<g mask="url(#mask0_560_7254)">
<path d="M225.49 134.719C204.513 213.007 124.042 259.467 45.7536 238.49C-32.5347 217.513 -78.9945 137.042 -58.0172 58.7536C-37.0399 -19.5348 43.4308 -65.9945 121.719 -45.0172C200.007 -24.0399 246.467 56.4308 225.49 134.719ZM-18.5089 69.3398C-33.6397 125.808 -0.128707 183.851 56.3398 198.982C112.808 214.112 170.851 180.601 185.982 124.133C201.112 67.6643 167.602 9.62169 111.133 -5.50901C54.6644 -20.6397 -3.37825 12.8712 -18.5089 69.3398Z" fill="url(#paint0_linear_560_7254)" fill-opacity="0.9"/>
<path d="M136.054 110.147C127.579 141.776 95.0686 160.545 63.4401 152.07C31.8116 143.596 13.0418 111.085 21.5167 79.457C29.9915 47.8285 62.5016 29.0587 94.1301 37.5336C125.759 46.0084 144.528 78.5186 136.054 110.147ZM45.1787 85.7972C40.2055 104.358 51.22 123.435 69.7803 128.408C88.3406 133.382 107.418 122.367 112.392 103.807C117.365 85.2465 106.35 66.1688 87.7899 61.1956C69.2296 56.2224 50.1519 67.2369 45.1787 85.7972Z" fill="url(#paint1_linear_560_7254)" fill-opacity="0.9"/>
</g>
<rect width="1025" height="90" transform="matrix(-1 0 0 1 1025 264)" fill="url(#paint2_linear_560_7254)" fill-opacity="0.35"/>
<path opacity="0.118359" fill-rule="evenodd" clip-rule="evenodd" d="M603.004 87.661C619.61 23.4271 703.038 -6.28164 789.345 21.3046C875.653 48.8912 932.158 123.326 915.552 187.56C903.799 233.024 858.57 261.192 802.539 263.99C802.469 264.272 802.398 264.554 802.325 264.835C786.54 325.895 709.84 354.969 631.012 329.774C552.183 304.578 501.076 234.654 516.862 173.593C526.494 136.332 558.811 110.982 600.453 102.607C600.885 97.5823 601.729 92.5916 603.004 87.661Z" fill="url(#paint3_linear_560_7254)"/>
<path fill-rule="evenodd" clip-rule="evenodd" d="M598.126 40.4624H576.446C575.02 40.4624 573.865 41.6185 573.865 43.0445L581.608 71.4481C581.608 72.8741 582.763 74.0302 584.189 74.0302H605.869C607.294 74.0302 608.45 72.8741 608.45 71.4481L600.707 43.0445C600.707 41.6185 599.551 40.4624 598.126 40.4624Z" fill="url(#paint4_linear_560_7254)"/>
<path fill-rule="evenodd" clip-rule="evenodd" d="M565.388 52.6686H536.906C535.033 52.6686 533.515 54.1867 533.515 56.0593L543.687 93.3568C543.687 95.2295 545.205 96.7475 547.078 96.7475H575.56C577.432 96.7475 578.95 95.2295 578.95 93.3568L568.778 56.0593C568.778 54.1867 567.26 52.6686 565.388 52.6686Z" fill="url(#paint5_linear_560_7254)"/>
<path fill-rule="evenodd" clip-rule="evenodd" d="M592.852 82.1677H564.371C562.498 82.1677 560.98 83.6858 560.98 85.5584L571.152 122.856C571.152 124.729 572.67 126.247 574.543 126.247H603.024C604.897 126.247 606.415 124.729 606.415 122.856L596.243 85.5584C596.243 83.6858 594.725 82.1677 592.852 82.1677Z" fill="url(#paint6_linear_560_7254)"/>
<g opacity="0.5">
<path fill-rule="evenodd" clip-rule="evenodd" d="M885.304 98.4815C958.619 185.589 850.881 308.799 785.509 216.244C675.384 60.3287 581.608 177.484 581.608 177.484" fill="black" fill-opacity="0.01"/>
<path d="M885.304 98.4815C958.619 185.589 850.881 308.799 785.509 216.244C675.384 60.3287 581.608 177.484 581.608 177.484" stroke="#8CA4D4" stroke-width="2" stroke-linecap="round" stroke-dasharray="4 6"/>
</g>
<path fill-rule="evenodd" clip-rule="evenodd" d="M587.3 192.415L581.055 183.188L560.812 197.514L576.317 177.36L568.78 169.347L549.829 206.984L587.3 192.415Z" fill="url(#paint7_linear_560_7254)"/>
<path fill-rule="evenodd" clip-rule="evenodd" d="M581.27 183.43L576.533 182.701L559.95 198.242L581.27 183.43Z" fill="#E1A846"/>
<path fill-rule="evenodd" clip-rule="evenodd" d="M576.748 182.702L576.102 177.36L560.381 197.756L576.748 182.702Z" fill="#E6B052"/>
<path fill-rule="evenodd" clip-rule="evenodd" d="M757.476 341.255C718.806 341.255 687.458 334.955 687.458 327.184C687.458 319.412 718.806 313.112 757.476 313.112C796.145 313.112 827.493 319.412 827.493 327.184C827.493 334.955 796.145 341.255 757.476 341.255Z" fill="url(#paint8_radial_560_7254)"/>
<path fill-rule="evenodd" clip-rule="evenodd" d="M805.936 318.462C763.027 339.046 700.027 336.327 671.767 280.468C653.097 244.527 692.931 201.489 736.687 171.563C775.958 144.704 810.887 138.613 831.382 153.734C833.722 155.461 837.882 155.121 839.772 157.471C891.791 216.848 848.844 297.879 805.936 318.462Z" fill="url(#paint9_radial_560_7254)"/>
<path fill-rule="evenodd" clip-rule="evenodd" d="M779.431 267.034C733.544 295.707 686.154 298.84 670.22 273.34C655.435 245.79 691.303 195.963 737.189 167.29C783.076 138.617 823.056 134.073 838.991 159.573C854.925 185.073 825.317 238.361 779.431 267.034Z" fill="url(#paint10_radial_560_7254)"/>
<g filter="url(#filter0_f_560_7254)">
<path fill-rule="evenodd" clip-rule="evenodd" d="M769.061 246.919C748.487 259.783 727.238 261.188 720.093 249.748C713.464 237.388 729.547 215.034 750.121 202.17C770.695 189.307 788.621 187.268 795.766 198.708C802.911 210.148 789.635 234.055 769.061 246.919Z" fill="#94B0D7"/>
</g>
<path fill-rule="evenodd" clip-rule="evenodd" d="M636.857 330.796C637.527 327.739 638.536 325.465 637.527 321.338C636.518 317.211 624.911 314.872 623.447 316.193C621.983 317.515 622.221 318.223 616.419 321.304C610.618 324.385 593.989 327.968 590.43 331.965C586.871 335.962 586.209 338.605 593.606 338.605C597.083 338.605 612.309 338.605 616.487 338.605C620.594 337.116 621.975 336.314 624.277 334.937C624.747 336.663 624.277 338.133 624.277 338.133H634.131C634.131 338.133 636.186 333.853 636.857 330.796Z" fill="url(#paint11_linear_560_7254)"/>
<mask id="mask1_560_7254" style="mask-type:luminance" maskUnits="userSpaceOnUse" x="587" y="315" width="51" height="24">
<path fill-rule="evenodd" clip-rule="evenodd" d="M636.857 330.796C637.527 327.739 638.536 325.465 637.527 321.338C636.518 317.211 624.911 314.872 623.447 316.193C621.983 317.515 622.221 318.223 616.419 321.304C610.618 324.385 593.989 327.968 590.43 331.965C586.871 335.962 586.209 338.605 593.606 338.605C597.083 338.605 612.309 338.605 616.487 338.605C620.594 337.116 621.975 336.314 624.277 334.937C624.747 336.663 624.277 338.133 624.277 338.133H634.131C634.131 338.133 636.186 333.853 636.857 330.796Z" fill="white"/>
</mask>
<g mask="url(#mask1_560_7254)">
<g opacity="0.2">
<path fill-rule="evenodd" clip-rule="evenodd" d="M636.832 335.816C634.709 330.346 626.435 320.142 624.038 316.821C621.64 313.5 639.923 320.735 639.923 320.735C639.923 320.735 638.955 341.286 636.832 335.816Z" fill="#3D82F0" style="mix-blend-mode:multiply"/>
</g>
</g>
<path fill-rule="evenodd" clip-rule="evenodd" d="M617.566 247.739C619.749 245.678 621.778 244.42 623.206 240.605C624.634 236.791 616.681 228.681 614.805 228.939C612.928 229.197 612.735 229.886 606.465 229.201C600.195 228.515 588.98 220.89 583.995 222.138C579.011 223.387 574.536 223.413 580.41 227.4C583.17 229.274 593.858 240.696 597.176 242.948C601.24 243.982 602.77 244.091 605.342 244.24C604.782 245.861 603.615 246.773 603.615 246.773L611.439 252.085C611.439 252.085 615.382 249.8 617.566 247.739Z" fill="url(#paint12_linear_560_7254)"/>
<mask id="mask2_560_7254" style="mask-type:luminance" maskUnits="userSpaceOnUse" x="577" y="222" width="47" height="31">
<path fill-rule="evenodd" clip-rule="evenodd" d="M617.566 247.739C619.749 245.678 621.778 244.42 623.206 240.605C624.634 236.791 616.681 228.681 614.805 228.939C612.928 229.197 612.735 229.886 606.465 229.201C600.195 228.515 588.98 220.89 583.995 222.138C579.011 223.387 574.536 223.413 580.41 227.4C583.17 229.274 593.858 240.696 597.176 242.948C601.24 243.982 602.77 244.091 605.342 244.24C604.782 245.861 603.615 246.773 603.615 246.773L611.439 252.085C611.439 252.085 615.382 249.8 617.566 247.739Z" fill="white"/>
</mask>
<g mask="url(#mask2_560_7254)">
<g opacity="0.2">
<path fill-rule="evenodd" clip-rule="evenodd" d="M614.335 251.28C617.62 244.474 614.237 229.12 615.735 227.76C617.233 226.4 624.56 238.748 624.56 238.748C624.56 238.748 628.045 242.205 622.445 247.373C616.845 252.542 611.05 258.085 614.335 251.28Z" fill="#617FC8" style="mix-blend-mode:multiply"/>
</g>
</g>
<g filter="url(#filter1_i_560_7254)">
<path fill-rule="evenodd" clip-rule="evenodd" d="M759.609 172.238C744.37 164.124 735.687 140.437 729.393 133.776C723.099 127.116 720.32 139.859 721.361 143.61C722.401 147.362 730.071 172.577 746.082 192.941C746.082 206.244 761.577 182.912 759.609 172.238Z" fill="url(#paint13_linear_560_7254)"/>
</g>
<path fill-rule="evenodd" clip-rule="evenodd" d="M766.127 145.36C766.127 145.36 730.008 131.076 725.125 132.02C720.242 132.964 734.836 149.61 737.822 150.953C740.808 152.296 744.866 155.573 749.357 155.689C753.848 155.806 764.17 158.03 764.17 158.03L766.127 145.36Z" fill="url(#paint14_linear_560_7254)"/>
<g filter="url(#filter2_i_560_7254)">
<path fill-rule="evenodd" clip-rule="evenodd" d="M757.209 252.42C752.771 246.433 741.905 233.943 718.515 229.394C695.124 224.844 673.641 220.596 634.21 232.326C630.963 270.398 627.264 308.73 623.53 316.493C626.378 319.958 636.665 322.606 642.701 322.606C644.89 314.034 651.751 293.383 655.236 283.169C658.722 272.954 659.958 260.275 659.284 255.804C671.167 259.18 695.509 269.442 704.043 272.481C712.577 275.521 741.858 285.158 751.55 277.4C761.242 269.641 761.647 258.408 757.209 252.42Z" fill="url(#paint15_linear_560_7254)"/>
</g>
<mask id="mask3_560_7254" style="mask-type:luminance" maskUnits="userSpaceOnUse" x="623" y="224" width="137" height="99">
<path fill-rule="evenodd" clip-rule="evenodd" d="M757.209 252.42C752.771 246.433 741.905 233.943 718.515 229.394C695.124 224.844 673.641 220.596 634.21 232.326C630.963 270.398 627.264 308.73 623.53 316.493C626.378 319.958 636.665 322.606 642.701 322.606C644.89 314.034 651.751 293.383 655.236 283.169C658.722 272.954 659.958 260.275 659.284 255.804C671.167 259.18 695.509 269.442 704.043 272.481C712.577 275.521 741.858 285.158 751.55 277.4C761.242 269.641 761.647 258.408 757.209 252.42Z" fill="white"/>
</mask>
<g mask="url(#mask3_560_7254)">
<g opacity="0.3">
<path fill-rule="evenodd" clip-rule="evenodd" d="M676.585 262.75C676.585 257.445 663.151 229.443 659.553 226.449C655.956 223.456 666.639 223.901 666.639 223.901C666.639 223.901 690.978 249.162 694.174 262.75C697.37 276.339 676.585 268.056 676.585 262.75Z" fill="url(#paint16_linear_560_7254)" style="mix-blend-mode:multiply"/>
</g>
</g>
<path fill-rule="evenodd" clip-rule="evenodd" d="M786.486 175.504C787.662 169.603 789.931 159.261 790.385 157.051C790.838 154.841 768.888 162.475 768.888 162.475L766.128 176.942L762.969 201.41C762.969 201.41 785.309 181.404 786.486 175.504Z" fill="url(#paint17_linear_560_7254)"/>
<mask id="mask4_560_7254" style="mask-type:luminance" maskUnits="userSpaceOnUse" x="762" y="156" width="29" height="46">
<path fill-rule="evenodd" clip-rule="evenodd" d="M786.486 175.504C787.662 169.603 789.931 159.261 790.385 157.051C790.838 154.841 768.888 162.475 768.888 162.475L766.128 176.942L762.969 201.41C762.969 201.41 785.309 181.404 786.486 175.504Z" fill="white"/>
</mask>
<g mask="url(#mask4_560_7254)">
<g opacity="0.2">
<path fill-rule="evenodd" clip-rule="evenodd" d="M789.187 157.666C789.187 159.888 780.858 169.387 776.358 171.991C771.858 174.595 763.751 174.353 763.751 174.353L764.986 161.562L789.187 155.451C789.187 155.451 789.187 155.445 789.187 157.666Z" fill="#7890CB" style="mix-blend-mode:multiply"/>
</g>
</g>
<path fill-rule="evenodd" clip-rule="evenodd" d="M767.345 170.465C767.345 170.465 759.011 171.821 758.437 172.864C753.017 176.8 747.803 188.516 745.576 194.586C743.35 200.655 739.081 206.923 735.232 211.796C731.383 216.67 729.537 217.675 724.494 221.281C719.451 224.887 717.599 227.747 720.453 230.435C723.307 233.124 739.741 232.08 751.44 246.697C761.66 250.887 761.647 252.419 764.684 243.366C767.72 234.312 792.688 211.677 796.738 208.486C800.788 205.295 799.223 202.23 800.244 192.457C801.265 182.685 808.628 174.761 802.435 174.761C797.554 176.578 792.8 172.864 790.654 172.864C782.835 174.81 781.055 182.506 777.809 180.892C774.563 179.278 772.485 179.278 772.485 179.278C771.728 180.815 771.484 183.446 770.727 184.983C769.97 186.519 766.801 189.601 765.393 192.457L767.882 184.144L767.188 179.174L767.345 170.465Z" fill="white"/>
<path fill-rule="evenodd" clip-rule="evenodd" d="M767.345 170.465C767.345 170.465 759.011 171.821 758.437 172.864C753.017 176.8 747.803 188.516 745.576 194.586C743.35 200.655 739.081 206.923 735.232 211.796C731.383 216.67 729.537 217.675 724.494 221.281C719.451 224.887 717.599 227.747 720.453 230.435C723.307 233.124 739.741 232.08 751.44 246.697C761.66 250.887 761.647 252.419 764.684 243.366C767.72 234.312 792.688 211.677 796.738 208.486C800.788 205.295 799.223 202.23 800.244 192.457C801.265 182.685 808.628 174.761 802.435 174.761C797.554 176.578 792.8 172.864 790.654 172.864C782.835 174.81 781.055 182.506 777.809 180.892C774.563 179.278 772.485 179.278 772.485 179.278C771.728 180.815 771.484 183.446 770.727 184.983C769.97 186.519 766.801 189.601 765.393 192.457L767.882 184.144L767.188 179.174L767.345 170.465Z" fill="url(#paint18_linear_560_7254)"/>
<mask id="mask5_560_7254" style="mask-type:luminance" maskUnits="userSpaceOnUse" x="719" y="170" width="86" height="81">
<path fill-rule="evenodd" clip-rule="evenodd" d="M767.345 170.465C767.345 170.465 759.011 171.821 758.437 172.864C753.017 176.8 747.803 188.516 745.576 194.586C743.35 200.655 739.081 206.923 735.232 211.796C731.383 216.67 729.537 217.675 724.494 221.281C719.451 224.887 717.599 227.747 720.453 230.435C723.307 233.124 739.741 232.08 751.44 246.697C761.66 250.887 761.647 252.419 764.684 243.366C767.72 234.312 792.688 211.677 796.738 208.486C800.788 205.295 799.223 202.23 800.244 192.457C801.265 182.685 808.628 174.761 802.435 174.761C797.554 176.578 792.8 172.864 790.654 172.864C782.835 174.81 781.055 182.506 777.809 180.892C774.563 179.278 772.485 179.278 772.485 179.278C771.728 180.815 771.484 183.446 770.727 184.983C769.97 186.519 766.801 189.601 765.393 192.457L767.882 184.144L767.188 179.174L767.345 170.465Z" fill="white"/>
<path fill-rule="evenodd" clip-rule="evenodd" d="M767.345 170.465C767.345 170.465 759.011 171.821 758.437 172.864C753.017 176.8 747.803 188.516 745.576 194.586C743.35 200.655 739.081 206.923 735.232 211.796C731.383 216.67 729.537 217.675 724.494 221.281C719.451 224.887 717.599 227.747 720.453 230.435C723.307 233.124 739.741 232.08 751.44 246.697C761.66 250.887 761.647 252.419 764.684 243.366C767.72 234.312 792.688 211.677 796.738 208.486C800.788 205.295 799.223 202.23 800.244 192.457C801.265 182.685 808.628 174.761 802.435 174.761C797.554 176.578 792.8 172.864 790.654 172.864C782.835 174.81 781.055 182.506 777.809 180.892C774.563 179.278 772.485 179.278 772.485 179.278C771.728 180.815 771.484 183.446 770.727 184.983C769.97 186.519 766.801 189.601 765.393 192.457L767.882 184.144L767.188 179.174L767.345 170.465Z" stroke="white"/>
</mask>
<g mask="url(#mask5_560_7254)">
<g opacity="0.6">
<mask id="path-35-outside-1_560_7254" maskUnits="userSpaceOnUse" x="727.139" y="190.387" width="44" height="45" fill="black">
<rect fill="white" x="727.139" y="190.387" width="44" height="45"/>
<path fill-rule="evenodd" clip-rule="evenodd" d="M766.8 192.404C766.063 193.881 758.001 208.005 756.288 210.036C754.576 212.067 748.96 217.726 746.795 219.869C744.629 222.011 731.355 230.447 731.197 233.092"/>
</mask>
<path fill-rule="evenodd" clip-rule="evenodd" d="M766.8 192.404C766.063 193.881 758.001 208.005 756.288 210.036C754.576 212.067 748.96 217.726 746.795 219.869C744.629 222.011 731.355 230.447 731.197 233.092" fill="black" fill-opacity="0.01"/>
<path d="M756.288 210.036L759.346 212.615L759.346 212.615L756.288 210.036ZM746.795 219.869L743.981 217.025L743.981 217.025L746.795 219.869ZM770.379 194.189C769.938 195.073 767.661 199.103 765.363 203.031C764.195 205.029 762.985 207.062 761.953 208.733C760.996 210.283 760.006 211.832 759.346 212.615L753.231 207.457C753.228 207.46 753.244 207.442 753.281 207.393C753.316 207.346 753.363 207.282 753.422 207.199C753.541 207.033 753.688 206.817 753.865 206.549C754.219 206.014 754.653 205.329 755.146 204.53C756.131 202.936 757.304 200.964 758.457 198.993C760.803 194.982 762.925 191.211 763.22 190.619L770.379 194.189ZM759.346 212.615C757.49 214.815 751.725 220.618 749.608 222.712L743.981 217.025C746.196 214.835 751.661 209.318 753.231 207.457L759.346 212.615ZM749.608 222.712C748.802 223.51 747.267 224.644 745.826 225.697C744.233 226.86 742.422 228.158 740.643 229.492C738.859 230.83 737.251 232.101 736.105 233.155C735.525 233.689 735.163 234.077 734.973 234.319C734.639 234.745 735.131 234.321 735.19 233.33L727.204 232.855C727.303 231.202 728.244 229.936 728.675 229.386C729.249 228.653 729.968 227.931 730.688 227.268C732.143 225.93 734.018 224.461 735.842 223.092C737.673 221.719 739.596 220.34 741.106 219.237C742.768 218.023 743.705 217.299 743.981 217.025L749.608 222.712Z" fill="#D9E8FF" mask="url(#path-35-outside-1_560_7254)"/>
</g>
<path opacity="0.3" fill-rule="evenodd" clip-rule="evenodd" d="M777.004 189.754C777.004 189.754 773.304 183.024 771.149 183.024C768.994 183.024 771.903 176.479 771.903 176.479L778.623 181.561L777.004 189.754Z" fill="#CCDFFD"/>
</g>
<path fill-rule="evenodd" clip-rule="evenodd" d="M721.389 226.737C709.106 215.462 673.948 193.641 653.899 190.309C642.413 192.219 612.523 224.616 612.523 224.616C613.871 226.036 617.424 238.628 623.035 242.586C637.166 230.856 651.899 225.378 655.855 219.313C660.79 222.317 673.475 231.089 680.771 243.978C688.067 256.866 692.907 271.549 701.222 271.917C709.536 272.284 721.262 273.234 732.063 266.284C738.336 262.248 756.397 253.251 747.623 247.356C742.595 243.978 726.538 231.463 721.389 226.737Z" fill="url(#paint19_linear_560_7254)"/>
<path fill-rule="evenodd" clip-rule="evenodd" d="M769.267 132.64C768.436 134.739 763.871 143.954 763.431 146.25C762.992 148.547 758.648 163.868 761.235 166.228C763.823 168.587 771.582 169.782 773.751 169.026C775.919 168.271 780.581 167.787 782.397 164.6C783.793 162.151 788.226 156.466 789.389 156.791C789.814 157.664 791.295 158.597 792.037 157.998C795.241 155.408 797.987 152.603 796.684 146.25C795.38 139.898 790.809 136.764 785.908 134.702C781.007 132.64 770.099 130.54 769.267 132.64Z" fill="url(#paint20_linear_560_7254)"/>
<path fill-rule="evenodd" clip-rule="evenodd" d="M825.291 167.878C819.354 170.282 800.128 160.714 794.026 161.563C788.418 162.344 795.534 153.573 797.64 152.021C799.747 150.469 841.86 151.173 844.07 154.412C846.281 157.651 830.215 165.884 825.291 167.878Z" fill="url(#paint21_linear_560_7254)"/>
<mask id="mask6_560_7254" style="mask-type:luminance" maskUnits="userSpaceOnUse" x="791" y="151" width="54" height="18">
<path fill-rule="evenodd" clip-rule="evenodd" d="M825.291 167.878C819.354 170.282 800.128 160.714 794.026 161.563C788.418 162.344 795.534 153.573 797.64 152.021C799.747 150.469 841.86 151.173 844.07 154.412C846.281 157.651 830.215 165.884 825.291 167.878Z" fill="white"/>
</mask>
<g mask="url(#mask6_560_7254)">
<path opacity="0.5" fill-rule="evenodd" clip-rule="evenodd" d="M836.981 154.714C835.733 155.168 810.412 166.202 804.147 164.674C797.882 163.146 819.759 170.452 819.759 170.452C819.759 170.452 838.23 154.26 836.981 154.714Z" fill="#6B84C2"/>
</g>
<g filter="url(#filter3_i_560_7254)">
<path fill-rule="evenodd" clip-rule="evenodd" d="M786.825 146.285C786.825 146.285 789.69 141.931 787.475 137.613C785.26 133.295 773.566 139.054 764.095 128.408C754.625 117.761 763.04 103.393 772.776 106.195C782.512 108.997 780.125 114.017 778.36 117.761C776.595 121.505 785.676 122.911 792.171 125.547C798.665 128.183 803.966 135.274 802.821 146.285C801.677 157.295 791.462 166.311 788.211 167.969C789.157 161.463 789.199 158.473 789.199 156.661C792.928 158.384 797.271 149.839 794.742 147.591C789.912 143.297 787.475 153.078 787.475 153.078C787.475 153.078 786.825 151.685 785.676 150.365C786.114 148.01 786.825 146.285 786.825 146.285Z" fill="url(#paint22_linear_560_7254)"/>
</g>
<path fill-rule="evenodd" clip-rule="evenodd" d="M767.143 178.941C764.178 179.994 763.61 185.471 763.101 187.015C762.592 188.56 765.238 174.91 765.238 174.91C766.169 176.194 768.16 167.477 767.786 168.756C766.779 172.193 767.623 176.087 767.143 178.941Z" fill="#CCDFFD"/>
<path fill-rule="evenodd" clip-rule="evenodd" d="M776.817 192.74C776.817 187.889 774.889 181.528 772.508 179.258C775.961 179.472 786.118 173.403 787.202 170.02C788.286 166.637 788.488 166.154 788.488 166.154C788.488 166.154 790.579 170.2 790.579 172.766C789.099 178.333 782.499 187.997 776.817 192.74Z" fill="url(#paint23_linear_560_7254)"/>
<g filter="url(#filter4_i_560_7254)">
<path fill-rule="evenodd" clip-rule="evenodd" d="M806.498 173.428C816.526 167.916 836.558 152.243 841.824 153.522C847.089 154.801 845.723 157.178 845.723 162.628C845.723 168.079 818.205 186.485 813.968 195.593C812.155 199.491 807.508 209.122 799.191 207.553C790.873 205.984 793.396 197.719 795.189 191.053C797.296 183.217 800.323 176.823 806.498 173.428Z" fill="url(#paint24_linear_560_7254)"/>
</g>
<path fill-rule="evenodd" clip-rule="evenodd" d="M779.535 146.483C777.78 146.95 775.586 146.608 774.413 145.328L779.535 146.483Z" fill="black" fill-opacity="0.01"/>
<path d="M779.535 146.483C777.78 146.95 775.586 146.608 774.413 145.328" stroke="#143B8C" stroke-linecap="round"/>
<path fill-rule="evenodd" clip-rule="evenodd" d="M765.453 142.752C763.937 143.219 762.042 142.878 761.029 141.597L765.453 142.752Z" fill="black" fill-opacity="0.01"/>
<path d="M765.453 142.752C763.937 143.219 762.042 142.878 761.029 141.597" stroke="#143B8C" stroke-linecap="round"/>
<path fill-rule="evenodd" clip-rule="evenodd" d="M783.414 143.732L781.529 152.059L771.025 149.538L772.608 140.865L783.414 143.732Z" fill="black" fill-opacity="0.01" stroke="#143B8C"/>
<path fill-rule="evenodd" clip-rule="evenodd" d="M768.065 139.477L766.354 147.986L758.49 145.73L759.925 137.215L768.065 139.477Z" fill="black" fill-opacity="0.01" stroke="#143B8C"/>
<path fill-rule="evenodd" clip-rule="evenodd" d="M783.626 144.781L789.819 146.476L788.784 148.543L782.091 150.123L783.626 144.781Z" fill="#143B8C"/>
<path fill-rule="evenodd" clip-rule="evenodd" d="M772.259 143.491L767.534 142.035L767.014 144.53L771.92 145.898L772.259 143.491Z" fill="#143B8C"/>
<path fill-rule="evenodd" clip-rule="evenodd" d="M779.431 267.035C733.545 295.709 686.155 298.842 670.22 273.342C651.084 236.168 716.701 252.252 762.588 223.579C808.474 194.906 807.34 170.973 838.991 159.574C854.925 185.075 825.318 238.362 779.431 267.035Z" fill="black" fill-opacity="0.01"/>
<mask id="mask7_560_7254" style="mask-type:luminance" maskUnits="userSpaceOnUse" x="666" y="159" width="178" height="132">
<path fill-rule="evenodd" clip-rule="evenodd" d="M779.431 267.035C733.545 295.709 686.155 298.842 670.22 273.342C651.084 236.168 716.701 252.252 762.588 223.579C808.474 194.906 807.34 170.973 838.991 159.574C854.925 185.075 825.318 238.362 779.431 267.035Z" fill="white"/>
</mask>
<g mask="url(#mask7_560_7254)">
<g filter="url(#filter5_i_560_7254)">
<path fill-rule="evenodd" clip-rule="evenodd" d="M861.513 230.839C837.562 246.392 810.127 246.651 800.234 231.417C790.341 216.183 801.736 191.225 825.687 175.672C849.637 160.118 877.073 159.859 886.966 175.093C896.859 190.327 885.463 215.285 861.513 230.839Z" fill="#EEF5FF"/>
</g>
<g filter="url(#filter6_i_560_7254)">
<path fill-rule="evenodd" clip-rule="evenodd" d="M777.489 292.833C759.839 284.602 754.351 259.012 765.233 235.676C776.115 212.34 799.245 200.094 816.896 208.325C834.547 216.555 840.034 242.145 829.152 265.482C818.27 288.818 795.14 301.063 777.489 292.833Z" fill="#EEF5FF"/>
</g>
<g filter="url(#filter7_i_560_7254)">
<path fill-rule="evenodd" clip-rule="evenodd" d="M731.715 332.164C714.064 323.934 708.577 298.344 719.459 275.008C730.341 251.672 753.471 239.426 771.121 247.657C788.772 255.887 794.259 281.477 783.377 304.814C772.496 328.15 749.366 340.395 731.715 332.164Z" fill="#EEF5FF"/>
</g>
<g filter="url(#filter8_i_560_7254)">
<path fill-rule="evenodd" clip-rule="evenodd" d="M646.27 345.388C628.619 337.157 623.132 311.567 634.014 288.231C644.895 264.895 668.026 252.65 685.676 260.88C703.327 269.111 708.814 294.701 697.932 318.037C687.05 341.373 663.92 353.618 646.27 345.388Z" fill="#EEF5FF"/>
</g>
<g filter="url(#filter9_i_560_7254)">
<path fill-rule="evenodd" clip-rule="evenodd" d="M706.729 319.527C687.399 321.901 670.258 311.846 668.443 297.069C666.629 282.292 680.828 268.389 700.159 266.016C719.489 263.642 736.63 273.697 738.444 288.474C740.258 303.251 726.059 317.154 706.729 319.527Z" fill="#EEF5FF"/>
</g>
</g>
<path fill-rule="evenodd" clip-rule="evenodd" d="M759.914 194.286C759.914 194.286 751.889 192.768 750.926 191.689C749.964 190.61 744.529 203.08 744.529 203.08L747.168 206.076H753.458L759.914 194.286Z" fill="url(#paint25_linear_560_7254)"/>
<path opacity="0.2" fill-rule="evenodd" clip-rule="evenodd" d="M852.245 331.082C838.762 331.082 827.832 333.435 827.832 336.337C827.832 339.24 838.762 341.593 852.245 341.593C865.728 341.593 876.658 339.24 876.658 336.337C876.658 333.435 865.728 331.082 852.245 331.082Z" fill="#BBCFF2"/>
<path fill-rule="evenodd" clip-rule="evenodd" d="M829.542 310.524C828.011 313.206 827.154 316.211 827.154 319.384C827.154 330.713 838.084 339.897 851.567 339.897C865.05 339.897 875.98 330.713 875.98 319.384C875.98 316.026 875.02 312.856 873.318 310.059C862.503 311.771 840.977 311.661 829.542 310.524Z" fill="url(#paint26_linear_560_7254)"/>
<mask id="mask8_560_7254" style="mask-type:luminance" maskUnits="userSpaceOnUse" x="827" y="310" width="49" height="30">
<path fill-rule="evenodd" clip-rule="evenodd" d="M829.542 310.524C828.011 313.206 827.154 316.211 827.154 319.384C827.154 330.713 838.084 339.897 851.567 339.897C865.05 339.897 875.98 330.713 875.98 319.384C875.98 316.026 875.02 312.856 873.318 310.059C862.503 311.771 840.977 311.661 829.542 310.524Z" fill="white"/>
</mask>
<g mask="url(#mask8_560_7254)">
</g>
<path fill-rule="evenodd" clip-rule="evenodd" d="M851.398 305.991C839.132 305.991 829.189 308.344 829.189 311.246C829.189 314.149 839.132 316.502 851.398 316.502C863.663 316.502 873.607 314.149 873.607 311.246C873.607 308.344 863.663 305.991 851.398 305.991Z" fill="url(#paint27_linear_560_7254)"/>
<mask id="mask9_560_7254" style="mask-type:luminance" maskUnits="userSpaceOnUse" x="829" y="305" width="45" height="12">
<path fill-rule="evenodd" clip-rule="evenodd" d="M851.398 305.991C839.132 305.991 829.189 308.344 829.189 311.246C829.189 314.149 839.132 316.502 851.398 316.502C863.663 316.502 873.607 314.149 873.607 311.246C873.607 308.344 863.663 305.991 851.398 305.991Z" fill="white"/>
</mask>
<g mask="url(#mask9_560_7254)">
</g>
<g filter="url(#filter10_i_560_7254)">
<path fill-rule="evenodd" clip-rule="evenodd" d="M853.262 306.666C854.475 298.272 857.812 286.152 867.842 273.098C873.751 265.408 873.77 246.681 874.624 244.616C869.987 246.21 861.658 250.32 853.262 261.908C844.461 274.056 850.044 298.83 853.262 306.666Z" fill="url(#paint28_linear_560_7254)"/>
</g>
<mask id="mask10_560_7254" style="mask-type:luminance" maskUnits="userSpaceOnUse" x="848" y="244" width="27" height="63">
<path fill-rule="evenodd" clip-rule="evenodd" d="M853.262 306.666C854.475 298.272 857.812 286.152 867.842 273.098C873.751 265.408 873.77 246.681 874.624 244.616C869.987 246.21 861.658 250.32 853.262 261.908C844.461 274.056 850.044 298.83 853.262 306.666Z" fill="white"/>
</mask>
<g mask="url(#mask10_560_7254)">
<g style="mix-blend-mode:multiply" opacity="0.5">
<path d="M855.114 292.253L859.552 271.252C857.009 277.392 855.598 284.123 855.114 292.253Z" fill="black" fill-opacity="0.01"/>
<path d="M855.114 292.253L859.552 271.252C857.009 277.392 855.598 284.123 855.114 292.253Z" stroke="#489C71" stroke-width="3"/>
</g>
</g>
<g filter="url(#filter11_i_560_7254)">
<path fill-rule="evenodd" clip-rule="evenodd" d="M853.225 315.282C856.972 309.289 863.592 301.167 875.635 294.581C882.729 290.702 889.039 276.427 890.384 275.139C886.31 274.797 878.573 275.133 868.271 281.15C857.471 287.457 853.403 308.225 853.225 315.282Z" fill="url(#paint29_linear_560_7254)"/>
</g>
<mask id="mask11_560_7254" style="mask-type:luminance" maskUnits="userSpaceOnUse" x="853" y="275" width="38" height="41">
<path fill-rule="evenodd" clip-rule="evenodd" d="M853.225 315.282C856.972 309.289 863.592 301.167 875.635 294.581C882.729 290.702 889.039 276.427 890.384 275.139C886.31 274.797 878.573 275.133 868.271 281.15C857.471 287.457 853.403 308.225 853.225 315.282Z" fill="white"/>
</mask>
<g mask="url(#mask11_560_7254)">
<g style="mix-blend-mode:multiply" opacity="0.5">
<path d="M861.666 301.45L867.72 293.033C865.535 295.478 863.545 298.247 861.666 301.45Z" fill="black" fill-opacity="0.01"/>
<path d="M861.666 301.45L867.72 293.033C865.535 295.478 863.545 298.247 861.666 301.45Z" stroke="#489C71" stroke-width="3"/>
</g>
</g>
<g filter="url(#filter12_i_560_7254)">
<path fill-rule="evenodd" clip-rule="evenodd" d="M850.534 316.103C847.579 309.652 842.039 300.711 830.899 292.601C824.336 287.823 819.904 272.796 818.731 271.34C822.833 271.525 830.496 272.857 839.977 280.177C849.915 287.85 851.272 309.054 850.534 316.103Z" fill="url(#paint30_linear_560_7254)"/>
</g>
<mask id="mask12_560_7254" style="mask-type:luminance" maskUnits="userSpaceOnUse" x="818" y="271" width="33" height="46">
<path fill-rule="evenodd" clip-rule="evenodd" d="M850.534 316.103C847.579 309.652 842.039 300.711 830.899 292.601C824.336 287.823 819.904 272.796 818.731 271.34C822.833 271.525 830.496 272.857 839.977 280.177C849.915 287.85 851.272 309.054 850.534 316.103Z" fill="white"/>
</mask>
<g mask="url(#mask12_560_7254)">
<g style="mix-blend-mode:multiply" opacity="0.5">
<path d="M840.047 291.873L845.117 301.282C843.627 297.746 841.962 294.654 840.047 291.873Z" fill="black" fill-opacity="0.01"/>
<path d="M840.047 291.873L845.117 301.282C843.627 297.746 841.962 294.654 840.047 291.873Z" stroke="#489C71" stroke-width="3"/>
</g>
</g>
<g opacity="0.6">
<path fill-rule="evenodd" clip-rule="evenodd" d="M858.349 61.1843C846.738 61.1843 837.326 70.5963 837.326 82.2066C837.326 93.8169 846.738 103.229 858.349 103.229C869.959 103.229 879.371 93.8169 879.371 82.2066C879.371 70.5963 869.959 61.1843 858.349 61.1843Z" fill="url(#paint31_linear_560_7254)"/>
<mask id="mask13_560_7254" style="mask-type:luminance" maskUnits="userSpaceOnUse" x="837" y="61" width="43" height="43">
<path fill-rule="evenodd" clip-rule="evenodd" d="M858.349 61.1843C846.738 61.1843 837.326 70.5963 837.326 82.2066C837.326 93.8169 846.738 103.229 858.349 103.229C869.959 103.229 879.371 93.8169 879.371 82.2066C879.371 70.5963 869.959 61.1843 858.349 61.1843Z" fill="white"/>
</mask>
<g mask="url(#mask13_560_7254)">
</g>
<mask id="path-79-inside-2_560_7254" fill="white">
<path fill-rule="evenodd" clip-rule="evenodd" d="M858.092 67.8497V82.9755L851.17 89.8974"/>
</mask>
<path d="M852.092 67.8497C852.092 64.536 854.778 61.8497 858.092 61.8497C861.406 61.8497 864.092 64.536 864.092 67.8497H852.092ZM858.092 82.9755H864.092C864.092 84.5668 863.46 86.0929 862.335 87.2181L858.092 82.9755ZM855.413 94.1401C853.07 96.4832 849.271 96.4832 846.927 94.1401C844.584 91.7969 844.584 87.9979 846.927 85.6548L855.413 94.1401ZM864.092 67.8497V82.9755H852.092V67.8497H864.092ZM862.335 87.2181L855.413 94.1401L846.927 85.6548L853.849 78.7328L862.335 87.2181Z" fill="white" mask="url(#path-79-inside-2_560_7254)"/>
</g>
<defs>
<filter id="filter0_f_560_7254" x="618.598" y="91.227" width="279.101" height="266.271" filterUnits="userSpaceOnUse" color-interpolation-filters="sRGB">
<feFlood flood-opacity="0" result="BackgroundImageFix"/>
<feBlend mode="normal" in="SourceGraphic" in2="BackgroundImageFix" result="shape"/>
<feGaussianBlur stdDeviation="49.9909" result="effect1_foregroundBlur_560_7254"/>
</filter>
<filter id="filter1_i_560_7254" x="721.147" y="131.881" width="38.6343" height="66.0507" filterUnits="userSpaceOnUse" color-interpolation-filters="sRGB">
<feFlood flood-opacity="0" result="BackgroundImageFix"/>
<feBlend mode="normal" in="SourceGraphic" in2="BackgroundImageFix" result="shape"/>
<feColorMatrix in="SourceAlpha" type="matrix" values="0 0 0 0 0 0 0 0 0 0 0 0 0 0 0 0 0 0 127 0" result="hardAlpha"/>
<feOffset dy="1"/>
<feGaussianBlur stdDeviation="6"/>
<feComposite in2="hardAlpha" operator="arithmetic" k2="-1" k3="1"/>
<feColorMatrix type="matrix" values="0 0 0 0 0.898039 0 0 0 0 0.941176 0 0 0 0 1 0 0 0 1 0"/>
<feBlend mode="normal" in2="shape" result="effect1_innerShadow_560_7254"/>
</filter>
<filter id="filter2_i_560_7254" x="623.53" y="224.745" width="152.398" height="101.861" filterUnits="userSpaceOnUse" color-interpolation-filters="sRGB">
<feFlood flood-opacity="0" result="BackgroundImageFix"/>
<feBlend mode="normal" in="SourceGraphic" in2="BackgroundImageFix" result="shape"/>
<feColorMatrix in="SourceAlpha" type="matrix" values="0 0 0 0 0 0 0 0 0 0 0 0 0 0 0 0 0 0 127 0" result="hardAlpha"/>
<feOffset dx="16" dy="4"/>
<feGaussianBlur stdDeviation="14"/>
<feComposite in2="hardAlpha" operator="arithmetic" k2="-1" k3="1"/>
<feColorMatrix type="matrix" values="0 0 0 0 0.103708 0 0 0 0 0.317385 0 0 0 0 0.809604 0 0 0 1 0"/>
<feBlend mode="normal" in2="shape" result="effect1_innerShadow_560_7254"/>
</filter>
<filter id="filter3_i_560_7254" x="759.95" y="105.84" width="56.0271" height="74.1293" filterUnits="userSpaceOnUse" color-interpolation-filters="sRGB">
<feFlood flood-opacity="0" result="BackgroundImageFix"/>
<feBlend mode="normal" in="SourceGraphic" in2="BackgroundImageFix" result="shape"/>
<feColorMatrix in="SourceAlpha" type="matrix" values="0 0 0 0 0 0 0 0 0 0 0 0 0 0 0 0 0 0 127 0" result="hardAlpha"/>
<feOffset dx="13" dy="12"/>
<feGaussianBlur stdDeviation="9"/>
<feComposite in2="hardAlpha" operator="arithmetic" k2="-1" k3="1"/>
<feColorMatrix type="matrix" values="0 0 0 0 0 0 0 0 0 0 0 0 0 0 0 0 0 0 0.139889 0"/>
<feBlend mode="normal" in2="shape" result="effect1_innerShadow_560_7254"/>
</filter>
<filter id="filter4_i_560_7254" x="793.378" y="145.448" width="64.5044" height="62.276" filterUnits="userSpaceOnUse" color-interpolation-filters="sRGB">
<feFlood flood-opacity="0" result="BackgroundImageFix"/>
<feBlend mode="normal" in="SourceGraphic" in2="BackgroundImageFix" result="shape"/>
<feColorMatrix in="SourceAlpha" type="matrix" values="0 0 0 0 0 0 0 0 0 0 0 0 0 0 0 0 0 0 127 0" result="hardAlpha"/>
<feOffset dx="18" dy="-8"/>
<feGaussianBlur stdDeviation="6"/>
<feComposite in2="hardAlpha" operator="arithmetic" k2="-1" k3="1"/>
<feColorMatrix type="matrix" values="0 0 0 0 0.898039 0 0 0 0 0.941176 0 0 0 0 1 0 0 0 1 0"/>
<feBlend mode="normal" in2="shape" result="effect1_innerShadow_560_7254"/>
</filter>
<filter id="filter5_i_560_7254" x="775.667" y="142.835" width="114.865" height="99.8407" filterUnits="userSpaceOnUse" color-interpolation-filters="sRGB">
<feFlood flood-opacity="0" result="BackgroundImageFix"/>
<feBlend mode="normal" in="SourceGraphic" in2="BackgroundImageFix" result="shape"/>
<feColorMatrix in="SourceAlpha" type="matrix" values="0 0 0 0 0 0 0 0 0 0 0 0 0 0 0 0 0 0 127 0" result="hardAlpha"/>
<feOffset dx="-27.5" dy="-39.3"/>
<feGaussianBlur stdDeviation="10.5"/>
<feComposite in2="hardAlpha" operator="arithmetic" k2="-1" k3="1"/>
<feColorMatrix type="matrix" values="0 0 0 0 0.580392 0 0 0 0 0.67451 0 0 0 0 0.854902 0 0 0 0.43 0"/>
<feBlend mode="normal" in2="shape" result="effect1_innerShadow_560_7254"/>
</filter>
<filter id="filter6_i_560_7254" x="744.743" y="184.762" width="90.0001" height="110.634" filterUnits="userSpaceOnUse" color-interpolation-filters="sRGB">
<feFlood flood-opacity="0" result="BackgroundImageFix"/>
<feBlend mode="normal" in="SourceGraphic" in2="BackgroundImageFix" result="shape"/>
<feColorMatrix in="SourceAlpha" type="matrix" values="0 0 0 0 0 0 0 0 0 0 0 0 0 0 0 0 0 0 127 0" result="hardAlpha"/>
<feOffset dx="-14.9" dy="-24.9"/>
<feGaussianBlur stdDeviation="10.5"/>
<feComposite in2="hardAlpha" operator="arithmetic" k2="-1" k3="1"/>
<feColorMatrix type="matrix" values="0 0 0 0 0.580392 0 0 0 0 0.67451 0 0 0 0 0.854902 0 0 0 0.43 0"/>
<feBlend mode="normal" in2="shape" result="effect1_innerShadow_560_7254"/>
</filter>
<filter id="filter7_i_560_7254" x="692.868" y="232.393" width="96.1001" height="102.334" filterUnits="userSpaceOnUse" color-interpolation-filters="sRGB">
<feFlood flood-opacity="0" result="BackgroundImageFix"/>
<feBlend mode="normal" in="SourceGraphic" in2="BackgroundImageFix" result="shape"/>
<feColorMatrix in="SourceAlpha" type="matrix" values="0 0 0 0 0 0 0 0 0 0 0 0 0 0 0 0 0 0 127 0" result="hardAlpha"/>
<feOffset dx="-24.9" dy="-12.7"/>
<feGaussianBlur stdDeviation="10.5"/>
<feComposite in2="hardAlpha" operator="arithmetic" k2="-1" k3="1"/>
<feColorMatrix type="matrix" values="0 0 0 0 0.580392 0 0 0 0 0.67451 0 0 0 0 0.854902 0 0 0 0.43 0"/>
<feBlend mode="normal" in2="shape" result="effect1_innerShadow_560_7254"/>
</filter>
<filter id="filter8_i_560_7254" x="618.523" y="258.317" width="85.0001" height="102.234" filterUnits="userSpaceOnUse" color-interpolation-filters="sRGB">
<feFlood flood-opacity="0" result="BackgroundImageFix"/>
<feBlend mode="normal" in="SourceGraphic" in2="BackgroundImageFix" result="shape"/>
<feColorMatrix in="SourceAlpha" type="matrix" values="0 0 0 0 0 0 0 0 0 0 0 0 0 0 0 0 0 0 127 0" result="hardAlpha"/>
<feOffset dx="-9.9" dy="12.6"/>
<feGaussianBlur stdDeviation="10.5"/>
<feComposite in2="hardAlpha" operator="arithmetic" k2="-1" k3="1"/>
<feColorMatrix type="matrix" values="0 0 0 0 0.580392 0 0 0 0 0.67451 0 0 0 0 0.854902 0 0 0 0.43 0"/>
<feBlend mode="normal" in2="shape" result="effect1_innerShadow_560_7254"/>
</filter>
<filter id="filter9_i_560_7254" x="649.487" y="265.669" width="89.113" height="56.8056" filterUnits="userSpaceOnUse" color-interpolation-filters="sRGB">
<feFlood flood-opacity="0" result="BackgroundImageFix"/>
<feBlend mode="normal" in="SourceGraphic" in2="BackgroundImageFix" result="shape"/>
<feColorMatrix in="SourceAlpha" type="matrix" values="0 0 0 0 0 0 0 0 0 0 0 0 0 0 0 0 0 0 127 0" result="hardAlpha"/>
<feOffset dx="-18.8" dy="2.6"/>
<feGaussianBlur stdDeviation="10.5"/>
<feComposite in2="hardAlpha" operator="arithmetic" k2="-1" k3="1"/>
<feColorMatrix type="matrix" values="0 0 0 0 0.580392 0 0 0 0 0.67451 0 0 0 0 0.854902 0 0 0 0.43 0"/>
<feBlend mode="normal" in2="shape" result="effect1_innerShadow_560_7254"/>
</filter>
<filter id="filter10_i_560_7254" x="848.533" y="234.616" width="26.0903" height="72.0496" filterUnits="userSpaceOnUse" color-interpolation-filters="sRGB">
<feFlood flood-opacity="0" result="BackgroundImageFix"/>
<feBlend mode="normal" in="SourceGraphic" in2="BackgroundImageFix" result="shape"/>
<feColorMatrix in="SourceAlpha" type="matrix" values="0 0 0 0 0 0 0 0 0 0 0 0 0 0 0 0 0 0 127 0" result="hardAlpha"/>
<feOffset dy="-10"/>
<feGaussianBlur stdDeviation="6.5"/>
<feComposite in2="hardAlpha" operator="arithmetic" k2="-1" k3="1"/>
<feColorMatrix type="matrix" values="0 0 0 0 0.221483 0 0 0 0 0.77854 0 0 0 0 0.47323 0 0 0 1 0"/>
<feBlend mode="normal" in2="shape" result="effect1_innerShadow_560_7254"/>
</filter>
<filter id="filter11_i_560_7254" x="853.225" y="265.047" width="37.1592" height="50.2346" filterUnits="userSpaceOnUse" color-interpolation-filters="sRGB">
<feFlood flood-opacity="0" result="BackgroundImageFix"/>
<feBlend mode="normal" in="SourceGraphic" in2="BackgroundImageFix" result="shape"/>
<feColorMatrix in="SourceAlpha" type="matrix" values="0 0 0 0 0 0 0 0 0 0 0 0 0 0 0 0 0 0 127 0" result="hardAlpha"/>
<feOffset dy="-10"/>
<feGaussianBlur stdDeviation="6.5"/>
<feComposite in2="hardAlpha" operator="arithmetic" k2="-1" k3="1"/>
<feColorMatrix type="matrix" values="0 0 0 0 0.221483 0 0 0 0 0.77854 0 0 0 0 0.47323 0 0 0 1 0"/>
<feBlend mode="normal" in2="shape" result="effect1_innerShadow_560_7254"/>
</filter>
<filter id="filter12_i_560_7254" x="818.731" y="261.34" width="31.9722" height="54.7636" filterUnits="userSpaceOnUse" color-interpolation-filters="sRGB">
<feFlood flood-opacity="0" result="BackgroundImageFix"/>
<feBlend mode="normal" in="SourceGraphic" in2="BackgroundImageFix" result="shape"/>
<feColorMatrix in="SourceAlpha" type="matrix" values="0 0 0 0 0 0 0 0 0 0 0 0 0 0 0 0 0 0 127 0" result="hardAlpha"/>
<feOffset dy="-10"/>
<feGaussianBlur stdDeviation="6.5"/>
<feComposite in2="hardAlpha" operator="arithmetic" k2="-1" k3="1"/>
<feColorMatrix type="matrix" values="0 0 0 0 0.221483 0 0 0 0 0.77854 0 0 0 0 0.47323 0 0 0 1 0"/>
<feBlend mode="normal" in2="shape" result="effect1_innerShadow_560_7254"/>
</filter>
<linearGradient id="paint0_linear_560_7254" x1="191.13" y1="188.108" x2="2.17359" y2="1.95476" gradientUnits="userSpaceOnUse">
<stop stop-color="white" stop-opacity="0.15"/>
<stop offset="1" stop-color="white" stop-opacity="0"/>
</linearGradient>
<linearGradient id="paint1_linear_560_7254" x1="165.977" y1="193.523" x2="40.516" y2="33.499" gradientUnits="userSpaceOnUse">
<stop stop-color="white" stop-opacity="0.15"/>
<stop offset="1" stop-color="white" stop-opacity="0"/>
</linearGradient>
<linearGradient id="paint2_linear_560_7254" x1="0" y1="0" x2="0" y2="90" gradientUnits="userSpaceOnUse">
<stop stop-color="white" stop-opacity="0"/>
<stop offset="1" stop-color="#EAF0FD"/>
</linearGradient>
<linearGradient id="paint3_linear_560_7254" x1="456.35" y1="366.067" x2="405.601" y2="51.0275" gradientUnits="userSpaceOnUse">
<stop stop-color="#ECF2FC"/>
<stop offset="1" stop-color="#B9CFF7"/>
</linearGradient>
<linearGradient id="paint4_linear_560_7254" x1="613.926" y1="49.3445" x2="594.89" y2="80.8384" gradientUnits="userSpaceOnUse">
<stop stop-color="#ACD6FF" stop-opacity="0.152485"/>
<stop offset="1" stop-color="#96ACCB" stop-opacity="0.457456"/>
</linearGradient>
<linearGradient id="paint5_linear_560_7254" x1="586.057" y1="64.3352" x2="561.708" y2="105.433" gradientUnits="userSpaceOnUse">
<stop stop-color="#ACD6FF" stop-opacity="0.152485"/>
<stop offset="1" stop-color="#96ACCB" stop-opacity="0.457456"/>
</linearGradient>
<linearGradient id="paint6_linear_560_7254" x1="613.521" y1="93.9272" x2="588.901" y2="135.172" gradientUnits="userSpaceOnUse">
<stop stop-color="#ACD6FF" stop-opacity="0.152485"/>
<stop offset="1" stop-color="#96ACCB" stop-opacity="0.457456"/>
</linearGradient>
<linearGradient id="paint7_linear_560_7254" x1="584.79" y1="216.807" x2="544.358" y2="211.214" gradientUnits="userSpaceOnUse">
<stop stop-color="#FDAE6B"/>
<stop offset="1" stop-color="#FAE539"/>
</linearGradient>
<radialGradient id="paint8_radial_560_7254" cx="0" cy="0" r="1" gradientUnits="userSpaceOnUse" gradientTransform="translate(757.645 316.73) rotate(90) scale(24.8646 401.495)">
<stop/>
<stop offset="1" stop-color="#2062E7"/>
</radialGradient>
<radialGradient id="paint9_radial_560_7254" cx="0" cy="0" r="1" gradientUnits="userSpaceOnUse" gradientTransform="translate(791.441 229.875) rotate(-112.233) scale(85.14 149.342)">
<stop stop-color="#62ABFB"/>
<stop offset="1" stop-color="#1440C0"/>
</radialGradient>
<radialGradient id="paint10_radial_560_7254" cx="0" cy="0" r="1" gradientUnits="userSpaceOnUse" gradientTransform="translate(749.196 180.866) rotate(71.5337) scale(89.8859 412.929)">
<stop stop-color="#F4F8FF"/>
<stop offset="1" stop-color="#89B1E9"/>
</radialGradient>
<linearGradient id="paint11_linear_560_7254" x1="623.5" y1="317.145" x2="626.955" y2="343.027" gradientUnits="userSpaceOnUse">
<stop stop-color="#9ABFFF"/>
<stop offset="1" stop-color="#5B87D2"/>
</linearGradient>
<linearGradient id="paint12_linear_560_7254" x1="625.069" y1="217.874" x2="628.488" y2="250.616" gradientUnits="userSpaceOnUse">
<stop stop-color="#91BAFF"/>
<stop offset="1" stop-color="#5B87D2"/>
</linearGradient>
<linearGradient id="paint13_linear_560_7254" x1="738.447" y1="127.776" x2="769.214" y2="162.801" gradientUnits="userSpaceOnUse">
<stop stop-color="#F5F8FF"/>
<stop offset="1" stop-color="white"/>
</linearGradient>
<linearGradient id="paint14_linear_560_7254" x1="743.235" y1="167.17" x2="730.714" y2="133.152" gradientUnits="userSpaceOnUse">
<stop stop-color="#6B86C0"/>
<stop offset="1" stop-color="#A1B8E3"/>
</linearGradient>
<linearGradient id="paint15_linear_560_7254" x1="673.812" y1="297.289" x2="635.099" y2="258.208" gradientUnits="userSpaceOnUse">
<stop stop-color="#002383"/>
<stop offset="1" stop-color="#316EEA"/>
</linearGradient>
<linearGradient id="paint16_linear_560_7254" x1="665.653" y1="281.725" x2="642.086" y2="259.486" gradientUnits="userSpaceOnUse">
<stop stop-color="#002343"/>
<stop offset="1" stop-color="#1A72FF" stop-opacity="0.436934"/>
</linearGradient>
<linearGradient id="paint17_linear_560_7254" x1="785.475" y1="162.202" x2="785.475" y2="190.771" gradientUnits="userSpaceOnUse">
<stop stop-color="#6081C1"/>
<stop offset="1" stop-color="#90AADB"/>
</linearGradient>
<linearGradient id="paint18_linear_560_7254" x1="728.066" y1="237.585" x2="735.038" y2="217.683" gradientUnits="userSpaceOnUse">
<stop stop-color="#B1C2E4"/>
<stop offset="1" stop-color="white" stop-opacity="0.01"/>
</linearGradient>
<linearGradient id="paint19_linear_560_7254" x1="721.508" y1="201.426" x2="712.152" y2="237.77" gradientUnits="userSpaceOnUse">
<stop stop-color="#3D9BF8"/>
<stop offset="1" stop-color="#3B80F0"/>
</linearGradient>
<linearGradient id="paint20_linear_560_7254" x1="756.84" y1="131.462" x2="785.765" y2="146.674" gradientUnits="userSpaceOnUse">
<stop stop-color="white"/>
<stop offset="0.701101" stop-color="#B8CBEB"/>
<stop offset="1" stop-color="#A1B8E3"/>
</linearGradient>
<linearGradient id="paint21_linear_560_7254" x1="782.69" y1="172.022" x2="781.752" y2="151.044" gradientUnits="userSpaceOnUse">
<stop stop-color="#7992C7"/>
<stop offset="1" stop-color="#A1B8E3"/>
</linearGradient>
<linearGradient id="paint22_linear_560_7254" x1="756.963" y1="83.9961" x2="807.12" y2="96.3282" gradientUnits="userSpaceOnUse">
<stop stop-color="#2669E1"/>
<stop offset="1" stop-color="#143B8C"/>
</linearGradient>
<linearGradient id="paint23_linear_560_7254" x1="784.306" y1="185.008" x2="777.761" y2="180.823" gradientUnits="userSpaceOnUse">
<stop stop-color="#EEF5FF"/>
<stop offset="1" stop-color="#ADC8F2"/>
</linearGradient>
<linearGradient id="paint24_linear_560_7254" x1="815.584" y1="152.55" x2="832.91" y2="189.354" gradientUnits="userSpaceOnUse">
<stop stop-color="#F5F8FF"/>
<stop offset="1" stop-color="white"/>
</linearGradient>
<linearGradient id="paint25_linear_560_7254" x1="756.201" y1="187.909" x2="760.521" y2="204.481" gradientUnits="userSpaceOnUse">
<stop stop-color="#EEF5FF"/>
<stop offset="1" stop-color="#D9E8FF"/>
</linearGradient>
<linearGradient id="paint26_linear_560_7254" x1="814.439" y1="329.118" x2="838.042" y2="302.845" gradientUnits="userSpaceOnUse">
<stop stop-color="#CEE0FB"/>
<stop offset="1" stop-color="#E4EDFB"/>
</linearGradient>
<linearGradient id="paint27_linear_560_7254" x1="874.285" y1="305.652" x2="874.285" y2="316.841" gradientUnits="userSpaceOnUse">
<stop stop-color="#99BAE9"/>
<stop offset="1" stop-color="#BCD0F2"/>
</linearGradient>
<linearGradient id="paint28_linear_560_7254" x1="879.05" y1="261.448" x2="842.608" y2="299.606" gradientUnits="userSpaceOnUse">
<stop stop-color="#B1FFBE"/>
<stop offset="0.444207" stop-color="#5CDB8E"/>
<stop offset="1" stop-color="#149654"/>
</linearGradient>
<linearGradient id="paint29_linear_560_7254" x1="879.58" y1="273.04" x2="874.34" y2="313.533" gradientUnits="userSpaceOnUse">
<stop stop-color="#B1FFBE"/>
<stop offset="0.444207" stop-color="#5CDB8E"/>
<stop offset="1" stop-color="#149654"/>
</linearGradient>
<linearGradient id="paint30_linear_560_7254" x1="856.352" y1="283.188" x2="832.354" y2="320.853" gradientUnits="userSpaceOnUse">
<stop stop-color="#B1FFBE"/>
<stop offset="0.444207" stop-color="#5CDB8E"/>
<stop offset="1" stop-color="#149654"/>
</linearGradient>
<linearGradient id="paint31_linear_560_7254" x1="861.123" y1="72.8186" x2="873.741" y2="97.6493" gradientUnits="userSpaceOnUse">
<stop stop-color="#CBDAF1"/>
<stop offset="1" stop-color="#9CB3DF"/>
</linearGradient>
</defs>
</svg>
