<svg width="20" height="21" viewBox="0 0 20 21" fill="none" xmlns="http://www.w3.org/2000/svg">
<g clip-path="url(#clip0_602_10362)">
<path d="M12.7587 7.74609C12.5 7.74609 12.2903 7.95577 12.2903 8.21448V17.0669C12.2903 17.3254 12.5 17.5353 12.7587 17.5353C13.0174 17.5353 13.227 17.3254 13.227 17.0669V8.21448C13.227 7.95577 13.0174 7.74609 12.7587 7.74609Z" fill="#74787B"/>
<path d="M7.23181 7.74609C6.9731 7.74609 6.76343 7.95577 6.76343 8.21448V17.0669C6.76343 17.3254 6.9731 17.5353 7.23181 17.5353C7.49052 17.5353 7.70019 17.3254 7.70019 17.0669V8.21448C7.70019 7.95577 7.49052 7.74609 7.23181 7.74609Z" fill="#74787B"/>
<path d="M3.2037 6.45419V17.9942C3.2037 18.6762 3.45381 19.3168 3.89072 19.7764C4.32562 20.2373 4.93086 20.4989 5.56427 20.5H14.4262C15.0598 20.4989 15.6651 20.2373 16.0998 19.7764C16.5367 19.3168 16.7868 18.6762 16.7868 17.9942V6.45419C17.6553 6.22366 18.2181 5.3846 18.1019 4.49339C17.9856 3.60236 17.2264 2.93583 16.3277 2.93565H13.9297V2.35017C13.9324 1.85782 13.7377 1.38505 13.3892 1.03724C13.0406 0.68961 12.5671 0.496036 12.0748 0.500062H7.9157C7.42335 0.496036 6.94984 0.68961 6.6013 1.03724C6.25276 1.38505 6.05809 1.85782 6.06083 2.35017V2.93565H3.66275C2.76404 2.93583 2.00493 3.60236 1.88857 4.49339C1.77238 5.3846 2.33518 6.22366 3.2037 6.45419ZM14.4262 19.5632H5.56427C4.76345 19.5632 4.14046 18.8753 4.14046 17.9942V6.49536H15.85V17.9942C15.85 18.8753 15.227 19.5632 14.4262 19.5632ZM6.9976 2.35017C6.99448 2.10628 7.09036 1.87154 7.26344 1.69938C7.43634 1.52721 7.67163 1.43262 7.9157 1.43683H12.0748C12.3189 1.43262 12.5541 1.52721 12.727 1.69938C12.9001 1.87136 12.996 2.10628 12.9929 2.35017V2.93565H6.9976V2.35017ZM3.66275 3.87242H16.3277C16.7934 3.87242 17.1708 4.24987 17.1708 4.71551C17.1708 5.18114 16.7934 5.55859 16.3277 5.55859H3.66275C3.19711 5.55859 2.81966 5.18114 2.81966 4.71551C2.81966 4.24987 3.19711 3.87242 3.66275 3.87242Z" fill="#74787B"/>
<path d="M9.99524 7.74609C9.73653 7.74609 9.52686 7.95577 9.52686 8.21448V17.0669C9.52686 17.3254 9.73653 17.5353 9.99524 17.5353C10.2539 17.5353 10.4636 17.3254 10.4636 17.0669V8.21448C10.4636 7.95577 10.2539 7.74609 9.99524 7.74609Z" fill="#74787B"/>
</g>
<defs>
<clipPath id="clip0_602_10362">
<rect width="20" height="20" fill="white" transform="translate(0 0.5)"/>
</clipPath>
</defs>
</svg>
