<svg width="55" height="50" viewBox="0 0 55 50" fill="none" xmlns="http://www.w3.org/2000/svg">
<circle cx="22.5926" cy="22.5926" r="22.5926" transform="matrix(-1 0 0 1 45.1853 3)" fill="#E8EDFF"/>
<circle cx="3.38889" cy="3.38889" r="3.38889" transform="matrix(-1 0 0 1 48.7778 0)" fill="#E8EDFF"/>
<path d="M22.0001 13.3333H44.0001C48.0502 13.3333 51.3334 16.6166 51.3334 20.6667V29.8333C51.3334 33.8834 48.0502 37.1667 44.0001 37.1667H29.3334C25.2833 37.1667 22.0001 33.8834 22.0001 29.8333V13.3333ZM22.0001 13.3333C22.0001 11.3083 20.3585 9.66666 18.3334 9.66666H14.6667" stroke="#436CFF" stroke-width="2" stroke-linecap="round" stroke-linejoin="round"/>
<path d="M31.1667 43.5833C31.1667 45.1021 29.9355 46.3333 28.4167 46.3333C26.898 46.3333 25.6667 45.1021 25.6667 43.5833C25.6667 42.0646 26.898 40.8333 28.4167 40.8333C29.9355 40.8333 31.1667 42.0646 31.1667 43.5833Z" stroke="#436CFF" stroke-width="2"/>
<path d="M47.6667 43.5833C47.6667 45.1021 46.4355 46.3333 44.9167 46.3333C43.398 46.3333 42.1667 45.1021 42.1667 43.5833C42.1667 42.0646 43.398 40.8333 44.9167 40.8333C46.4355 40.8333 47.6667 42.0646 47.6667 43.5833Z" stroke="#436CFF" stroke-width="2"/>
<path d="M31.1667 21.5833H42.1667" stroke="#436CFF" stroke-width="2" stroke-linecap="round" stroke-linejoin="round"/>
<path d="M31.1667 28.9167H42.1667" stroke="#436CFF" stroke-width="2" stroke-linecap="round" stroke-linejoin="round"/>
</svg>
