<svg width="55" height="50" viewBox="0 0 55 50" fill="none" xmlns="http://www.w3.org/2000/svg">
<circle cx="22.5926" cy="22.5926" r="22.5926" transform="matrix(-1 0 0 1 45.1853 3)" fill="#E8EDFF"/>
<circle cx="3.38889" cy="3.38889" r="3.38889" transform="matrix(-1 0 0 1 48.7778 0)" fill="#E8EDFF"/>
<path d="M25.2219 25.4074C26.6539 26.8393 28.9755 26.8393 30.4074 25.4074C31.8393 23.9754 31.8393 21.6538 30.4074 20.2219C28.9755 18.79 26.6539 18.79 25.2219 20.2219C23.79 21.6538 23.79 23.9754 25.2219 25.4074Z" stroke="#436CFF" stroke-width="2"/>
<path d="M37.7457 14.5967C36.2114 13.0624 34.0921 12.2661 31.9443 12.4169L24.6763 12.9271C21.0473 13.1819 18.1818 16.0474 17.9271 19.6764L17.4168 26.9444C17.266 29.0922 18.0623 31.2114 19.5966 32.7458L31.6331 44.7823C34.5359 47.6851 39.2107 47.7166 42.0745 44.8528L49.8527 37.0746C52.7165 34.2108 52.685 29.536 49.7822 26.6332L37.7457 14.5967Z" stroke="#436CFF" stroke-width="2" stroke-linejoin="round"/>
</svg>
