<svg width="55" height="50" viewBox="0 0 55 50" fill="none" xmlns="http://www.w3.org/2000/svg">
<circle cx="22.5926" cy="22.5926" r="22.5926" transform="matrix(-1 0 0 1 45.1853 3)" fill="#E8EDFF"/>
<circle cx="3.38889" cy="3.38889" r="3.38889" transform="matrix(-1 0 0 1 48.7778 0)" fill="#E8EDFF"/>
<path d="M32.9999 9.66666V13.3333M49.4999 15.1667L46.7499 17.9167M16.4999 15.1667L19.2499 17.9167M33 46.3333C39.6077 46.3333 45.4912 42.0332 49.2748 38.4113C52.0194 35.7839 52.0194 31.216 49.2748 28.5887C45.4912 24.9668 39.6077 20.6667 33 20.6667C26.3923 20.6667 20.5088 24.9668 16.7251 28.5887C13.9805 31.216 13.9805 35.7839 16.7251 38.4113C20.5088 42.0332 26.3923 46.3333 33 46.3333ZM38.4999 33.5C38.4999 36.5376 36.0375 39 32.9999 39C29.9623 39 27.4999 36.5376 27.4999 33.5C27.4999 30.4624 29.9623 28 32.9999 28C36.0375 28 38.4999 30.4624 38.4999 33.5Z" stroke="#436CFF" stroke-width="2" stroke-linecap="round"/>
</svg>
