<svg width="67" height="86" viewBox="0 0 67 86" fill="none" xmlns="http://www.w3.org/2000/svg">
<path fill-rule="evenodd" clip-rule="evenodd" d="M5.4032 0H46.9892L67 19.8123V80.625C67 83.5946 64.5796 86 61.5968 86H5.4032C2.42052 86 0 83.5946 0 80.625V5.37496C0 2.40536 2.4208 0 5.4032 0Z" fill="white"/>
<path d="M5.4032 0.5H46.7835L66.5 20.0208V80.625C66.5 83.3158 64.306 85.5 61.5968 85.5H5.4032C2.69405 85.5 0.5 83.3158 0.5 80.625V5.37496C0.5 2.68413 2.6943 0.5 5.4032 0.5Z" stroke="#E8E9EB"/>
<path d="M65.9197 20.4242H51.2863C48.6264 20.4242 46.4679 18.2792 46.4679 15.6359V1.07422" stroke="#E8E9EB"/>
<path d="M20.2339 64.4996C19.7452 64.4996 19.2761 64.3525 18.8758 64.0751C17.4137 63.058 17.217 61.9264 17.3097 61.1555C17.5654 59.0354 20.3927 56.8164 25.7158 54.5557C27.8282 50.2635 29.8381 44.9751 31.0361 40.5566C29.6344 37.7281 28.272 34.0584 29.265 31.9058C29.6134 31.1518 30.0474 30.5736 30.8578 30.3236C31.178 30.2246 31.987 30.0996 32.2848 30.0996C32.9926 30.0996 33.6148 30.9448 34.0559 31.4657C34.4702 31.9553 35.4098 32.9932 33.532 40.3235C35.4253 43.9489 38.1079 47.6421 40.6782 50.1711C42.5195 49.8624 44.1038 49.7048 45.3946 49.7048C47.5941 49.7048 48.927 50.1802 49.4705 51.1595C49.92 51.9694 49.736 52.9162 48.9227 53.9723C48.1404 54.9867 47.0618 55.5233 45.8047 55.5233C44.0968 55.5233 42.108 54.5231 39.8903 52.5476C35.9056 53.3199 31.2524 54.6976 27.4911 56.2226C26.3169 58.5327 25.1919 60.3936 24.1441 61.7584C22.7045 63.6271 21.4629 64.4996 20.2339 64.4996ZM23.9728 57.8243C20.9713 59.3883 19.748 60.6736 19.6595 61.3977C19.6455 61.5175 19.6075 61.8326 20.2648 62.2988C20.4741 62.2376 21.6961 61.7206 23.9728 57.8243ZM43.1263 52.0398C44.271 52.8563 44.5505 53.2691 45.2991 53.2691C45.6277 53.2691 46.5645 53.2561 46.9985 52.6948C47.2078 52.4226 47.2893 52.2481 47.3216 52.1544C47.1488 52.0697 46.9199 51.8978 45.6713 51.8978C44.962 51.8991 44.0701 51.9278 43.1263 52.0398ZM32.6345 43.4684C31.6303 46.6902 30.3044 50.1684 28.8788 53.3186C31.8142 52.2625 35.0053 51.3405 38.0026 50.688C36.1065 48.6461 34.2118 46.0963 32.6345 43.4684ZM31.7819 32.4489C31.6443 32.4918 29.9139 34.7369 31.9168 36.6369C33.2497 33.8826 31.8423 32.4306 31.7819 32.4489Z" fill="#E2574C"/>
</svg>
