<svg width="67" height="86" viewBox="0 0 67 86" fill="none" xmlns="http://www.w3.org/2000/svg">
<path fill-rule="evenodd" clip-rule="evenodd" d="M5.4032 0H46.9892L67 19.8123V80.625C67 83.5946 64.5796 86 61.5968 86H5.4032C2.42052 86 0 83.5946 0 80.625V5.37496C0 2.40536 2.4208 0 5.4032 0Z" fill="white"/>
<path d="M5.4032 0.5H46.7835L66.5 20.0208V80.625C66.5 83.3158 64.306 85.5 61.5968 85.5H5.4032C2.69405 85.5 0.5 83.3158 0.5 80.625V5.37496C0.5 2.68413 2.6943 0.5 5.4032 0.5Z" stroke="#E8E9EB"/>
<path d="M65.9197 20.4242H51.2863C48.6264 20.4242 46.4679 18.2792 46.4679 15.6359V1.07422" stroke="#E8E9EB"/>
<path d="M33.1392 41.8448C33.1392 43.1315 32.8208 44.3378 32.1839 45.4636C31.5706 46.5895 30.5916 47.497 29.2471 48.1863C27.9261 48.8756 26.2513 49.2203 24.2226 49.2203H20.0828V58.4569H15.1291V34.4004H24.2226C26.1333 34.4004 27.761 34.7221 29.1055 35.3654C30.4501 36.0088 31.4526 36.8933 32.1131 38.0192C32.7972 39.1451 33.1392 40.4203 33.1392 41.8448ZM24.0103 45.3258C25.3785 45.3258 26.3928 45.0271 27.0533 44.4297C27.7138 43.8093 28.044 42.9477 28.044 41.8448C28.044 39.5012 26.6995 38.3294 24.0103 38.3294H20.0828V45.3258H24.0103Z" fill="#5889C4"/>
<path d="M44.1576 58.7671C42.5535 58.7671 41.1146 58.4913 39.8408 57.9399C38.567 57.3655 37.5527 56.5958 36.7978 55.6308C36.0666 54.6657 35.6656 53.5973 35.5948 52.4255H40.5839C40.6782 53.1608 41.0438 53.7697 41.6807 54.2522C42.3412 54.7347 43.1551 54.9759 44.1222 54.9759C45.0658 54.9759 45.797 54.7921 46.316 54.4245C46.8585 54.0569 47.1298 53.5858 47.1298 53.0114C47.1298 52.3911 46.7995 51.9315 46.1391 51.6328C45.5022 51.3112 44.476 50.9665 43.0607 50.5989C41.5982 50.2542 40.3951 49.8981 39.4516 49.5305C38.5316 49.1628 37.7296 48.5999 37.0455 47.8417C36.385 47.0835 36.0548 46.061 36.0548 44.7743C36.0548 43.7174 36.3614 42.7524 36.9748 41.8793C37.6117 41.0062 38.508 40.3169 39.6639 39.8114C40.8433 39.3059 42.2233 39.0531 43.8038 39.0531C46.1391 39.0531 48.0026 39.6276 49.3943 40.7764C50.7861 41.9022 51.5527 43.4302 51.6942 45.3602H46.9529C46.8821 44.602 46.5519 44.0046 45.9621 43.568C45.396 43.1085 44.6294 42.8787 43.6622 42.8787C42.7658 42.8787 42.07 43.0396 41.5746 43.3613C41.1028 43.6829 40.8669 44.131 40.8669 44.7054C40.8669 45.3487 41.1972 45.8427 41.8577 46.1874C42.5182 46.5091 43.5443 46.8422 44.936 47.1869C46.3514 47.5315 47.519 47.8876 48.439 48.2553C49.3589 48.6229 50.1492 49.1973 50.8097 49.9785C51.4937 50.7367 51.8476 51.7477 51.8712 53.0114C51.8712 54.1143 51.5527 55.1023 50.9158 55.9754C50.3025 56.8485 49.4061 57.5378 48.2267 58.0433C47.0708 58.5258 45.7145 58.7671 44.1576 58.7671Z" fill="#5889C4"/>
</svg>
