<svg width="67" height="86" viewBox="0 0 67 86" fill="none" xmlns="http://www.w3.org/2000/svg">
<path fill-rule="evenodd" clip-rule="evenodd" d="M5.4032 0H46.9892L67 19.8123V80.625C67 83.5946 64.5796 86 61.5968 86H5.4032C2.42052 86 0 83.5946 0 80.625V5.37496C0 2.40536 2.4208 0 5.4032 0Z" fill="white"/>
<path d="M5.4032 0.5H46.7835L66.5 20.0208V80.625C66.5 83.3158 64.306 85.5 61.5968 85.5H5.4032C2.69405 85.5 0.5 83.3158 0.5 80.625V5.37496C0.5 2.68413 2.6943 0.5 5.4032 0.5Z" stroke="#E8E9EB"/>
<path d="M65.9197 20.4242H51.2863C48.6264 20.4242 46.4679 18.2792 46.4679 15.6359V1.07422" stroke="#E8E9EB"/>
<path d="M17.2904 31.0996C17.2904 30.5473 17.7381 30.0996 18.2904 30.0996H48.7099C49.2622 30.0996 49.7099 30.5473 49.7099 31.0996V63.4996C49.7099 64.0519 49.2622 64.4996 48.7099 64.4996H18.2904C17.7381 64.4996 17.2904 64.0519 17.2904 63.4996V31.0996Z" fill="#304FFD"/>
<path d="M40.6534 41.7275C40.7644 41.4409 40.931 41.2259 41.1531 41.0825C41.3875 40.9272 41.6466 40.8496 41.9304 40.8496C42.2883 40.8496 42.5905 40.9571 42.8373 41.1721C43.0964 41.3871 43.226 41.6797 43.226 42.05C43.226 42.2292 43.189 42.4263 43.1149 42.6413L39.2653 52.8359C39.1543 53.1225 38.9568 53.3495 38.6731 53.5167C38.4016 53.672 38.0993 53.7496 37.7662 53.7496C37.433 53.7496 37.1307 53.672 36.8593 53.5167C36.5879 53.3495 36.3966 53.1225 36.2856 52.8359L33.5279 45.2929L30.6962 52.8359C30.5852 53.1225 30.3939 53.3495 30.1225 53.5167C29.851 53.672 29.5487 53.7496 29.2156 53.7496C28.8948 53.7496 28.5925 53.672 28.3087 53.5167C28.0373 53.3495 27.846 53.1225 27.735 52.8359L23.8853 42.6413C23.8113 42.4382 23.7743 42.2471 23.7743 42.0679C23.7743 41.6977 23.91 41.405 24.1815 41.19C24.4529 40.9631 24.7737 40.8496 25.1439 40.8496C25.44 40.8496 25.7053 40.9272 25.9397 41.0825C26.1865 41.2259 26.3654 41.4409 26.4764 41.7275L29.3266 49.6646L32.2879 41.7634C32.3989 41.4767 32.5717 41.2557 32.8061 41.1004C33.0529 40.9452 33.312 40.8675 33.5834 40.8675C33.8672 40.8675 34.1263 40.9452 34.3607 41.1004C34.5952 41.2557 34.7679 41.4827 34.879 41.7813L37.7107 49.8079L40.6534 41.7275Z" fill="white"/>
</svg>
