<svg width="67" height="86" viewBox="0 0 67 86" fill="none" xmlns="http://www.w3.org/2000/svg">
<path fill-rule="evenodd" clip-rule="evenodd" d="M5.4032 0H46.9892L67 19.8123V80.625C67 83.5946 64.5796 86 61.5968 86H5.4032C2.42052 86 0 83.5946 0 80.625V5.37496C0 2.40536 2.4208 0 5.4032 0Z" fill="white"/>
<path d="M5.4032 0.5H46.7835L66.5 20.0208V80.625C66.5 83.3158 64.306 85.5 61.5968 85.5H5.4032C2.69405 85.5 0.5 83.3158 0.5 80.625V5.37496C0.5 2.68413 2.6943 0.5 5.4032 0.5Z" stroke="#E8E9EB"/>
<path d="M65.9197 20.4242H51.2863C48.6264 20.4242 46.4679 18.2792 46.4679 15.6359V1.07422" stroke="#E8E9EB"/>
<path d="M34.7022 51.4456V48.8349H37.3267V46.2242H34.7022V43.6135H37.3267V41.0028H34.7022V38.3921H37.3267V35.7814H34.7022V33.1706H37.3267V30.5599H34.7022V27.9492H32.0778V30.5599H29.4533V33.1706H32.0778V35.7814H29.4533V38.3921H32.0778V41.0028H29.4533V43.6135H32.0778V46.2242H29.4533V48.8349H32.0778V51.4456H26.8289V57.9724C26.8289 61.5713 29.7722 64.4992 33.39 64.4992C37.0078 64.4992 39.9511 61.5713 39.9511 57.9724V51.4456H34.7022ZM37.3267 57.9724C37.3267 60.1315 35.5604 61.8885 33.39 61.8885C31.2196 61.8885 29.4533 60.1315 29.4533 57.9724V54.0564H37.3267V57.9724Z" fill="#8A9099"/>
<path d="M32.0779 59.2787H34.7024C35.4267 59.2787 36.0146 58.6952 36.0146 57.9733C36.0146 57.2515 35.4267 56.668 34.7024 56.668H32.0779C31.3536 56.668 30.7657 57.2515 30.7657 57.9733C30.7657 58.6952 31.3536 59.2787 32.0779 59.2787Z" fill="#8A9099"/>
</svg>
