<svg width="33" height="32" viewBox="0 0 33 32" fill="none" xmlns="http://www.w3.org/2000/svg">
<rect x="0.610107" width="32" height="32" rx="16" fill="#E8EDFF"/>
<path d="M14.3914 17.5531C14.3914 18.4131 15.0514 19.1064 15.8714 19.1064H17.5447C18.258 19.1064 18.838 18.4997 18.838 17.7531C18.838 16.9397 18.4847 16.6531 17.958 16.4664L15.2714 15.5331C14.7447 15.3464 14.3914 15.0597 14.3914 14.2464C14.3914 13.4997 14.9714 12.8931 15.6847 12.8931H17.358C18.178 12.8931 18.838 13.5864 18.838 14.4464" stroke="#FF603D" stroke-width="1.5" stroke-linecap="round" stroke-linejoin="round"/>
<path d="M16.6101 12V20" stroke="#FF603D" stroke-width="1.5" stroke-linecap="round" stroke-linejoin="round"/>
<path d="M16.6101 22.6668C20.292 22.6668 23.2768 19.6821 23.2768 16.0002C23.2768 12.3183 20.292 9.3335 16.6101 9.3335C12.9282 9.3335 9.94348 12.3183 9.94348 16.0002C9.94348 19.6821 12.9282 22.6668 16.6101 22.6668Z" stroke="#FF603D" stroke-width="1.5" stroke-linecap="round" stroke-linejoin="round"/>
</svg>
