<svg width="120" height="120" viewBox="0 0 120 120" fill="none" xmlns="http://www.w3.org/2000/svg">
<path d="M7.56578 12.9258H36.2647C38.1443 12.9258 39.8804 13.9298 40.8183 15.5585L45.5417 22.0111C46.4796 23.6398 48.216 24.6438 50.0953 24.6438H120V98.3144C120 102.183 116.863 105.32 112.994 105.32H7.00587C3.13675 105.32 0 102.183 0 98.3144V32.8161C0 27.4008 0.836656 22.0178 2.4805 16.8579C3.08269 14.5422 5.17317 12.9258 7.56578 12.9258Z" fill="#95ADFF"/>
<path d="M103.16 23.4395H10.9199V62.4043H103.16V23.4395Z" fill="#EBF0F3"/>
<path d="M114.746 16.4297H85.825C83.7683 16.4297 81.9005 17.6297 81.0459 19.5003L76.097 30.3312C75.2421 32.2019 73.3746 33.4019 71.3179 33.4019H0V100.067C0 103.936 3.13675 107.072 7.00587 107.072H112.994C116.863 107.072 120 103.936 120 100.067V21.6841C120 18.7823 117.647 16.4297 114.746 16.4297Z" fill="#436CFF"/>
</svg>
