<svg width="18" height="18" viewBox="0 0 18 18" fill="none" xmlns="http://www.w3.org/2000/svg">
<path d="M7 11.0004C7.32588 11.333 7.71485 11.5972 8.14413 11.7776C8.57341 11.958 9.03436 12.0509 9.5 12.0509C9.96564 12.0509 10.4266 11.958 10.8559 11.7776C11.2852 11.5972 11.6741 11.333 12 11.0004L16 7.00038C16.663 6.33734 17.0355 5.43806 17.0355 4.50038C17.0355 3.5627 16.663 2.66342 16 2.00038C15.337 1.33734 14.4377 0.964844 13.5 0.964844C12.5623 0.964844 11.663 1.33734 11 2.00038L10.5 2.50038" stroke="#0F172A" stroke-width="1.5" stroke-linecap="round" stroke-linejoin="round"/>
<path d="M11 7.00071C10.6741 6.66811 10.2852 6.40388 9.85588 6.22349C9.42661 6.04311 8.96565 5.9502 8.50001 5.9502C8.03437 5.9502 7.57342 6.04311 7.14414 6.22349C6.71486 6.40388 6.32589 6.66811 6.00001 7.00071L2.00001 11.0007C1.33697 11.6637 0.964478 12.563 0.964478 13.5007C0.964478 14.4384 1.33697 15.3377 2.00001 16.0007C2.66305 16.6637 3.56233 17.0362 4.50001 17.0362C5.43769 17.0362 6.33697 16.6637 7.00001 16.0007L7.50001 15.5007" stroke="#0F172A" stroke-width="1.5" stroke-linecap="round" stroke-linejoin="round"/>
</svg>
