<svg width="20" height="12" viewBox="0 0 20 12" fill="none" xmlns="http://www.w3.org/2000/svg">
<g clip-path="url(#clip0_989_11223)">
<path fill-rule="evenodd" clip-rule="evenodd" d="M7.22083 10.702H12.5737V1.28125H7.22083V10.702Z" fill="#FF5F00"/>
<path fill-rule="evenodd" clip-rule="evenodd" d="M7.56124 5.99135C7.56124 4.08011 8.47496 2.3779 9.8978 1.28098C8.85714 0.478643 7.54425 0 6.11716 0C2.73874 0 0.00012207 2.68246 0.00012207 5.99135C0.00012207 9.30025 2.73874 11.9827 6.11716 11.9827C7.54425 11.9827 8.85714 11.5041 9.8978 10.7017C8.47496 9.60464 7.56124 7.9026 7.56124 5.99135Z" fill="#EB001B"/>
<path fill-rule="evenodd" clip-rule="evenodd" d="M19.6044 9.704V9.4715H19.5424L19.4712 9.63144L19.3998 9.4715H19.3378V9.704H19.3815V9.52858L19.4484 9.67987H19.4938L19.5607 9.52825V9.704H19.6044ZM19.2117 9.704V9.51111H19.2912V9.47183H19.089V9.51111H19.1684V9.704H19.2117ZM19.7954 5.99136C19.7954 9.30025 17.0566 11.9827 13.6784 11.9827C12.2513 11.9827 10.9382 11.5041 9.89772 10.7017C11.3206 9.60481 12.2343 7.9026 12.2343 5.99136C12.2343 4.08028 11.3206 2.37807 9.89772 1.28098C10.9382 0.478643 12.2513 0 13.6784 0C17.0566 0 19.7954 2.68246 19.7954 5.99136Z" fill="#F79E1B"/>
</g>
<defs>
<clipPath id="clip0_989_11223">
<rect width="20" height="12" fill="white"/>
</clipPath>
</defs>
</svg>
