<svg width="34" height="29" viewBox="0 0 34 29" fill="none" xmlns="http://www.w3.org/2000/svg">
<path d="M1.53793 0.464928C1.38312 0.463025 1.22976 0.493367 1.0886 0.553825C0.947449 0.614283 0.821926 0.703389 0.720851 0.814887C0.619776 0.926384 0.545599 1.05757 0.503531 1.19923C0.461462 1.34089 0.452521 1.48959 0.477336 1.63488L4.97974 27.6223C5.03582 27.9403 5.20797 28.2294 5.46595 28.4387C5.72392 28.6481 6.05123 28.7643 6.39037 28.7669H27.9901C28.2443 28.77 28.4912 28.6862 28.6858 28.5307C28.8805 28.3752 29.0099 28.1584 29.0506 27.9198L33.5531 1.63992C33.5779 1.49463 33.5689 1.34595 33.5268 1.20432C33.4847 1.06268 33.4105 0.931518 33.3094 0.820047C33.2083 0.708576 33.0828 0.619495 32.9417 0.55906C32.8005 0.498624 32.6472 0.4683 32.4924 0.470215L1.53793 0.464928ZM20.4967 19.2471H13.6026L11.7359 9.97454H22.1672L20.4967 19.2471Z" fill="#2684FF"/>
<path d="M32.0937 9.96094H22.1477L20.4784 19.2261H13.5899L5.45605 28.4056C5.71386 28.6176 6.04254 28.7354 6.38333 28.7381H27.9713C28.2253 28.7412 28.472 28.6575 28.6666 28.5021C28.8611 28.3468 28.9905 28.1302 29.0311 27.8917L32.0937 9.96094Z" fill="url(#paint0_linear_597_13259)"/>
<defs>
<linearGradient id="paint0_linear_597_13259" x1="34.3933" y1="12.5556" x2="23.6656" y2="28.576" gradientUnits="userSpaceOnUse">
<stop offset="0.18" stop-color="#0052CC"/>
<stop offset="1" stop-color="#2684FF"/>
</linearGradient>
</defs>
</svg>
