<svg width="214" height="127" viewBox="0 0 214 127" fill="none" xmlns="http://www.w3.org/2000/svg">
<rect width="214" height="126" rx="8" fill="#1A202C"/>
<mask id="mask0_989_11264" style="mask-type:alpha" maskUnits="userSpaceOnUse" x="0" y="0" width="214" height="127">
<rect y="0.399902" width="214" height="126" rx="16" fill="#FF603D"/>
</mask>
<g mask="url(#mask0_989_11264)">
<path d="M97.2113 63.7319C97.2113 118.12 142.094 162.211 197.461 162.211C252.827 162.211 297.71 118.12 297.71 63.7319C297.71 9.34346 252.827 -34.7471 197.461 -34.7471C142.094 -34.7471 97.2113 9.34346 97.2113 63.7319ZM269.769 63.7319C269.769 102.962 237.395 134.764 197.461 134.764C157.526 134.764 125.152 102.962 125.152 63.7319C125.152 24.5021 157.526 -7.29993 197.461 -7.29993C237.395 -7.29993 269.769 24.5021 269.769 63.7319Z" fill="url(#paint0_linear_989_11264)" fill-opacity="0.9"/>
<path d="M160.669 63.4003C160.669 85.3754 178.803 103.19 201.173 103.19C223.543 103.19 241.678 85.3754 241.678 63.4003C241.678 41.4252 223.543 23.6108 201.173 23.6108C178.803 23.6108 160.669 41.4252 160.669 63.4003ZM224.942 63.4003C224.942 76.2958 214.301 86.7497 201.173 86.7497C188.046 86.7497 177.404 76.2958 177.404 63.4003C177.404 50.5048 188.046 40.051 201.173 40.051C214.301 40.051 224.942 50.5048 224.942 63.4003Z" fill="url(#paint1_linear_989_11264)" fill-opacity="0.9"/>
</g>
<rect x="22.3824" y="19.853" width="19.7353" height="14.9174" rx="3.75" fill="url(#paint2_linear_989_11264)" stroke="#9F7E3B" stroke-width="0.5"/>
<path d="M22.4485 24.3457H27.0882C28.1928 24.3457 29.0882 25.2411 29.0882 26.3457V28.0608M29.0882 34.7163V31.7759M29.0882 31.7759V28.0608M29.0882 31.7759H22.4485M29.0882 28.0608H22.4485" stroke="black" stroke-opacity="0.76" stroke-width="0.5"/>
<path d="M42.0515 24.3459H35.7279M35.7279 24.3459V28.061M35.7279 24.3459V19.9194M35.7279 34.7165V31.7761M35.7279 31.7761V28.061M35.7279 31.7761H42.0515M35.7279 28.061H42.0515" stroke="black" stroke-opacity="0.76" stroke-width="0.5"/>
<path d="M178.704 30.1112V25.0556H180.141V25.4297C180.318 25.268 180.523 25.1416 180.755 25.0506C180.988 24.9596 181.234 24.9141 181.495 24.9141C181.849 24.9141 182.173 24.9933 182.468 25.1517C182.767 25.3101 183.006 25.5207 183.187 25.7836C183.371 25.5207 183.61 25.3101 183.905 25.1517C184.2 24.9933 184.523 24.9141 184.874 24.9141C185.252 24.9141 185.594 25.0034 185.899 25.182C186.208 25.3606 186.454 25.5999 186.638 25.8999C186.822 26.1965 186.914 26.5285 186.914 26.8958V30.1112H185.477V27.2801C185.477 27.1048 185.432 26.9464 185.342 26.8048C185.255 26.6599 185.139 26.5453 184.993 26.4611C184.847 26.3734 184.684 26.3296 184.504 26.3296C184.323 26.3296 184.159 26.3717 184.009 26.456C183.863 26.5403 183.745 26.6549 183.655 26.7998C183.568 26.9413 183.525 27.1014 183.525 27.2801V30.1112H182.088V27.2801C182.088 27.1014 182.045 26.9413 181.958 26.7998C181.871 26.6549 181.753 26.5403 181.604 26.456C181.458 26.3717 181.295 26.3296 181.115 26.3296C180.938 26.3296 180.774 26.3734 180.625 26.4611C180.479 26.5453 180.361 26.6599 180.271 26.8048C180.184 26.9464 180.141 27.1048 180.141 27.2801V30.1112H178.704Z" fill="#BFCDFF"/>
<path d="M187.749 28.2608V25.0556H189.186V27.8766C189.186 28.0552 189.23 28.217 189.316 28.362C189.407 28.5035 189.526 28.6164 189.676 28.7007C189.825 28.7849 189.988 28.8271 190.165 28.8271C190.345 28.8271 190.51 28.7849 190.66 28.7007C190.809 28.6164 190.927 28.5035 191.014 28.362C191.1 28.217 191.144 28.0552 191.144 27.8766V25.0556H192.581L192.586 30.1112H191.149L191.144 29.727C190.97 29.8887 190.765 30.0151 190.529 30.1061C190.297 30.1971 190.05 30.2426 189.79 30.2426C189.415 30.2426 189.073 30.1533 188.764 29.9747C188.456 29.796 188.209 29.5584 188.025 29.2618C187.841 28.9619 187.749 28.6282 187.749 28.2608Z" fill="#BFCDFF"/>
<path d="M193.637 30.1112L193.632 25.0556H195.068L195.074 25.4297C195.247 25.268 195.45 25.1416 195.683 25.0506C195.919 24.9596 196.167 24.9141 196.427 24.9141C196.618 24.9141 196.809 24.941 197 24.995L196.433 26.4055C196.308 26.3549 196.181 26.3296 196.052 26.3296C195.872 26.3296 195.707 26.3717 195.558 26.456C195.409 26.5403 195.291 26.6549 195.204 26.7998C195.117 26.9413 195.074 27.1014 195.074 27.2801V30.1112H193.637Z" fill="#BFCDFF"/>
<path d="M166.151 30.111V28.7156L170.103 24.4285H166.151V23.0332H172.045V24.4285L168.093 28.7156H172.045V30.111H166.151Z" fill="#E8EDFF"/>
<path d="M175.168 30.2424C174.689 30.2424 174.252 30.1228 173.856 29.8835C173.464 29.6442 173.15 29.324 172.914 28.9229C172.681 28.5185 172.565 28.0719 172.565 27.5832C172.565 27.2125 172.633 26.867 172.768 26.5468C172.903 26.2233 173.089 25.9401 173.325 25.6975C173.565 25.4514 173.842 25.2593 174.158 25.1211C174.474 24.983 174.811 24.9139 175.168 24.9139C175.647 24.9139 176.083 25.0335 176.475 25.2728C176.871 25.5121 177.185 25.834 177.417 26.2384C177.653 26.6429 177.771 27.0911 177.771 27.5832C177.771 27.9506 177.704 28.2944 177.568 28.6145C177.433 28.9347 177.246 29.2178 177.006 29.4639C176.77 29.7065 176.494 29.897 176.178 30.0351C175.866 30.1733 175.529 30.2424 175.168 30.2424ZM175.168 28.8471C175.39 28.8471 175.59 28.7898 175.767 28.6752C175.944 28.5572 176.083 28.4022 176.183 28.2101C176.284 28.018 176.334 27.809 176.334 27.5832C176.334 27.3506 176.281 27.1383 176.173 26.9462C176.069 26.7507 175.928 26.5957 175.751 26.4811C175.574 26.3665 175.38 26.3092 175.168 26.3092C174.95 26.3092 174.752 26.3682 174.575 26.4861C174.398 26.6041 174.257 26.7591 174.153 26.9513C174.052 27.1434 174.002 27.354 174.002 27.5832C174.002 27.8225 174.054 28.0382 174.158 28.2303C174.266 28.4191 174.408 28.569 174.585 28.6803C174.762 28.7915 174.957 28.8471 175.168 28.8471Z" fill="#E8EDFF"/>
<path opacity="0.6" d="M152.005 28.0464L156.185 28.0464L159.785 25.2271L155.41 25.2271L152.005 28.0464Z" fill="white"/>
<path d="M151.984 28.062L151.984 30.4141L159.78 30.4141L159.78 28.0496L156.183 28.048L156.185 28.0465L152.005 28.0465L151.984 28.062Z" fill="white"/>
<path d="M151.718 22.6557L151.718 23.2554L152.335 23.2554L152.335 22.6557L151.718 22.6557Z" fill="white"/>
<path d="M151.216 22.1667L151.216 22.6558L151.719 22.6558L151.719 22.1667L151.216 22.1667Z" fill="white"/>
<path d="M150.859 22.6557L150.859 23.0015L151.216 23.0015L151.216 22.6557L150.859 22.6557Z" fill="white"/>
<path d="M152.673 22.8594L152.673 23.6382L153.475 23.6382L153.475 22.8594L152.673 22.8594Z" fill="white"/>
<path d="M154.181 23.6383L153.476 23.6383L153.476 24.4015L152.674 24.4015L152.674 23.6383L151.984 23.6383L151.984 25.2115L155.426 25.2115L155.41 25.2271L159.784 25.2271L159.78 22.8595L154.181 22.8595L154.181 23.6383Z" fill="white"/>
<path d="M183.716 92.1058C182.937 91.8263 182.114 91.686 181.285 91.6916C178.604 91.6916 176.711 93.0219 176.698 94.9315C176.681 96.3344 178.043 97.125 179.073 97.5937C180.131 98.0757 180.484 98.3793 180.481 98.8101C180.474 99.4654 179.636 99.7624 178.857 99.7624C177.787 99.7624 177.202 99.6156 176.302 99.2475L175.969 99.094L175.588 101.292C176.24 101.56 177.415 101.789 178.628 101.809C181.478 101.809 183.341 100.487 183.363 98.4553C183.386 97.3346 182.649 96.4879 181.097 95.7881C180.154 95.3342 179.569 95.0305 179.569 94.57C179.569 94.1623 180.07 93.7266 181.118 93.7266C181.814 93.71 182.507 93.8388 183.15 94.1046L183.401 94.2152L183.782 92.091L183.716 92.1058ZM190.673 91.8698H188.578C187.927 91.8698 187.436 92.0464 187.151 92.6835L183.123 101.672H185.973L186.543 100.198L190.021 100.201C190.103 100.546 190.354 101.672 190.354 101.672H192.868L190.673 91.8698ZM172.842 91.7873H175.558L173.859 101.594H171.147L172.842 91.784V91.7873ZM165.948 97.1926L166.229 98.5543L168.883 91.8698H171.76L167.486 101.659H164.616L162.27 93.3701C162.232 93.2334 162.143 93.1161 162.02 93.0417C161.175 92.6114 160.279 92.285 159.353 92.0695L159.39 91.8632H163.761C164.354 91.8863 164.832 92.0695 164.991 92.6934L165.946 97.1976V97.1926H165.948ZM187.322 98.1928L188.404 95.4497C188.391 95.4794 188.627 94.8836 188.764 94.5156L188.95 95.3623L189.579 98.1912H187.32V98.1928H187.322Z" fill="white"/>
<path opacity="0.6" d="M23.6167 79.1914V70.7914H26.7847C27.6567 70.7914 28.3167 70.9954 28.7647 71.4034C29.2127 71.8114 29.4367 72.3234 29.4367 72.9394C29.4367 73.4754 29.2927 73.9034 29.0047 74.2234C28.7167 74.5354 28.3687 74.7474 27.9607 74.8594C28.2807 74.9234 28.5647 75.0514 28.8127 75.2434C29.0687 75.4354 29.2687 75.6754 29.4127 75.9634C29.5567 76.2514 29.6287 76.5634 29.6287 76.8994C29.6287 77.3314 29.5207 77.7234 29.3047 78.0754C29.0967 78.4194 28.7887 78.6914 28.3807 78.8914C27.9727 79.0914 27.4727 79.1914 26.8807 79.1914H23.6167ZM24.8887 74.3914H26.6287C27.1167 74.3914 27.4887 74.2794 27.7447 74.0554C28.0007 73.8234 28.1287 73.5074 28.1287 73.1074C28.1287 72.7154 28.0007 72.4034 27.7447 72.1714C27.4967 71.9394 27.1167 71.8234 26.6047 71.8234H24.8887V74.3914ZM24.8887 78.1474H26.7127C27.2247 78.1474 27.6207 78.0274 27.9007 77.7874C28.1887 77.5474 28.3327 77.2114 28.3327 76.7794C28.3327 76.3474 28.1847 76.0074 27.8887 75.7594C27.5927 75.5034 27.1927 75.3754 26.6887 75.3754H24.8887V78.1474ZM33.391 79.3354C32.887 79.3354 32.471 79.2514 32.143 79.0834C31.815 78.9154 31.571 78.6954 31.411 78.4234C31.251 78.1434 31.171 77.8394 31.171 77.5114C31.171 76.9354 31.395 76.4794 31.843 76.1434C32.291 75.8074 32.931 75.6394 33.763 75.6394H35.323V75.5314C35.323 75.0674 35.195 74.7194 34.939 74.4874C34.691 74.2554 34.367 74.1394 33.967 74.1394C33.615 74.1394 33.307 74.2274 33.043 74.4034C32.787 74.5714 32.631 74.8234 32.575 75.1594H31.303C31.343 74.7274 31.487 74.3594 31.735 74.0554C31.991 73.7434 32.311 73.5074 32.695 73.3474C33.087 73.1794 33.515 73.0954 33.979 73.0954C34.811 73.0954 35.455 73.3154 35.911 73.7554C36.367 74.1874 36.595 74.7794 36.595 75.5314V79.1914H35.491L35.383 78.1714C35.215 78.4994 34.971 78.7754 34.651 78.9994C34.331 79.2234 33.911 79.3354 33.391 79.3354ZM33.643 78.3034C33.987 78.3034 34.275 78.2234 34.507 78.0634C34.747 77.8954 34.931 77.6754 35.059 77.4034C35.195 77.1314 35.279 76.8314 35.311 76.5034H33.895C33.391 76.5034 33.031 76.5914 32.815 76.7674C32.607 76.9434 32.503 77.1634 32.503 77.4274C32.503 77.6994 32.603 77.9154 32.803 78.0754C33.011 78.2274 33.291 78.3034 33.643 78.3034ZM38.4781 79.1914V70.5514H39.7501V79.1914H38.4781ZM43.7769 79.3354C43.2729 79.3354 42.8569 79.2514 42.5289 79.0834C42.2009 78.9154 41.9569 78.6954 41.7969 78.4234C41.6369 78.1434 41.5569 77.8394 41.5569 77.5114C41.5569 76.9354 41.7809 76.4794 42.2289 76.1434C42.6769 75.8074 43.3169 75.6394 44.1489 75.6394H45.7089V75.5314C45.7089 75.0674 45.5809 74.7194 45.3249 74.4874C45.0769 74.2554 44.7529 74.1394 44.3529 74.1394C44.0009 74.1394 43.6929 74.2274 43.4289 74.4034C43.1729 74.5714 43.0169 74.8234 42.9609 75.1594H41.6889C41.7289 74.7274 41.8729 74.3594 42.1209 74.0554C42.3769 73.7434 42.6969 73.5074 43.0809 73.3474C43.4729 73.1794 43.9009 73.0954 44.3649 73.0954C45.1969 73.0954 45.8409 73.3154 46.2969 73.7554C46.7529 74.1874 46.9809 74.7794 46.9809 75.5314V79.1914H45.8769L45.7689 78.1714C45.6009 78.4994 45.3569 78.7754 45.0369 78.9994C44.7169 79.2234 44.2969 79.3354 43.7769 79.3354ZM44.0289 78.3034C44.3729 78.3034 44.6609 78.2234 44.8929 78.0634C45.1329 77.8954 45.3169 77.6754 45.4449 77.4034C45.5809 77.1314 45.6649 76.8314 45.6969 76.5034H44.2809C43.7769 76.5034 43.4169 76.5914 43.2009 76.7674C42.9929 76.9434 42.8889 77.1634 42.8889 77.4274C42.8889 77.6994 42.9889 77.9154 43.1889 78.0754C43.3969 78.2274 43.6769 78.3034 44.0289 78.3034ZM48.864 79.1914V73.2394H49.992L50.088 74.2834C50.272 73.9154 50.54 73.6274 50.892 73.4194C51.252 73.2034 51.664 73.0954 52.128 73.0954C52.848 73.0954 53.412 73.3194 53.82 73.7674C54.236 74.2154 54.444 74.8834 54.444 75.7714V79.1914H53.184V75.9034C53.184 74.7514 52.712 74.1754 51.768 74.1754C51.296 74.1754 50.904 74.3434 50.592 74.6794C50.288 75.0154 50.136 75.4954 50.136 76.1194V79.1914H48.864ZM59.1621 79.3354C58.5781 79.3354 58.0541 79.2034 57.5901 78.9394C57.1341 78.6754 56.7741 78.3114 56.5101 77.8474C56.2541 77.3754 56.1261 76.8314 56.1261 76.2154C56.1261 75.5994 56.2541 75.0594 56.5101 74.5954C56.7741 74.1234 57.1341 73.7554 57.5901 73.4914C58.0541 73.2274 58.5781 73.0954 59.1621 73.0954C59.8981 73.0954 60.5141 73.2874 61.0101 73.6714C61.5141 74.0554 61.8381 74.5754 61.9821 75.2314H60.6501C60.5701 74.9034 60.3941 74.6474 60.1221 74.4634C59.8501 74.2794 59.5301 74.1874 59.1621 74.1874C58.8501 74.1874 58.5621 74.2674 58.2981 74.4274C58.0341 74.5794 57.8221 74.8074 57.6621 75.1114C57.5021 75.4074 57.4221 75.7754 57.4221 76.2154C57.4221 76.6554 57.5021 77.0274 57.6621 77.3314C57.8221 77.6274 58.0341 77.8554 58.2981 78.0154C58.5621 78.1754 58.8501 78.2554 59.1621 78.2554C59.5301 78.2554 59.8501 78.1634 60.1221 77.9794C60.3941 77.7954 60.5701 77.5354 60.6501 77.1994H61.9821C61.8461 77.8394 61.5261 78.3554 61.0221 78.7474C60.5181 79.1394 59.8981 79.3354 59.1621 79.3354ZM66.5457 79.3354C65.9617 79.3354 65.4417 79.2074 64.9857 78.9514C64.5377 78.6874 64.1857 78.3234 63.9297 77.8594C63.6737 77.3954 63.5457 76.8554 63.5457 76.2394C63.5457 75.6154 63.6697 75.0674 63.9177 74.5954C64.1737 74.1234 64.5257 73.7554 64.9737 73.4914C65.4297 73.2274 65.9577 73.0954 66.5577 73.0954C67.1417 73.0954 67.6497 73.2274 68.0817 73.4914C68.5137 73.7474 68.8497 74.0914 69.0897 74.5234C69.3297 74.9554 69.4497 75.4314 69.4497 75.9514C69.4497 76.0314 69.4457 76.1194 69.4377 76.2154C69.4377 76.3034 69.4337 76.4034 69.4257 76.5154H64.7937C64.8337 77.0914 65.0217 77.5314 65.3577 77.8354C65.7017 78.1314 66.0977 78.2794 66.5457 78.2794C66.9057 78.2794 67.2057 78.1994 67.4457 78.0394C67.6937 77.8714 67.8777 77.6474 67.9977 77.3674H69.2697C69.1097 77.9274 68.7897 78.3954 68.3097 78.7714C67.8377 79.1474 67.2497 79.3354 66.5457 79.3354ZM66.5457 74.1394C66.1217 74.1394 65.7457 74.2674 65.4177 74.5234C65.0897 74.7714 64.8897 75.1474 64.8177 75.6514H68.1777C68.1537 75.1874 67.9897 74.8194 67.6857 74.5474C67.3817 74.2754 67.0017 74.1394 66.5457 74.1394Z" fill="white"/>
<path d="M26.9888 103.024V101.792C25.9541 101.675 25.1114 101.312 24.4608 100.704C23.8101 100.096 23.4741 99.2803 23.4528 98.2563H25.6128C25.6341 98.683 25.7621 99.0563 25.9968 99.3763C26.2421 99.6963 26.5728 99.915 26.9888 100.032V96.6563C26.8928 96.6243 26.7914 96.5923 26.6848 96.5603C26.5888 96.5283 26.4874 96.4963 26.3808 96.4643C25.5168 96.1657 24.8554 95.7817 24.3968 95.3123C23.9488 94.843 23.7248 94.219 23.7248 93.4403C23.7141 92.523 24.0128 91.787 24.6208 91.2323C25.2288 90.667 26.0181 90.3417 26.9888 90.2563V88.9603H28.0608V90.2723C29.0208 90.3683 29.7941 90.7043 30.3808 91.2803C30.9781 91.8457 31.2928 92.5763 31.3248 93.4723H29.1328C29.1221 93.163 29.0208 92.8803 28.8288 92.6243C28.6474 92.3577 28.3914 92.171 28.0608 92.0643V95.0403C28.1461 95.0723 28.2314 95.1043 28.3168 95.1363C28.4021 95.1577 28.4874 95.1843 28.5728 95.2163C29.1274 95.4083 29.6341 95.6323 30.0928 95.8883C30.5514 96.1443 30.9194 96.4857 31.1968 96.9123C31.4741 97.3283 31.6128 97.867 31.6128 98.5283C31.6128 99.083 31.4741 99.6003 31.1968 100.08C30.9301 100.56 30.5301 100.96 29.9968 101.28C29.4741 101.59 28.8288 101.766 28.0608 101.808V103.024H26.9888ZM25.8688 93.2963C25.8688 93.6377 25.9701 93.915 26.1728 94.1283C26.3754 94.331 26.6474 94.507 26.9888 94.6563V92.0003C26.6581 92.0643 26.3861 92.2083 26.1728 92.4323C25.9701 92.6563 25.8688 92.9443 25.8688 93.2963ZM29.4368 98.6723C29.4368 98.2457 29.3088 97.9097 29.0528 97.6643C28.7968 97.419 28.4661 97.211 28.0608 97.0403V100.08C28.4874 100.016 28.8234 99.8617 29.0688 99.6163C29.3141 99.371 29.4368 99.0563 29.4368 98.6723ZM33.1276 101.632V100.144C33.8103 99.579 34.4716 99.019 35.1116 98.4643C35.7623 97.9097 36.3383 97.3603 36.8396 96.8163C37.3516 96.2723 37.757 95.7443 38.0556 95.2323C38.365 94.7097 38.5196 94.203 38.5196 93.7123C38.5196 93.2537 38.3916 92.8483 38.1356 92.4963C37.8903 92.1443 37.4796 91.9683 36.9036 91.9683C36.317 91.9683 35.8743 92.1603 35.5756 92.5443C35.277 92.9283 35.1276 93.3923 35.1276 93.9363H33.1436C33.165 93.115 33.3463 92.4323 33.6876 91.8883C34.029 91.3337 34.4823 90.923 35.0476 90.6563C35.613 90.379 36.2476 90.2403 36.9516 90.2403C38.093 90.2403 38.9783 90.555 39.6076 91.1843C40.2476 91.803 40.5676 92.6083 40.5676 93.6003C40.5676 94.219 40.4236 94.8217 40.1356 95.4083C39.8583 95.995 39.4903 96.5603 39.0316 97.1043C38.573 97.6483 38.077 98.1603 37.5436 98.6403C37.0103 99.1097 36.493 99.547 35.9916 99.9523H40.8396V101.632H33.1276ZM47.5196 101.632V99.5523H41.9996V97.9203L47.2476 90.4323H49.5676V97.7763H51.0396V99.5523H49.5676V101.632H47.5196ZM44.1916 97.7763H47.6476V92.6883L44.1916 97.7763ZM51.7856 103.488L52.6976 99.5043H54.6816L53.1296 103.488H51.7856ZM60.9448 101.824C59.9101 101.824 59.0248 101.584 58.2888 101.104C57.5528 100.614 56.9821 99.9363 56.5768 99.0723C56.1821 98.1977 55.9848 97.1843 55.9848 96.0323C55.9848 94.891 56.1821 93.883 56.5768 93.0083C56.9821 92.1337 57.5528 91.4563 58.2888 90.9763C59.0248 90.4857 59.9101 90.2403 60.9448 90.2403C61.9794 90.2403 62.8648 90.4857 63.6008 90.9763C64.3368 91.4563 64.9021 92.1337 65.2968 93.0083C65.7021 93.883 65.9048 94.891 65.9048 96.0323C65.9048 97.1843 65.7021 98.1977 65.2968 99.0723C64.9021 99.9363 64.3368 100.614 63.6008 101.104C62.8648 101.584 61.9794 101.824 60.9448 101.824ZM60.9448 99.9843C61.7874 99.9843 62.4754 99.6323 63.0088 98.9283C63.5421 98.2243 63.8088 97.259 63.8088 96.0323C63.8088 94.8057 63.5421 93.8403 63.0088 93.1363C62.4754 92.4323 61.7874 92.0803 60.9448 92.0803C60.0914 92.0803 59.3981 92.4323 58.8648 93.1363C58.3421 93.8403 58.0808 94.8057 58.0808 96.0323C58.0808 97.259 58.3421 98.2243 58.8648 98.9283C59.3981 99.6323 60.0914 99.9843 60.9448 99.9843ZM71.5361 101.824C70.7575 101.824 70.1015 101.675 69.5681 101.376C69.0348 101.067 68.6188 100.667 68.3201 100.176C68.0215 99.6857 67.8455 99.1577 67.7921 98.5923H69.6961C69.7815 99.083 69.9841 99.4617 70.3041 99.7283C70.6348 99.995 71.0508 100.128 71.5521 100.128C72.2668 100.128 72.8428 99.803 73.2801 99.1523C73.7175 98.491 73.9521 97.4883 73.9841 96.1443C73.7281 96.5817 73.3388 96.9443 72.8161 97.2323C72.3041 97.5203 71.7388 97.6643 71.1201 97.6643C70.5015 97.6643 69.9201 97.515 69.3761 97.2163C68.8321 96.9177 68.3895 96.4963 68.0481 95.9523C67.7068 95.4083 67.5361 94.7683 67.5361 94.0323C67.5361 93.3603 67.7015 92.7363 68.0321 92.1603C68.3628 91.5843 68.8215 91.1203 69.4081 90.7683C69.9948 90.4163 70.6828 90.2403 71.4721 90.2403C72.3148 90.2403 73.0241 90.395 73.6001 90.7043C74.1761 91.0137 74.6348 91.4297 74.9761 91.9523C75.3281 92.475 75.5788 93.0563 75.7281 93.6963C75.8881 94.3363 75.9681 94.9923 75.9681 95.6643C75.9681 96.9123 75.7921 98.0003 75.4401 98.9283C75.0988 99.8457 74.5921 100.56 73.9201 101.072C73.2588 101.574 72.4641 101.824 71.5361 101.824ZM71.6001 95.9363C71.9948 95.9363 72.3521 95.851 72.6721 95.6803C72.9921 95.499 73.2428 95.2643 73.4241 94.9763C73.6055 94.6777 73.6961 94.347 73.6961 93.9843C73.6961 93.4083 73.4935 92.9337 73.0881 92.5603C72.6935 92.187 72.1921 92.0003 71.5841 92.0003C70.9868 92.0003 70.4908 92.187 70.0961 92.5603C69.7015 92.923 69.5041 93.387 69.5041 93.9523C69.5041 94.5497 69.7015 95.0297 70.0961 95.3923C70.4908 95.755 70.9921 95.9363 71.6001 95.9363ZM81.6641 101.824C80.8961 101.824 80.2028 101.691 79.5841 101.424C78.9655 101.147 78.4695 100.758 78.0961 100.256C77.7335 99.755 77.5521 99.1737 77.5521 98.5123C77.5521 97.8297 77.7281 97.2323 78.0801 96.7203C78.4428 96.2083 78.9175 95.8403 79.5041 95.6163C78.9921 95.3923 78.5868 95.0723 78.2881 94.6563C77.9895 94.2297 77.8401 93.755 77.8401 93.2323C77.8401 92.699 77.9841 92.2083 78.2721 91.7603C78.5601 91.3017 78.9868 90.9337 79.5521 90.6563C80.1281 90.379 80.8321 90.2403 81.6641 90.2403C82.4961 90.2403 83.1948 90.379 83.7601 90.6563C84.3255 90.9337 84.7521 91.3017 85.0401 91.7603C85.3281 92.2083 85.4721 92.699 85.4721 93.2323C85.4721 93.7443 85.3175 94.219 85.0081 94.6563C84.7095 95.083 84.3095 95.403 83.8081 95.6163C84.4055 95.8403 84.8801 96.2083 85.2321 96.7203C85.5841 97.2323 85.7601 97.8297 85.7601 98.5123C85.7601 99.1737 85.5788 99.755 85.2161 100.256C84.8535 100.758 84.3575 101.147 83.7281 101.424C83.1095 101.691 82.4215 101.824 81.6641 101.824ZM81.6641 95.0083C82.2188 95.0083 82.6561 94.8643 82.9761 94.5763C83.2961 94.2883 83.4561 93.9203 83.4561 93.4723C83.4561 92.9817 83.2961 92.5977 82.9761 92.3203C82.6668 92.043 82.2295 91.9043 81.6641 91.9043C81.0881 91.9043 80.6455 92.043 80.3361 92.3203C80.0268 92.5977 79.8721 92.9817 79.8721 93.4723C79.8721 93.931 80.0268 94.3043 80.3361 94.5923C80.6561 94.8697 81.0988 95.0083 81.6641 95.0083ZM81.6641 100.112C82.3468 100.112 82.8641 99.947 83.2161 99.6163C83.5681 99.275 83.7441 98.8483 83.7441 98.3363C83.7441 97.771 83.5575 97.3283 83.1841 97.0083C82.8215 96.6883 82.3148 96.5283 81.6641 96.5283C81.0135 96.5283 80.4961 96.6883 80.1121 97.0083C79.7388 97.3283 79.5521 97.771 79.5521 98.3363C79.5521 98.8483 79.7281 99.275 80.0801 99.6163C80.4428 99.947 80.9708 100.112 81.6641 100.112ZM88.6066 101.744C88.2333 101.744 87.924 101.627 87.6786 101.392C87.444 101.158 87.3266 100.875 87.3266 100.544C87.3266 100.203 87.444 99.915 87.6786 99.6803C87.924 99.4457 88.2333 99.3283 88.6066 99.3283C88.98 99.3283 89.284 99.4457 89.5186 99.6803C89.764 99.915 89.8866 100.203 89.8866 100.544C89.8866 100.875 89.764 101.158 89.5186 101.392C89.284 101.627 88.98 101.744 88.6066 101.744ZM95.5698 101.824C94.5351 101.824 93.6498 101.584 92.9138 101.104C92.1778 100.614 91.6071 99.9363 91.2018 99.0723C90.8071 98.1977 90.6098 97.1843 90.6098 96.0323C90.6098 94.891 90.8071 93.883 91.2018 93.0083C91.6071 92.1337 92.1778 91.4563 92.9138 90.9763C93.6498 90.4857 94.5351 90.2403 95.5698 90.2403C96.6044 90.2403 97.4898 90.4857 98.2258 90.9763C98.9618 91.4563 99.5271 92.1337 99.9218 93.0083C100.327 93.883 100.53 94.891 100.53 96.0323C100.53 97.1843 100.327 98.1977 99.9218 99.0723C99.5271 99.9363 98.9618 100.614 98.2258 101.104C97.4898 101.584 96.6044 101.824 95.5698 101.824ZM95.5698 99.9843C96.4124 99.9843 97.1004 99.6323 97.6338 98.9283C98.1671 98.2243 98.4338 97.259 98.4338 96.0323C98.4338 94.8057 98.1671 93.8403 97.6338 93.1363C97.1004 92.4323 96.4124 92.0803 95.5698 92.0803C94.7164 92.0803 94.0231 92.4323 93.4898 93.1363C92.9671 93.8403 92.7058 94.8057 92.7058 96.0323C92.7058 97.259 92.9671 98.2243 93.4898 98.9283C94.0231 99.6323 94.7164 99.9843 95.5698 99.9843ZM106.929 101.824C105.894 101.824 105.009 101.584 104.273 101.104C103.537 100.614 102.966 99.9363 102.561 99.0723C102.166 98.1977 101.969 97.1843 101.969 96.0323C101.969 94.891 102.166 93.883 102.561 93.0083C102.966 92.1337 103.537 91.4563 104.273 90.9763C105.009 90.4857 105.894 90.2403 106.929 90.2403C107.964 90.2403 108.849 90.4857 109.585 90.9763C110.321 91.4563 110.886 92.1337 111.281 93.0083C111.686 93.883 111.889 94.891 111.889 96.0323C111.889 97.1843 111.686 98.1977 111.281 99.0723C110.886 99.9363 110.321 100.614 109.585 101.104C108.849 101.584 107.964 101.824 106.929 101.824ZM106.929 99.9843C107.772 99.9843 108.46 99.6323 108.993 98.9283C109.526 98.2243 109.793 97.259 109.793 96.0323C109.793 94.8057 109.526 93.8403 108.993 93.1363C108.46 92.4323 107.772 92.0803 106.929 92.0803C106.076 92.0803 105.382 92.4323 104.849 93.1363C104.326 93.8403 104.065 94.8057 104.065 96.0323C104.065 97.259 104.326 98.2243 104.849 98.9283C105.382 99.6323 106.076 99.9843 106.929 99.9843Z" fill="white"/>
<g opacity="0.6" clip-path="url(#clip0_989_11264)">
<path d="M80.0589 76.7258C80.5245 76.7258 80.902 76.3483 80.902 75.8827C80.902 75.417 80.5245 75.0396 80.0589 75.0396C79.5932 75.0396 79.2158 75.417 79.2158 75.8827C79.2158 76.3483 79.5932 76.7258 80.0589 76.7258Z" stroke="white" stroke-width="1.5" stroke-linecap="round" stroke-linejoin="round"/>
<path d="M84.2746 75.8826C83.1502 77.8501 81.7452 78.8336 80.0589 78.8336C78.3726 78.8336 76.9675 77.8501 75.8432 75.8826C76.9675 73.9152 78.3726 72.9316 80.0589 72.9316C81.7452 72.9316 83.1502 73.9152 84.2746 75.8826Z" stroke="white" stroke-width="1.5" stroke-linecap="round" stroke-linejoin="round"/>
</g>
<defs>
<linearGradient id="paint0_linear_989_11264" x1="64.4699" y1="63.4003" x2="156.281" y2="63.4003" gradientUnits="userSpaceOnUse">
<stop stop-color="white" stop-opacity="0.15"/>
<stop offset="1" stop-color="white" stop-opacity="0"/>
</linearGradient>
<linearGradient id="paint1_linear_989_11264" x1="146.154" y1="63.4003" x2="218.05" y2="63.4003" gradientUnits="userSpaceOnUse">
<stop stop-color="white" stop-opacity="0.15"/>
<stop offset="1" stop-color="white" stop-opacity="0"/>
</linearGradient>
<linearGradient id="paint2_linear_989_11264" x1="22.1324" y1="19.603" x2="42.3676" y2="35.0957" gradientUnits="userSpaceOnUse">
<stop stop-color="#E6AC3C"/>
<stop offset="1" stop-color="#FFDA93"/>
</linearGradient>
<clipPath id="clip0_989_11264">
<rect width="10.1176" height="10.1176" fill="white" transform="translate(75.0001 70.8237)"/>
</clipPath>
</defs>
</svg>
