<svg version="1.2" xmlns="http://www.w3.org/2000/svg" viewBox="0 0 316 153" width="316" height="153"><style>.a{fill:none;stroke:#bfcdff;stroke-width:40}.b{fill:none;stroke:#facc15;stroke-width:40}.c{fill:none;stroke:#FF603D;stroke-width:60}</style><path fill-rule="evenodd" class="a" d="m30 153c0-17.5 3.4-34.8 10.1-50.9 6.7-16.1 16.5-30.8 28.9-43.1 12.3-12.4 27-22.2 43.1-28.9 16.1-6.7 33.4-10.1 50.9-10.1 17.5 0 34.8 3.4 50.9 10.1 16.1 6.7 30.8 16.5 43.1 28.9 12.4 12.3 22.2 27 28.9 43.1 6.7 16.1 10.1 33.4 10.1 50.9"/><path fill-rule="evenodd" class="b" d="m251.6 53.8c13.9 12.4 25.1 27.7 32.8 44.8 7.6 17.1 11.6 35.7 11.6 54.4"/><path fill-rule="evenodd" class="c" d="m30 152.1c0.2-21.1 5.3-41.8 15-60.5 9.7-18.6 23.7-34.7 40.8-46.9"/></svg>