<svg width="337" height="170" viewBox="0 0 337 170" fill="none" xmlns="http://www.w3.org/2000/svg">
<path opacity="0.5" d="M63.535 164V154.2H64.907L68.435 161.032L71.935 154.2H73.321V164H72.145V156.3L68.869 162.6H67.987L64.711 156.314V164H63.535ZM77.6285 164.168C77.0499 164.168 76.5692 164.07 76.1865 163.874C75.8039 163.678 75.5192 163.417 75.3325 163.09C75.1459 162.763 75.0525 162.409 75.0525 162.026C75.0525 161.317 75.3232 160.771 75.8645 160.388C76.4059 160.005 77.1432 159.814 78.0765 159.814H79.9525V159.73C79.9525 159.123 79.7939 158.666 79.4765 158.358C79.1592 158.041 78.7345 157.882 78.2025 157.882C77.7452 157.882 77.3485 157.999 77.0125 158.232C76.6859 158.456 76.4805 158.787 76.3965 159.226H75.1925C75.2392 158.722 75.4072 158.297 75.6965 157.952C75.9952 157.607 76.3639 157.345 76.8025 157.168C77.2412 156.981 77.7079 156.888 78.2025 156.888C79.1732 156.888 79.9012 157.149 80.3865 157.672C80.8812 158.185 81.1285 158.871 81.1285 159.73V164H80.0785L80.0085 162.754C79.8125 163.146 79.5232 163.482 79.1405 163.762C78.7672 164.033 78.2632 164.168 77.6285 164.168ZM77.8105 163.174C78.2585 163.174 78.6412 163.057 78.9585 162.824C79.2852 162.591 79.5325 162.287 79.7005 161.914C79.8685 161.541 79.9525 161.149 79.9525 160.738V160.724H78.1745C77.4839 160.724 76.9939 160.845 76.7045 161.088C76.4245 161.321 76.2845 161.615 76.2845 161.97C76.2845 162.334 76.4152 162.628 76.6765 162.852C76.9472 163.067 77.3252 163.174 77.8105 163.174ZM83.4437 167.08L85.1657 163.328H84.7597L82.0017 157.056H83.2757L85.5717 162.46L88.0077 157.056H89.2257L84.6757 167.08H83.4437Z" fill="#022964"/>
<path opacity="0.5" d="M0.833086 164L4.44509 154.2H5.69109L9.28909 164H8.04309L7.14709 161.48H2.97509L2.06509 164H0.833086ZM3.32509 160.528H6.79709L5.06109 155.684L3.32509 160.528ZM10.676 167.08V157.056H11.74L11.852 158.204C12.076 157.868 12.3933 157.565 12.804 157.294C13.224 157.023 13.756 156.888 14.4 156.888C15.0906 156.888 15.6926 157.047 16.206 157.364C16.7193 157.681 17.116 158.115 17.396 158.666C17.6853 159.217 17.83 159.842 17.83 160.542C17.83 161.242 17.6853 161.867 17.396 162.418C17.116 162.959 16.7146 163.389 16.192 163.706C15.6786 164.014 15.0766 164.168 14.386 164.168C13.8166 164.168 13.308 164.051 12.86 163.818C12.4213 163.585 12.0853 163.258 11.852 162.838V167.08H10.676ZM14.26 163.146C14.7266 163.146 15.1373 163.039 15.492 162.824C15.8466 162.6 16.1266 162.292 16.332 161.9C16.5373 161.508 16.64 161.051 16.64 160.528C16.64 160.005 16.5373 159.548 16.332 159.156C16.1266 158.764 15.8466 158.461 15.492 158.246C15.1373 158.022 14.7266 157.91 14.26 157.91C13.7933 157.91 13.3826 158.022 13.028 158.246C12.6733 158.461 12.3933 158.764 12.188 159.156C11.9826 159.548 11.88 160.005 11.88 160.528C11.88 161.051 11.9826 161.508 12.188 161.9C12.3933 162.292 12.6733 162.6 13.028 162.824C13.3826 163.039 13.7933 163.146 14.26 163.146ZM19.467 164V157.056H20.531L20.629 158.386C20.8436 157.929 21.1703 157.565 21.609 157.294C22.0476 157.023 22.589 156.888 23.233 156.888V158.12H22.911C22.5003 158.12 22.1223 158.195 21.777 158.344C21.4316 158.484 21.1563 158.727 20.951 159.072C20.7456 159.417 20.643 159.893 20.643 160.5V164H19.467Z" fill="#022964"/>
<path d="M193.669 164.168C192.783 164.168 192.087 163.921 191.583 163.426C191.079 162.931 190.827 162.245 190.827 161.368H192.017C192.017 161.863 192.139 162.278 192.381 162.614C192.624 162.95 193.049 163.118 193.655 163.118C194.243 163.118 194.649 162.955 194.873 162.628C195.107 162.301 195.223 161.895 195.223 161.41V154.2H196.399V161.41C196.399 162.278 196.157 162.955 195.671 163.44C195.195 163.925 194.528 164.168 193.669 164.168ZM200.936 164.168C200.114 164.168 199.461 163.921 198.976 163.426C198.49 162.922 198.248 162.152 198.248 161.116V157.056H199.424V160.99C199.424 162.437 200.016 163.16 201.202 163.16C201.808 163.16 202.308 162.945 202.7 162.516C203.101 162.077 203.302 161.457 203.302 160.654V157.056H204.478V164H203.414L203.33 162.754C203.115 163.193 202.793 163.538 202.364 163.79C201.944 164.042 201.468 164.168 200.936 164.168ZM206.413 164V153.92H207.589V164H206.413Z" fill="#022964"/>
<path opacity="0.5" d="M131.715 164.168C130.828 164.168 130.133 163.921 129.629 163.426C129.125 162.931 128.873 162.245 128.873 161.368H130.063C130.063 161.863 130.184 162.278 130.427 162.614C130.67 162.95 131.094 163.118 131.701 163.118C132.289 163.118 132.695 162.955 132.919 162.628C133.152 162.301 133.269 161.895 133.269 161.41V154.2H134.445V161.41C134.445 162.278 134.202 162.955 133.717 163.44C133.241 163.925 132.574 164.168 131.715 164.168ZM138.981 164.168C138.16 164.168 137.507 163.921 137.021 163.426C136.536 162.922 136.293 162.152 136.293 161.116V157.056H137.469V160.99C137.469 162.437 138.062 163.16 139.247 163.16C139.854 163.16 140.353 162.945 140.745 162.516C141.147 162.077 141.347 161.457 141.347 160.654V157.056H142.523V164H141.459L141.375 162.754C141.161 163.193 140.839 163.538 140.409 163.79C139.989 164.042 139.513 164.168 138.981 164.168ZM144.459 164V157.056H145.523L145.593 158.302C145.817 157.863 146.139 157.518 146.559 157.266C146.979 157.014 147.455 156.888 147.987 156.888C148.808 156.888 149.462 157.14 149.947 157.644C150.442 158.139 150.689 158.904 150.689 159.94V164H149.513V160.066C149.513 158.619 148.916 157.896 147.721 157.896C147.124 157.896 146.624 158.115 146.223 158.554C145.831 158.983 145.635 159.599 145.635 160.402V164H144.459Z" fill="#022964"/>
<path opacity="0.5" d="M248.479 164L252.091 154.2H253.337L256.935 164H255.689L254.793 161.48H250.621L249.711 164H248.479ZM250.971 160.528H254.443L252.707 155.684L250.971 160.528ZM260.705 164.168C259.884 164.168 259.23 163.921 258.745 163.426C258.26 162.922 258.017 162.152 258.017 161.116V157.056H259.193V160.99C259.193 162.437 259.786 163.16 260.971 163.16C261.578 163.16 262.077 162.945 262.469 162.516C262.87 162.077 263.071 161.457 263.071 160.654V157.056H264.247V164H263.183L263.099 162.754C262.884 163.193 262.562 163.538 262.133 163.79C261.713 164.042 261.237 164.168 260.705 164.168ZM268.927 161.816C268.535 161.816 268.175 161.765 267.849 161.662L267.149 162.32C267.251 162.395 267.377 162.46 267.527 162.516C267.685 162.563 267.909 162.609 268.199 162.656C268.488 162.693 268.894 162.735 269.417 162.782C270.35 162.847 271.017 163.062 271.419 163.426C271.82 163.79 272.021 164.266 272.021 164.854C272.021 165.255 271.909 165.638 271.685 166.002C271.47 166.366 271.134 166.665 270.677 166.898C270.229 167.131 269.65 167.248 268.941 167.248C268.315 167.248 267.76 167.164 267.275 166.996C266.789 166.837 266.411 166.59 266.141 166.254C265.87 165.927 265.735 165.512 265.735 165.008C265.735 164.747 265.805 164.462 265.945 164.154C266.085 163.855 266.346 163.571 266.729 163.3C266.523 163.216 266.346 163.127 266.197 163.034C266.057 162.931 265.926 162.819 265.805 162.698V162.376L266.995 161.2C266.444 160.733 266.169 160.117 266.169 159.352C266.169 158.895 266.276 158.479 266.491 158.106C266.705 157.733 267.018 157.439 267.429 157.224C267.839 157 268.339 156.888 268.927 156.888C269.328 156.888 269.692 156.944 270.019 157.056H272.581V157.938L271.279 157.994C271.549 158.386 271.685 158.839 271.685 159.352C271.685 159.809 271.573 160.225 271.349 160.598C271.134 160.971 270.821 161.27 270.411 161.494C270.009 161.709 269.515 161.816 268.927 161.816ZM268.927 160.85C269.421 160.85 269.813 160.724 270.103 160.472C270.401 160.211 270.551 159.837 270.551 159.352C270.551 158.876 270.401 158.512 270.103 158.26C269.813 157.999 269.421 157.868 268.927 157.868C268.423 157.868 268.021 157.999 267.723 158.26C267.433 158.512 267.289 158.876 267.289 159.352C267.289 159.837 267.433 160.211 267.723 160.472C268.021 160.724 268.423 160.85 268.927 160.85ZM266.883 164.896C266.883 165.363 267.079 165.708 267.471 165.932C267.863 166.165 268.353 166.282 268.941 166.282C269.519 166.282 269.981 166.156 270.327 165.904C270.681 165.652 270.859 165.316 270.859 164.896C270.859 164.597 270.737 164.336 270.495 164.112C270.252 163.897 269.804 163.771 269.151 163.734C268.637 163.697 268.194 163.65 267.821 163.594C267.438 163.799 267.186 164.019 267.065 164.252C266.943 164.495 266.883 164.709 266.883 164.896Z" fill="#022964"/>
<path opacity="0.5" d="M316.23 164.168C315.512 164.168 314.886 164.037 314.354 163.776C313.822 163.515 313.412 163.151 313.122 162.684C312.833 162.217 312.688 161.676 312.688 161.06H313.92C313.92 161.443 314.009 161.797 314.186 162.124C314.364 162.441 314.62 162.698 314.956 162.894C315.302 163.081 315.726 163.174 316.23 163.174C316.893 163.174 317.406 163.015 317.77 162.698C318.134 162.381 318.316 161.984 318.316 161.508C318.316 161.116 318.232 160.803 318.064 160.57C317.896 160.327 317.668 160.131 317.378 159.982C317.098 159.833 316.772 159.702 316.398 159.59C316.034 159.478 315.652 159.352 315.25 159.212C314.494 158.951 313.934 158.629 313.57 158.246C313.206 157.854 313.024 157.345 313.024 156.72C313.015 156.197 313.136 155.735 313.388 155.334C313.64 154.923 313.995 154.606 314.452 154.382C314.919 154.149 315.47 154.032 316.104 154.032C316.73 154.032 317.271 154.149 317.728 154.382C318.195 154.615 318.554 154.937 318.806 155.348C319.068 155.759 319.203 156.225 319.212 156.748H317.98C317.98 156.477 317.91 156.211 317.77 155.95C317.63 155.679 317.416 155.46 317.126 155.292C316.846 155.124 316.492 155.04 316.062 155.04C315.53 155.031 315.092 155.166 314.746 155.446C314.41 155.726 314.242 156.113 314.242 156.608C314.242 157.028 314.359 157.35 314.592 157.574C314.835 157.798 315.171 157.985 315.6 158.134C316.03 158.274 316.524 158.437 317.084 158.624C317.551 158.792 317.971 158.988 318.344 159.212C318.718 159.436 319.007 159.725 319.212 160.08C319.427 160.435 319.534 160.887 319.534 161.438C319.534 161.905 319.413 162.348 319.17 162.768C318.928 163.179 318.559 163.515 318.064 163.776C317.579 164.037 316.968 164.168 316.23 164.168ZM324.254 164.168C323.591 164.168 323.003 164.019 322.49 163.72C321.977 163.412 321.571 162.987 321.272 162.446C320.983 161.905 320.838 161.265 320.838 160.528C320.838 159.8 320.983 159.165 321.272 158.624C321.561 158.073 321.963 157.649 322.476 157.35C322.999 157.042 323.601 156.888 324.282 156.888C324.954 156.888 325.533 157.042 326.018 157.35C326.513 157.649 326.891 158.045 327.152 158.54C327.413 159.035 327.544 159.567 327.544 160.136C327.544 160.239 327.539 160.341 327.53 160.444C327.53 160.547 327.53 160.663 327.53 160.794H322C322.028 161.326 322.149 161.769 322.364 162.124C322.588 162.469 322.863 162.731 323.19 162.908C323.526 163.085 323.881 163.174 324.254 163.174C324.739 163.174 325.145 163.062 325.472 162.838C325.799 162.614 326.037 162.311 326.186 161.928H327.348C327.161 162.572 326.802 163.109 326.27 163.538C325.747 163.958 325.075 164.168 324.254 164.168ZM324.254 157.882C323.694 157.882 323.195 158.055 322.756 158.4C322.327 158.736 322.079 159.231 322.014 159.884H326.382C326.354 159.259 326.139 158.769 325.738 158.414C325.337 158.059 324.842 157.882 324.254 157.882ZM329.103 167.08V157.056H330.167L330.279 158.204C330.503 157.868 330.82 157.565 331.231 157.294C331.651 157.023 332.183 156.888 332.827 156.888C333.517 156.888 334.119 157.047 334.633 157.364C335.146 157.681 335.543 158.115 335.823 158.666C336.112 159.217 336.257 159.842 336.257 160.542C336.257 161.242 336.112 161.867 335.823 162.418C335.543 162.959 335.141 163.389 334.619 163.706C334.105 164.014 333.503 164.168 332.813 164.168C332.243 164.168 331.735 164.051 331.287 163.818C330.848 163.585 330.512 163.258 330.279 162.838V167.08H329.103ZM332.687 163.146C333.153 163.146 333.564 163.039 333.919 162.824C334.273 162.6 334.553 162.292 334.759 161.9C334.964 161.508 335.067 161.051 335.067 160.528C335.067 160.005 334.964 159.548 334.759 159.156C334.553 158.764 334.273 158.461 333.919 158.246C333.564 158.022 333.153 157.91 332.687 157.91C332.22 157.91 331.809 158.022 331.455 158.246C331.1 158.461 330.82 158.764 330.615 159.156C330.409 159.548 330.307 160.005 330.307 160.528C330.307 161.051 330.409 161.508 330.615 161.9C330.82 162.292 331.1 162.6 331.455 162.824C331.809 163.039 332.22 163.146 332.687 163.146Z" fill="#022964"/>
<line x1="7.75" y1="53" x2="7.75" y2="145" stroke="#BED7FE" stroke-width="1.5" stroke-dasharray="4 4"/>
<line x1="39.75" y1="53" x2="39.75" y2="145" stroke="#BED7FE" stroke-width="1.5" stroke-dasharray="4 4"/>
<line x1="71.75" y1="53" x2="71.75" y2="145" stroke="#BED7FE" stroke-width="1.5" stroke-dasharray="4 4"/>
<line x1="103.75" y1="53" x2="103.75" y2="145" stroke="#BED7FE" stroke-width="1.5" stroke-dasharray="4 4"/>
<line x1="135.75" y1="53" x2="135.75" y2="145" stroke="#BED7FE" stroke-width="1.5" stroke-dasharray="4 4"/>
<line x1="167.75" y1="53" x2="167.75" y2="145" stroke="#BED7FE" stroke-width="1.5" stroke-dasharray="4 4"/>
<line x1="199.75" y1="53" x2="199.75" y2="145" stroke="#BED7FE" stroke-width="1.5" stroke-dasharray="4 4"/>
<line x1="231.75" y1="53" x2="231.75" y2="145" stroke="#BED7FE" stroke-width="1.5" stroke-dasharray="4 4"/>
<line x1="263.75" y1="53" x2="263.75" y2="145" stroke="#BED7FE" stroke-width="1.5" stroke-dasharray="4 4"/>
<line x1="295.75" y1="53" x2="295.75" y2="145" stroke="#BED7FE" stroke-width="1.5" stroke-dasharray="4 4"/>
<line x1="327.75" y1="53" x2="327.75" y2="145" stroke="#BED7FE" stroke-width="1.5" stroke-dasharray="4 4"/>
<path d="M26 145L54.2473 134.038C54.7087 133.859 55.1994 133.767 55.6944 133.767H73.245C73.776 133.767 74.3017 133.662 74.7914 133.456L108.258 119.427C108.748 119.222 109.273 119.116 109.804 119.116H122.261C122.915 119.116 123.559 119.276 124.136 119.583L139.721 127.852C139.907 127.95 140.1 128.034 140.299 128.102L153.03 132.464C155.127 133.183 157.409 132.058 158.117 129.957L162.115 118.084C163.294 114.582 168.185 114.415 169.601 117.828L171.916 123.411C172.27 124.266 172.91 124.971 173.726 125.407L178.432 127.921C180.033 128.776 182.009 128.446 183.245 127.117L199.094 110.081L215.889 89.3713C217.315 87.6118 219.917 87.3872 221.625 88.8761L226.995 93.5595C227.329 93.8512 227.71 94.0851 228.121 94.2518L245.191 101.172C245.724 101.388 246.204 101.717 246.599 102.135L253.765 109.737C253.981 109.966 254.224 110.168 254.487 110.341L275.503 124.081C276.153 124.506 276.914 124.733 277.692 124.733H286.612C287.304 124.733 287.983 124.553 288.585 124.212L311 111.5L321 105.442" stroke="#BFCDFF" stroke-width="3" stroke-linecap="round"/>
<path d="M26 145L54.2473 134.038C54.7088 133.859 55.1994 133.767 55.6944 133.767H72.8155C73.6195 133.767 74.4048 133.525 75.069 133.072L106.627 111.552C107.938 110.658 109.653 110.624 110.999 111.464L122.285 118.509C122.92 118.906 123.654 119.116 124.403 119.116H141.749C142.876 119.116 143.951 119.592 144.709 120.426L152.255 128.73C154.308 130.988 158.032 130.208 159.006 127.316L162.115 118.084C163.294 114.582 168.185 114.415 169.601 117.828L171.916 123.411C172.27 124.266 172.91 124.971 173.726 125.407L178.432 127.921C180.033 128.776 182.009 128.446 183.245 127.117L198.516 110.702C198.897 110.293 199.188 109.808 199.37 109.28L213.238 68.987C214.337 65.7952 218.651 65.3153 220.424 68.1877L230.897 85.1535C231.299 85.8049 231.88 86.3272 232.57 86.6585L246.833 93.5043C247.774 93.9563 248.502 94.7586 248.86 95.7398L253.131 107.452C253.707 109.031 255.209 110.081 256.889 110.081H277.204C278.659 110.081 280 110.872 280.704 112.145L283.738 117.63C285.344 120.533 289.582 120.332 290.906 117.289L301.908 92.0057C303.086 89.2986 306.69 88.7567 308.612 90.9977L321 105.442" stroke="#436CFF" stroke-width="3" stroke-linecap="round"/>
<g filter="url(#filter0_d_981_9263)">
<circle cx="219" cy="63" r="8" fill="#436CFF"/>
</g>
<circle cx="219" cy="63" r="3" fill="white"/>
<rect x="185.5" width="68" height="46" rx="12" fill="white"/>
<path d="M205.298 29.218V28.14C204.384 28.0373 203.651 27.7153 203.1 27.174C202.55 26.6327 202.27 25.9233 202.26 25.046H203.828C203.838 25.4847 203.968 25.872 204.22 26.208C204.472 26.5347 204.832 26.754 205.298 26.866V23.492C205.224 23.4733 205.144 23.45 205.06 23.422C204.986 23.394 204.906 23.366 204.822 23.338C204.066 23.086 203.497 22.7593 203.114 22.358C202.741 21.9567 202.554 21.4293 202.554 20.776C202.545 20.0107 202.792 19.3853 203.296 18.9C203.8 18.4147 204.468 18.13 205.298 18.046V16.926H206.25V18.06C207.062 18.1533 207.716 18.4473 208.21 18.942C208.705 19.4367 208.957 20.0573 208.966 20.804H207.398C207.389 20.496 207.286 20.2067 207.09 19.936C206.904 19.656 206.624 19.4647 206.25 19.362V22.358C206.325 22.386 206.4 22.414 206.474 22.442C206.549 22.4607 206.624 22.484 206.698 22.512C207.184 22.6707 207.618 22.862 208 23.086C208.383 23.31 208.686 23.604 208.91 23.968C209.144 24.332 209.26 24.794 209.26 25.354C209.26 25.8207 209.148 26.2593 208.924 26.67C208.7 27.0713 208.364 27.4073 207.916 27.678C207.468 27.9487 206.913 28.1073 206.25 28.154V29.218H205.298ZM204.094 20.65C204.094 21.0233 204.202 21.3127 204.416 21.518C204.631 21.714 204.925 21.8867 205.298 22.036V19.32C204.944 19.3853 204.654 19.5347 204.43 19.768C204.206 19.992 204.094 20.286 204.094 20.65ZM207.692 25.452C207.692 24.9947 207.557 24.6493 207.286 24.416C207.016 24.1733 206.67 23.9727 206.25 23.814V26.894C206.708 26.838 207.062 26.6793 207.314 26.418C207.566 26.1567 207.692 25.8347 207.692 25.452ZM211.891 28V19.88L210.309 20.244V19.152L212.479 18.2H213.431V28H211.891ZM216.43 28V19.88L214.848 20.244V19.152L217.018 18.2H217.97V28H216.43ZM220.647 28L224.441 19.474H219.345V18.2H225.967V19.278L222.201 28H220.647ZM227.137 28.084C226.857 28.084 226.624 27.9953 226.437 27.818C226.26 27.6313 226.171 27.412 226.171 27.16C226.171 26.8987 226.26 26.6793 226.437 26.502C226.624 26.3153 226.857 26.222 227.137 26.222C227.417 26.222 227.646 26.3153 227.823 26.502C228.001 26.6793 228.089 26.8987 228.089 27.16C228.089 27.412 228.001 27.6313 227.823 27.818C227.646 27.9953 227.417 28.084 227.137 28.084ZM230.266 28V19.88L228.684 20.244V19.152L230.854 18.2H231.806V28H230.266ZM234.805 28V19.88L233.223 20.244V19.152L235.393 18.2H236.345V28H234.805Z" fill="#022964"/>
<path d="M220.792 49.9706C220.392 50.4906 219.608 50.4906 219.208 49.9706L214.311 43.61C213.805 42.9524 214.274 42 215.104 42L224.896 42C225.726 42 226.195 42.9524 225.689 43.61L220.792 49.9706Z" fill="white"/>
<defs>
<filter id="filter0_d_981_9263" x="201" y="49" width="36" height="36" filterUnits="userSpaceOnUse" color-interpolation-filters="sRGB">
<feFlood flood-opacity="0" result="BackgroundImageFix"/>
<feColorMatrix in="SourceAlpha" type="matrix" values="0 0 0 0 0 0 0 0 0 0 0 0 0 0 0 0 0 0 127 0" result="hardAlpha"/>
<feOffset dy="4"/>
<feGaussianBlur stdDeviation="5"/>
<feColorMatrix type="matrix" values="0 0 0 0 0.301961 0 0 0 0 0.392157 0 0 0 0 1 0 0 0 0.25 0"/>
<feBlend mode="normal" in2="BackgroundImageFix" result="effect1_dropShadow_981_9263"/>
<feBlend mode="normal" in="SourceGraphic" in2="effect1_dropShadow_981_9263" result="shape"/>
</filter>
</defs>
</svg>
