<svg width="40" height="40" viewBox="0 0 40 40" fill="none" xmlns="http://www.w3.org/2000/svg">
<mask id="path-1-inside-1_981_9227" fill="white">
<path d="M6.70639 33.2936C6.23776 33.7622 6.23546 34.525 6.73135 34.9647C8.88544 36.8747 11.4304 38.3004 14.1943 39.1388C17.3417 40.0936 20.676 40.2574 23.9018 39.6157C27.1276 38.974 30.1454 37.5467 32.6879 35.4602C35.2303 33.3737 37.2189 30.6923 38.4776 27.6537C39.7362 24.615 40.2261 21.3128 39.9037 18.0396C39.5813 14.7665 38.4567 11.6233 36.6294 8.88858C34.8021 6.15387 32.3286 3.912 29.4279 2.36157C26.8806 1.00002 24.073 0.208608 21.1993 0.0359859C20.5377 -0.00375276 20 0.537258 20 1.2C20 1.86274 20.5379 2.39574 21.1991 2.44089C23.6778 2.61015 26.0975 3.30273 28.2966 4.47818C30.8491 5.84256 33.0258 7.8154 34.6339 10.222C36.2419 12.6285 37.2316 15.3945 37.5153 18.2749C37.7989 21.1553 37.3679 24.0612 36.2603 26.7352C35.1527 29.4092 33.4027 31.7688 31.1653 33.605C28.928 35.4411 26.2723 36.6972 23.4336 37.2618C20.5949 37.8265 17.6607 37.6823 14.891 36.8422C12.5048 36.1183 10.3041 34.8971 8.43173 33.2641C7.93226 32.8284 7.17502 32.825 6.70639 33.2936Z"/>
</mask>
<path d="M6.70639 33.2936C6.23776 33.7622 6.23546 34.525 6.73135 34.9647C8.88544 36.8747 11.4304 38.3004 14.1943 39.1388C17.3417 40.0936 20.676 40.2574 23.9018 39.6157C27.1276 38.974 30.1454 37.5467 32.6879 35.4602C35.2303 33.3737 37.2189 30.6923 38.4776 27.6537C39.7362 24.615 40.2261 21.3128 39.9037 18.0396C39.5813 14.7665 38.4567 11.6233 36.6294 8.88858C34.8021 6.15387 32.3286 3.912 29.4279 2.36157C26.8806 1.00002 24.073 0.208608 21.1993 0.0359859C20.5377 -0.00375276 20 0.537258 20 1.2C20 1.86274 20.5379 2.39574 21.1991 2.44089C23.6778 2.61015 26.0975 3.30273 28.2966 4.47818C30.8491 5.84256 33.0258 7.8154 34.6339 10.222C36.2419 12.6285 37.2316 15.3945 37.5153 18.2749C37.7989 21.1553 37.3679 24.0612 36.2603 26.7352C35.1527 29.4092 33.4027 31.7688 31.1653 33.605C28.928 35.4411 26.2723 36.6972 23.4336 37.2618C20.5949 37.8265 17.6607 37.6823 14.891 36.8422C12.5048 36.1183 10.3041 34.8971 8.43173 33.2641C7.93226 32.8284 7.17502 32.825 6.70639 33.2936Z" stroke="#436CFF" stroke-width="4" mask="url(#path-1-inside-1_981_9227)"/>
<rect x="5" y="5" width="30" height="30" rx="15" fill="#022964"/>
<path d="M17.9392 24.9375L23.0368 20.5693C23.1189 20.4989 23.1848 20.4116 23.23 20.3133C23.2752 20.215 23.2986 20.1081 23.2986 20C23.2986 19.8918 23.2752 19.7849 23.23 19.6866C23.1848 19.5883 23.1189 19.501 23.0368 19.4306L17.9392 15.0625C17.4527 14.6456 16.7011 14.9912 16.7011 15.6318L16.7011 24.3693C16.7011 25.01 17.4527 25.3556 17.9392 24.9375Z" fill="white"/>
</svg>
