<svg width="18" height="20" viewBox="0 0 18 20" fill="none" xmlns="http://www.w3.org/2000/svg">
<path d="M16.5901 4.69C15.5933 4.47079 14.6915 3.94144 14.0142 3.17789C13.3369 2.41435 12.9189 1.45587 12.8201 0.44V0H9.37014V13.67C9.37085 14.2766 9.18068 14.868 8.82659 15.3604C8.47249 15.8529 7.97242 16.2215 7.39721 16.414C6.82199 16.6065 6.2008 16.6131 5.62162 16.4329C5.04244 16.2527 4.53464 15.8948 4.17015 15.41C3.84359 14.9808 3.64363 14.4689 3.59287 13.932C3.54212 13.3951 3.64259 12.8548 3.88292 12.372C4.12326 11.8892 4.49388 11.4834 4.95286 11.2003C5.41184 10.9172 5.94088 10.7681 6.48014 10.77C6.77839 10.7683 7.07514 10.8121 7.36015 10.9V7.4C7.02848 7.35893 6.69425 7.34222 6.36015 7.35C5.12946 7.38288 3.93506 7.77393 2.92323 8.47527C1.91139 9.1766 1.12604 10.1578 0.663321 11.2986C0.200607 12.4395 0.0806234 13.6905 0.318062 14.8986C0.5555 16.1066 1.14006 17.2191 2.00015 18.1C2.88163 18.9962 4.00964 19.6101 5.24084 19.8638C6.47204 20.1175 7.75086 19.9994 8.9148 19.5246C10.0787 19.0498 11.0753 18.2397 11.7778 17.1973C12.4803 16.1548 12.857 14.9271 12.8601 13.67V6.67C14.2516 7.66395 15.9202 8.19565 17.6301 8.19V4.79C17.2942 4.79139 16.9591 4.75787 16.6301 4.69H16.5901Z" fill="#00020B"/>
</svg>
