<svg width="20" height="5" viewBox="0 0 20 5" fill="none" xmlns="http://www.w3.org/2000/svg">
<path d="M10.0001 4.17557C9.07961 4.17557 8.33341 3.43059 8.33341 2.51161C8.33341 1.59263 9.07961 0.847656 10.0001 0.847656C10.9206 0.847656 11.6667 1.59263 11.6667 2.51161C11.6667 3.43059 10.9206 4.17557 10.0001 4.17557Z" stroke="#2A313C" stroke-width="1.5"/>
<path d="M16.6667 4.17557C15.7463 4.17557 15.0001 3.43059 15.0001 2.51161C15.0001 1.59263 15.7463 0.847656 16.6667 0.847656C17.5872 0.847656 18.3334 1.59263 18.3334 2.51161C18.3334 3.43059 17.5872 4.17557 16.6667 4.17557Z" stroke="#2A313C" stroke-width="1.5"/>
<path d="M3.33341 4.17557C2.41294 4.17557 1.66675 3.43059 1.66675 2.51161C1.66675 1.59263 2.41294 0.847656 3.33341 0.847656C4.25389 0.847656 5.00008 1.59263 5.00008 2.51161C5.00008 3.43059 4.25389 4.17557 3.33341 4.17557Z" stroke="#2A313C" stroke-width="1.5"/>
</svg>
