<svg width="33" height="32" viewBox="0 0 33 32" fill="none" xmlns="http://www.w3.org/2000/svg">
<rect x="0.440308" width="32" height="32" rx="16" fill="#FFF0E6"/>
<path d="M10.5537 12.96L16.4404 16.3666L22.287 12.9799" stroke="#FF4747" stroke-linecap="round" stroke-linejoin="round"/>
<path d="M16.4404 22.4065V16.3599" stroke="#FF4747" stroke-linecap="round" stroke-linejoin="round"/>
<path d="M22.847 14.1135V17.8869C22.847 17.9202 22.847 17.9468 22.8404 17.9802C22.3737 17.5735 21.7737 17.3335 21.107 17.3335C20.4803 17.3335 19.9003 17.5535 19.4403 17.9202C18.827 18.4068 18.4403 19.1602 18.4403 20.0002C18.4403 20.5002 18.5803 20.9735 18.827 21.3735C18.887 21.4802 18.9603 21.5802 19.0403 21.6735L17.8204 22.3469C17.0604 22.7735 15.8203 22.7735 15.0603 22.3469L11.5003 20.3735C10.6937 19.9268 10.0337 18.8069 10.0337 17.8869V14.1135C10.0337 13.1935 10.6937 12.0735 11.5003 11.6268L15.0603 9.6535C15.8203 9.22683 17.0604 9.22683 17.8204 9.6535L21.3804 11.6268C22.187 12.0735 22.847 13.1935 22.847 14.1135Z" stroke="#FF4747" stroke-linecap="round" stroke-linejoin="round"/>
<path d="M23.7736 20.0002C23.7736 20.8002 23.4203 21.5135 22.867 22.0002C22.3937 22.4135 21.7803 22.6668 21.107 22.6668C19.6336 22.6668 18.4403 21.4735 18.4403 20.0002C18.4403 19.1602 18.827 18.4068 19.4403 17.9202C19.9003 17.5535 20.4803 17.3335 21.107 17.3335C22.5803 17.3335 23.7736 18.5268 23.7736 20.0002Z" stroke="#FF4747" stroke-miterlimit="10" stroke-linecap="round" stroke-linejoin="round"/>
<path d="M21.2736 19.167V20.167L20.4403 20.667" stroke="#FF4747" stroke-miterlimit="10" stroke-linecap="round" stroke-linejoin="round"/>
</svg>
