<svg width="93" height="26" viewBox="0 0 93 26" fill="none" xmlns="http://www.w3.org/2000/svg">
<path d="M57.5515 20.2222V10.1111H60.3356V10.8593C60.6786 10.5358 61.0753 10.283 61.5259 10.101C61.9764 9.919 62.4539 9.828 62.9583 9.828C63.6442 9.828 64.273 9.98641 64.8446 10.3032C65.4229 10.62 65.8869 11.0413 66.2366 11.5671C66.593 11.0413 67.0571 10.62 67.6287 10.3032C68.2003 9.98641 68.8257 9.828 69.5049 9.828C70.2379 9.828 70.9003 10.0066 71.4921 10.3639C72.0906 10.7212 72.5681 11.1997 72.9245 11.7997C73.2809 12.3929 73.4591 13.0568 73.4591 13.7916V20.2222H70.675V14.56C70.675 14.2095 70.5876 13.8927 70.4127 13.6096C70.2446 13.3197 70.0193 13.0905 69.7369 12.922C69.4545 12.7467 69.1384 12.6591 68.7887 12.6591C68.439 12.6591 68.1196 12.7434 67.8304 12.9119C67.548 13.0804 67.3193 13.3096 67.1445 13.5994C66.9764 13.8826 66.8923 14.2027 66.8923 14.56V20.2222H64.1082V14.56C64.1082 14.2027 64.0242 13.8826 63.856 13.5994C63.6879 13.3096 63.4593 13.0804 63.1701 12.9119C62.8877 12.7434 62.5716 12.6591 62.2219 12.6591C61.8789 12.6591 61.5629 12.7467 61.2737 12.922C60.9913 13.0905 60.7626 13.3197 60.5878 13.6096C60.4197 13.8927 60.3356 14.2095 60.3356 14.56V20.2222H57.5515Z" fill="#BFCDFF"/>
<path d="M75.0765 16.5216V10.1111H77.8606V15.7531C77.8606 16.1104 77.9447 16.4339 78.1128 16.7238C78.2876 17.0069 78.5196 17.2327 78.8088 17.4012C79.098 17.5697 79.414 17.654 79.757 17.654C80.1067 17.654 80.4261 17.5697 80.7153 17.4012C81.0045 17.2327 81.2331 17.0069 81.4012 16.7238C81.5693 16.4339 81.6534 16.1104 81.6534 15.7531V10.1111H84.4375L84.4476 20.2222H81.6635L81.6534 19.4538C81.3172 19.7773 80.9204 20.0301 80.4631 20.2121C80.0125 20.3941 79.5351 20.4851 79.0307 20.4851C78.3044 20.4851 77.642 20.3065 77.0435 19.9492C76.445 19.592 75.9676 19.1167 75.6111 18.5236C75.2547 17.9236 75.0765 17.2563 75.0765 16.5216Z" fill="#BFCDFF"/>
<path d="M86.4836 20.2222L86.4735 10.1111H89.2576L89.2677 10.8593C89.6039 10.5358 89.9973 10.283 90.4479 10.101C90.9052 9.919 91.386 9.828 91.8904 9.828C92.2602 9.828 92.6301 9.88193 93 9.98978L91.9005 12.8108C91.6584 12.7097 91.4129 12.6591 91.1641 12.6591C90.8144 12.6591 90.495 12.7434 90.2058 12.9119C89.9166 13.0804 89.688 13.3096 89.5199 13.5994C89.3518 13.8826 89.2677 14.2027 89.2677 14.56V20.2222H86.4836Z" fill="#BFCDFF"/>
<path d="M33.2302 20.2222V17.4316L40.8864 8.85735H33.2302V6.06668H44.649V8.85735L36.9928 17.4316H44.649V20.2222H33.2302Z" fill="#E8EDFF"/>
<path d="M50.7009 20.4851C49.7728 20.4851 48.9255 20.2458 48.1589 19.7672C47.399 19.2886 46.7904 18.6483 46.3331 17.8461C45.8825 17.0372 45.6572 16.1441 45.6572 15.1667C45.6572 14.4252 45.7884 13.7343 46.0506 13.0939C46.3129 12.4468 46.6727 11.8806 47.13 11.3952C47.594 10.9032 48.132 10.5189 48.7439 10.2426C49.3559 9.9662 50.0082 9.82801 50.7009 9.82801C51.6289 9.82801 52.4728 10.0673 53.2328 10.5459C53.9994 11.0245 54.608 11.6682 55.0585 12.4771C55.5158 13.286 55.7445 14.1825 55.7445 15.1667C55.7445 15.9014 55.6133 16.589 55.3511 17.2293C55.0888 17.8697 54.7257 18.4359 54.2617 18.928C53.8044 19.4133 53.2697 19.7942 52.6578 20.0706C52.0525 20.3469 51.4002 20.4851 50.7009 20.4851ZM50.7009 17.6945C51.1312 17.6945 51.5179 17.5799 51.8609 17.3507C52.2039 17.1148 52.4728 16.8047 52.6679 16.4205C52.8629 16.0362 52.9604 15.6183 52.9604 15.1667C52.9604 14.7016 52.8562 14.2769 52.6477 13.8927C52.4459 13.5017 52.1736 13.1916 51.8306 12.9625C51.4877 12.7333 51.1111 12.6187 50.7009 12.6187C50.2772 12.6187 49.8939 12.7366 49.5509 12.9726C49.2079 13.2085 48.9356 13.5186 48.7338 13.9028C48.5388 14.287 48.4413 14.7083 48.4413 15.1667C48.4413 15.6453 48.5422 16.0767 48.7439 16.4609C48.9524 16.8384 49.2281 17.1383 49.5711 17.3608C49.9141 17.5832 50.2906 17.6945 50.7009 17.6945Z" fill="#E8EDFF"/>
<path opacity="0.6" d="M5.82153 16.0934L13.9207 16.0934L20.8949 10.4548L12.4196 10.4548L5.82153 16.0934Z" fill="white"/>
<path d="M5.78101 16.1246L5.78101 20.8286L20.8854 20.8286L20.8854 16.0996L13.9175 16.0965L13.9206 16.0934L5.82141 16.0934L5.78101 16.1246Z" fill="white"/>
<path d="M5.26538 5.31152L5.26538 6.51089L6.46193 6.51089L6.46192 5.31152L5.26538 5.31152Z" fill="white"/>
<path d="M4.29272 4.33333L4.29272 5.31152L5.26861 5.31152L5.26861 4.33333L4.29272 4.33333Z" fill="white"/>
<path d="M3.60254 5.31149L3.60254 6.00308L4.29249 6.00308L4.29249 5.31149L3.60254 5.31149Z" fill="white"/>
<path d="M7.11719 5.71953L7.11719 7.27716L8.67114 7.27716L8.67114 5.71953L7.11719 5.71953Z" fill="white"/>
<path d="M10.0388 7.27727L8.67136 7.27727L8.67136 8.80375L7.11741 8.80375L7.11741 7.27727L5.78101 7.27727L5.78101 10.4237L12.4506 10.4237L12.4195 10.4548L20.8948 10.4548L20.8854 5.71964L10.0388 5.71964L10.0388 7.27727Z" fill="white"/>
</svg>
