<svg width="32" height="32" viewBox="0 0 32 32" fill="none" xmlns="http://www.w3.org/2000/svg">
<rect x="0.5" y="0.5" width="31" height="31" rx="7.5" stroke="#BFCDFF"/>
<g clip-path="url(#clip0_544_8313)">
<path d="M21.8334 7.66666H23.5001C23.9603 7.66666 24.3334 8.03975 24.3334 8.49999V10.1667M23.5001 8.49999C16.8821 13.8261 13.4518 15.2608 7.66675 16M21.0001 14.3333V22.6667C21.0001 23.5871 21.7463 24.3333 22.6667 24.3333C23.5872 24.3333 24.3334 23.5871 24.3334 22.6667V14.3333C24.3334 13.4128 23.5872 12.6667 22.6667 12.6667C21.7463 12.6667 21.0001 13.4128 21.0001 14.3333ZM7.66675 21L7.66675 22.6667C7.66675 23.5871 8.41294 24.3333 9.33341 24.3333C10.2539 24.3333 11.0001 23.5871 11.0001 22.6667L11.0001 21C11.0001 20.0795 10.2539 19.3333 9.33341 19.3333C8.41294 19.3333 7.66675 20.0795 7.66675 21ZM14.3334 17.6667V22.6667C14.3334 23.5871 15.0796 24.3333 16.0001 24.3333C16.9206 24.3333 17.6667 23.5871 17.6667 22.6667V17.6667C17.6667 16.7462 16.9206 16 16.0001 16C15.0796 16 14.3334 16.7462 14.3334 17.6667Z" stroke="white" stroke-width="1.5" stroke-linecap="round" stroke-linejoin="round"/>
</g>
<defs>
<clipPath id="clip0_544_8313">
<rect width="20" height="20" fill="white" transform="translate(6 6)"/>
</clipPath>
</defs>
</svg>
