<svg width="24" height="25" viewBox="0 0 24 25" fill="none" xmlns="http://www.w3.org/2000/svg">
<path d="M18 19.3031H17.24C16.44 19.3031 15.68 19.6131 15.12 20.1731L13.41 21.8632C12.63 22.6332 11.36 22.6332 10.58 21.8632L8.87 20.1731C8.31 19.6131 7.54 19.3031 6.75 19.3031H6C4.34 19.3031 3 17.9731 3 16.3331V5.4231C3 3.7831 4.34 2.45312 6 2.45312H18C19.66 2.45312 21 3.7831 21 5.4231V16.3331C21 17.9631 19.66 19.3031 18 19.3031Z" stroke="#0D274E" stroke-width="1.5" stroke-miterlimit="10" stroke-linecap="round" stroke-linejoin="round"/>
<path d="M7 9.60315C7 8.67315 7.76 7.91309 8.69 7.91309C9.62 7.91309 10.38 8.67315 10.38 9.60315C10.38 11.4831 7.71 11.6831 7.12 13.4731C7 13.8431 7.31 14.2131 7.7 14.2131H10.38" stroke="#0D274E" stroke-width="1.5" stroke-linecap="round" stroke-linejoin="round"/>
<path d="M16.0398 14.2032V8.49327C16.0398 8.23327 15.8698 8.00321 15.6198 7.93321C15.3698 7.86321 15.0998 7.96321 14.9598 8.18321C14.2398 9.34321 13.4598 10.6632 12.7798 11.8232C12.6698 12.0132 12.6698 12.2632 12.7798 12.4532C12.8898 12.6432 13.0998 12.7632 13.3298 12.7632H16.9998" stroke="#0D274E" stroke-width="1.5" stroke-linecap="round" stroke-linejoin="round"/>
</svg>
