<svg width="24" height="25" viewBox="0 0 24 25" fill="none" xmlns="http://www.w3.org/2000/svg">
<g clip-path="url(#clip0_9547_17109)">
<path d="M9.75 3.78604C9.75 3.36783 9.41422 3.02881 9 3.02881H7.24673C5.95541 3.02881 4.809 3.86305 4.40066 5.09992L3.28263 8.48635L2.70038 8.14692C2.34165 7.93785 1.88296 8.06192 1.67586 8.42411C1.46875 8.78629 1.59165 9.24942 1.95038 9.45849L2.79846 9.95289L2.67706 10.3206C1.52753 10.9674 0.75 12.2071 0.75 13.6301V18.1735C0.75 19.8463 2.09314 21.2024 3.75 21.2024C5.27985 21.2024 6.54225 20.0463 6.72679 18.5521H13.5527C13.2842 18.0834 13.076 17.5749 12.939 17.0377H6C5.58577 17.0377 5.25 17.3767 5.25 17.7949V18.1735C5.25 19.0099 4.57841 19.688 3.75 19.688C2.92157 19.688 2.25 19.0099 2.25 18.1735V13.6301C2.25 12.3755 3.25736 11.3584 4.5 11.3584H14.3929C15.0174 10.6926 15.79 10.1699 16.6574 9.84392H4.41559L5.82368 5.57883C6.02786 4.9604 6.60105 4.54328 7.24673 4.54328H9C9.41422 4.54328 9.75 4.20426 9.75 3.78604Z" fill="#0C81F3"/>
<path d="M12 3.78604C12 4.20426 12.3358 4.54328 12.75 4.54328H16.7533C17.399 4.54328 17.9721 4.9604 18.1763 5.57883L19.4738 9.50892C20.0882 9.58355 20.6741 9.75188 21.2169 9.99938L21.1894 9.91605L21.9743 9.45849C22.333 9.24942 22.4559 8.78629 22.2488 8.42411C22.0417 8.06192 21.583 7.93785 21.2243 8.14692L20.7052 8.44951L19.5993 5.09992C19.191 3.86305 18.0446 3.02881 16.7533 3.02881H12.75C12.3358 3.02881 12 3.36783 12 3.78604Z" fill="#0C81F3"/>
<path d="M7.875 14.3871C7.875 14.8053 7.53923 15.1444 7.125 15.1444H5.625C5.21078 15.1444 4.875 14.8053 4.875 14.3871C4.875 13.9689 5.21078 13.6299 5.625 13.6299H7.125C7.53923 13.6299 7.875 13.9689 7.875 14.3871Z" fill="#0C81F3"/>
<path d="M18.5 11.106V19.1831M23 15.1445L14 15.1445" stroke="#0C81F3" stroke-width="1.5" stroke-linecap="round" stroke-linejoin="round"/>
</g>
<defs>
<clipPath id="clip0_9547_17109">
<rect width="24" height="24.2315" fill="white"/>
</clipPath>
</defs>
</svg>
