<svg width="30" height="30" viewBox="0 0 30 30" fill="none" xmlns="http://www.w3.org/2000/svg">
<path d="M15.0022 0C6.70793 0 0 6.70695 0 15C0 23.2931 6.70793 30 15.0022 30C23.2965 30 30.0044 23.2931 30.0044 15C30.0044 6.70695 23.2965 0 15.0022 0ZM15.0022 27.0091C8.38492 27.0091 3.0367 21.6616 3.0367 15.0453C3.0367 8.429 8.38492 3.03625 15.0022 3.03625C21.6195 3.03625 26.9677 8.38369 26.9677 15C26.9677 21.6163 21.6195 27.0091 15.0022 27.0091Z" fill="#405FF2"/>
<path d="M15.0028 3.67188C8.74815 3.67188 3.67188 8.7474 3.67188 15.0012C3.67188 21.255 8.74815 26.3758 15.0482 26.3758C21.3029 26.3758 26.3791 21.3003 26.3791 15.0012C26.3791 8.70209 21.3029 3.67188 15.0028 3.67188ZM23.1611 9.33653C23.977 10.4695 24.5209 11.7837 24.7928 13.2338L18.3568 14.4121C18.2662 13.9136 18.0849 13.4604 17.8129 13.0979L23.1611 9.33653ZM20.6683 6.84408L16.9518 12.2368C16.5439 11.9649 16.0906 11.7837 15.6374 11.693L16.7705 5.25798C18.2208 5.48456 19.5352 6.07369 20.6683 6.84408ZM13.2352 5.25798L14.4136 11.693C13.9151 11.7837 13.4618 11.9649 13.0992 12.2368L9.38268 6.8894C10.5158 6.07369 11.8302 5.48456 13.2352 5.25798ZM6.84455 9.33653L12.2381 13.0979C11.9661 13.5057 11.7848 13.9589 11.6942 14.4121L5.25821 13.2338C5.48483 11.829 6.07404 10.5148 6.84455 9.33653ZM6.84455 20.6658C6.02872 19.5329 5.48483 18.2187 5.21289 16.7686L11.6489 15.5903C11.7395 16.0888 11.9208 16.542 12.1928 16.9045L6.84455 20.6658ZM9.33736 23.1583L13.0539 17.8108C13.4618 18.0828 13.9151 18.264 14.3683 18.3547L13.1899 24.7897C11.8302 24.5178 10.5158 23.974 9.33736 23.1583ZM16.7705 24.7897L15.5921 18.3547C16.0906 18.264 16.5439 18.0828 16.9064 17.8108L20.623 23.1583C19.5352 23.974 18.2208 24.5178 16.7705 24.7897ZM23.1611 20.6658L17.8129 16.9498C18.0849 16.542 18.2662 16.0888 18.3568 15.6356L24.7928 16.7686C24.5209 18.2187 23.977 19.5329 23.1611 20.6658Z" fill="#405FF2"/>
</svg>
