<svg width="19" height="16" viewBox="0 0 19 16" fill="none" xmlns="http://www.w3.org/2000/svg">
<path d="M2.58054 6.91392H16.4207C16.5881 6.91392 16.7239 6.77579 16.7239 6.6054C16.7239 6.43501 16.5881 6.29688 16.4207 6.29688H2.58054C2.41309 6.29688 2.27734 6.43501 2.27734 6.6054C2.27734 6.77579 2.41309 6.91392 2.58054 6.91392Z" fill="#6B6C6C"/>
<path d="M18.736 7.73774L17.9522 6.48184L17.6586 5.28173H18.2926C18.46 5.28173 18.5957 5.14359 18.5957 4.9732C18.5957 4.80282 18.46 4.66468 18.2926 4.66468H17.5076L16.7166 1.43155C16.5203 0.628813 15.7296 0 14.9167 0H4.0833C3.27039 0 2.47974 0.628813 2.28336 1.43155L1.49239 4.66468H0.707447C0.540004 4.66468 0.404255 4.80282 0.404255 4.9732C0.404255 5.14359 0.540004 5.28173 0.707447 5.28173H1.3414L1.04779 6.48184L0.263938 7.73778C0.113474 7.97893 0 8.37618 0 8.66179V13.1308C0 13.3012 0.135749 13.4393 0.303191 13.4393H0.404255V15.6915C0.404255 15.8619 0.540004 16.0001 0.707447 16.0001H3.89747C4.06491 16.0001 4.20066 15.8619 4.20066 15.6915V14.3649C4.20066 14.1945 4.06491 14.0564 3.89747 14.0564C3.73002 14.0564 3.59427 14.1945 3.59427 14.3649V15.383H1.01064V13.4393H5.33403C5.33488 13.4393 13.6704 13.4393 13.6704 13.4393C13.6731 13.4393 17.9894 13.4393 17.9894 13.4393V15.383H15.4057V14.3649C15.4057 14.1945 15.27 14.0564 15.1025 14.0564C14.9351 14.0564 14.7993 14.1945 14.7993 14.3649V15.6915C14.7993 15.8619 14.9351 16.0001 15.1025 16.0001H18.2926C18.46 16.0001 18.5957 15.8619 18.5957 15.6915V13.4393H18.6968C18.8643 13.4393 19 13.3012 19 13.1308V8.66179C19 8.37618 18.8865 7.97893 18.736 7.73774ZM0.606383 8.66179C0.606383 8.49346 0.687153 8.21069 0.775847 8.0686L1.58606 6.77042C1.60352 6.7424 1.61646 6.71172 1.62434 6.67955L2.87179 1.58059C2.99957 1.05828 3.55437 0.617048 4.0833 0.617048H14.9167C15.4456 0.617048 16.0005 1.05832 16.1282 1.58063L17.3756 6.67951C17.3835 6.71167 17.3964 6.74236 17.4139 6.77038L18.2241 8.06856C18.3128 8.21069 18.3936 8.49346 18.3936 8.66179V12.8223H13.8767L13.1444 10.9576C13.0984 10.8404 12.9869 10.7636 12.8628 10.7636H6.13716C6.01314 10.7636 5.90164 10.8404 5.85564 10.9576L5.12333 12.8223H0.606383V8.66179ZM13.2237 12.8223H5.77632L6.34252 11.3806H12.6575L13.2237 12.8223Z" fill="#6B6C6C"/>
<path d="M1.51608 11.2773H2.65689C3.56068 11.2773 4.29602 10.5291 4.29602 9.60937C4.29602 8.68968 3.56072 7.94141 2.65689 7.94141H1.74C1.57256 7.94141 1.43681 8.07954 1.43681 8.24993C1.43681 8.42032 1.57256 8.55845 1.74 8.55845H2.65689C3.22632 8.55845 3.68964 9.02988 3.68964 9.60937C3.68964 10.1889 3.22636 10.6603 2.65689 10.6603H1.51608C1.34864 10.6603 1.21289 10.7984 1.21289 10.9688C1.21289 11.1392 1.34864 11.2773 1.51608 11.2773Z" fill="#6B6C6C"/>
<path d="M14.7051 9.60937C14.7051 10.5291 15.4404 11.2773 16.3442 11.2773H17.485C17.6525 11.2773 17.7882 11.1392 17.7882 10.9688C17.7882 10.7984 17.6525 10.6603 17.485 10.6603H16.3442C15.7748 10.6603 15.3115 10.1889 15.3115 9.60937C15.3115 9.02992 15.7747 8.55845 16.3442 8.55845H17.2611C17.4286 8.55845 17.5643 8.42032 17.5643 8.24993C17.5643 8.07954 17.4286 7.94141 17.2611 7.94141H16.3442C15.4404 7.94141 14.7051 8.68964 14.7051 9.60937Z" fill="#6B6C6C"/>
</svg>
