<svg width="20" height="21" viewBox="0 0 20 21" fill="none" xmlns="http://www.w3.org/2000/svg">
<path d="M16.6597 2.41113C16.6571 2.39958 16.6501 2.39046 16.6466 2.37956C16.641 2.36084 16.6335 2.34277 16.6243 2.32552C16.6139 2.30566 16.6014 2.28711 16.5871 2.26986C16.5755 2.25553 16.5628 2.24219 16.549 2.22982C16.5322 2.21566 16.5138 2.20345 16.4943 2.1932C16.4779 2.18327 16.4604 2.1748 16.4424 2.16781C16.4207 2.16097 16.3983 2.15641 16.3757 2.15413C16.3618 2.15007 16.3477 2.14681 16.3333 2.14453H14.6527C14.5667 0.984212 14.0283 0.144531 13.3333 0.144531C12.6383 0.144531 12.0999 0.984212 12.014 2.14453H11.3193C11.2334 0.984212 10.695 0.144531 10 0.144531C9.30501 0.144531 8.7666 0.984212 8.68066 2.14453H7.986C7.90007 0.984212 7.36165 0.144531 6.66667 0.144531C5.97168 0.144531 5.43327 0.984212 5.34733 2.14453H4.65267C4.56673 0.984212 4.02832 0.144531 3.33333 0.144531C2.63835 0.144531 2.09994 0.984212 2.014 2.14453H0.333333C0.149251 2.14453 0 2.29378 0 2.47786V19.8112C0 19.9953 0.149251 20.1445 0.333333 20.1445H16.3333C16.5174 20.1445 16.6667 19.9953 16.6667 19.8112V18.8112H19.6667C19.7668 18.8112 19.8615 18.7661 19.9246 18.6886C19.988 18.611 20.013 18.5093 19.993 18.4111L16.6597 2.41113ZM13.3333 0.811198C13.5741 0.811198 13.91 1.32194 13.984 2.14453H12.6839C12.7567 1.32194 13.0926 0.811198 13.3333 0.811198ZM10 0.811198C10.2407 0.811198 10.5767 1.32194 10.6507 2.14453H9.35059C9.42334 1.32194 9.75928 0.811198 10 0.811198ZM6.66667 0.811198C6.90739 0.811198 7.24333 1.32194 7.31738 2.14453H6.01725C6.09001 1.32194 6.42594 0.811198 6.66667 0.811198ZM3.33333 0.811198C3.57406 0.811198 3.90999 1.32194 3.98405 2.14453H2.68392C2.75667 1.32194 3.09261 0.811198 3.33333 0.811198ZM0.666667 2.8112H2.014C2.09994 3.97152 2.63835 4.8112 3.33333 4.8112C3.51742 4.8112 3.66667 4.66195 3.66667 4.47786C3.66667 4.29378 3.51742 4.14453 3.33333 4.14453C3.09261 4.14453 2.75667 3.63379 2.68262 2.8112H5.34733C5.43441 3.97152 5.97168 4.8112 6.66667 4.8112C6.85075 4.8112 7 4.66195 7 4.47786C7 4.29378 6.85075 4.14453 6.66667 4.14453C6.42594 4.14453 6.09001 3.63379 6.01595 2.8112H8.68066C8.76774 3.97152 9.30501 4.8112 10 4.8112C10.1841 4.8112 10.3333 4.66195 10.3333 4.47786C10.3333 4.29378 10.1841 4.14453 10 4.14453C9.75928 4.14453 9.42334 3.63379 9.34928 2.8112H12.014C12.1011 3.97152 12.6383 4.8112 13.3333 4.8112C13.5174 4.8112 13.6667 4.66195 13.6667 4.47786C13.6667 4.29378 13.5174 4.14453 13.3333 4.14453C13.0926 4.14453 12.7567 3.63379 12.6826 2.8112H16V6.14453H0.666667V2.8112ZM16 19.4779H0.666667V6.8112H16V19.4779ZM16.6667 18.1445V5.71126L19.257 18.1445H16.6667Z" fill="#6B6C6C"/>
<path d="M7.33268 12.1445H5.99935C5.81527 12.1445 5.66602 12.2938 5.66602 12.4779V13.8112C5.66602 13.9953 5.81527 14.1445 5.99935 14.1445H7.33268C7.51676 14.1445 7.66602 13.9953 7.66602 13.8112V12.4779C7.66602 12.2938 7.51676 12.1445 7.33268 12.1445ZM6.99935 13.4779H6.33268V12.8112H6.99935V13.4779Z" fill="#6B6C6C"/>
<path d="M10.6667 12.1445H9.33333C9.14925 12.1445 9 12.2938 9 12.4779V13.8112C9 13.9953 9.14925 14.1445 9.33333 14.1445H10.6667C10.8507 14.1445 11 13.9953 11 13.8112V12.4779C11 12.2938 10.8507 12.1445 10.6667 12.1445ZM10.3333 13.4779H9.66667V12.8112H10.3333V13.4779Z" fill="#6B6C6C"/>
<path d="M4.00065 12.1445H2.66732C2.48324 12.1445 2.33398 12.2938 2.33398 12.4779V13.8112C2.33398 13.9953 2.48324 14.1445 2.66732 14.1445H4.00065C4.18473 14.1445 4.33398 13.9953 4.33398 13.8112V12.4779C4.33398 12.2938 4.18473 12.1445 4.00065 12.1445ZM3.66732 13.4779H3.00065V12.8112H3.66732V13.4779Z" fill="#6B6C6C"/>
<path d="M7.33268 15.4775H5.99935C5.81527 15.4775 5.66602 15.6268 5.66602 15.8109V17.1442C5.66602 17.3283 5.81527 17.4775 5.99935 17.4775H7.33268C7.51676 17.4775 7.66602 17.3283 7.66602 17.1442V15.8109C7.66602 15.6268 7.51676 15.4775 7.33268 15.4775ZM6.99935 16.8109H6.33268V16.1442H6.99935V16.8109Z" fill="#6B6C6C"/>
<path d="M10.6667 15.4775H9.33333C9.14925 15.4775 9 15.6268 9 15.8109V17.1442C9 17.3283 9.14925 17.4775 9.33333 17.4775H10.6667C10.8507 17.4775 11 17.3283 11 17.1442V15.8109C11 15.6268 10.8507 15.4775 10.6667 15.4775ZM10.3333 16.8109H9.66667V16.1442H10.3333V16.8109Z" fill="#6B6C6C"/>
<path d="M4.00065 15.4775H2.66732C2.48324 15.4775 2.33398 15.6268 2.33398 15.8109V17.1442C2.33398 17.3283 2.48324 17.4775 2.66732 17.4775H4.00065C4.18473 17.4775 4.33398 17.3283 4.33398 17.1442V15.8109C4.33398 15.6268 4.18473 15.4775 4.00065 15.4775ZM3.66732 16.8109H3.00065V16.1442H3.66732V16.8109Z" fill="#6B6C6C"/>
<path d="M7.33268 8.81152H5.99935C5.81527 8.81152 5.66602 8.96077 5.66602 9.14486V10.4782C5.66602 10.6623 5.81527 10.8115 5.99935 10.8115H7.33268C7.51676 10.8115 7.66602 10.6623 7.66602 10.4782V9.14486C7.66602 8.96077 7.51676 8.81152 7.33268 8.81152ZM6.99935 10.1449H6.33268V9.47819H6.99935V10.1449Z" fill="#6B6C6C"/>
<path d="M10.6667 8.81152H9.33333C9.14925 8.81152 9 8.96077 9 9.14486V10.4782C9 10.6623 9.14925 10.8115 9.33333 10.8115H10.6667C10.8507 10.8115 11 10.6623 11 10.4782V9.14486C11 8.96077 10.8507 8.81152 10.6667 8.81152ZM10.3333 10.1449H9.66667V9.47819H10.3333V10.1449Z" fill="#6B6C6C"/>
<path d="M14.0007 12.1445H12.6673C12.4832 12.1445 12.334 12.2938 12.334 12.4779V13.8112C12.334 13.9953 12.4832 14.1445 12.6673 14.1445H14.0007C14.1847 14.1445 14.334 13.9953 14.334 13.8112V12.4779C14.334 12.2938 14.1847 12.1445 14.0007 12.1445ZM13.6673 13.4779H13.0007V12.8112H13.6673V13.4779Z" fill="#6B6C6C"/>
<path d="M14.0007 15.4775H12.6673C12.4832 15.4775 12.334 15.6268 12.334 15.8109V17.1442C12.334 17.3283 12.4832 17.4775 12.6673 17.4775H14.0007C14.1847 17.4775 14.334 17.3283 14.334 17.1442V15.8109C14.334 15.6268 14.1847 15.4775 14.0007 15.4775ZM13.6673 16.8109H13.0007V16.1442H13.6673V16.8109Z" fill="#6B6C6C"/>
<path d="M14.0007 8.81152H12.6673C12.4832 8.81152 12.334 8.96077 12.334 9.14486V10.4782C12.334 10.6623 12.4832 10.8115 12.6673 10.8115H14.0007C14.1847 10.8115 14.334 10.6623 14.334 10.4782V9.14486C14.334 8.96077 14.1847 8.81152 14.0007 8.81152ZM13.6673 10.1449H13.0007V9.47819H13.6673V10.1449Z" fill="#6B6C6C"/>
<path d="M4.00065 8.81152H2.66732C2.48324 8.81152 2.33398 8.96077 2.33398 9.14486V10.4782C2.33398 10.6623 2.48324 10.8115 2.66732 10.8115H4.00065C4.18473 10.8115 4.33398 10.6623 4.33398 10.4782V9.14486C4.33398 8.96077 4.18473 8.81152 4.00065 8.81152ZM3.66732 10.1449H3.00065V9.47819H3.66732V10.1449Z" fill="#6B6C6C"/>
</svg>
