<svg width="16" height="16" viewBox="0 0 16 16" fill="none" xmlns="http://www.w3.org/2000/svg">
<path d="M14.75 13.25V12.0155C14.75 11.4022 14.3766 10.8506 13.8071 10.6228L12.2815 10.0126C11.5571 9.72286 10.7316 10.0367 10.3828 10.7345L10.25 11C10.25 11 8.375 10.625 6.875 9.125C5.375 7.625 5 5.75 5 5.75L5.26551 5.61724C5.96328 5.26836 6.27714 4.44285 5.98741 3.71852L5.37717 2.19291C5.14937 1.62343 4.59781 1.25 3.98445 1.25H2.75C1.92157 1.25 1.25 1.92157 1.25 2.75C1.25 9.37742 6.62258 14.75 13.25 14.75C14.0784 14.75 14.75 14.0784 14.75 13.25Z" stroke="#405FF2" stroke-width="1.2" stroke-linejoin="round"/>
</svg>
