<svg width="24" height="24" viewBox="0 0 24 24" fill="none" xmlns="http://www.w3.org/2000/svg">
<path d="M9.75 3.75C9.75 3.33579 9.41422 3 9 3H7.24673C5.95541 3 4.809 3.82627 4.40066 5.05132L3.28263 8.4054L2.70038 8.06921C2.34165 7.86214 1.88296 7.98502 1.67586 8.34375C1.46875 8.70248 1.59165 9.16118 1.95038 9.36825L2.79846 9.85792L2.67706 10.2221C1.52753 10.8628 0.75 12.0906 0.75 13.5V18C0.75 19.6569 2.09314 21 3.75 21C5.27985 21 6.54225 19.8549 6.72679 18.375H13.5527C13.2842 17.9108 13.076 17.4072 12.939 16.875H6C5.58577 16.875 5.25 17.2108 5.25 17.625V18C5.25 18.8284 4.57841 19.5 3.75 19.5C2.92157 19.5 2.25 18.8284 2.25 18V13.5C2.25 12.2574 3.25736 11.25 4.5 11.25H14.3929C15.0174 10.5906 15.79 10.0728 16.6574 9.75H4.41559L5.82368 5.52566C6.02786 4.91314 6.60105 4.5 7.24673 4.5H9C9.41422 4.5 9.75 4.16422 9.75 3.75Z" fill="#0C81F3"/>
<path d="M12 3.75C12 4.16422 12.3358 4.5 12.75 4.5H16.7533C17.399 4.5 17.9721 4.91314 18.1763 5.52566L19.4738 9.4182C20.0882 9.49211 20.6741 9.65884 21.2169 9.90398L21.1894 9.82144L21.9743 9.36825C22.333 9.16118 22.4559 8.70248 22.2488 8.34375C22.0417 7.98502 21.583 7.86214 21.2243 8.06921L20.7052 8.36891L19.5993 5.05132C19.191 3.82627 18.0446 3 16.7533 3H12.75C12.3358 3 12 3.33579 12 3.75Z" fill="#0C81F3"/>
<path d="M7.875 14.25C7.875 14.6642 7.53923 15 7.125 15H5.625C5.21078 15 4.875 14.6642 4.875 14.25C4.875 13.8358 5.21078 13.5 5.625 13.5H7.125C7.53923 13.5 7.875 13.8358 7.875 14.25Z" fill="#0C81F3"/>
<path fill-rule="evenodd" clip-rule="evenodd" d="M21.3346 13.851C21.4757 14.0898 21.5846 14.3498 21.6555 14.625H22.5C22.9142 14.625 23.25 14.9608 23.25 15.375C23.25 15.7892 22.9142 16.125 22.5 16.125H21.6555C21.5846 16.4002 21.4757 16.6602 21.3346 16.899L21.932 17.4963C22.2249 17.7892 22.2249 18.2641 21.932 18.557C21.6391 18.8499 21.1642 18.8499 20.8713 18.557L20.274 17.9596C20.0352 18.1007 19.7752 18.2096 19.5 18.2805V19.125C19.5 19.5392 19.1642 19.875 18.75 19.875C18.3358 19.875 18 19.5392 18 19.125V18.2805C17.7248 18.2096 17.4648 18.1007 17.226 17.9596L16.6287 18.557C16.3358 18.8499 15.8609 18.8499 15.568 18.557C15.2751 18.2641 15.2751 17.7892 15.568 17.4963L16.1654 16.899C16.0243 16.6602 15.9154 16.4002 15.8445 16.125H15C14.5858 16.125 14.25 15.7892 14.25 15.375C14.25 14.9608 14.5858 14.625 15 14.625H15.8445C15.9154 14.3498 16.0243 14.0898 16.1654 13.851L15.568 13.2537C15.2751 12.9608 15.2751 12.4859 15.568 12.193C15.8609 11.9001 16.3358 11.9001 16.6287 12.193L17.226 12.7904C17.4648 12.6493 17.7248 12.5404 18 12.4695V11.625C18 11.2108 18.3358 10.875 18.75 10.875C19.1642 10.875 19.5 11.2108 19.5 11.625V12.4695C19.7752 12.5404 20.0352 12.6493 20.274 12.7904L20.8713 12.193C21.1642 11.9001 21.6391 11.9001 21.932 12.193C22.2249 12.4859 22.2249 12.9608 21.932 13.2537L21.3346 13.851ZM18.75 16.875C17.9216 16.875 17.25 16.2034 17.25 15.375C17.25 14.5466 17.9216 13.875 18.75 13.875C19.163 13.875 19.5369 14.0419 19.8081 14.3118L19.8106 14.3144L19.8132 14.3169C20.0831 14.5881 20.25 14.962 20.25 15.375C20.25 15.788 20.0831 16.1619 19.8131 16.4332L19.8106 16.4356L19.8082 16.4381C19.5369 16.7081 19.163 16.875 18.75 16.875Z" fill="#0C81F3"/>
</svg>
