<svg width="20" height="20" viewBox="0 0 20 20" fill="none" xmlns="http://www.w3.org/2000/svg">
<path d="M2.40723 8.34726L3.95828 4.4288C4.28482 3.57164 5.10117 3.04102 5.99915 3.04102H13.9993C14.8973 3.04102 15.7137 3.61246 16.0402 4.4288L17.5913 8.34726" stroke="#405FF2" stroke-width="0.909091" stroke-miterlimit="10" stroke-linecap="round" stroke-linejoin="round"/>
<path d="M17.2242 17.2864H2.77486C1.50953 17.2864 0.489093 16.1844 0.611545 14.8782L1.06054 9.93933C1.14217 9.00053 1.9177 8.30664 2.81568 8.30664H17.1834C18.0813 8.30664 18.8569 9.00053 18.9385 9.93933L19.3875 14.919C19.51 16.1844 18.4895 17.2864 17.2242 17.2864Z" stroke="#405FF2" stroke-width="0.909091" stroke-miterlimit="10" stroke-linecap="round" stroke-linejoin="round"/>
<path d="M7.87695 3.04086V2.02043C7.87695 1.44899 8.32594 1 8.85657 1H11.1015C11.6321 1 12.0811 1.44899 12.0811 2.02043V3.00005" stroke="#405FF2" stroke-width="0.909091" stroke-miterlimit="10" stroke-linecap="round" stroke-linejoin="round"/>
<path d="M17.1836 7.28613H19.102" stroke="#405FF2" stroke-width="0.909091" stroke-miterlimit="10" stroke-linecap="round" stroke-linejoin="round"/>
<path d="M0.897461 7.28613H2.81587" stroke="#405FF2" stroke-width="0.909091" stroke-miterlimit="10" stroke-linecap="round" stroke-linejoin="round"/>
<path d="M3.7543 17.3267V18.5104C3.7543 18.7961 3.55022 19.0002 3.2645 19.0002H1.71344C1.42772 19.0002 1.22363 18.7553 1.22363 18.5104V16.6328" stroke="#405FF2" stroke-width="0.909091" stroke-miterlimit="10" stroke-linecap="round" stroke-linejoin="round"/>
<path d="M18.776 16.6328V18.5104C18.776 18.7961 18.5719 19.0002 18.2862 19.0002H16.7759C16.4902 19.0002 16.2861 18.7553 16.2861 18.5104V17.3267" stroke="#405FF2" stroke-width="0.909091" stroke-miterlimit="10" stroke-linecap="round" stroke-linejoin="round"/>
<path d="M0.816406 12.8369C6.61246 14.9594 12.7759 14.9594 19.225 12.8369" stroke="#405FF2" stroke-width="0.909091" stroke-miterlimit="10" stroke-linecap="round" stroke-linejoin="round"/>
<path d="M1.26562 9.44922L2.69423 10.1431C3.38812 10.4697 3.87793 11.1227 4.0412 11.8983L4.40856 13.6942" stroke="#405FF2" stroke-width="0.909091" stroke-miterlimit="10" stroke-linecap="round" stroke-linejoin="round"/>
<path d="M18.7359 9.44922L17.3073 10.1431C16.6134 10.4697 16.1236 11.1227 15.9603 11.8983L15.6338 13.5718" stroke="#405FF2" stroke-width="0.909091" stroke-miterlimit="10" stroke-linecap="round" stroke-linejoin="round"/>
<path d="M3.38672 10.6738H16.4483" stroke="#405FF2" stroke-width="0.909091" stroke-miterlimit="10" stroke-linecap="round" stroke-linejoin="round"/>
<path d="M17.5925 15.3682H16.9395" stroke="#405FF2" stroke-width="0.909091" stroke-miterlimit="10" stroke-linecap="round" stroke-linejoin="round"/>
<path d="M3.06128 15.3682H2.4082" stroke="#405FF2" stroke-width="0.909091" stroke-miterlimit="10" stroke-linecap="round" stroke-linejoin="round"/>
</svg>
