<svg width="70" height="70" viewBox="0 0 70 70" fill="none" xmlns="http://www.w3.org/2000/svg">
<circle cx="35" cy="35" r="35" fill="#FFF0EA"/>
<path fill-rule="evenodd" clip-rule="evenodd" d="M31.5861 32.6847C32.1326 32.6301 32.6198 33.0287 32.6744 33.5752L33.3373 40.204C33.392 40.7503 32.9932 41.2377 32.4469 41.2923C31.9005 41.3469 31.4132 40.9483 31.3586 40.4018L30.6957 33.773C30.641 33.2267 31.0397 32.7393 31.5861 32.6847Z" fill="#FFA47D"/>
<path fill-rule="evenodd" clip-rule="evenodd" d="M38.4129 32.6847C38.9593 32.7393 39.3579 33.2267 39.3033 33.773L38.6404 40.4018C38.5858 40.9483 38.0986 41.3469 37.5521 41.2923C37.0058 41.2377 36.6071 40.7503 36.6617 40.204L37.3246 33.5752C37.3792 33.0287 37.8665 32.6301 38.4129 32.6847Z" fill="#FFA47D"/>
<path fill-rule="evenodd" clip-rule="evenodd" d="M32.5121 20.7481H36.9951C37.282 20.7479 37.5319 20.7477 37.7679 20.7854C38.7003 20.9343 39.5072 21.5159 39.9432 22.3533C40.0537 22.5653 40.1326 22.8025 40.2231 23.0747L40.3711 23.5187C40.3961 23.5938 40.4033 23.6151 40.4094 23.6319C40.6415 24.2737 41.2434 24.7075 41.9258 24.7248C41.9437 24.7253 41.9657 24.7254 42.0452 24.7254H46.0225C46.5718 24.7254 47.0168 25.1705 47.0168 25.7197C47.0168 26.2688 46.5718 26.714 46.0225 26.714H23.4846C22.9354 26.714 22.4902 26.2688 22.4902 25.7197C22.4902 25.1705 22.9354 24.7254 23.4846 24.7254H27.4619C27.5415 24.7254 27.5635 24.7253 27.5815 24.7248C28.2638 24.7075 28.8657 24.2737 29.0978 23.6319C29.1039 23.615 29.111 23.5942 29.1362 23.5187L29.2841 23.0747C29.3747 22.8025 29.4536 22.5653 29.5639 22.3533C30 21.5159 30.8069 20.9343 31.7393 20.7854C31.9753 20.7477 32.2252 20.7479 32.5121 20.7481ZM30.787 24.7254C30.8553 24.5914 30.9158 24.4523 30.9679 24.3083C30.9837 24.2646 30.9992 24.2181 31.0191 24.1583L31.1514 23.7614C31.2723 23.3988 31.3001 23.3248 31.3277 23.2718C31.4731 22.9926 31.7421 22.7988 32.0529 22.7492C32.1119 22.7397 32.1908 22.7367 32.5731 22.7367H36.9342C37.3164 22.7367 37.3953 22.7397 37.4544 22.7492C37.7651 22.7988 38.0341 22.9926 38.1794 23.2718C38.207 23.3248 38.2349 23.3988 38.3558 23.7614L38.488 24.1581L38.5394 24.3084C38.5914 24.4523 38.6519 24.5914 38.7202 24.7254H30.787Z" fill="#FF6625"/>
<path fill-rule="evenodd" clip-rule="evenodd" d="M25.874 29.3675C26.4219 29.3309 26.8957 29.7455 26.9323 30.2935L27.542 39.44C27.6612 41.227 27.7461 42.4703 27.9324 43.4057C28.1132 44.3132 28.3655 44.7935 28.728 45.1326C29.0905 45.4716 29.5865 45.6916 30.5039 45.8116C31.4497 45.9353 32.696 45.9372 34.4868 45.9372H35.5122C37.303 45.9372 38.5492 45.9353 39.495 45.8116C40.4124 45.6916 40.9085 45.4716 41.271 45.1326C41.6335 44.7935 41.8859 44.3132 42.0666 43.4057C42.253 42.4703 42.3378 41.227 42.457 39.44L43.0667 30.2935C43.1032 29.7455 43.577 29.3309 44.125 29.3675C44.6729 29.404 45.0875 29.8778 45.051 30.4257L44.4365 39.642C44.3232 41.3427 44.2317 42.7163 44.0169 43.7943C43.7936 44.915 43.4139 45.8511 42.6296 46.5847C41.8453 47.3186 40.886 47.6351 39.753 47.7834C38.6631 47.9259 37.2864 47.9259 35.582 47.9259H34.417C32.7126 47.9259 31.3358 47.9259 30.246 47.7834C29.1129 47.6351 28.1537 47.3186 27.3694 46.5847C26.5851 45.8511 26.2054 44.915 25.9821 43.7943C25.7674 42.7163 25.6758 41.3427 25.5625 39.642L24.948 30.4257C24.9115 29.8778 25.3261 29.404 25.874 29.3675Z" fill="#FF6625"/>
</svg>
