<svg width="24" height="25" viewBox="0 0 24 25" fill="none" xmlns="http://www.w3.org/2000/svg">
<path d="M12 12.2925H11.25C11.25 12.6145 11.4556 12.9006 11.7608 13.0033L12 12.2925ZM12.75 7.24428C12.75 6.83006 12.4142 6.49428 12 6.49428C11.5858 6.49428 11.25 6.83006 11.25 7.24428H12.75ZM14.7608 14.013C15.1533 14.1451 15.5787 13.934 15.7108 13.5414C15.8429 13.1488 15.6318 12.7235 15.2392 12.5913L14.7608 14.013ZM12.75 12.2925V7.24428H11.25V12.2925H12.75ZM11.7608 13.0033L14.7608 14.013L15.2392 12.5913L12.2392 11.5817L11.7608 13.0033ZM21.25 12.2925C21.25 17.4612 17.1019 21.639 12 21.639V23.139C17.9438 23.139 22.75 18.276 22.75 12.2925H21.25ZM12 21.639C6.89814 21.639 2.75 17.4612 2.75 12.2925H1.25C1.25 18.276 6.05617 23.139 12 23.139V21.639ZM2.75 12.2925C2.75 7.12379 6.89814 2.94604 12 2.94604V1.44604C6.05617 1.44604 1.25 6.30898 1.25 12.2925H2.75ZM12 2.94604C17.1019 2.94604 21.25 7.12379 21.25 12.2925H22.75C22.75 6.30898 17.9438 1.44604 12 1.44604V2.94604Z" fill="#0C81F3"/>
</svg>
