<svg width="21" height="21" viewBox="0 0 21 21" fill="none" xmlns="http://www.w3.org/2000/svg">
<path d="M18.8912 10.226L18.1165 6.43347C17.9921 5.82189 17.4744 5.39476 16.8574 5.39476H9.3699C9.21132 5.39476 9.08273 5.52499 9.08273 5.68559C9.08273 5.84619 9.21132 5.97642 9.3699 5.97642H16.8574C17.1988 5.97642 17.4852 6.2126 17.554 6.55108L18.3022 10.214H16.9507C16.812 9.2972 16.0278 8.59273 15.0844 8.59273C14.1409 8.59273 13.3567 9.2972 13.218 10.214H4.71468L4.83542 9.62041C4.86744 9.46309 4.76745 9.30927 4.61211 9.27689C4.45685 9.2446 4.30492 9.34573 4.2729 9.50304L4.12582 10.226C2.94275 10.3465 2.01608 11.3607 2.01608 12.5901V18.1511C2.01608 18.3117 2.14467 18.4419 2.30326 18.4419H3.11248V19.5216C3.11248 19.865 3.38786 20.1445 3.72637 20.1445H5.58316C5.92233 20.1445 6.19821 19.865 6.19821 19.5216V18.4419H8.01662V18.9941C8.01662 19.1547 8.14521 19.2849 8.30379 19.2849H14.7123C14.871 19.2849 14.9995 19.1547 14.9995 18.9941V18.4419H16.8179V19.5216C16.8179 19.865 17.0938 20.1445 17.433 20.1445H19.2897C19.6289 20.1445 19.9048 19.865 19.9048 19.5216V18.4419H20.7128C20.8715 18.4419 21 18.3117 21 18.1511V12.5889C21 11.3601 20.0737 10.3464 18.8912 10.226ZM15.0844 9.1743C15.7102 9.1743 16.2348 9.61978 16.3662 10.214H13.8026C13.934 9.61978 14.4586 9.1743 15.0844 9.1743ZM2.5904 13.8982H4.23205C4.57825 13.8982 4.85992 14.1834 4.85992 14.534V15.45H2.5904V13.8982ZM5.62381 19.5216C5.62381 19.5435 5.60478 19.5628 5.58312 19.5628H3.72633C3.70492 19.5628 3.68679 19.5439 3.68679 19.5216V18.4419H5.62381V19.5216ZM14.4251 18.7032H8.59089V17.6H14.4251V18.7032H14.4251ZM19.3304 19.5216C19.3304 19.5435 19.3114 19.5628 19.2897 19.5628H17.433C17.4113 19.5628 17.3923 19.5435 17.3923 19.5216V18.4419H19.3304V19.5216ZM20.4256 15.45H18.1562V14.534C18.1562 14.1834 18.4378 13.8982 18.784 13.8982H20.4256L20.4256 15.45ZM20.4256 13.3165H18.7839C18.121 13.3165 17.5817 13.8627 17.5817 14.534V15.7408C17.5817 15.9015 17.7103 16.0317 17.8689 16.0317H20.4256V17.8602H14.9995V17.3092C14.9995 17.1485 14.8709 17.0183 14.7123 17.0183H8.30375C8.14516 17.0183 8.01658 17.1486 8.01658 17.3092V17.8602H2.5904V16.0317H5.1471C5.30569 16.0317 5.43427 15.9014 5.43427 15.7408V14.534C5.43427 13.8627 4.89497 13.3165 4.23205 13.3165H2.5904V12.5901C2.5904 11.6007 3.38507 10.7958 4.36196 10.7957C4.36216 10.7957 4.36237 10.7957 4.36258 10.7957C4.36274 10.7957 4.36286 10.7957 4.36303 10.7957H18.6542C18.6543 10.7957 18.6545 10.7957 18.6546 10.7957C18.6548 10.7957 18.655 10.7957 18.6552 10.7957C19.6315 10.7958 20.4256 11.6002 20.4256 12.5889V13.3165ZM15.6308 13.3165H7.38641C7.29592 13.3165 7.21069 13.3597 7.15648 13.4331C7.10223 13.5065 7.08534 13.6015 7.1109 13.6894L7.73059 15.8229C7.76655 15.9467 7.8787 16.0317 8.0061 16.0317H15.0111C15.1385 16.0317 15.2507 15.9467 15.2866 15.8229L15.9063 13.6894C15.9319 13.6015 15.915 13.5065 15.8608 13.4331C15.8065 13.3597 15.7214 13.3165 15.6308 13.3165ZM14.7963 15.45H8.22095L7.77021 13.8982H15.247L14.7963 15.45ZM5.325 2.06262C3.43315 2.06262 1.89399 3.6213 1.89399 5.53722C1.89399 7.45315 3.43315 9.01183 5.325 9.01183C7.21685 9.01183 8.75601 7.45311 8.75601 5.53722C8.75601 3.62134 7.21685 2.06262 5.325 2.06262ZM5.325 8.43017C3.74984 8.43017 2.46834 7.1324 2.46834 5.53722C2.46834 3.94205 3.74984 2.64427 5.325 2.64427C6.90016 2.64427 8.18166 3.94205 8.18166 5.53722C8.18166 7.1324 6.90016 8.43017 5.325 8.43017ZM6.99966 4.5587L7.41962 4.64593C7.575 4.67819 7.67511 4.83188 7.64326 4.98924C7.6154 5.12687 7.49577 5.22172 7.36225 5.22172C7.34314 5.22172 7.32374 5.21976 7.30426 5.21572L6.67397 5.08484L5.89932 5.53781L6.67397 5.99073L7.30426 5.85985C7.45952 5.82772 7.61137 5.92897 7.64326 6.08633C7.67511 6.24369 7.575 6.39738 7.41962 6.42964L6.99978 6.51683L7.13556 6.92868C7.18578 7.08104 7.10458 7.24577 6.95412 7.29662C6.92396 7.30682 6.89326 7.31169 6.86314 7.31169C6.74297 7.31169 6.63095 7.2347 6.59079 7.11288L6.38696 6.49456L5.61218 6.04155V6.94674L6.03966 7.434C6.14499 7.55407 6.13426 7.7379 6.0157 7.84461C5.961 7.8938 5.8929 7.91802 5.82505 7.91802C5.74586 7.91802 5.667 7.88506 5.61025 7.82039L5.325 7.49522L5.03975 7.82039C4.93442 7.9405 4.7529 7.95127 4.6343 7.84465C4.51574 7.73798 4.50501 7.55416 4.61034 7.43405L5.03782 6.94678V6.04159L4.26325 6.49448L4.06048 7.11255C4.02045 7.23453 3.90834 7.31177 3.78797 7.31177C3.75797 7.31177 3.72744 7.30694 3.6974 7.29687C3.54686 7.24622 3.46541 7.08158 3.51542 6.92918L3.65063 6.51704L3.2303 6.42976C3.07492 6.39751 2.97481 6.24381 3.00666 6.08646C3.03851 5.9291 3.19027 5.82784 3.34566 5.85997L3.97595 5.99086L4.7506 5.53793L3.97595 5.08496L3.34566 5.21585C3.32622 5.21989 3.30682 5.22184 3.28767 5.22184C3.15415 5.22184 3.03452 5.12704 3.00666 4.98936C2.97481 4.83201 3.07492 4.67831 3.2303 4.64606L3.65075 4.55874L3.51534 4.14535C3.46541 3.9929 3.54695 3.82831 3.69748 3.77774C3.84814 3.72722 4.01055 3.80979 4.06048 3.96219L4.26329 4.58134L5.03778 5.03419V4.12779L4.6103 3.64053C4.50497 3.52046 4.5157 3.33663 4.63426 3.22992C4.75282 3.12326 4.93434 3.13412 5.03971 3.25419L5.32496 3.57935L5.61021 3.25419C5.71553 3.13412 5.8971 3.1233 6.01566 3.22992C6.13422 3.33659 6.14495 3.52042 6.03962 3.64053L5.61214 4.12779V5.03419L6.38688 4.58122L6.59075 3.96182C6.64085 3.80941 6.80351 3.72701 6.954 3.77786C7.10445 3.82864 7.18578 3.99336 7.13564 4.14573L6.99966 4.5587ZM2.05097 9.79096C0.747534 8.76066 0 7.21022 0 5.53718C0 2.56366 2.38878 0.144531 5.325 0.144531C6.99497 0.144531 8.56196 0.937729 9.56671 2.27791L9.64816 1.48954C9.66469 1.32977 9.80589 1.2137 9.96366 1.23055C10.1214 1.24728 10.2359 1.39032 10.2194 1.55005L10.0625 3.06894C10.047 3.21839 9.9224 3.32951 9.77716 3.32951C9.76722 3.32951 9.75723 3.32901 9.74712 3.32793L8.24844 3.17016C8.09067 3.15355 7.9761 3.0106 7.99249 2.85082C8.00889 2.69109 8.14997 2.57506 8.30782 2.59163L9.14696 2.67994C8.2523 1.45358 6.83573 0.726143 5.32496 0.726143C2.70547 0.726143 0.574315 2.88437 0.574315 5.53714C0.574315 7.02977 1.24134 8.41307 2.40431 9.33237C2.52933 9.43121 2.55156 9.61395 2.454 9.7406C2.39737 9.81405 2.31284 9.85251 2.2274 9.85251C2.16567 9.85251 2.10345 9.83241 2.05097 9.79096Z" fill="#6B6C6C"/>
</svg>
