<svg width="24" height="25" viewBox="0 0 24 25" fill="none" xmlns="http://www.w3.org/2000/svg">
<path d="M17.5999 23.5015H6.39985C4.57984 23.5015 2.91985 22.088 2.61985 20.2706L1.28984 12.2339C1.07984 10.9819 1.67985 9.37658 2.66985 8.57896L9.59986 2.97538C10.9399 1.88496 13.0498 1.89506 14.3998 2.98548L21.3299 8.57896C22.3099 9.37658 22.9099 10.9819 22.7099 12.2339L21.3799 20.2706C21.0799 22.0577 19.3899 23.5015 17.5999 23.5015ZM11.9899 3.69225C11.4599 3.69225 10.9298 3.85376 10.5398 4.16675L3.60985 9.77034C3.03985 10.2348 2.64986 11.2646 2.76986 11.9915L4.09986 20.0283C4.27986 21.0884 5.32984 21.987 6.39985 21.987H17.5999C18.6699 21.987 19.7198 21.0884 19.8998 20.0182L21.2298 11.9815C21.3498 11.2545 20.9499 10.2146 20.3899 9.76023L13.4599 4.16675C13.0599 3.85376 12.5299 3.69225 11.9899 3.69225Z" fill="#0C81F3"/>
<path d="M12 17.1306C10.21 17.1306 8.75 15.6565 8.75 13.8492C8.75 12.042 10.21 10.5679 12 10.5679C13.79 10.5679 15.25 12.042 15.25 13.8492C15.25 15.6565 13.79 17.1306 12 17.1306ZM12 12.0823C11.04 12.0823 10.25 12.88 10.25 13.8492C10.25 14.8185 11.04 15.6161 12 15.6161C12.96 15.6161 13.75 14.8185 13.75 13.8492C13.75 12.88 12.96 12.0823 12 12.0823Z" fill="#0C81F3"/>
</svg>
