<svg width="23" height="23" viewBox="0 0 23 23" fill="none" xmlns="http://www.w3.org/2000/svg">
<path d="M2.58228 9.43562L4.40151 4.83965C4.78451 3.83428 5.742 3.21191 6.79525 3.21191H16.1787C17.2319 3.21191 18.1894 3.88216 18.5724 4.83965L20.3916 9.43562" stroke="#0C81F3" stroke-width="0.909091" stroke-miterlimit="10" stroke-linecap="round" stroke-linejoin="round"/>
<path d="M19.9606 19.9206H3.01293C1.52882 19.9206 0.331952 18.628 0.475576 17.096L1.0022 11.3032C1.09795 10.2021 2.00756 9.38818 3.06081 9.38818H19.9127C20.9659 9.38818 21.8756 10.2021 21.9713 11.3032L22.4979 17.1439C22.6415 18.628 21.4447 19.9206 19.9606 19.9206Z" stroke="#0C81F3" stroke-width="0.909091" stroke-miterlimit="10" stroke-linecap="round" stroke-linejoin="round"/>
<path d="M8.99731 3.21209V2.01523C8.99731 1.34498 9.52394 0.818359 10.1463 0.818359H12.7794C13.4018 0.818359 13.9284 1.34498 13.9284 2.01523V3.16422" stroke="#0C81F3" stroke-width="0.909091" stroke-miterlimit="10" stroke-linecap="round" stroke-linejoin="round"/>
<path d="M19.9136 8.19092H22.1637" stroke="#0C81F3" stroke-width="0.909091" stroke-miterlimit="10" stroke-linecap="round" stroke-linejoin="round"/>
<path d="M0.811035 8.19092H3.06114" stroke="#0C81F3" stroke-width="0.909091" stroke-miterlimit="10" stroke-linecap="round" stroke-linejoin="round"/>
<path d="M4.16183 19.9682V21.3565C4.16183 21.6917 3.92246 21.931 3.58734 21.931H1.7681C1.43298 21.931 1.1936 21.6438 1.1936 21.3565V19.1543" stroke="#0C81F3" stroke-width="0.909091" stroke-miterlimit="10" stroke-linecap="round" stroke-linejoin="round"/>
<path d="M21.78 19.1543V21.3565C21.78 21.6917 21.5406 21.931 21.2055 21.931H19.4341C19.099 21.931 18.8596 21.6438 18.8596 21.3565V19.9682" stroke="#0C81F3" stroke-width="0.909091" stroke-miterlimit="10" stroke-linecap="round" stroke-linejoin="round"/>
<path d="M0.715088 14.7021C7.51329 17.1916 14.7424 17.1916 22.3066 14.7021" stroke="#0C81F3" stroke-width="0.909091" stroke-miterlimit="10" stroke-linecap="round" stroke-linejoin="round"/>
<path d="M1.24243 10.7285L2.91804 11.5424C3.73191 11.9254 4.30641 12.6914 4.49791 13.601L4.92878 15.7075" stroke="#0C81F3" stroke-width="0.909091" stroke-miterlimit="10" stroke-linecap="round" stroke-linejoin="round"/>
<path d="M21.733 10.7285L20.0573 11.5424C19.2435 11.9254 18.669 12.6914 18.4775 13.601L18.0945 15.5639" stroke="#0C81F3" stroke-width="0.909091" stroke-miterlimit="10" stroke-linecap="round" stroke-linejoin="round"/>
<path d="M3.73096 12.1646H19.0508" stroke="#0C81F3" stroke-width="0.909091" stroke-miterlimit="10" stroke-linecap="round" stroke-linejoin="round"/>
<path d="M20.3927 17.6704H19.6267" stroke="#0C81F3" stroke-width="0.909091" stroke-miterlimit="10" stroke-linecap="round" stroke-linejoin="round"/>
<path d="M3.349 17.6704H2.58301" stroke="#0C81F3" stroke-width="0.909091" stroke-miterlimit="10" stroke-linecap="round" stroke-linejoin="round"/>
</svg>
