<svg width="20" height="20" viewBox="0 0 20 20" fill="none" xmlns="http://www.w3.org/2000/svg">
<path d="M10 9C8.89713 9 8 9.89713 8 11C8 12.1029 8.89713 13 10 13C11.1029 13 12 12.1029 12 11C12 9.89713 11.1029 9 10 9ZM10 12.3333C9.26479 12.3333 8.66667 11.7353 8.66667 11C8.66667 10.2647 9.26479 9.66667 10 9.66667C10.7352 9.66667 11.3333 10.2647 11.3333 11C11.3333 11.7353 10.7352 12.3333 10 12.3333Z" fill="#6B6C6C"/>
<path d="M10 0C4.486 0 0 4.486 0 10C0 15.514 4.486 20 10 20C15.514 20 20 15.514 20 10C20 4.486 15.514 0 10 0ZM10 19.3333C4.8535 19.3333 0.666667 15.1465 0.666667 10C0.666667 4.8535 4.8535 0.666667 10 0.666667C15.1465 0.666667 19.3333 4.8535 19.3333 10C19.3333 15.1465 15.1465 19.3333 10 19.3333Z" fill="#6B6C6C"/>
<path d="M10 2C5.58888 2 2 5.58888 2 10C2 14.4111 5.58888 18 10 18C14.4111 18 18 14.4111 18 10C18 5.58888 14.4111 2 10 2ZM10 2.66667C13.116 2.66667 15.7825 4.62104 16.8428 7.36771L14.3454 8.20017C13.4888 8.48567 12.5627 8.44104 11.737 8.07387C10.6332 7.583 9.36671 7.583 8.26321 8.07387L8.13692 8.12988C7.38625 8.46388 6.53521 8.53125 5.74058 8.31933L3.06967 7.60708C4.06417 4.73525 6.79421 2.66667 10 2.66667ZM2.66667 10C2.66667 9.93208 2.66996 9.86496 2.67183 9.7975L2.90333 9.87467C6.18983 10.9701 8.51404 13.8415 8.92746 17.2541C5.39054 16.7335 2.66667 13.6793 2.66667 10ZM10 17.3333C9.86763 17.3333 9.73617 17.3294 9.6055 17.3224C9.21158 13.589 6.69408 10.4356 3.11425 9.2425L2.72233 9.11188C2.75804 8.81771 2.81058 8.52875 2.88017 8.24629L5.56867 8.96325C5.929 9.05929 6.29896 9.10713 6.66858 9.10713C7.26429 9.10713 7.85854 8.98342 8.4075 8.73929L8.53379 8.68329C9.46542 8.26858 10.5341 8.26892 11.467 8.68363C12.4444 9.11754 13.5414 9.17092 14.5563 8.83238L17.0537 7.99988C17.156 8.36017 17.2314 8.7315 17.2776 9.11188L16.8857 9.2425C13.3058 10.4356 10.7883 13.589 10.3944 17.3224C10.2638 17.3294 10.1324 17.3333 10 17.3333ZM11.0726 17.2541C11.486 13.8415 13.8102 10.9701 17.0967 9.87467L17.3282 9.7975C17.33 9.86496 17.3334 9.93208 17.3334 10C17.3333 13.6793 14.6095 16.7335 11.0726 17.2541Z" fill="#6B6C6C"/>
</svg>
