<svg width="20" height="20" viewBox="0 0 20 20" fill="none" xmlns="http://www.w3.org/2000/svg">
<path d="M9.05212 1.646H7.40629C3.29171 1.646 1.64587 3.29183 1.64587 7.40641V12.3439C1.64587 16.4585 3.29171 18.1043 7.40629 18.1043H12.3438C16.4584 18.1043 18.1042 16.4585 18.1042 12.3439V10.6981" stroke="white" stroke-width="1.5" stroke-linecap="round" stroke-linejoin="round"/>
<path d="M13.1994 2.48508L6.71484 8.96966C6.46796 9.21654 6.22109 9.70206 6.17171 10.0559L5.81786 12.5329C5.68619 13.4299 6.31984 14.0553 7.21682 13.9319L9.6938 13.578C10.0394 13.5286 10.5249 13.2817 10.78 13.0349L17.2646 6.55029C18.3838 5.43112 18.9105 4.13091 17.2646 2.48508C15.6188 0.839247 14.3186 1.36591 13.1994 2.48508Z" stroke="white" stroke-width="1.5" stroke-miterlimit="10" stroke-linecap="round" stroke-linejoin="round"/>
<path d="M12.2698 3.41504C12.8211 5.38181 14.36 6.92066 16.335 7.48025" stroke="white" stroke-width="1.5" stroke-miterlimit="10" stroke-linecap="round" stroke-linejoin="round"/>
</svg>
