<svg width="16" height="16" viewBox="0 0 20 20" fill="none" xmlns="http://www.w3.org/2000/svg">
<path d="M1 19.2314H19M11.7844 3.54316C11.7844 3.54316 11.7844 5.17778 13.419 6.81241C15.0537 8.44703 16.6883 8.44703 16.6883 8.44703M5.31963 16.2195L8.75234 15.7291C9.2475 15.6584 9.70636 15.429 10.06 15.0753L18.3229 6.81241C19.2257 5.90963 19.2257 4.44593 18.3229 3.54315L16.6883 1.90853C15.7855 1.00575 14.3218 1.00575 13.419 1.90853L5.15616 10.1714C4.80248 10.5251 4.57305 10.9839 4.50231 11.4791L4.01193 14.9118C3.90295 15.6746 4.5568 16.3285 5.31963 16.2195Z" stroke="#0D274E" stroke-width="1.0" stroke-linecap="round"/>
</svg>
