<svg width="19" height="16" viewBox="0 0 19 16" fill="none" xmlns="http://www.w3.org/2000/svg">
<path d="M17.4167 7.23819H16.7833C16.5314 7.23819 16.2897 7.3586 16.1116 7.57293C15.9334 7.78726 15.8333 8.07795 15.8333 8.38106V8.76202H15.2V6.85723C15.2 6.55412 15.0999 6.26343 14.9218 6.0491C14.7436 5.83477 14.502 5.71436 14.25 5.71436H13.3C13.216 5.71436 13.1355 5.67422 13.0761 5.60278C13.0167 5.53134 12.9833 5.43444 12.9833 5.3334V4.57149C12.9833 4.26838 12.8832 3.97769 12.7051 3.76336C12.5269 3.54903 12.2853 3.42862 12.0333 3.42862H10.7667V2.28574H12.35C12.602 2.28574 12.8436 2.16533 13.0218 1.951C13.1999 1.73667 13.3 1.44598 13.3 1.14287C13.3 0.839764 13.1999 0.549069 13.0218 0.334739C12.8436 0.120409 12.602 0 12.35 0H6.01667C5.76471 0 5.52307 0.120409 5.34491 0.334739C5.16676 0.549069 5.06667 0.839764 5.06667 1.14287C5.06667 1.44598 5.16676 1.73667 5.34491 1.951C5.52307 2.16533 5.76471 2.28574 6.01667 2.28574H7.6V3.42862H6.01667C5.76471 3.42862 5.52307 3.54903 5.34491 3.76336C5.16676 3.97769 5.06667 4.26838 5.06667 4.57149C5.06667 4.67252 5.0333 4.76942 4.97392 4.84087C4.91453 4.91231 4.83399 4.95245 4.75 4.95245H3.8C3.54804 4.95245 3.30641 5.07285 3.12825 5.28719C2.95009 5.50152 2.85 5.79221 2.85 6.09532V7.61915H1.9V6.09532C1.9 5.79221 1.79991 5.50152 1.62175 5.28719C1.44359 5.07285 1.20196 4.95245 0.95 4.95245C0.698044 4.95245 0.456408 5.07285 0.278249 5.28719C0.100089 5.50152 0 5.79221 0 6.09532L0 12.1906C0 12.4937 0.100089 12.7844 0.278249 12.9988C0.456408 13.2131 0.698044 13.3335 0.95 13.3335C1.20196 13.3335 1.44359 13.2131 1.62175 12.9988C1.79991 12.7844 1.9 12.4937 1.9 12.1906V10.6668H2.85V12.5716C2.85 12.8747 2.95009 13.1654 3.12825 13.3797C3.30641 13.5941 3.54804 13.7145 3.8 13.7145H5.12113C5.20511 13.7145 5.28564 13.7546 5.34502 13.8261L6.87388 15.6653C6.96185 15.7719 7.06651 15.8563 7.18181 15.9138C7.2971 15.9713 7.42073 16.0006 7.54553 16.0002H14.25C14.502 16.0002 14.7436 15.8798 14.9218 15.6655C15.0999 15.4511 15.2 15.1604 15.2 14.8573V13.3335H15.8333V13.7145C15.8333 14.0176 15.9334 14.3083 16.1116 14.5226C16.2897 14.7369 16.5314 14.8573 16.7833 14.8573H17.4167C17.8364 14.8567 18.2389 14.6559 18.5357 14.2988C18.8325 13.9417 18.9995 13.4575 19 12.9526V9.14298C18.9995 8.63798 18.8325 8.15384 18.5357 7.79676C18.2389 7.43967 17.8364 7.23879 17.4167 7.23819ZM5.7 1.14287C5.7 1.04184 5.73336 0.944938 5.79275 0.873495C5.85214 0.802051 5.93268 0.761915 6.01667 0.761915H12.35C12.434 0.761915 12.5145 0.802051 12.5739 0.873495C12.6333 0.944938 12.6667 1.04184 12.6667 1.14287C12.6667 1.24391 12.6333 1.34081 12.5739 1.41225C12.5145 1.48369 12.434 1.52383 12.35 1.52383H6.01667C5.93268 1.52383 5.85214 1.48369 5.79275 1.41225C5.73336 1.34081 5.7 1.24391 5.7 1.14287ZM8.23333 2.28574H10.1333V3.42862H8.23333V2.28574ZM1.26667 12.1906C1.26667 12.2917 1.2333 12.3886 1.17392 12.46C1.11453 12.5315 1.03399 12.5716 0.95 12.5716C0.866015 12.5716 0.785469 12.5315 0.726083 12.46C0.666696 12.3886 0.633333 12.2917 0.633333 12.1906V6.09532C0.633333 5.99428 0.666696 5.89738 0.726083 5.82594C0.785469 5.7545 0.866015 5.71436 0.95 5.71436C1.03399 5.71436 1.11453 5.7545 1.17392 5.82594C1.2333 5.89738 1.26667 5.99428 1.26667 6.09532V12.1906ZM1.9 9.90489V8.38106H2.85V9.90489H1.9ZM14.5667 14.8573C14.5667 14.9584 14.5333 15.0553 14.4739 15.1267C14.4145 15.1982 14.334 15.2383 14.25 15.2383H7.54553C7.46155 15.2383 7.38102 15.1981 7.32165 15.1267L5.79278 13.2874C5.70478 13.181 5.6001 13.0966 5.48482 13.0391C5.36954 12.9816 5.24593 12.9522 5.12113 12.9526H3.8C3.71601 12.9526 3.63547 12.9124 3.57608 12.841C3.5167 12.7695 3.48333 12.6726 3.48333 12.5716V6.09532C3.48333 5.99428 3.5167 5.89738 3.57608 5.82594C3.63547 5.7545 3.71601 5.71436 3.8 5.71436H4.75C5.00196 5.71436 5.24359 5.59395 5.42175 5.37962C5.59991 5.16529 5.7 4.8746 5.7 4.57149C5.7 4.47045 5.73336 4.37355 5.79275 4.30211C5.85214 4.23067 5.93268 4.19053 6.01667 4.19053H12.0333C12.1173 4.19053 12.1979 4.23067 12.2573 4.30211C12.3166 4.37355 12.35 4.47045 12.35 4.57149V5.3334C12.35 5.63651 12.4501 5.92721 12.6282 6.14154C12.8064 6.35587 13.048 6.47627 13.3 6.47628H14.25C14.334 6.47628 14.4145 6.51641 14.4739 6.58785C14.5333 6.6593 14.5667 6.7562 14.5667 6.85723V14.8573ZM15.2 12.5716V9.52393H15.8333V12.5716H15.2ZM18.3667 12.9526C18.3667 13.2557 18.2666 13.5464 18.0884 13.7607C17.9103 13.975 17.6686 14.0954 17.4167 14.0954H16.7833C16.6993 14.0954 16.6188 14.0553 16.5594 13.9838C16.5 13.9124 16.4667 13.8155 16.4667 13.7145V8.38106C16.4667 8.28003 16.5 8.18313 16.5594 8.11168C16.6188 8.04024 16.6993 8.0001 16.7833 8.0001H17.4167C17.6686 8.0001 17.9103 8.12051 18.0884 8.33484C18.2666 8.54917 18.3667 8.83987 18.3667 9.14298V12.9526Z" fill="#6B6C6C"/>
</svg>
