<svg width="17" height="16" viewBox="0 0 17 16" fill="none" xmlns="http://www.w3.org/2000/svg">
<path d="M6.98098 13.9544C6.95129 14.1401 6.83081 14.3021 6.65522 14.3924C6.47963 14.4828 6.26915 14.4912 6.08604 14.415L3.37632 13.2932C3.2421 13.2378 3.17531 13.0956 3.22225 12.9653L4.58198 9.17921C4.79959 8.58188 5.44826 8.22165 6.11185 8.32958L6.53682 8.40104C7.2646 8.52002 7.75636 9.1639 7.64159 9.84801L6.98098 13.9544ZM6.31467 13.9291C6.3362 13.9386 6.36123 13.9376 6.38185 13.9264C6.40325 13.9158 6.4179 13.896 6.42088 13.8734L7.0833 9.77047C7.09692 9.68212 7.09368 9.59218 7.07358 9.50492L6.59453 9.85968C6.36317 10.0287 6.19057 10.2584 6.09875 10.5197L5.06051 13.4114L6.31467 13.9291ZM6.43813 8.9257L6.01329 8.85423C5.96764 8.84658 5.92134 8.84281 5.87492 8.84281C5.53372 8.84366 5.23052 9.04711 5.11977 9.3496L3.84175 12.9072L4.54061 13.1964L5.56199 10.3521C5.68856 9.99263 5.92614 9.67641 6.24464 9.44367L6.76402 9.05865C6.66754 8.99181 6.55614 8.94636 6.43813 8.9257Z" fill="#6B6C6C"/>
<path d="M16.2745 2.48745L12.0441 3.65563C11.987 3.67155 11.9338 3.69817 11.888 3.7339L10.3959 4.89891L10.1553 5.08741L8.20579 14.5839C8.10723 15.0666 7.77913 15.4809 7.31448 15.7089C6.84982 15.9368 6.29958 15.9536 5.82014 15.7544L3.10186 14.629C2.83705 14.923 2.40015 15.0233 2.02017 14.8775L0.586401 14.3264C0.103592 14.1409 -0.127373 13.6239 0.0702629 13.1714L2.68143 7.19807L2.48768 6.98831C2.12626 6.596 2.17177 6.00365 2.58935 5.66384L5.57699 3.23804C5.77813 3.07482 6.04021 2.99327 6.30542 3.01126C6.57075 3.02925 6.81753 3.14531 6.99157 3.33381L7.47477 3.85762L8.56073 3.00968H8.56242L10.5738 1.47642C10.6769 1.39767 10.7958 1.33909 10.9234 1.30409L15.506 0.0383188C16.0367 -0.107764 16.5934 0.176623 16.7499 0.673815L16.9528 1.31928C17.0285 1.55845 16.9995 1.81598 16.8722 2.03523C16.745 2.25435 16.53 2.41709 16.2745 2.48745ZM7.22811 4.40318L6.56284 3.68212C6.48723 3.60021 6.37998 3.54977 6.26457 3.54187C6.14928 3.5341 6.03529 3.56958 5.94788 3.64044L2.96025 6.06526C2.77869 6.21293 2.75898 6.47033 2.91602 6.64085L3.22363 6.97421C3.29366 7.04993 3.31234 7.15615 3.27187 7.24875L0.594442 13.3713C0.515335 13.5523 0.6078 13.7592 0.800898 13.8333L2.23519 14.3842C2.32804 14.4198 2.43218 14.4194 2.52477 14.3831C2.61724 14.3468 2.69051 14.2774 2.7285 14.1904C2.75742 14.124 2.8137 14.0714 2.88477 14.0445C2.95571 14.0177 3.0352 14.0188 3.10523 14.0478L6.04903 15.2667C6.37065 15.3999 6.73946 15.3883 7.05083 15.2354C7.36233 15.0825 7.5824 14.8049 7.6488 14.4813L9.61739 4.89198C9.62984 4.83183 9.66407 4.7775 9.71426 4.73825L9.80322 4.66873L8.71791 3.57809L7.62325 4.43247C7.50472 4.52483 7.329 4.51134 7.22811 4.40221V4.40318ZM16.4094 1.4701L16.2071 0.824152C16.1745 0.720119 16.0991 0.632616 15.9975 0.580721C15.896 0.528948 15.7767 0.517038 15.6658 0.547785L11.086 1.81124C11.0305 1.82656 10.9789 1.85196 10.9342 1.88611L9.15623 3.24011L10.239 4.32868L11.5254 3.32372C11.6305 3.24144 11.7524 3.18031 11.8837 3.14422L16.1148 1.97689C16.3455 1.91309 16.4772 1.68631 16.4094 1.4701Z" fill="#6B6C6C"/>
<path d="M15.0164 9.12444C14.4869 9.13563 13.9756 8.94348 13.601 8.59249C13.2265 8.24151 13.0214 7.7623 13.0334 7.26596C13.0334 6.41961 14.1309 4.89121 14.5884 4.39657C14.6989 4.285 14.854 4.22168 15.0164 4.22168C15.1789 4.22168 15.334 4.285 15.4445 4.39657C15.902 4.89121 16.9995 6.41961 16.9995 7.26596C17.0114 7.7623 16.8064 8.24151 16.4319 8.59249C16.0574 8.94348 15.546 9.13563 15.0164 9.12444ZM15.0164 4.74379C14.5167 5.28388 13.6 6.65137 13.6 7.26596C13.5869 7.62169 13.7319 7.96648 14.0005 8.21817C14.2689 8.46987 14.6369 8.60574 15.0164 8.59347C15.396 8.60574 15.7639 8.46987 16.0325 8.21817C16.301 7.96648 16.446 7.62169 16.4329 7.26596C16.4329 6.65161 15.5159 5.28412 15.0164 4.74379Z" fill="#6B6C6C"/>
<path d="M8.87832 4.95154C8.9512 4.96904 9.01384 5.01292 9.05222 5.07356C9.09061 5.13433 9.10163 5.20688 9.08283 5.27518L8.94121 5.7951C8.90905 5.9125 8.79623 5.99466 8.66693 5.99478C8.6432 5.9949 8.6196 5.99211 8.59665 5.98652C8.44505 5.9503 8.35349 5.80568 8.39214 5.6636L8.53375 5.14356C8.55229 5.07526 8.59898 5.01668 8.66356 4.98071C8.72814 4.94474 8.80544 4.93416 8.87832 4.95154Z" fill="#6B6C6C"/>
<path d="M8.63502 6.66391L8.23352 8.25684C8.20331 8.37655 8.08919 8.46126 7.95795 8.46126C7.9359 8.46138 7.91411 8.45895 7.89272 8.45409C7.74073 8.42055 7.64632 8.27799 7.68172 8.13543L8.08309 6.5425C8.10643 6.45013 8.18048 6.37636 8.27749 6.34914C8.37449 6.32179 8.47966 6.34513 8.55345 6.41015C8.62711 6.47529 8.65823 6.57227 8.63502 6.66464V6.66391Z" fill="#6B6C6C"/>
</svg>
