<svg width="18" height="20" viewBox="0 0 18 20" fill="none" xmlns="http://www.w3.org/2000/svg">
<path fill-rule="evenodd" clip-rule="evenodd" d="M18 8.15033V15.9668C18 18.1943 16.2091 20 14 20H4C1.79086 20 0 18.1943 0 15.9668V8.15033C0 6.93937 0.539645 5.7925 1.46986 5.02652L6.46986 0.909348C7.9423 -0.303114 10.0577 -0.303117 11.5301 0.909345L16.5301 5.02652C17.4604 5.7925 18 6.93937 18 8.15033ZM12.25 15.25V17.5C12.25 18.0523 11.8023 18.5 11.25 18.5H6.75C6.19772 18.5 5.75 18.0523 5.75 17.5V15.25C5.75 13.4551 7.20507 12 9 12C10.7949 12 12.25 13.4551 12.25 15.25Z" fill="#0C81F3"/>
</svg>
