<svg width="20" height="23" viewBox="0 0 20 23" fill="none" xmlns="http://www.w3.org/2000/svg">
<path d="M2.82221 15.8546H2.01367V6.50937C2.01464 5.81109 2.32095 5.14167 2.86543 4.64798C3.4099 4.1543 4.14805 3.87666 4.91794 3.87598H15.078C15.8479 3.87666 16.5861 4.1543 17.1305 4.64798C17.675 5.14167 17.9813 5.81109 17.9823 6.50937V15.8542H17.1738V6.50937C17.173 6.00552 16.9519 5.52252 16.5591 5.16631C16.1662 4.81011 15.6336 4.60979 15.078 4.60931H4.91794C4.36242 4.60979 3.8298 4.81011 3.43691 5.16631C3.04403 5.52252 2.82296 6.00552 2.82221 6.50937V15.8546Z" fill="#6B6C6C"/>
<path d="M13.2638 4.60972H6.73165C6.37874 4.60904 6.0405 4.48156 5.79099 4.25519C5.54148 4.02882 5.40103 3.72201 5.40039 3.40192V1.2078C5.40103 0.88771 5.54148 0.580896 5.79099 0.354527C6.0405 0.128157 6.37874 0.000678442 6.73165 0H13.2638C13.6167 0.000678442 13.955 0.128157 14.2045 0.354527C14.454 0.580896 14.5944 0.88771 14.5951 1.2078V3.40192C14.5944 3.72201 14.454 4.02882 14.2045 4.25519C13.955 4.48156 13.6167 4.60904 13.2638 4.60972ZM6.73165 0.733331C6.59317 0.734006 6.46059 0.784222 6.36271 0.873066C6.26483 0.96191 6.20957 1.0822 6.20893 1.2078V3.40192C6.20957 3.52752 6.26483 3.64781 6.36271 3.73665C6.46059 3.82549 6.59317 3.87571 6.73165 3.87639H13.2638C13.4023 3.87571 13.5349 3.82549 13.6328 3.73665C13.7306 3.64781 13.7859 3.52752 13.7865 3.40192V1.2078C13.7859 1.0822 13.7306 0.96191 13.6328 0.873066C13.5349 0.784222 13.4023 0.734006 13.2638 0.733331H6.73165Z" fill="#6B6C6C"/>
<path d="M13.1431 18.1218H6.85349C6.74627 18.1218 6.64344 18.0832 6.56763 18.0144C6.49181 17.9456 6.44922 17.8524 6.44922 17.7551V9.68042C6.44954 9.36789 6.58659 9.06826 6.83028 8.84731C7.07397 8.62636 7.40437 8.50215 7.74894 8.50195H12.2476C12.5922 8.50215 12.9226 8.62636 13.1663 8.84731C13.41 9.06826 13.5471 9.36789 13.5474 9.68042V17.7544C13.5475 17.8026 13.5371 17.8504 13.5168 17.8949C13.4966 17.9395 13.4668 17.98 13.4293 18.0141C13.3917 18.0483 13.3471 18.0753 13.298 18.0938C13.2489 18.1123 13.1963 18.1218 13.1431 18.1218ZM7.25776 17.3885H12.7388V9.68042C12.7386 9.56235 12.6868 9.44919 12.5947 9.36574C12.5026 9.2823 12.3778 9.23538 12.2476 9.23528H7.74894C7.61878 9.23538 7.49396 9.2823 7.40188 9.36574C7.3098 9.44919 7.25797 9.56235 7.25776 9.68042V17.3885Z" fill="#6B6C6C"/>
<path d="M6.85352 14.3711H13.1435V15.1044H6.85352V14.3711Z" fill="#6B6C6C"/>
<path d="M6.85352 5.81836H13.1435V6.55169H6.85352V5.81836Z" fill="#6B6C6C"/>
<path d="M16.8984 22.1439H3.10155C2.27923 22.1431 1.49084 21.8465 0.909369 21.3191C0.327901 20.7917 0.000856138 20.0766 0 19.3308V16.8221C0.000427818 16.468 0.155674 16.1285 0.431689 15.8781C0.707703 15.6277 1.08195 15.4868 1.47235 15.4863H3.12257C3.41408 15.487 3.70042 15.5562 3.9537 15.6871C4.20697 15.818 4.41856 16.0061 4.56784 16.2332L5.3218 17.3879H14.6782L15.4326 16.2332C15.5817 16.0061 15.7932 15.8179 16.0464 15.687C16.2997 15.5561 16.586 15.487 16.8774 15.4863H18.5277C18.918 15.4868 19.2923 15.6277 19.5683 15.8781C19.8443 16.1285 19.9996 16.468 20 16.8221V19.3308C19.9991 20.0766 19.6721 20.7917 19.0906 21.3191C18.5092 21.8465 17.7208 22.1431 16.8984 22.1439ZM1.47235 16.2197C1.29632 16.2199 1.12761 16.2835 1.00318 16.3965C0.878744 16.5094 0.808752 16.6624 0.808538 16.8221V19.3308C0.80918 19.8822 1.05097 20.4109 1.48086 20.8008C1.91074 21.1907 2.4936 21.41 3.10155 21.4105H16.8984C17.5064 21.41 18.0893 21.1907 18.5191 20.8008C18.949 20.4109 19.1908 19.8822 19.1915 19.3308V16.8221C19.1912 16.6624 19.1213 16.5094 18.9968 16.3965C18.8724 16.2835 18.7037 16.2199 18.5277 16.2197H16.8774C16.7262 16.2201 16.5777 16.256 16.4464 16.3239C16.315 16.3918 16.2053 16.4894 16.1279 16.6072L15.2555 17.9415C15.2197 17.9963 15.1688 18.0416 15.1079 18.0731C15.0469 18.1046 14.978 18.1212 14.9078 18.1212H5.09096C5.0208 18.1212 4.95186 18.1046 4.8909 18.0731C4.82994 18.0416 4.77907 17.9963 4.74329 17.9415L3.87209 16.6072C3.79474 16.4894 3.68503 16.3917 3.55367 16.3238C3.42231 16.2559 3.27378 16.22 3.12257 16.2197H1.47235Z" fill="#6B6C6C"/>
<path d="M12.0212 2.38332H7.97849C7.87127 2.38332 7.76844 2.34469 7.69263 2.27593C7.61681 2.20717 7.57422 2.1139 7.57422 2.01666V0.366665C7.57422 0.26942 7.61681 0.176157 7.69263 0.107394C7.76844 0.0386307 7.87127 0 7.97849 0H12.0212C12.1284 0 12.2312 0.0386307 12.307 0.107394C12.3829 0.176157 12.4254 0.26942 12.4254 0.366665V2.01666C12.4254 2.1139 12.3829 2.20717 12.307 2.27593C12.2312 2.34469 12.1284 2.38332 12.0212 2.38332ZM8.38276 1.64999H11.6169V0.733331H8.38276V1.64999Z" fill="#6B6C6C"/>
</svg>
