<svg width="24" height="25" viewBox="0 0 24 25" fill="none" xmlns="http://www.w3.org/2000/svg">
<path d="M9 14.4629C10.6569 14.4629 12 15.806 12 17.4629C12 18.0152 11.5523 18.4629 11 18.4629H7C6.44772 18.4629 6 18.0152 6 17.4629C6 15.806 7.34315 14.4629 9 14.4629ZM9 14.4629C10.1046 14.4629 11 13.5675 11 12.4629C11 11.3583 10.1046 10.4629 9 10.4629C7.89543 10.4629 7 11.3583 7 12.4629C7 13.5675 7.89543 14.4629 9 14.4629ZM18 12.4629L15 12.4629M18 16.4629L15 16.4629M5 22.4629H19C20.6569 22.4629 22 21.1197 22 19.4629V9.46289C22 7.80604 20.6569 6.46289 19 6.46289H5C3.34315 6.46289 2 7.80604 2 9.46289V19.4629C2 21.1197 3.34315 22.4629 5 22.4629ZM14 6.46289V4.46289C14 3.35832 13.1046 2.46289 12 2.46289C10.8954 2.46289 10 3.35832 10 4.46289V6.46289H14Z" stroke="#0D274E" stroke-width="1.5" stroke-linecap="round"/>
</svg>
