<svg width="24" height="25" viewBox="0 0 24 25" fill="none" xmlns="http://www.w3.org/2000/svg">
<path d="M20 14.135L21.303 12.8194C21.689 12.4297 21.689 11.8017 21.303 11.412L20 10.0964" stroke="#0C81F3" stroke-width="1.5" stroke-linecap="round" stroke-linejoin="round"/>
<path d="M21 12.1157H13M6 20.1929C3.79086 20.1929 2 18.3848 2 16.1543V8.07716C2 5.84671 3.79086 4.03857 6 4.03857M6 20.1929C8.20914 20.1929 10 18.3848 10 16.1543V8.07716C10 5.84671 8.20914 4.03857 6 4.03857M6 20.1929H14C16.2091 20.1929 18 18.3848 18 16.1543M6 4.03857H14C16.2091 4.03857 18 5.84671 18 8.07716" stroke="#0C81F3" stroke-width="1.5" stroke-linecap="round"/>
</svg>
