<svg width="52" height="52" viewBox="0 0 52 52" fill="none" xmlns="http://www.w3.org/2000/svg">
<g clip-path="url(#clip0_757_3517)">
<path d="M50.3738 24.3759H29.791C28.894 24.3759 28.166 23.6479 28.166 22.7509C28.166 21.854 28.894 21.126 29.791 21.126H50.3738C51.2708 21.126 51.9987 21.854 51.9987 22.7509C51.9987 23.6479 51.2708 24.3759 50.3738 24.3759Z" fill="white"/>
<path d="M42.2496 32.5003C41.8334 32.5003 41.4176 32.342 41.1011 32.0239C40.4663 31.3887 40.4663 30.3596 41.1011 29.7249L48.0777 22.7486L41.1011 15.772C40.4663 15.1373 40.4663 14.1082 41.1011 13.4734C41.7362 12.8383 42.7653 12.8383 43.4 13.4734L51.5248 21.5982C52.1595 22.2329 52.1595 23.262 51.5248 23.8967L43.4 32.0215C43.0815 32.342 42.6657 32.5003 42.2496 32.5003Z" fill="white"/>
<path d="M17.3329 52.0003C16.8692 52.0003 16.4292 51.9353 15.9896 51.7988L2.95077 47.4548C1.17666 46.8351 0 45.182 0 43.3341V4.33528C0 1.94547 1.94351 0.00195312 4.33333 0.00195312C4.79669 0.00195312 5.23665 0.0670146 5.67661 0.203485L18.7151 4.54753C20.4896 5.1672 21.6659 6.82031 21.6659 8.66822V47.667C21.6659 50.0568 19.7227 52.0003 17.3329 52.0003ZM4.33333 3.25185C3.73746 3.25185 3.2499 3.73942 3.2499 4.33528V43.3341C3.2499 43.7954 3.55973 44.2243 4.00168 44.3782L16.9794 48.7028C17.0727 48.733 17.1941 48.7504 17.3329 48.7504C17.9288 48.7504 18.416 48.2629 18.416 47.667V8.66822C18.416 8.20684 18.1061 7.77799 17.6642 7.62406L4.68641 3.29946C4.59318 3.26931 4.47178 3.25185 4.33333 3.25185Z" fill="white"/>
<path d="M33.0411 17.3349C32.1441 17.3349 31.4162 16.6069 31.4162 15.7099V5.96023C31.4162 4.46739 30.201 3.25185 28.7082 3.25185H4.33393C3.43696 3.25185 2.70898 2.52388 2.70898 1.6269C2.70898 0.729927 3.43696 0.00195312 4.33393 0.00195312H28.7082C31.995 0.00195312 34.6661 2.67344 34.6661 5.96023V15.7099C34.6661 16.6069 33.9381 17.3349 33.0411 17.3349Z" fill="white"/>
<path d="M28.7076 45.4999H20.041C19.144 45.4999 18.416 44.7719 18.416 43.875C18.416 42.978 19.144 42.25 20.041 42.25H28.7076C30.2005 42.25 31.4156 41.0345 31.4156 39.5416V29.7919C31.4156 28.895 32.1436 28.167 33.0406 28.167C33.9375 28.167 34.6655 28.895 34.6655 29.7919V39.5416C34.6655 42.8284 31.9944 45.4999 28.7076 45.4999Z" fill="white"/>
</g>
<defs>
<clipPath id="clip0_757_3517">
<rect width="52" height="52" fill="white"/>
</clipPath>
</defs>
</svg>
