<svg width="19" height="16" viewBox="0 0 19 16" fill="none" xmlns="http://www.w3.org/2000/svg">
<path d="M19 9.29347C19 6.75456 17.9535 4.45057 16.2608 2.77159C16.2476 2.7544 16.2335 2.73758 16.2175 2.72192C16.2015 2.70626 16.1843 2.69249 16.1668 2.67963C14.4505 1.02368 12.0953 0 9.5 0C6.90472 0 4.54953 1.02374 2.83318 2.67963C2.81561 2.69255 2.79848 2.70632 2.78247 2.72192C2.76646 2.73758 2.75238 2.75434 2.73918 2.77159C1.0465 4.45057 0 6.75456 0 9.29347C0 11.7755 0.987938 14.1089 2.78179 15.8642C2.78204 15.8644 2.78229 15.8647 2.78253 15.865C2.78272 15.8651 2.78285 15.8653 2.78303 15.8654C2.78328 15.8656 2.78353 15.8659 2.78378 15.8661C2.87498 15.9553 2.99452 15.9999 3.11407 15.9999C3.23368 15.9999 3.35328 15.9553 3.44448 15.866C3.45227 15.8584 3.45931 15.8503 3.46641 15.8422L4.90617 14.4337C5.08864 14.2552 5.08864 13.9658 4.90617 13.7873C4.72371 13.6089 4.42787 13.6089 4.24547 13.7873L3.12192 14.8864C1.81179 13.4602 1.05173 11.6653 0.947197 9.75053H2.53616C2.79418 9.75053 3.00337 9.54595 3.00337 9.29347C3.00337 9.041 2.79418 8.83642 2.53616 8.83642H0.947321C1.05596 6.86974 1.86107 5.08137 3.12497 3.70343L4.24547 4.79958C4.33667 4.88879 4.45628 4.9334 4.57582 4.9334C4.69537 4.9334 4.81497 4.88879 4.90617 4.79958C5.08864 4.62102 5.08864 4.33167 4.90617 4.15318L3.78573 3.05697C5.19435 1.82055 7.0224 1.03295 9.03279 0.926727V2.48108C9.03279 2.73356 9.24197 2.93814 9.5 2.93814C9.75803 2.93814 9.96721 2.73356 9.96721 2.48108V0.926727C11.9776 1.03295 13.8056 1.82061 15.2143 3.05703L14.0938 4.15318C13.9113 4.33173 13.9113 4.62108 14.0938 4.79958C14.185 4.88879 14.3046 4.9334 14.4241 4.9334C14.5437 4.9334 14.6633 4.88879 14.7545 4.79958L15.875 3.70343C17.1389 5.08143 17.944 6.86974 18.0526 8.83642H16.4637C16.2057 8.83642 15.9965 9.041 15.9965 9.29347C15.9965 9.54595 16.2057 9.75053 16.4637 9.75053H18.0527C17.9481 11.6653 17.1881 13.4603 15.878 14.8865L14.7545 13.7873C14.5721 13.6089 14.2762 13.6089 14.0938 13.7873C13.9113 13.9659 13.9113 14.2552 14.0938 14.4337L15.5568 15.8649C15.648 15.9541 15.7676 15.9987 15.8871 15.9987C15.9469 15.9987 16.0067 15.9876 16.0629 15.9653C16.1192 15.943 16.1719 15.9095 16.2175 15.8649C18.0118 14.1096 19 11.7758 19 9.29347Z" fill="#6B6C6C"/>
<path d="M11.6465 4.05246C11.4068 3.95855 11.135 4.07238 11.039 4.30676L9.68891 7.60366C9.62599 7.59708 9.56307 7.59257 9.50009 7.59257C8.8425 7.59257 8.24852 7.94889 7.94981 8.52246C7.63759 9.12206 7.71758 9.83848 8.16361 10.4387C8.20921 10.5001 8.26652 10.5562 8.32969 10.6012C8.69206 10.8589 9.09679 10.9951 9.50009 10.9951C10.1577 10.9951 10.7517 10.6388 11.0504 10.0652C11.3626 9.46558 11.2826 8.74922 10.8369 8.14938C10.7913 8.08783 10.7338 8.03152 10.6705 7.98643C10.6364 7.96217 10.6016 7.94005 10.5668 7.91799L11.9064 4.64663C12.0024 4.41237 11.886 4.1463 11.6465 4.05246ZM10.2177 9.65023C10.0793 9.91588 9.80434 10.0809 9.50003 10.0809C9.30043 10.0809 9.09953 10.0127 8.90268 9.87815C8.67842 9.56315 8.63437 9.22164 8.78245 8.93735C8.92075 8.67171 9.19572 8.50668 9.50009 8.50668C9.59715 8.50668 9.69445 8.52313 9.79151 8.55513C9.79468 8.55641 9.79761 8.55805 9.80085 8.55933C9.81107 8.56329 9.82134 8.56652 9.83162 8.56975C9.92071 8.60321 10.0094 8.64928 10.0974 8.70937C10.3216 9.02437 10.3657 9.36595 10.2177 9.65023Z" fill="#6B6C6C"/>
</svg>
