<svg width="26" height="26" viewBox="0 0 26 26" fill="none" xmlns="http://www.w3.org/2000/svg">
<path d="M15.3943 14.068C15.3943 13.0429 14.4446 12.2119 13.2731 12.2119C12.1016 12.2119 11.1519 13.0429 11.1519 14.068C11.1519 15.093 12.1016 15.924 13.2731 15.924C14.4446 15.924 15.3943 16.755 15.3943 17.7801C15.3943 18.8052 14.4446 19.6362 13.2731 19.6362C12.1016 19.6362 11.1519 18.8052 11.1519 17.7801" stroke="#0C81F3" stroke-linecap="round"/>
<path d="M13.2727 10.6211V12.212" stroke="#0C81F3" stroke-linecap="round" stroke-linejoin="round"/>
<path d="M13.2727 19.6362V21.2271" stroke="#0C81F3" stroke-linecap="round" stroke-linejoin="round"/>
<path d="M6.60175 12.0724C7.41843 9.62231 9.71126 7.96973 12.2938 7.96973H14.2508C16.8334 7.96973 19.1262 9.62231 19.9429 12.0724L21.2459 15.9814C22.541 19.8666 19.6492 23.8788 15.5538 23.8788H10.9908C6.89547 23.8788 4.00365 19.8666 5.29872 15.9814L6.60175 12.0724Z" stroke="#0C81F3" stroke-linejoin="round"/>
<path d="M15.4848 7.96953L11.0601 7.96953L9.57415 6.2651C8.11748 4.59429 9.81684 2.09693 11.9436 2.78301L12.9276 3.10044C13.1516 3.17271 13.3933 3.17271 13.6173 3.10044L14.6013 2.78301C16.7281 2.09693 18.4274 4.59429 16.9708 6.2651L15.4848 7.96953Z" stroke="#0C81F3" stroke-linejoin="round"/>
</svg>
