<svg width="21" height="22" viewBox="0 0 21 22" fill="none" xmlns="http://www.w3.org/2000/svg">
<path d="M14.8035 10.4277H19.4522C19.9387 10.4277 20.333 10.8221 20.333 11.3086V20.1187C20.333 20.6052 19.9387 20.9996 19.4522 20.9996H14.166C13.6795 20.9996 13.2852 20.6052 13.2852 20.1187V16.8257M13.2852 15.4173V11.8475M16.8091 13.1587C16.4442 13.1587 16.1483 12.8629 16.1483 12.498C16.1483 12.133 16.4441 11.8372 16.8091 11.8372C17.174 11.8372 17.4698 12.133 17.4698 12.498C17.4698 12.8629 17.174 13.1587 16.8091 13.1587Z" stroke="#6B6C6C" stroke-width="0.8" stroke-miterlimit="10" stroke-linecap="round" stroke-linejoin="round"/>
<path d="M14.6953 16.5506V15.097C14.6953 14.805 14.932 14.5684 15.2239 14.5684H18.3955C18.6875 14.5684 18.9241 14.805 18.9241 15.097V16.5506C18.9241 16.8426 18.6875 17.0792 18.3955 17.0792H15.2239C14.932 17.0792 14.6953 16.8425 14.6953 16.5506Z" stroke="#6B6C6C" stroke-width="0.8" stroke-miterlimit="10" stroke-linecap="round" stroke-linejoin="round"/>
<path d="M14.6953 19.0623V17.6087C14.6953 17.3167 14.932 17.0801 15.2239 17.0801H18.3955C18.6875 17.0801 18.9241 17.3167 18.9241 17.6087V19.0623C18.9241 19.3543 18.6875 19.5909 18.3955 19.5909H15.2239C14.932 19.5909 14.6953 19.3543 14.6953 19.0623Z" stroke="#6B6C6C" stroke-width="0.8" stroke-miterlimit="10" stroke-linecap="round" stroke-linejoin="round"/>
<path d="M16.8086 6.2969C18.2713 6.2969 19.4571 5.11115 19.4571 3.64845C19.4571 2.18575 18.2713 1 16.8086 1C15.3459 1 14.1602 2.18575 14.1602 3.64845C14.1602 5.11115 15.3459 6.2969 16.8086 6.2969Z" stroke="#6B6C6C" stroke-width="0.8" stroke-miterlimit="10" stroke-linecap="round" stroke-linejoin="round"/>
<path d="M8.74581 7.01873L9.68223 5.95756C10.3547 5.19539 11.5309 5.15877 12.2496 5.87748L14.5808 8.20867C15.2995 8.92738 15.2625 10.1032 14.5007 10.7757L11.2323 13.6594C10.8834 13.9672 10.3555 13.9507 10.0267 13.6215L6.83636 10.4316C6.50718 10.1024 6.49068 9.57446 6.79853 9.22557L7.81422 8.07467M13.3216 9.9397C13.0464 10.2149 12.6001 10.2149 12.3249 9.9397L10.5183 8.13314C10.2431 7.85789 10.2431 7.41165 10.5183 7.1364C10.7936 6.86114 11.2398 6.86114 11.5151 7.1364L13.3216 8.94296C13.5969 9.21821 13.5969 9.66444 13.3216 9.9397Z" stroke="#6B6C6C" stroke-width="0.8" stroke-miterlimit="10" stroke-linecap="round" stroke-linejoin="round"/>
<path d="M6.97157 15.3542L9.36554 12.9606L7.49672 11.0918L5.80055 12.788C5.6931 12.8954 5.64843 13.0503 5.68264 13.1984L5.7599 13.5324C5.79371 13.6805 5.74944 13.8355 5.642 13.9429L5.36433 14.2206C5.25688 14.328 5.10196 14.3727 4.95387 14.3385L4.61986 14.2612C4.47177 14.227 4.31644 14.2717 4.209 14.3791L3.61986 14.9683C3.51282 15.0757 3.46815 15.2306 3.50236 15.3787L3.57922 15.7127C3.61342 15.8608 3.56916 16.0157 3.46171 16.1232L2.87258 16.7123C2.76513 16.8198 2.6098 16.8644 2.46212 16.8302L2.12771 16.753C1.98002 16.7192 1.82469 16.7634 1.71725 16.8709L1.36191 17.2262C1.29994 17.2882 1.25809 17.367 1.24119 17.4528L1.00819 18.6407C0.980023 18.7848 1.0255 18.9332 1.12932 19.0367L1.42026 19.328C1.52409 19.4318 1.67258 19.4769 1.81664 19.4487L3.00417 19.2157C3.08988 19.1992 3.16916 19.157 3.23073 19.095L5.9756 16.3501" stroke="#6B6C6C" stroke-width="0.8" stroke-miterlimit="10" stroke-linecap="round" stroke-linejoin="round"/>
<path d="M8.43068 12.0264L6.93555 13.5215" stroke="#6B6C6C" stroke-width="0.8" stroke-miterlimit="10" stroke-linecap="round" stroke-linejoin="round"/>
<path d="M12.418 8.03986L15.3611 5.09668" stroke="#6B6C6C" stroke-width="0.8" stroke-miterlimit="10" stroke-linecap="round" stroke-linejoin="round"/>
<path d="M16.8086 5.55957V11.8375" stroke="#6B6C6C" stroke-width="0.8" stroke-miterlimit="10" stroke-linecap="round" stroke-linejoin="round"/>
</svg>
