<svg width="16" height="16" viewBox="0 0 16 16" fill="none" xmlns="http://www.w3.org/2000/svg">
<path d="M15.7798 0.220198C15.4867 -0.0733994 15.011 -0.0733994 14.7179 0.220198L0.225887 14.7173C-0.0674833 15.0106 -0.0674833 15.486 0.225887 15.7794C0.37251 15.9262 0.564757 15.9996 0.756879 15.9996C0.949001 15.9996 1.14125 15.9262 1.28775 15.7794L15.7798 1.2823C16.0731 0.988954 16.0731 0.513546 15.7798 0.220198Z" fill="#405FF2"/>
<path d="M3.56695 0.00488281C1.60023 0.00488281 0 1.60579 0 3.5732C0 5.5406 1.60023 7.14138 3.56695 7.14138C5.53379 7.14138 7.13389 5.54047 7.13389 3.57307C7.13389 1.60567 5.53367 0.00488281 3.56695 0.00488281ZM3.56695 5.63888C2.42821 5.63888 1.50185 4.71207 1.50185 3.57307C1.50185 2.43407 2.42834 1.50726 3.56695 1.50726C4.70568 1.50726 5.63204 2.43407 5.63204 3.57307C5.63204 4.71207 4.70568 5.63888 3.56695 5.63888Z" fill="#405FF2"/>
<path d="M12.4341 8.8623C10.4674 8.8623 8.86719 10.4631 8.86719 12.4305C8.86719 14.3979 10.4674 15.9987 12.4341 15.9987C14.4009 15.9987 16.0011 14.398 16.0011 12.4305C16.0011 10.463 14.4009 8.8623 12.4341 8.8623ZM12.4341 14.4962C11.2954 14.4962 10.369 13.5694 10.369 12.4304C10.369 11.2914 11.2955 10.3646 12.4341 10.3646C13.5727 10.3646 14.4992 11.2914 14.4992 12.4304C14.4992 13.5694 13.5729 14.4962 12.4341 14.4962Z" fill="#405FF2"/>
</svg>
