<svg width="24" height="25" viewBox="0 0 24 25" fill="none" xmlns="http://www.w3.org/2000/svg">
<path d="M5.25007 6.50177H12.0001C12.9901 6.50177 12.9901 4.9873 12.0001 4.9873H5.25007C4.26007 4.9873 4.26007 6.50177 5.25007 6.50177Z" fill="#0C81F3"/>
<path d="M8.25007 8.01611H5.25007C4.26007 8.01611 4.26007 9.53058 5.25007 9.53058H8.25007C9.24007 9.53058 9.24007 8.01611 8.25007 8.01611Z" fill="#0C81F3"/>
<path d="M5.25007 12.5596H6.75007C7.74007 12.5596 7.74007 11.0452 6.75007 11.0452H5.25007C4.26007 11.0452 4.26007 12.5596 5.25007 12.5596Z" fill="#0C81F3"/>
<path d="M5.25007 15.5884H6.75007C7.74007 15.5884 7.74007 14.074 6.75007 14.074H5.25007C4.26007 14.074 4.26007 15.5884 5.25007 15.5884Z" fill="#0C81F3"/>
<path d="M7.50007 17.103H5.25007C4.26007 17.103 4.26007 18.6175 5.25007 18.6175H7.50007C8.49007 18.6175 8.49007 17.103 7.50007 17.103Z" fill="#0C81F3"/>
<path d="M22.4325 11.2874C22.365 10.5832 21.8325 10.0228 21.135 9.92436C18.765 9.58361 17.265 8.75065 16.5825 8.28116C16.3275 8.107 16.035 8.0237 15.75 8.0237V4.22996C15.75 2.98052 14.7375 1.95825 13.5 1.95825H3.75C2.5125 1.95825 1.5 2.98052 1.5 4.22996V19.3747C1.5 20.6241 2.5125 21.6464 3.75 21.6464H12.5925C13.4175 22.3354 14.685 23.1608 15.75 23.1608C17.955 23.1608 23.1975 19.4579 22.4325 11.2874ZM3 19.3747V4.22996C3 3.81348 3.3375 3.47272 3.75 3.47272H13.5C13.9125 3.47272 14.25 3.81348 14.25 4.22996V8.6825C13.425 9.12927 12.135 9.6669 10.365 9.92436C9.6675 10.0228 9.135 10.5832 9.0675 11.2874C8.9025 13.0442 8.85 17.0499 11.16 20.1319H3.75C3.3375 20.1319 3 19.7911 3 19.3747ZM15.165 21.5176C11.4 19.7381 10.1625 15.543 10.575 11.4237C12.7725 11.1056 14.58 10.3408 15.7425 9.5306C16.5375 10.0758 18.2625 11.0375 20.925 11.4237H20.94C21.6375 18.8749 16.71 22.2446 15.165 21.5176Z" fill="#0C81F3"/>
<path d="M17.4674 13.5365L14.9999 16.0278L14.0324 15.051C13.3274 14.3392 12.2699 15.4144 12.9749 16.1187L14.4749 17.6331C14.7674 17.9285 15.2399 17.9285 15.5324 17.6331L18.5324 14.6042C19.2374 13.8924 18.1724 12.8247 17.4749 13.5365H17.4674Z" fill="#0C81F3"/>
</svg>
