<svg width="62" height="34" viewBox="0 0 62 34" fill="none" xmlns="http://www.w3.org/2000/svg">
<path d="M10.0772 12.7669L11.3994 10.4615C13.0511 7.57116 15.4373 5.16865 18.3164 3.49734C21.1954 1.82603 24.4651 0.945291 27.7941 0.944336H30.4272C33.757 0.944459 37.0276 1.8248 39.9075 3.49615C42.7875 5.1675 45.1745 7.57046 46.8265 10.4615L48.0543 12.6092C48.3324 13.0958 48.7152 13.5144 49.175 13.8347C49.6348 14.155 50.1602 14.3691 50.7129 14.4612L53.9637 15.0034C55.7279 15.2973 57.3306 16.2076 58.4867 17.5723C59.6428 18.9369 60.2773 20.6675 60.2773 22.456V25.4999C60.2773 26.5019 59.8793 27.4628 59.1709 28.1712C58.4624 28.8797 57.5015 29.2777 56.4996 29.2777H5.49946C4.49753 29.2777 3.53664 28.8797 2.82817 28.1712C2.1197 27.4628 1.72168 26.5019 1.72168 25.4999V19.005C1.72181 18.1626 2.00351 17.3443 2.52201 16.6804C3.04052 16.0164 3.76607 15.5448 4.58335 15.3405L7.71325 14.5576C8.20769 14.434 8.67202 14.2116 9.07828 13.9039C9.48454 13.5962 9.82433 13.2094 10.0772 12.7669Z" fill="#F8C460"/>
<path d="M59.3329 26.444H14.8278C12.1033 26.444 9.49035 25.3617 7.56383 23.4352C5.63732 21.5087 4.55502 18.8958 4.55502 16.1713C4.5589 15.8847 4.59565 15.5995 4.66457 15.3213L4.58335 15.3411C3.76638 15.5453 3.04106 16.0167 2.52259 16.6802C2.00412 17.3438 1.72223 18.1616 1.72168 19.0037V25.4996C1.72168 26.5015 2.1197 27.4624 2.82817 28.1709C3.53664 28.8794 4.49753 29.2774 5.49946 29.2774H56.4996C57.3539 29.2758 58.1825 28.9847 58.8501 28.4516C59.5177 27.9185 59.9848 27.1748 60.1753 26.342C59.8993 26.4078 59.6167 26.442 59.3329 26.444Z" fill="#FAAF42"/>
<path d="M1.72168 19.0021V21.7221H4.55502L5.49946 17.9443H1.87279C1.77439 18.2884 1.72355 18.6443 1.72168 19.0021Z" fill="#A7D0E1"/>
<path d="M5.11319 19.4895C4.94115 18.9856 4.80915 18.469 4.71841 17.9443H1.88507C1.85862 18.0331 1.83501 18.1228 1.81518 18.2135C1.80007 18.2815 1.78212 18.3495 1.77079 18.4184C1.73963 18.6121 1.72321 18.8079 1.72168 19.004V21.7221H4.55502L5.11319 19.4895Z" fill="#80BBCE"/>
<path d="M54.6104 17.9443C54.6097 18.4406 54.707 18.9321 54.8967 19.3908C55.0863 19.8494 55.3645 20.2661 55.7155 20.617C56.0664 20.9679 56.4831 21.2462 56.9417 21.4358C57.4003 21.6255 57.8919 21.7227 58.3881 21.7221H60.2393C60.1112 20.3498 59.6008 19.041 58.7659 17.9443H54.6104Z" fill="#A7D0E1"/>
<path d="M50.8333 28.3333C50.8378 27.5464 50.6784 26.7672 50.3653 26.0453C50.0521 25.3234 49.5921 24.6747 49.0144 24.1404C48.4367 23.6061 47.7541 23.198 47.01 22.942C46.2659 22.686 45.4767 22.5878 44.6926 22.6537C43.9084 22.7195 43.1466 22.9479 42.4556 23.3244C41.7646 23.7008 41.1596 24.2171 40.6791 24.8402C40.1986 25.4634 39.8532 26.1798 39.6648 26.9438C39.4764 27.7078 39.4492 28.5026 39.5849 29.2777H50.7483C50.8029 28.9658 50.8314 28.6499 50.8333 28.3333Z" fill="#FAAF42"/>
<path d="M47.0553 33.056C50.185 33.056 52.722 30.519 52.722 27.3893C52.722 24.2597 50.185 21.7227 47.0553 21.7227C43.9257 21.7227 41.3887 24.2597 41.3887 27.3893C41.3887 30.519 43.9257 33.056 47.0553 33.056Z" fill="#7A838B"/>
<path d="M47.0549 29.2778C48.0981 29.2778 48.9438 28.4321 48.9438 27.3889C48.9438 26.3457 48.0981 25.5 47.0549 25.5C46.0117 25.5 45.166 26.3457 45.166 27.3889C45.166 28.4321 46.0117 29.2778 47.0549 29.2778Z" fill="#A7D0E1"/>
<path d="M14.944 33.056C18.0736 33.056 20.6107 30.519 20.6107 27.3893C20.6107 24.2597 18.0736 21.7227 14.944 21.7227C11.8144 21.7227 9.27734 24.2597 9.27734 27.3893C9.27734 30.519 11.8144 33.056 14.944 33.056Z" fill="#7A838B"/>
<path d="M17.7771 30.2222C16.8301 30.2234 15.8979 29.9868 15.066 29.5343C14.2341 29.0819 13.529 28.4279 13.0153 27.6323C12.5017 26.8367 12.1958 25.9249 12.1258 24.9805C12.0559 24.0361 12.2239 23.0892 12.6147 22.2266C11.7776 22.6027 11.0444 23.1765 10.4781 23.8986C9.9118 24.6208 9.52935 25.4696 9.36365 26.3723C9.19794 27.2749 9.25394 28.2043 9.52683 29.0805C9.79971 29.9567 10.2813 30.7535 10.9302 31.4024C11.5792 32.0513 12.376 32.5329 13.2522 32.8058C14.1284 33.0787 15.0577 33.1347 15.9604 32.969C16.863 32.8033 17.7119 32.4208 18.434 31.8545C19.1562 31.2882 19.73 30.555 20.1061 29.7179C19.3745 30.0499 18.5805 30.2219 17.7771 30.2222Z" fill="#5D6972"/>
<path d="M49.8884 30.2222C48.9414 30.2234 48.0092 29.9868 47.1773 29.5343C46.3454 29.0819 45.6403 28.4279 45.1267 27.6323C44.613 26.8367 44.3072 25.9249 44.2372 24.9805C44.1672 24.0361 44.3353 23.0892 44.7261 22.2266C43.889 22.6027 43.1557 23.1765 42.5894 23.8986C42.0231 24.6208 41.6407 25.4696 41.475 26.3723C41.3093 27.2749 41.3653 28.2043 41.6382 29.0805C41.911 29.9567 42.3926 30.7535 43.0416 31.4024C43.6905 32.0513 44.4873 32.5329 45.3635 32.8058C46.2397 33.0787 47.1691 33.1347 48.0717 32.969C48.9743 32.8033 49.8232 32.4208 50.5453 31.8545C51.2675 31.2882 51.8413 30.555 52.2174 29.7179C51.4858 30.0499 50.6918 30.2219 49.8884 30.2222Z" fill="#5D6972"/>
<path d="M14.9436 29.2778C15.9868 29.2778 16.8325 28.4321 16.8325 27.3889C16.8325 26.3457 15.9868 25.5 14.9436 25.5C13.9004 25.5 13.0547 26.3457 13.0547 27.3889C13.0547 28.4321 13.9004 29.2778 14.9436 29.2778Z" fill="#A7D0E1"/>
<path d="M26.7302 3.77734H27.2213V13.2218H13.999L14.4524 12.0885C15.4348 9.63539 17.1294 7.53272 19.3176 6.05142C21.5059 4.57012 24.0877 3.77808 26.7302 3.77734Z" fill="#A7D0E1"/>
<path d="M17.7768 10.3894L18.2301 9.25608C18.8338 7.7522 19.7087 6.3721 20.8113 5.18457C17.9188 6.63143 15.6566 9.08782 14.4524 12.0894L13.999 13.2228H27.2213V10.3894H17.7768Z" fill="#80BBCE"/>
<path d="M44.2222 13.2218H31V3.77734H31.4911C34.1336 3.77808 36.7154 4.57012 38.9036 6.05142C41.0919 7.53272 42.7865 9.63539 43.7689 12.0885L44.2222 13.2218Z" fill="#A7D0E1"/>
<path d="M37.6106 8.39438C37.4304 8.39464 37.2539 8.34282 37.1025 8.24515C36.8191 8.06665 36.5358 7.89949 36.2364 7.74838C36.0134 7.63441 35.8447 7.43649 35.7676 7.19818C35.6904 6.95987 35.7111 6.70068 35.8251 6.47762C35.9391 6.25457 36.137 6.08592 36.3753 6.00879C36.6136 5.93165 36.8728 5.95235 37.0959 6.06632C37.4472 6.24576 37.7885 6.44158 38.1196 6.65376C38.292 6.76372 38.4239 6.92661 38.4958 7.11797C38.5676 7.30934 38.5755 7.51885 38.5181 7.71504C38.4607 7.91123 38.3412 8.08351 38.1776 8.206C38.014 8.3285 37.815 8.3946 37.6106 8.39438Z" fill="white"/>
<path d="M42.9378 10.3885H37.6111C36.6092 10.3885 35.6483 9.99045 34.9398 9.28198C34.2314 8.57351 33.8333 7.61261 33.8333 6.61068V3.99457C33.0606 3.85251 32.2768 3.77982 31.4911 3.77734H31V13.2218H44.2222L43.7689 12.0885C43.5326 11.5028 43.2549 10.9347 42.9378 10.3885Z" fill="#80BBCE"/>
<path d="M54.1197 14.0722L50.8679 13.5311C50.4532 13.4625 50.0589 13.3022 49.714 13.0619C49.3691 12.8215 49.0822 12.5072 48.8742 12.1418L47.6464 9.99413C45.9087 6.96113 43.4018 4.44009 40.3786 2.6854C37.3554 0.930699 33.9228 0.00441502 30.4273 0H27.7942C24.2987 0.00431965 20.8663 0.930463 17.8431 2.68499C14.8198 4.43951 12.3129 6.96036 10.575 9.99318L9.2528 12.2986C9.06281 12.6296 8.80824 12.919 8.5042 13.1498C8.20015 13.3805 7.85285 13.5477 7.48291 13.6416L4.35302 14.4236C3.57373 14.6187 2.85732 15.0099 2.27195 15.56C1.68658 16.1102 1.25171 16.801 1.00873 17.5667C0.998344 17.5913 0.9974 17.6205 0.9889 17.646C0.852165 18.0862 0.780884 18.5442 0.777344 19.0051L0.777344 25.5C0.778843 26.752 1.27684 27.9522 2.16211 28.8375C3.04737 29.7228 4.24762 30.2208 5.49957 30.2223H8.97986C9.51401 31.3523 10.3582 32.3073 11.4141 32.9761C12.47 33.6449 13.6942 33.9999 14.944 33.9999C16.1939 33.9999 17.4181 33.6449 18.474 32.9761C19.5299 32.3073 20.3741 31.3523 20.9082 30.2223H41.091C41.6252 31.3523 42.4694 32.3073 43.5253 32.9761C44.5812 33.6449 45.8053 33.9999 47.0552 33.9999C48.3051 33.9999 49.5293 33.6449 50.5852 32.9761C51.6411 32.3073 52.4852 31.3523 53.0194 30.2223H56.4997C57.7516 30.2208 58.9519 29.7228 59.8371 28.8375C60.7224 27.9522 61.2204 26.752 61.2219 25.5V22.4561C61.2269 20.4428 60.515 18.4934 59.2136 16.9572C57.9122 15.421 56.1064 14.3983 54.1197 14.0722ZM58.2884 18.8889C58.662 19.4712 58.9415 20.1086 59.1167 20.7778H58.3886C57.6393 20.7776 56.9204 20.4817 56.3882 19.9543C56.0891 19.6528 55.8601 19.289 55.7177 18.8889H58.2884ZM2.67568 18.8889H4.28974L3.81752 20.7778H2.66624V19.0051C2.66624 18.9654 2.67474 18.9276 2.67568 18.8889ZM14.944 32.1112C14.0101 32.1112 13.0971 31.8342 12.3205 31.3153C11.5439 30.7964 10.9387 30.0589 10.5813 29.1961C10.2238 28.3332 10.1303 27.3837 10.3125 26.4677C10.4947 25.5517 10.9445 24.7102 11.6049 24.0498C12.2653 23.3894 13.1068 22.9397 14.0228 22.7574C14.9388 22.5752 15.8883 22.6688 16.7512 23.0262C17.614 23.3836 18.3515 23.9888 18.8704 24.7654C19.3893 25.542 19.6663 26.455 19.6663 27.3889C19.6648 28.6409 19.1668 29.8411 18.2815 30.7264C17.3962 31.6117 16.196 32.1097 14.944 32.1112ZM47.0552 32.1112C46.1212 32.1112 45.2082 31.8342 44.4317 31.3153C43.6551 30.7964 43.0498 30.0589 42.6924 29.1961C42.335 28.3332 42.2415 27.3837 42.4237 26.4677C42.6059 25.5517 43.0557 24.7102 43.7161 24.0498C44.3765 23.3894 45.2179 22.9397 46.1339 22.7574C47.05 22.5752 47.9995 22.6688 48.8623 23.0262C49.7252 23.3836 50.4627 23.9888 50.9816 24.7654C51.5005 25.542 51.7774 26.455 51.7774 27.3889C51.7759 28.6409 51.2779 29.8411 50.3927 30.7264C49.5074 31.6117 48.3072 32.1097 47.0552 32.1112ZM56.4997 28.3334H53.5908C53.7344 27.3918 53.6728 26.4304 53.4103 25.5148C53.1478 24.5992 52.6906 23.7512 52.07 23.0287C51.4493 22.3063 50.6799 21.7264 49.8144 21.3289C48.9489 20.9314 48.0077 20.7256 47.0552 20.7256C46.1028 20.7256 45.1616 20.9314 44.296 21.3289C43.4305 21.7264 42.6611 22.3063 42.0404 23.0287C41.4198 23.7512 40.9626 24.5992 40.7001 25.5148C40.4376 26.4304 40.3761 27.3918 40.5196 28.3334H21.4796C21.6232 27.3918 21.5616 26.4304 21.2991 25.5148C21.0367 24.5992 20.5795 23.7512 19.9588 23.0287C19.3382 22.3063 18.5687 21.7264 17.7032 21.3289C16.8377 20.9314 15.8965 20.7256 14.944 20.7256C13.9916 20.7256 13.0504 20.9314 12.1849 21.3289C11.3193 21.7264 10.5499 22.3063 9.92926 23.0287C9.30862 23.7512 8.85141 24.5992 8.58892 25.5148C8.32644 26.4304 8.26488 27.3918 8.40847 28.3334H5.49957C4.74813 28.3334 4.02746 28.0349 3.4961 27.5035C2.96475 26.9722 2.66624 26.2515 2.66624 25.5V22.6667H4.55513C4.76567 22.6667 4.97018 22.5963 5.13616 22.4668C5.30214 22.3373 5.42008 22.156 5.47124 21.9518L6.41569 18.174C6.45057 18.0347 6.45325 17.8893 6.42352 17.7489C6.39379 17.6084 6.33243 17.4766 6.24411 17.3634C6.15579 17.2503 6.04283 17.1587 5.91382 17.0957C5.78481 17.0328 5.64314 17 5.49957 17H3.50585C3.86591 16.6386 4.31736 16.3817 4.81202 16.2568L7.94286 15.4738C8.56023 15.3179 9.13994 15.0394 9.64747 14.6549C10.155 14.2704 10.58 13.7876 10.8971 13.2355L12.2146 10.9301C13.7871 8.18616 16.0554 5.90547 18.7907 4.3181C21.526 2.73073 24.6316 1.89282 27.7942 1.88889H30.4273C33.5905 1.89215 36.6968 2.72975 39.4329 4.31715C42.1689 5.90456 44.4379 8.1856 46.0106 10.9301L47.2384 13.0777C47.5843 13.6866 48.0617 14.2106 48.6359 14.6114C49.21 15.0122 49.8665 15.2797 50.5572 15.3945L53.8089 15.9366C54.7598 16.0939 55.6648 16.4568 56.4609 17H54.6108C54.3603 17 54.1201 17.0995 53.9429 17.2767C53.7658 17.4538 53.6663 17.694 53.6663 17.9445C53.6657 18.5648 53.7874 19.1791 54.0245 19.7523C54.2616 20.3255 54.6094 20.8464 55.048 21.285C55.4867 21.7236 56.0075 22.0714 56.5807 22.3085C57.1539 22.5456 57.7683 22.6673 58.3886 22.6667H59.333V25.5C59.333 26.2515 59.0345 26.9722 58.5031 27.5035C57.9718 28.0349 57.2511 28.3334 56.4997 28.3334Z" fill="black"/>
<path d="M32.889 15.1113H31.0001C30.7496 15.1113 30.5094 15.2108 30.3323 15.3879C30.1552 15.5651 30.0557 15.8053 30.0557 16.0558C30.0557 16.3063 30.1552 16.5465 30.3323 16.7236C30.5094 16.9007 30.7496 17.0002 31.0001 17.0002H32.889C33.1395 17.0002 33.3797 16.9007 33.5568 16.7236C33.7339 16.5465 33.8334 16.3063 33.8334 16.0558C33.8334 15.8053 33.7339 15.5651 33.5568 15.3879C33.3797 15.2108 33.1395 15.1113 32.889 15.1113Z" fill="black"/>
<path d="M14.9437 15.1113H13.0548C12.8043 15.1113 12.5641 15.2108 12.387 15.3879C12.2099 15.5651 12.1104 15.8053 12.1104 16.0558C12.1104 16.3063 12.2099 16.5465 12.387 16.7236C12.5641 16.9007 12.8043 17.0002 13.0548 17.0002H14.9437C15.1942 17.0002 15.4344 16.9007 15.6115 16.7236C15.7886 16.5465 15.8881 16.3063 15.8881 16.0558C15.8881 15.8053 15.7886 15.5651 15.6115 15.3879C15.4344 15.2108 15.1942 15.1113 14.9437 15.1113Z" fill="black"/>
<path d="M47.055 24.5557C46.4946 24.5557 45.9468 24.7218 45.4809 25.0332C45.015 25.3445 44.6518 25.787 44.4374 26.3047C44.2229 26.8225 44.1668 27.3921 44.2761 27.9418C44.3854 28.4914 44.6553 28.9962 45.0515 29.3925C45.4478 29.7887 45.9526 30.0586 46.5023 30.1679C47.0519 30.2772 47.6216 30.2211 48.1393 30.0067C48.657 29.7922 49.0995 29.4291 49.4109 28.9631C49.7222 28.4972 49.8884 27.9494 49.8884 27.389C49.8884 26.6376 49.5898 25.9169 49.0585 25.3855C48.5271 24.8542 47.8065 24.5557 47.055 24.5557ZM47.055 28.3334C46.8682 28.3334 46.6856 28.2781 46.5303 28.1743C46.375 28.0705 46.2539 27.923 46.1825 27.7504C46.111 27.5779 46.0923 27.388 46.1287 27.2047C46.1652 27.0215 46.2551 26.8533 46.3872 26.7212C46.5193 26.5891 46.6876 26.4991 46.8708 26.4627C47.054 26.4263 47.2439 26.445 47.4164 26.5164C47.589 26.5879 47.7365 26.709 47.8403 26.8643C47.9441 27.0196 47.9995 27.2022 47.9995 27.389C47.9995 27.6395 47.9 27.8797 47.7228 28.0568C47.5457 28.2339 47.3055 28.3334 47.055 28.3334Z" fill="black"/>
<path d="M14.9437 24.5557C14.3833 24.5557 13.8355 24.7218 13.3696 25.0332C12.9036 25.3445 12.5405 25.787 12.326 26.3047C12.1116 26.8225 12.0555 27.3921 12.1648 27.9418C12.2741 28.4914 12.544 28.9962 12.9402 29.3925C13.3365 29.7887 13.8413 30.0586 14.3909 30.1679C14.9405 30.2772 15.5102 30.2211 16.028 30.0067C16.5457 29.7922 16.9882 29.4291 17.2995 28.9631C17.6109 28.4972 17.777 27.9494 17.777 27.389C17.777 26.6376 17.4785 25.9169 16.9472 25.3855C16.4158 24.8542 15.6951 24.5557 14.9437 24.5557ZM14.9437 28.3334C14.7569 28.3334 14.5743 28.2781 14.419 28.1743C14.2637 28.0705 14.1426 27.923 14.0711 27.7504C13.9997 27.5779 13.981 27.388 14.0174 27.2047C14.0538 27.0215 14.1438 26.8533 14.2759 26.7212C14.408 26.5891 14.5762 26.4991 14.7594 26.4627C14.9426 26.4263 15.1325 26.445 15.3051 26.5164C15.4777 26.5879 15.6252 26.709 15.729 26.8643C15.8327 27.0196 15.8881 27.2022 15.8881 27.389C15.8881 27.6395 15.7886 27.8797 15.6115 28.0568C15.4344 28.2339 15.1942 28.3334 14.9437 28.3334Z" fill="black"/>
<path d="M27.2217 2.83306H26.7306C23.8973 2.82538 21.1273 3.67066 18.7811 5.25893C16.4348 6.84719 14.6209 9.1049 13.5754 11.7382L13.1221 12.8716C13.0648 13.0149 13.0436 13.1701 13.0602 13.3235C13.0768 13.477 13.1307 13.624 13.2173 13.7518C13.3039 13.8795 13.4204 13.9841 13.5568 14.0564C13.6931 14.1287 13.8451 14.1665 13.9995 14.1664H27.2217C27.4722 14.1664 27.7124 14.0669 27.8896 13.8898C28.0667 13.7127 28.1662 13.4725 28.1662 13.222V3.77751C28.1662 3.52702 28.0667 3.2868 27.8896 3.10968C27.7124 2.93256 27.4722 2.83306 27.2217 2.83306ZM26.2773 12.2775H15.3963C16.2934 10.1073 17.7967 8.24138 19.7263 6.90299C21.656 5.56459 23.9303 4.81034 26.2773 4.73045V12.2775Z" fill="black"/>
<path d="M44.6455 11.7372C43.8611 9.77108 42.6438 8.00692 41.084 6.57585C40.8996 6.40627 40.6554 6.31687 40.4052 6.32732C40.1549 6.33777 39.919 6.44721 39.7495 6.63157C39.5799 6.81592 39.4905 7.06009 39.5009 7.31036C39.5114 7.56063 39.6208 7.7965 39.8052 7.96607C41.1141 9.16593 42.145 10.6374 42.8255 12.2775H31.9446V4.7304C33.769 4.79886 35.5553 5.27245 37.174 6.11685C37.2839 6.17427 37.4041 6.20948 37.5276 6.22045C37.6512 6.23143 37.7757 6.21797 37.8941 6.18082C38.0124 6.14368 38.1223 6.0836 38.2174 6.00399C38.3125 5.92439 38.3911 5.82682 38.4485 5.71687C38.5059 5.60692 38.5411 5.48674 38.5521 5.36319C38.5631 5.23963 38.5496 5.11512 38.5125 4.99677C38.4753 4.87842 38.4152 4.76854 38.3356 4.67342C38.256 4.57829 38.1585 4.49977 38.0485 4.44234C36.0239 3.3867 33.7746 2.83466 31.4912 2.83301H31.0001C30.7496 2.83301 30.5094 2.93251 30.3323 3.10963C30.1552 3.28675 30.0557 3.52697 30.0557 3.77745V13.2219C30.0557 13.4724 30.1552 13.7126 30.3323 13.8897C30.5094 14.0669 30.7496 14.1664 31.0001 14.1664H44.2224C44.3767 14.1664 44.5287 14.1286 44.6651 14.0564C44.8014 13.9841 44.918 13.8795 45.0046 13.7517C45.0911 13.6239 45.1451 13.4769 45.1617 13.3235C45.1783 13.17 45.157 13.0148 45.0997 12.8715L44.6455 11.7372Z" fill="black"/>
</svg>
