<svg width="13" height="14" viewBox="0 0 13 14" fill="none" xmlns="http://www.w3.org/2000/svg">
<path d="M13 7.00442C13.0022 8.45669 12.5159 9.86769 11.6189 11.0114C10.7219 12.1551 9.46612 12.9653 8.05275 13.3122C6.63938 13.6592 5.15021 13.5227 3.82379 12.9248C2.49738 12.3268 1.41048 11.302 0.737207 10.0144C0.063938 8.72687 -0.156736 7.25109 0.110535 5.82351C0.377807 4.39593 1.11756 3.09917 2.21128 2.14095C3.305 1.18273 4.68941 0.618515 6.14271 0.538687C7.59602 0.458858 9.03413 0.868036 10.2267 1.70067L10.1472 1.47007C10.0859 1.28373 10.1013 1.08073 10.19 0.905719C10.2788 0.73071 10.4335 0.598033 10.6203 0.536875C10.807 0.475717 11.0105 0.491087 11.1859 0.579605C11.3613 0.668123 11.4943 0.822538 11.5555 1.00888L12.2778 3.17073C12.3136 3.2791 12.3231 3.39441 12.3055 3.50716C12.2879 3.61992 12.2438 3.72689 12.1767 3.81929C12.1067 3.91752 12.0133 3.9967 11.9048 4.04957C11.7962 4.10245 11.6762 4.12733 11.5555 4.12195H9.38888C9.19734 4.12195 9.01364 4.04602 8.8782 3.91088C8.74275 3.77574 8.66666 3.59245 8.66666 3.40133C8.66927 3.2488 8.72033 3.10103 8.81248 2.97931C8.90463 2.85758 9.03311 2.76817 9.17944 2.72395C8.22939 2.13148 7.109 1.87068 5.99427 1.9825C4.87954 2.09433 3.83361 2.57244 3.02077 3.34176C2.20793 4.11107 1.67423 5.12799 1.5035 6.23279C1.33276 7.3376 1.53466 8.4677 2.07749 9.44558C2.62032 10.4235 3.47332 11.1937 4.50252 11.6354C5.53171 12.0771 6.67879 12.1651 7.76359 11.8857C8.84838 11.6063 9.80943 10.9753 10.4958 10.0918C11.1821 9.20826 11.5549 8.12228 11.5555 7.00442C11.5555 6.8133 11.6316 6.63 11.7671 6.49486C11.9025 6.35972 12.0862 6.2838 12.2778 6.2838C12.4693 6.2838 12.653 6.35972 12.7885 6.49486C12.9239 6.63 13 6.8133 13 7.00442Z" fill="#0D274E"/>
</svg>
