<svg width="24" height="24" viewBox="0 0 24 24" fill="none" xmlns="http://www.w3.org/2000/svg">
<path d="M12.031 4.37851e-05C5.40487 -0.0176829 0.0225694 5.34941 6.64532e-05 11.9996C-0.0217546 18.5292 5.33327 23.9515 11.8503 23.9992C13.4368 24.0172 15.0112 23.7207 16.4825 23.1269C17.9538 22.5332 19.293 21.6539 20.4226 20.5399C21.5522 19.4259 22.4499 18.0992 23.0639 16.6364C23.6779 15.1736 23.996 13.6037 23.9998 12.0174C24.0339 5.44827 18.625 0.0177705 12.031 4.37851e-05ZM16.9353 16.0816C16.9017 16.2763 16.8133 16.4575 16.6805 16.6039C16.5476 16.7502 16.3758 16.8557 16.1852 16.9079C15.7631 17.0381 15.3921 16.9297 15.0825 16.6256C14.5602 16.1116 14.0453 15.5907 13.5278 15.0725C13.0702 14.6143 12.6072 14.1609 12.1578 13.6953C12.0337 13.5671 11.9662 13.5685 11.8407 13.6953C10.8861 14.6589 9.92888 15.6175 8.96921 16.5711C8.46664 17.0702 7.72132 17.0442 7.30604 16.5247C6.94803 16.0761 6.99508 15.4645 7.43219 15.0248C8.3514 14.1012 9.27289 13.1791 10.1966 12.2587C10.4558 11.9996 10.4551 11.9996 10.2048 11.7494C9.26516 10.8099 8.32594 9.86994 7.38718 8.92952C7.08169 8.62271 6.96167 8.25727 7.08578 7.83183C7.20579 7.42275 7.4847 7.1698 7.89725 7.06753C7.95959 7.05453 8.02267 7.04542 8.08614 7.04026C8.47074 7.04026 8.74077 7.19503 8.97944 7.43434C9.92866 8.38885 10.8847 9.33655 11.8298 10.2979C11.9628 10.4342 12.0289 10.439 12.166 10.2979C13.1207 9.327 14.089 8.36567 15.0532 7.4023C15.3662 7.08867 15.7351 6.9605 16.1702 7.08867C16.3616 7.13849 16.5348 7.24196 16.6694 7.38691C16.804 7.53186 16.8943 7.71225 16.9298 7.90683C17.0246 8.32681 16.8739 8.67248 16.5766 8.96906C15.6301 9.91335 14.6897 10.8651 13.7344 11.8012C13.5605 11.9717 13.5871 12.0562 13.7433 12.2103C14.6897 13.143 15.6246 14.088 16.567 15.0254C16.865 15.3179 17.0219 15.6609 16.9353 16.0816Z" fill="#EE3536"/>
</svg>
