<svg width="16" height="16" viewBox="0 0 16 16" fill="none" xmlns="http://www.w3.org/2000/svg">
<path d="M1 6.94998C1 3.6639 3.6639 1 6.94998 1C10.2361 1 12.9 3.6639 12.9 6.94998C12.9 10.2361 10.2361 12.9 6.94998 12.9C3.6639 12.9 1 10.2361 1 6.94998Z" fill="#0D274E"/>
<path d="M13.25 11.2953L14.5951 12.6404C15.1349 13.1802 15.1349 14.0554 14.5951 14.5951C14.0554 15.1349 13.1802 15.1349 12.6405 14.5951L11.2953 13.25M1 6.94998C1 3.6639 3.6639 1 6.94998 1C10.2361 1 12.9 3.6639 12.9 6.94998C12.9 10.2361 10.2361 12.9 6.94998 12.9C3.6639 12.9 1 10.2361 1 6.94998Z" stroke="white" stroke-width="1.2" stroke-linecap="round"/>
</svg>
