<svg width="16" height="17" viewBox="0 0 16 17" fill="none" xmlns="http://www.w3.org/2000/svg">
<path d="M7.9028 8.99041C7.92023 8.99041 7.93765 8.99041 7.95856 8.99041C7.96552 8.99041 7.97249 8.99041 7.97946 8.99041C7.98991 8.99041 8.00385 8.99041 8.01431 8.99041C9.03524 8.97313 9.86105 8.61725 10.4708 7.93658C11.8123 6.43702 11.5893 3.86636 11.5649 3.62104C11.4778 1.77942 10.5997 0.89835 9.87499 0.487182C9.3349 0.17967 8.70422 0.0138208 8.00037 0H7.97598C7.97249 0 7.96552 0 7.96204 0H7.94113C7.55436 0 6.79476 0.0621934 6.06651 0.473361C5.33479 0.884529 4.44277 1.7656 4.35566 3.62104C4.33127 3.86636 4.10827 6.43702 5.44977 7.93658C6.05606 8.61725 6.88187 8.97313 7.9028 8.99041ZM5.286 3.70742C5.286 3.69705 5.28949 3.68669 5.28949 3.67978C5.40447 1.20241 7.17804 0.936357 7.93765 0.936357H7.95159C7.95856 0.936357 7.96901 0.936357 7.97946 0.936357C8.92026 0.957088 10.5196 1.33716 10.6276 3.67978C10.6276 3.69014 10.6276 3.70051 10.6311 3.70742C10.6346 3.73161 10.8785 6.08114 9.77045 7.3181C9.33142 7.80873 8.74603 8.0506 7.97598 8.05751C7.96901 8.05751 7.96552 8.05751 7.95856 8.05751C7.95159 8.05751 7.9481 8.05751 7.94113 8.05751C7.17456 8.0506 6.58569 7.80873 6.15014 7.3181C5.04558 6.08805 5.28252 3.72815 5.286 3.70742Z" fill="#6B6C6C"/>
<path d="M15.1191 13.2538C15.1191 13.2503 15.1191 13.2469 15.1191 13.2434C15.1191 13.2158 15.1156 13.1881 15.1156 13.157C15.0947 12.4729 15.0494 10.8731 13.5372 10.3618C13.5267 10.3583 13.5128 10.3549 13.5023 10.3514C11.9308 9.95406 10.6242 9.05571 10.6102 9.04534C10.3977 8.89677 10.105 8.9486 9.95517 9.15936C9.80534 9.37013 9.85761 9.66037 10.0702 9.80894C10.1294 9.8504 11.5162 10.8075 13.2514 11.2498C14.0633 11.5365 14.1539 12.3969 14.1783 13.1847C14.1783 13.2158 14.1783 13.2434 14.1818 13.271C14.1853 13.582 14.1644 14.0623 14.1086 14.3387C13.5441 14.6566 11.3315 15.7553 7.96557 15.7553C4.61355 15.7553 2.38701 14.6531 1.81905 14.3352C1.7633 14.0588 1.73891 13.5786 1.74587 13.2676C1.74587 13.2399 1.74936 13.2123 1.74936 13.1812C1.77375 12.3934 1.86435 11.5331 2.67622 11.2463C4.41146 10.804 5.79826 9.84349 5.85749 9.80548C6.07004 9.65691 6.12231 9.36667 5.97248 9.15591C5.82265 8.94514 5.52996 8.89331 5.31741 9.04189C5.30347 9.05225 4.00378 9.9506 2.42534 10.3479C2.4114 10.3514 2.40095 10.3549 2.39049 10.3583C0.878254 10.8731 0.832957 12.4729 0.81205 13.1536C0.81205 13.1847 0.81205 13.2123 0.808566 13.2399C0.808566 13.2434 0.808566 13.2469 0.808566 13.2503C0.805081 13.43 0.801597 14.3525 0.986271 14.8155C1.02112 14.9053 1.08383 14.9814 1.16746 15.0332C1.27199 15.1023 3.77729 16.6848 7.96905 16.6848C12.1608 16.6848 14.6661 15.0988 14.7706 15.0332C14.8508 14.9814 14.917 14.9053 14.9518 14.8155C15.1261 14.356 15.1226 13.4334 15.1191 13.2538Z" fill="#6B6C6C"/>
</svg>
