<svg width="100" height="100" viewBox="0 0 100 100" fill="none" xmlns="http://www.w3.org/2000/svg">
<rect x="0.368421" y="0.368421" width="99.2632" height="99.2632" rx="49.6316" fill="white"/>
<rect x="0.368421" y="0.368421" width="99.2632" height="99.2632" rx="49.6316" stroke="#EEF2F6" stroke-width="0.736842"/>
<path d="M69.1207 45.8714H63.6755L57.9593 42.0004C54.7463 39.8068 50.9527 38.6455 47.0688 38.6455H33.4815L17.6104 43.4843V45.2262H19.0297V50.7747H17.6104V55.1619L19.8684 58.1296H80.837V55.0586L82.3854 51.536L79.4047 49.3037C76.4369 47.0714 72.8369 45.8714 69.1207 45.8714Z" fill="#46D993"/>
<path d="M29.7395 40.4521H27.5589L17.6104 43.4844L20.2943 43.549L29.7395 40.4521Z" fill="#485143"/>
<path d="M55.2382 40.4521H53.793L61.7157 45.8716H63.677L57.9608 41.9877C57.0962 41.407 56.1801 40.8393 55.2382 40.4521Z" fill="#747E6C"/>
<path d="M80.837 58.1299H19.8684L17.6104 55.1621H80.837V58.1299Z" fill="#46D993"/>
<path d="M21.8303 50.775H19.0303V45.2266H21.8303L23.1852 48.3879L21.8303 50.775Z" fill="#46D993"/>
<path d="M59.6765 45.6135H49.9989L28.3857 42.2844L34.6439 40.4521H46.2311C50.2699 40.4521 54.2183 41.7167 57.5087 44.0651L59.6765 45.6135Z" fill="#485143"/>
<path d="M63.0295 55.0463L42.0098 53.7947L38.0098 48.7624L42.1905 46.9043L62.6423 50.0011C62.6423 50.685 62.0488 51.2269 61.3649 51.1495L43.726 49.1495L42.1647 49.9237L44.3453 51.9882L62.0488 53.9496C62.6036 54.0012 63.0295 54.4786 63.0295 55.0463Z" fill="#46D993"/>
<path d="M78.3857 50.9043H82.3858V52.1946H78.3857V50.9043Z" fill="#EBEADF"/>
<path d="M28.9773 61.356C32.4478 61.356 35.2613 58.5426 35.2613 55.072C35.2613 51.6015 32.4478 48.7881 28.9773 48.7881C25.5068 48.7881 22.6934 51.6015 22.6934 55.072C22.6934 58.5426 25.5068 61.356 28.9773 61.356Z" fill="#323D2C"/>
<path d="M29.2628 48.787C28.7466 48.7612 28.2305 48.7999 27.7402 48.9032C27.1853 49.0064 27.2886 49.8193 27.8434 49.8193H27.9337C31.3789 49.8193 34.2177 52.6581 34.2177 56.1033V56.1936C34.2048 56.7484 35.0177 56.8517 35.1338 56.2968C35.2241 55.8065 35.2758 55.3033 35.2499 54.7742C35.108 51.5484 32.4886 48.929 29.2628 48.787Z" fill="#485143"/>
<path d="M31.7914 58.1171C28.6558 57.9235 26.1268 55.3815 25.9203 52.246C25.9203 52.2202 25.9203 52.1944 25.9203 52.1686C25.8558 51.0202 24.3848 50.6202 23.7396 51.575C23.017 52.646 22.6299 53.9622 22.6945 55.3557C22.8493 58.5687 25.4558 61.1881 28.6816 61.3429C30.0881 61.4074 31.3913 61.0074 32.4623 60.2977C33.4172 59.6526 33.0172 58.1816 31.8688 58.1171C31.843 58.1171 31.8172 58.1171 31.7914 58.1171Z" fill="#1C2617"/>
<path d="M28.9784 58.1561C30.6816 58.1561 32.0624 56.7754 32.0624 55.0722C32.0624 53.369 30.6816 51.9883 28.9784 51.9883C27.2752 51.9883 25.8945 53.369 25.8945 55.0722C25.8945 56.7754 27.2752 58.1561 28.9784 58.1561Z" fill="#747E6C"/>
<path d="M29.2232 51.9882C29.0554 51.9753 28.8877 51.9753 28.72 51.9882C28.3974 52.014 28.4103 52.4785 28.7329 52.5043H28.7716C30.2168 52.6463 31.391 53.8205 31.5329 55.2657V55.3044C31.5587 55.627 32.0232 55.627 32.049 55.3173C32.0619 55.1495 32.0619 54.9818 32.049 54.814C31.9329 53.3172 30.72 52.1043 29.2232 51.9882Z" fill="#C4C1AB"/>
<path d="M30.0367 56.7102C28.6173 56.5554 27.4818 55.4199 27.327 54.0005C27.327 53.9876 27.327 53.9747 27.327 53.9618C27.2625 53.3553 26.4495 53.2005 26.1786 53.7424C25.9592 54.207 25.856 54.736 25.8947 55.2908C25.9979 56.8005 27.2367 58.0393 28.7464 58.1425C29.3012 58.1812 29.8302 58.078 30.2819 57.8586C30.8367 57.6005 30.669 56.7747 30.0625 56.7102C30.0625 56.7102 30.0496 56.7102 30.0367 56.7102Z" fill="#485143"/>
<path d="M19.8047 45.2266H20.7982V50.775H19.8047V45.2266Z" fill="#E67368"/>
<path d="M70.8113 61.356C74.2818 61.356 77.0953 58.5426 77.0953 55.072C77.0953 51.6015 74.2818 48.7881 70.8113 48.7881C67.3408 48.7881 64.5273 51.6015 64.5273 55.072C64.5273 58.5426 67.3408 61.356 70.8113 61.356Z" fill="#323D2C"/>
<path d="M73.6244 58.1171C70.4888 57.9235 67.9598 55.3815 67.7533 52.246C67.7533 52.2202 67.7533 52.1944 67.7533 52.1686C67.6888 51.0202 66.2178 50.6202 65.5726 51.575C64.85 52.646 64.4629 53.9622 64.5275 55.3557C64.6823 58.5687 67.2888 61.1881 70.5146 61.3429C71.9211 61.4074 73.2243 61.0074 74.2953 60.2977C75.2502 59.6526 74.8502 58.1816 73.7018 58.1171C73.676 58.1171 73.6502 58.1171 73.6244 58.1171Z" fill="#1C2617"/>
<path d="M70.7851 58.1561C72.4883 58.1561 73.869 56.7754 73.869 55.0722C73.869 53.369 72.4883 51.9883 70.7851 51.9883C69.0819 51.9883 67.7012 53.369 67.7012 55.0722C67.7012 56.7754 69.0819 58.1561 70.7851 58.1561Z" fill="#747E6C"/>
<path d="M71.0704 48.787C70.5543 48.7612 70.0381 48.7999 69.5478 48.9032C68.9929 49.0064 69.0962 49.8193 69.651 49.8193H69.7413C73.1865 49.8193 76.0253 52.6581 76.0253 56.1033V56.1936C76.0124 56.7484 76.8253 56.8517 76.9414 56.2968C77.0318 55.8065 77.0834 55.3033 77.0576 54.7742C76.9156 51.5484 74.2962 48.929 71.0704 48.787Z" fill="#485143"/>
<path d="M71.0318 51.9882C70.864 51.9753 70.6963 51.9753 70.5286 51.9882C70.206 52.014 70.2189 52.4785 70.5415 52.5043H70.5802C72.0253 52.6463 73.1996 53.8205 73.3415 55.2657V55.3044C73.3673 55.627 73.8318 55.627 73.8576 55.3173C73.8705 55.1495 73.8705 54.9818 73.8576 54.814C73.7415 53.3172 72.5286 52.1043 71.0318 51.9882Z" fill="#C4C1AB"/>
<path d="M71.8433 56.7102C70.424 56.5554 69.2885 55.4199 69.1336 54.0005C69.1336 53.9876 69.1336 53.9747 69.1336 53.9618C69.0691 53.3553 68.2562 53.2005 67.9852 53.7424C67.7659 54.207 67.6626 54.736 67.7013 55.2908C67.8046 56.8005 69.0433 58.0393 70.553 58.1425C71.1078 58.1812 71.6369 58.078 72.0885 57.8586C72.6433 57.6005 72.4756 56.7747 71.8691 56.7102C71.8691 56.7102 71.8562 56.7102 71.8433 56.7102Z" fill="#485143"/>
<path d="M49.9979 46.6455H59.6754L63.6755 46.9036H74.966C73.1079 46.2584 71.1207 45.8713 69.1207 45.8713H69.0949H63.6755L59.6754 45.6133H49.9979L28.3718 42.2842L17.6104 43.4842V44.5939L28.3847 43.7165L49.9979 46.6455Z" fill="#E67368"/>
<mask id="mask0_2794_6744" style="mask-type:luminance" maskUnits="userSpaceOnUse" x="28" y="40" width="32" height="6">
<path d="M59.6784 45.6125H50.0009L28.3877 42.2835L34.6458 40.4512H46.2331C50.2719 40.4512 54.2203 41.7157 57.5107 44.0641L59.6784 45.6125Z" fill="white"/>
</mask>
<g mask="url(#mask0_2794_6744)">
<path d="M43.8835 46.8132H41.5738L34.0898 39.3809H36.3996L43.8835 46.8132Z" fill="#747E6C"/>
</g>
<mask id="mask1_2794_6744" style="mask-type:luminance" maskUnits="userSpaceOnUse" x="28" y="40" width="32" height="6">
<path d="M59.6784 45.6125H50.0009L28.3877 42.2835L34.6458 40.4512H46.2331C50.2719 40.4512 54.2203 41.7157 57.5107 44.0641L59.6784 45.6125Z" fill="white"/>
</mask>
<g mask="url(#mask1_2794_6744)">
<path d="M50.8645 46.8132H46.0387L38.5547 39.3809H43.3677L50.8645 46.8132Z" fill="#747E6C"/>
</g>
<path d="M42.1528 44.4135L39.5205 44.0006V40.4521H42.1528V44.4135Z" fill="#323D2C"/>
<path d="M70.8129 61.9999C66.9935 61.9999 63.8838 58.8901 63.8838 55.0707C63.8838 51.2513 66.9935 48.1416 70.8129 48.1416C74.6323 48.1416 77.742 51.2513 77.742 55.0707C77.742 58.8901 74.6323 61.9999 70.8129 61.9999ZM70.8129 49.419C67.7032 49.419 65.1741 51.9481 65.1741 55.0578C65.1741 58.1675 67.7032 60.6966 70.8129 60.6966C73.9226 60.6966 76.4517 58.1675 76.4517 55.0578C76.4517 51.9481 73.9226 49.419 70.8129 49.419Z" fill="#10121B"/>
<path d="M28.9809 61.9999C25.1615 61.9999 22.0518 58.8901 22.0518 55.0707C22.0518 51.2513 25.1615 48.1416 28.9809 48.1416C32.8003 48.1416 35.91 51.2513 35.91 55.0707C35.91 58.8901 32.8003 61.9999 28.9809 61.9999ZM28.9809 49.419C25.8712 49.419 23.3421 51.9481 23.3421 55.0578C23.3421 58.1675 25.8712 60.7095 28.9809 60.7095C32.0906 60.7095 34.6197 58.1804 34.6197 55.0707C34.6197 51.961 32.0906 49.419 28.9809 49.419Z" fill="#10121B"/>
<path d="M28.9791 58.8009C26.9274 58.8009 25.25 57.1235 25.25 55.0719C25.25 53.0202 26.9274 51.3428 28.9791 51.3428C31.0307 51.3428 32.7082 53.0202 32.7082 55.0719C32.7082 57.1235 31.0307 58.8009 28.9791 58.8009ZM28.9791 52.6202C27.6371 52.6202 26.5403 53.717 26.5403 55.059C26.5403 56.4009 27.6371 57.4977 28.9791 57.4977C30.321 57.4977 31.4178 56.4009 31.4178 55.059C31.4178 53.717 30.321 52.6202 28.9791 52.6202Z" fill="#10121B"/>
<path d="M70.7877 58.8009C68.736 58.8009 67.0586 57.1235 67.0586 55.0719C67.0586 53.0202 68.736 51.3428 70.7877 51.3428C72.8393 51.3428 74.5168 53.0202 74.5168 55.0719C74.5168 57.1235 72.8393 58.8009 70.7877 58.8009ZM70.7877 52.6202C69.4457 52.6202 68.3489 53.717 68.3489 55.059C68.3489 56.4009 69.4457 57.4977 70.7877 57.4977C72.1296 57.4977 73.2264 56.4009 73.2264 55.059C73.2264 53.717 72.1296 52.6202 70.7877 52.6202Z" fill="#10121B"/>
<path d="M80.8386 58.7745H76.2837V57.4841H80.1934V55.0583C80.1934 54.968 80.2063 54.8776 80.2451 54.8002L81.587 51.7421L79.0192 49.8195C76.1805 47.6905 72.6708 46.5162 69.1223 46.5162H63.6771C63.5481 46.5162 63.419 46.4775 63.3158 46.4001L57.5996 42.5162C54.477 40.4 50.8382 39.2774 47.0704 39.2774H33.5735L18.2571 43.9614V44.5807H19.0313C19.3926 44.5807 19.6765 44.8646 19.6765 45.2259V50.7744C19.6765 51.1357 19.3926 51.4195 19.0313 51.4195H18.2571V54.9422L20.1926 57.4841H23.4959V58.7745H19.8701C19.6636 58.7745 19.483 58.6841 19.3539 58.5164L17.0958 55.5486C17.0055 55.4325 16.9668 55.3035 16.9668 55.1615V50.7744C16.9668 50.4131 17.2507 50.1292 17.612 50.1292H18.3862V45.8711H17.612C17.2507 45.8711 16.9668 45.5872 16.9668 45.2259V43.4839C16.9668 43.2001 17.1474 42.9549 17.4184 42.8646L33.2896 38.0258C33.3541 38.0129 33.4186 38 33.4831 38H47.0704C51.0963 38 54.9931 39.2 58.3222 41.4581L63.8706 45.2259H69.1223C72.9417 45.2259 76.7353 46.4904 79.7934 48.7872L82.7741 51.0195C83.0193 51.2002 83.0967 51.5228 82.9806 51.7937L81.4838 55.2002V58.1293C81.4838 58.4906 81.1999 58.7745 80.8386 58.7745Z" fill="#10121B"/>
<path d="M56.0898 57.4844H65.3287V58.7747H56.0898V57.4844Z" fill="#10121B"/>
<path d="M34.4502 57.4844H53.5085V58.7747H34.4502V57.4844Z" fill="#10121B"/>
<path d="M21.8309 51.4199H19.0309C18.6696 51.4199 18.3857 51.136 18.3857 50.7747V45.2262C18.3857 44.8649 18.6696 44.5811 19.0309 44.5811H21.8439C22.1019 44.5811 22.3342 44.7359 22.4374 44.9682L23.7923 48.1295C23.8697 48.3101 23.8568 48.5295 23.7665 48.6972L22.4116 51.0844C22.2826 51.2908 22.0632 51.4199 21.8309 51.4199ZM19.6761 50.1295H21.4568L22.4632 48.3488L21.418 45.8714H19.6761V50.1295Z" fill="#10121B"/>
<path d="M59.6773 46.2591H49.9997C49.961 46.2591 49.9352 46.2591 49.8965 46.2462L36.9286 44.2462L37.1221 42.9687L50.0513 44.9688H57.6643L57.1353 44.5946C53.9352 42.3107 50.1675 41.0977 46.2319 41.0977H34.735L31.3543 42.0913L34.5543 42.5816L34.3608 43.8591L28.2962 42.93C27.9994 42.8784 27.7672 42.6333 27.7543 42.3365C27.7284 42.0397 27.922 41.7558 28.2188 41.6784L34.4769 39.8461C34.5414 39.8332 34.5931 39.8203 34.6576 39.8203H46.2448C50.4513 39.8203 54.4772 41.1107 57.8966 43.5494L60.0644 45.0978C60.2966 45.2655 60.3869 45.5494 60.3095 45.8204C60.2063 46.0785 59.9611 46.2591 59.6773 46.2591Z" fill="#10121B"/>
<path d="M42.1544 45.0573C42.1157 45.0573 42.0899 45.0573 42.0512 45.0444L39.4189 44.6444C39.1092 44.5928 38.877 44.3219 38.877 44.0122V40.4508C38.877 40.0895 39.1608 39.8057 39.5221 39.8057H42.1544C42.5157 39.8057 42.7996 40.0895 42.7996 40.4508V44.3993C42.7996 44.5928 42.7222 44.7606 42.5802 44.8896C42.4641 44.9928 42.3093 45.0573 42.1544 45.0573ZM40.1673 43.4444L41.5092 43.6509V41.096H40.1673V43.4444Z" fill="#10121B"/>
<path d="M62.9283 55.7038L41.9473 54.4522C41.7667 54.4393 41.599 54.349 41.4828 54.2071L37.4957 49.1747C37.3666 49.0199 37.3279 48.8134 37.3795 48.6199C37.4312 48.4263 37.5602 48.2715 37.7408 48.1812L41.9086 46.3102C42.0248 46.2586 42.1409 46.2457 42.2699 46.2586L62.7089 49.3554L62.5154 50.6328L42.257 47.5747L39.0312 49.0199L42.3215 53.1748L63.0186 54.4135L62.9283 55.7038Z" fill="#10121B"/>
<path d="M78.3867 50.9033H82.3868V52.1937H78.3867V50.9033Z" fill="#10121B"/>
</svg>
