<svg width="24" height="25" viewBox="0 0 24 25" fill="none" xmlns="http://www.w3.org/2000/svg">
<path d="M10.0328 3.2932C10.8375 1.58163 13.1625 1.58163 13.9672 3.29319L15.3579 6.25122C15.6774 6.93089 16.2951 7.40198 17.0096 7.51097L20.1193 7.98531C21.9187 8.25977 22.6371 10.581 21.3351 11.9132L19.0849 14.2157C18.5679 14.7448 18.332 15.507 18.454 16.254L18.9852 19.5052C19.2926 21.3864 17.4116 22.821 15.8022 21.9328L13.0208 20.3978C12.3817 20.0451 11.6183 20.0451 10.9792 20.3978L8.19776 21.9328C6.58839 22.821 4.70742 21.3864 5.01479 19.5052L5.54599 16.254C5.66804 15.507 5.43211 14.7448 4.91508 14.2157L2.66488 11.9132C1.36287 10.581 2.08133 8.25977 3.88066 7.98531L6.99037 7.51097C7.70489 7.40198 8.32257 6.93089 8.64211 6.25123L10.0328 3.2932Z" stroke="#0C81F3" stroke-width="1.5" stroke-linejoin="round"/>
</svg>
