<svg width="12" height="12" viewBox="0 0 12 12" fill="none" xmlns="http://www.w3.org/2000/svg">
<g clip-path="url(#clip0_8953_17757)">
<path d="M2.77928 11.7455C2.60969 11.7455 2.44758 11.6927 2.31033 11.5928C2.03024 11.3892 1.91387 11.0313 2.02067 10.7022L3.0709 7.47216L0.321904 5.4763C0.0415395 5.27241 -0.0745236 4.91429 0.0322698 4.58545C0.13937 4.25584 0.444173 4.03462 0.790524 4.03462H4.18825L5.23818 0.805118C5.34551 0.475737 5.65024 0.254517 5.99651 0.254517C6.34307 0.254517 6.64782 0.475891 6.75466 0.805118L7.80505 4.03462H11.2026C11.549 4.03462 11.8537 4.25599 11.9607 4.58514C12.0678 4.91429 11.9512 5.27228 11.6715 5.476L8.92248 7.47216L9.97241 10.7019C10.0794 11.0313 9.96306 11.389 9.68306 11.5928C9.40897 11.7921 9.01939 11.7921 8.74541 11.5928L5.99667 9.59706L3.24774 11.5931C3.11069 11.6927 2.94866 11.7455 2.77928 11.7455ZM0.790524 4.71767C0.741085 4.71767 0.697316 4.74937 0.682224 4.79648C0.666902 4.84339 0.683577 4.89469 0.723593 4.92373L3.87423 7.21131L2.6708 10.9132C2.65563 10.9601 2.67223 11.0114 2.71237 11.0405C2.76181 11.0766 2.79674 11.0766 2.84611 11.0405L5.99667 8.75258L9.14707 11.0404C9.19646 11.0763 9.2319 11.0763 9.28111 11.0406C9.3211 11.0114 9.33803 10.9602 9.32248 10.913L8.11887 7.21133L11.2697 4.92361C11.3097 4.89456 11.3262 4.84329 11.3111 4.79636C11.2957 4.74937 11.2521 4.71767 11.2027 4.71767H7.30832L6.10504 1.01621C6.0744 0.922007 5.91893 0.922007 5.88814 1.01621L4.68491 4.71767H0.790524Z" fill="#FFC403"/>
</g>
<defs>
<clipPath id="clip0_8953_17757">
<rect width="12.007" height="12" fill="white" transform="translate(-0.00695801)"/>
</clipPath>
</defs>
</svg>
