<svg width="8" height="8" viewBox="0 0 8 8" fill="none" xmlns="http://www.w3.org/2000/svg">
<path d="M4.37832 0.5C4.2287 0.5 4.07908 0.580675 4.00164 0.743393L3.14459 2.5538L1.22706 2.84368C0.883188 2.89564 0.745377 3.3373 0.994748 3.59027L2.38204 4.99866L2.05392 6.98819C1.99486 7.34508 2.35579 7.61719 2.66291 7.449L4.37832 6.51098V0.5Z" fill="#FFC403"/>
<path d="M5.43123 2.63937L4.57827 0.837598V6.39239L6.18964 7.27352L6.18974 7.27358C6.33454 7.35287 6.54021 7.23147 6.50536 7.02085L6.50534 7.02074L6.17722 5.03121L6.16066 4.93081L6.23207 4.85831L7.61936 3.44992L7.61941 3.44986C7.76208 3.30514 7.67078 3.06729 7.49965 3.04144L7.49964 3.04143L5.5821 2.75155L5.4768 2.73563L5.43123 2.63937Z" fill="#FFC403" stroke="#FFC403" stroke-width="0.4"/>
</svg>
