<svg width="22" height="24" viewBox="0 0 22 24" fill="none" xmlns="http://www.w3.org/2000/svg">
<g clip-path="url(#clip0_8997_16868)">
<path d="M5.25879 8.10852H15.7805C15.9971 8.10852 16.2047 8.02168 16.3578 7.8671C16.5109 7.71251 16.597 7.50286 16.597 7.28424C16.597 7.06563 16.5109 6.85597 16.3578 6.70139C16.2047 6.5468 15.9971 6.45996 15.7805 6.45996H5.25879C5.04226 6.45996 4.83461 6.5468 4.6815 6.70139C4.5284 6.85597 4.44238 7.06563 4.44238 7.28424C4.44238 7.50286 4.5284 7.71251 4.6815 7.8671C4.83461 8.02168 5.04226 8.10852 5.25879 8.10852Z" fill="#0C81F3"/>
<path d="M12.3198 12.4224C12.3198 12.2038 12.2338 11.9942 12.0807 11.8396C11.9276 11.685 11.72 11.5981 11.5034 11.5981H5.25879C5.04226 11.5981 4.83461 11.685 4.6815 11.8396C4.5284 11.9942 4.44238 12.2038 4.44238 12.4224C4.44238 12.641 4.5284 12.8507 4.6815 13.0053C4.83461 13.1599 5.04226 13.2467 5.25879 13.2467H11.5034C11.72 13.2467 11.9276 13.1599 12.0807 13.0053C12.2338 12.8507 12.3198 12.641 12.3198 12.4224Z" fill="#0C81F3"/>
<path d="M17.4573 19.0609C17.1667 19.0158 16.8709 19.0158 16.5803 19.0609C16.4926 19.0798 16.4122 19.1238 16.3489 19.1878C16.2855 19.2518 16.2419 19.3329 16.2232 19.4215C16.1785 19.7147 16.1785 20.0132 16.2232 20.3065C16.242 20.3949 16.2857 20.476 16.349 20.5399C16.4124 20.6039 16.4927 20.648 16.5803 20.667C16.8709 20.7121 17.1667 20.7121 17.4573 20.667C17.5448 20.648 17.6251 20.6039 17.6884 20.54C17.7517 20.476 17.7953 20.3949 17.8139 20.3065C17.8592 20.0132 17.8592 19.7147 17.8139 19.4215C17.7954 19.333 17.7519 19.2518 17.6886 19.1878C17.6252 19.1238 17.5449 19.0797 17.4573 19.0609Z" fill="#0C81F3"/>
<path d="M17.0186 18.514C17.2351 18.514 17.4427 18.4272 17.5958 18.2726C17.7489 18.118 17.835 17.9084 17.835 17.6898V16.3145C17.835 16.0959 17.7489 15.8862 17.5958 15.7317C17.4427 15.5771 17.2351 15.4902 17.0186 15.4902C16.802 15.4902 16.5944 15.5771 16.4413 15.7317C16.2882 15.8862 16.2021 16.0959 16.2021 16.3145V17.6898C16.2021 17.9084 16.2882 18.118 16.4413 18.2726C16.5944 18.4272 16.802 18.514 17.0186 18.514Z" fill="#0C81F3"/>
<path d="M17.0176 14.7172C17.6801 14.7171 18.3278 14.9154 18.8786 15.2869C19.4295 15.6585 19.8589 16.1866 20.1124 16.8046C20.366 17.4225 20.4324 18.1025 20.3031 18.7585C20.1739 19.4146 19.8549 20.0172 19.3865 20.4901C18.918 20.9631 18.3212 21.2852 17.6714 21.4157C17.0216 21.5461 16.3481 21.4791 15.7361 21.2231C15.1241 20.9671 14.6009 20.5336 14.2329 19.9774C13.8649 19.4212 13.6686 18.7673 13.6686 18.0985C13.6693 17.2019 14.0224 16.3423 14.6503 15.7083C15.2782 15.0743 16.1296 14.7179 17.0176 14.7172ZM17.0176 13.0686C16.0322 13.0686 15.0689 13.3636 14.2496 13.9164C13.4303 14.4691 12.7917 15.2548 12.4146 16.174C12.0375 17.0932 11.9389 18.1046 12.1312 19.0804C12.3234 20.0562 12.798 20.9525 13.4948 21.656C14.1916 22.3595 15.0794 22.8385 16.0459 23.0326C17.0124 23.2266 18.0142 23.1269 18.9245 22.7461C19.8349 22.3653 20.613 21.7205 21.1604 20.8933C21.7078 20.066 21.9999 19.0934 21.9999 18.0985C21.9999 17.4379 21.871 16.7838 21.6206 16.1735C21.3702 15.5632 21.0032 15.0087 20.5406 14.5417C20.0779 14.0746 19.5287 13.7041 18.9242 13.4514C18.3197 13.1986 17.6719 13.0685 17.0176 13.0686Z" fill="#0C81F3"/>
<path d="M12.6231 20.4695C11.9498 20.5077 11.2537 20.5277 10.5284 20.5285C8.59483 20.5264 6.86319 20.3928 5.23768 20.1203C4.51537 19.9902 3.78405 19.5806 3.17733 18.9685C2.57061 18.3563 2.16627 17.6188 2.03694 16.8887C1.76709 15.2492 1.63475 13.5018 1.6326 11.5452C1.63045 9.58859 1.76709 7.84415 2.03694 6.2034C2.16627 5.47543 2.57104 4.73705 3.17948 4.12664C3.78791 3.51624 4.51752 3.1054 5.24198 2.97482C6.86233 2.70064 8.59354 2.56702 10.5271 2.56485C12.4607 2.56268 14.1928 2.70064 15.8183 2.97308C16.5428 3.10367 17.2732 3.51234 17.8795 4.12664C18.4858 4.74095 18.891 5.4776 19.0203 6.20904C19.2902 7.84589 19.4217 9.59293 19.4247 11.5452C19.4247 12.2779 19.404 12.9807 19.3662 13.6601C19.9622 13.9826 20.4873 14.4237 20.9097 14.9568C20.9956 13.9885 21.0558 12.8606 21.0575 11.5452C21.0545 9.0693 20.8491 7.25631 20.6278 5.92401C20.2437 3.72882 18.2688 1.73493 16.0946 1.34708C14.7767 1.12669 12.9811 0.918886 10.5271 0.916283C8.07319 0.91368 6.28053 1.12669 4.96096 1.35012C2.78674 1.73623 0.811897 3.73012 0.429475 5.92531C0.208186 7.25761 0.00279539 9.07233 -0.000212424 11.5452C-0.00322024 14.018 0.208186 15.8358 0.429475 17.1681C0.813186 19.3633 2.78846 21.3572 4.96268 21.745C6.28225 21.9667 8.07791 22.1741 10.5301 22.1788C11.833 22.1788 12.9501 22.1181 13.9092 22.0296C13.3804 21.6028 12.9429 21.0721 12.6231 20.4695Z" fill="#0C81F3"/>
</g>
<defs>
<clipPath id="clip0_8997_16868">
<rect width="22" height="22.2122" fill="white" transform="translate(0 0.916504)"/>
</clipPath>
</defs>
</svg>
