<svg width="18" height="19" viewBox="0 0 18 19" fill="none" xmlns="http://www.w3.org/2000/svg">
<mask id="mask0_2983_253210" style="mask-type:luminance" maskUnits="userSpaceOnUse" x="0" y="0" width="18" height="19">
<path d="M17.7 18.5926V1.19258H0.3V18.5926H17.7Z" fill="white" stroke="white" stroke-width="0.6"/>
</mask>
<g mask="url(#mask0_2983_253210)">
<path d="M13.7484 16.7263L13.5343 17.4118C13.3069 18.1398 12.6416 18.6289 11.8789 18.6289H6.13239C5.36967 18.6289 4.70444 18.1398 4.47702 17.4118L2.54789 11.2365C2.25398 10.2957 2.4002 9.31327 2.88054 8.52521" stroke="#6B6C6C" stroke-width="0.6" stroke-miterlimit="10" stroke-linecap="round" stroke-linejoin="round"/>
<path d="M11.541 6.54473C12.2304 6.71277 12.9205 6.9466 13.6079 7.24543C15.1642 7.92218 15.9573 9.65082 15.4525 11.2666L14.1141 15.5518" stroke="#6B6C6C" stroke-width="0.6" stroke-miterlimit="10" stroke-linecap="round" stroke-linejoin="round"/>
<path d="M3.70117 7.61816C3.89629 7.47016 4.11109 7.34187 4.34313 7.23812C5.04098 6.92562 5.74762 6.68477 6.45812 6.51637" stroke="#6B6C6C" stroke-width="0.6" stroke-miterlimit="10" stroke-linecap="round" stroke-linejoin="round"/>
<path d="M10.9609 7.49352C11.6967 7.64789 12.4389 7.88691 13.1884 8.21281C14.2459 8.6723 14.7908 9.85145 14.447 10.9518L12.5271 17.0971C12.4385 17.3809 12.1759 17.5742 11.8785 17.5742H6.13217C5.83475 17.5742 5.57213 17.3809 5.48319 17.0971L3.55416 10.922C3.21561 9.83777 3.73487 8.66492 4.77198 8.20086C5.51307 7.86934 6.2612 7.62535 7.01635 7.47242" stroke="#6B6C6C" stroke-width="0.6" stroke-miterlimit="10" stroke-linecap="round" stroke-linejoin="round"/>
<path d="M9.7675 9.3393C10.3159 9.61773 10.6914 10.1873 10.6914 10.8443V13.9082C10.6914 14.8402 9.9359 15.5957 9.00391 15.5957C8.07191 15.5957 7.31641 14.8402 7.31641 13.9082V10.8443C7.31641 10.1869 7.69223 9.61773 8.24066 9.33894" stroke="#6B6C6C" stroke-width="0.6" stroke-miterlimit="10" stroke-linecap="round" stroke-linejoin="round"/>
<path d="M8.24023 7.60413V11.6937C8.24023 12.1153 8.58199 12.457 9.00355 12.457C9.42514 12.457 9.76689 12.1153 9.76689 11.6937V7.60413" stroke="#6B6C6C" stroke-width="0.6" stroke-miterlimit="10" stroke-linecap="round" stroke-linejoin="round"/>
<path d="M11.9043 9.70508H12.2551" stroke="#6B6C6C" stroke-width="0.6" stroke-miterlimit="10" stroke-linecap="round" stroke-linejoin="round"/>
<path d="M11.9043 11.9658H12.2551" stroke="#6B6C6C" stroke-width="0.6" stroke-miterlimit="10" stroke-linecap="round" stroke-linejoin="round"/>
<path d="M11.9043 14.2266H12.2551" stroke="#6B6C6C" stroke-width="0.6" stroke-miterlimit="10" stroke-linecap="round" stroke-linejoin="round"/>
<path d="M12.3327 2.71477H13.8107C14.0209 2.71477 14.1914 2.88531 14.1914 3.09551V4.45715C14.1914 4.66735 14.0209 4.83789 13.8107 4.83789H12.2969" stroke="#6B6C6C" stroke-width="0.6" stroke-miterlimit="10" stroke-linecap="round" stroke-linejoin="round"/>
<path d="M12.1688 2.44327L11.5508 1.56605C11.3698 1.3092 11.0753 1.15641 10.7611 1.15641H7.24786C6.93367 1.15641 6.6391 1.3092 6.45815 1.56605L5.8401 2.44327C5.38718 3.08618 5.30492 3.91959 5.6234 4.63864L6.72815 7.13259C6.85524 7.41946 7.13951 7.60449 7.45328 7.60449H10.5556C10.8694 7.60449 11.1537 7.41946 11.2808 7.13259L12.3855 4.63864C12.704 3.91962 12.6217 3.08618 12.1688 2.44327Z" stroke="#6B6C6C" stroke-width="0.6" stroke-miterlimit="10" stroke-linecap="round" stroke-linejoin="round"/>
</g>
</svg>
