<svg width="24" height="25" viewBox="0 0 24 25" fill="none" xmlns="http://www.w3.org/2000/svg">
<path d="M12 22.8005C17.79 22.8005 22.5 18.045 22.5 12.1992C22.5 6.35333 17.79 1.5979 12 1.5979C6.21 1.5979 1.5 6.35333 1.5 12.1992C1.5 18.045 6.21 22.8005 12 22.8005ZM12 3.11237C16.965 3.11237 21 7.18629 21 12.1992C21 17.2121 16.965 21.286 12 21.286C7.035 21.286 3 17.2121 3 12.1992C3 7.18629 7.035 3.11237 12 3.11237Z" fill="#0C81F3"/>
<path d="M7.4999 11.4421H16.4999C16.9144 11.4421 17.2499 11.103 17.2499 10.6848C17.2499 10.2667 16.9144 9.9276 16.4999 9.9276H8.90143L9.62398 8.83317C9.85363 8.48522 9.76055 8.0149 9.416 7.78311C9.0707 7.55056 8.60518 7.64484 8.37598 7.99309L6.87598 10.2648C6.72253 10.497 6.70828 10.7958 6.83863 11.042C6.96928 11.2883 7.22338 11.4421 7.4999 11.4421Z" fill="#0C81F3"/>
<path d="M7.5 14.471H15.0989L14.3759 15.5654C14.146 15.9134 14.239 16.3837 14.5839 16.6155C14.7122 16.7017 14.8565 16.7427 14.9993 16.7427C15.2417 16.7427 15.4797 16.6244 15.624 16.4055L17.124 14.1338C17.2771 13.9016 17.2917 13.6028 17.1614 13.3566C17.031 13.1103 16.7768 12.9565 16.5 12.9565H7.5C7.08585 12.9565 6.75 13.2956 6.75 13.7138C6.75 14.1319 7.08585 14.471 7.5 14.471Z" fill="#0C81F3"/>
</svg>
