<svg width="20" height="14" viewBox="0 0 20 14" fill="none" xmlns="http://www.w3.org/2000/svg">
<path d="M17.6079 5.21124C18.5743 6.22797 18.5743 7.77268 17.6079 8.78941C15.9781 10.5042 13.1789 12.8337 9.99935 12.8337C6.81975 12.8337 4.02059 10.5042 2.39077 8.78941C1.42443 7.77268 1.42443 6.22797 2.39077 5.21124C4.02059 3.49644 6.81975 1.16699 9.99935 1.16699C13.1789 1.16699 15.9781 3.49644 17.6079 5.21124Z" stroke="white" stroke-width="1.5"/>
<path d="M12.4993 7.00033C12.4993 8.38104 11.3801 9.50033 9.99935 9.50033C8.61864 9.50033 7.49935 8.38104 7.49935 7.00033C7.49935 5.61961 8.61864 4.50033 9.99935 4.50033C11.3801 4.50033 12.4993 5.61961 12.4993 7.00033Z" stroke="white" stroke-width="1.5"/>
</svg>
