<svg width="104" height="27" viewBox="0 0 104 27" fill="none" xmlns="http://www.w3.org/2000/svg">
<path fill-rule="evenodd" clip-rule="evenodd" d="M88.8032 9.97564C86.8808 8.29937 84.65 7.43482 82.1074 7.38198C82.0329 7.38198 81.9579 7.37108 81.8834 7.37108C79.2558 7.37108 76.8324 8.35167 75.0811 10.1968C73.3193 12.0316 72.4442 14.4242 72.4442 17.0179C72.4442 19.5162 73.4368 21.7945 75.3057 23.523C77.057 25.2625 79.471 26.2322 81.8839 26.2322H82.108C86.3153 26.1161 90.4591 22.9221 91.3342 19.5162H85.7282C85.0771 20.4865 83.5393 21.0345 82.215 21.0345H82.1085C81.2649 21.0236 80.3141 20.8024 79.6956 20.3813C79.034 20.0545 78.3713 19.2951 77.9338 18.431H91.5489C91.5489 18.2099 91.7729 17.7768 91.7729 17.3448V16.2596C91.7723 13.8762 90.7786 11.7151 88.8032 9.97564ZM82.108 15.1842H77.9332C78.2643 14.5299 78.9259 13.7711 79.5775 13.3391C80.2391 12.9065 81.2329 12.5796 82.108 12.5796V12.5905C82.9842 12.5905 83.9768 12.9169 84.746 13.3396C85.3971 13.7716 86.0587 14.5305 86.2838 15.1847L82.108 15.1842ZM102.899 7.1608C101.799 7.1608 100.817 7.48766 100.048 7.91967C99.3863 8.35167 98.7341 9.21623 98.5101 10.0808L98.0725 7.80363H93.5656V26.0219H98.8411V16.0477C98.8411 14.5294 99.1722 13.2328 99.7174 12.5791C100.261 11.9254 101.362 11.4934 102.685 11.4934H103.231V7.16026L102.899 7.1608ZM36.6703 9.97564C34.7484 8.30972 32.527 7.43482 29.996 7.38198C29.9209 7.38198 29.836 7.37108 29.7609 7.37108C27.1234 7.37108 24.71 8.35167 22.9481 10.1968C21.1968 12.0316 20.3211 14.4242 20.3211 17.0179C20.3211 19.5162 21.3038 21.7945 23.1727 23.523C24.9235 25.2625 27.3475 26.2322 29.7609 26.2322H29.996C34.2033 26.1161 38.3361 22.9221 39.2013 19.5162H33.6057C32.9436 20.4865 31.4063 21.0345 30.0925 21.0345H29.9965C29.1424 21.0236 28.2027 20.8024 27.5615 20.3813C26.8994 20.0545 26.2483 19.2951 25.8102 18.431H39.4143C39.4143 18.2099 39.6388 17.7768 39.6388 17.3448V16.2596C39.6394 13.8762 38.6567 11.7151 36.6703 9.97564ZM29.9965 15.1842H25.8108C26.1313 14.5299 26.7929 13.7711 27.4551 13.3391C28.1172 12.9065 29.0999 12.5796 29.975 12.5796C29.975 12.5796 29.9861 12.5905 29.9965 12.5905C30.8827 12.5905 31.8439 12.9169 32.6131 13.3396C33.2752 13.7716 33.9263 14.5305 34.1509 15.1847L29.9965 15.1842ZM68.9525 7.91967C68.2898 8.35167 67.6387 9.21623 67.4147 10.0808L66.9761 7.80363H62.4702V26.0219H67.7458V16.0477C67.7458 14.5294 68.0768 13.2328 68.6209 12.5791C69.1771 11.9254 70.2652 11.4934 71.59 11.4934H72.1341V7.16026H71.803C70.7132 7.1608 69.7206 7.48712 68.9525 7.91967ZM53.1469 17.7773C53.1469 18.6528 52.8158 19.4116 52.3782 19.8436C51.9407 20.2767 51.1715 20.6036 50.5094 20.6036C49.7402 20.6036 48.9716 20.2767 48.534 19.8436C48.0965 19.4116 47.8719 18.6528 47.8719 17.7773V7.5928H41.9458V16.9128C41.9458 19.5162 42.7144 21.7945 44.1452 23.5236C45.6725 25.263 47.8724 26.2327 50.5099 26.2327C52.9228 26.2327 55.1233 25.3687 56.66 23.7453C58.1978 22.227 59.0741 19.8436 59.0741 16.9133V7.5928H53.1469V17.7773ZM9.6106 7.37163C9.52508 7.37163 9.45058 7.38252 9.36506 7.38252C8.83149 7.43536 7.95582 7.5988 7.5602 7.729C7.16457 7.8592 6.48203 8.16209 5.96943 8.36311V0.00195312H-0.000244141V15.2893C-0.000244141 15.9425 0.117284 16.9128 0.117284 17.9985C0.117284 19.0848 0.44835 20.171 0.779416 20.919C1.32402 22.5533 2.64828 23.9556 4.19657 24.8305C5.74485 25.6956 7.51771 26.2327 9.27953 26.2327H9.36451C11.981 26.2115 14.48 25.1366 16.1243 23.5236C17.7901 21.9002 18.7833 19.5168 18.7833 16.9128C18.7833 14.2025 17.235 11.3877 16.0178 10.0802C14.4695 8.35167 10.8284 7.37163 9.6106 7.37163ZM9.36506 20.9828C9.35458 20.9936 9.35458 20.9828 9.34409 20.9828C7.04815 20.9828 5.14728 19.1164 5.14728 16.8387C5.14728 14.5615 7.04815 12.6957 9.34409 12.6957C9.35458 12.6957 9.35458 12.7066 9.36506 12.7066C11.661 12.7175 13.5514 14.5833 13.5514 16.8387C13.5514 19.106 11.661 20.9724 9.36506 20.9828Z" fill="#1778F2"/>
</svg>
