<svg width="145" height="28" viewBox="0 0 145 28" fill="none" xmlns="http://www.w3.org/2000/svg">
<path fill-rule="evenodd" clip-rule="evenodd" d="M93.3512 0.858432C96.1453 0.858432 98.4606 3.01152 98.4606 5.70231C98.4627 6.34911 98.3321 6.98992 98.0761 7.58789C97.8201 8.18586 97.4438 8.72917 96.9689 9.18656C96.4941 9.64395 95.93 10.0064 95.3091 10.253C94.6882 10.4997 94.0228 10.6256 93.3512 10.6236C92.6795 10.6257 92.014 10.4998 91.393 10.2533C90.772 10.0067 90.2078 9.64426 89.7328 9.18687C89.2578 8.72948 88.8814 8.18615 88.6252 7.58812C88.3691 6.9901 88.2383 6.34921 88.2403 5.70231C88.2403 3.01152 90.5557 0.858432 93.3512 0.858432V0.858432ZM123.292 13.0851C125.449 13.0851 127.364 13.4694 128.882 14.3147C130.399 15.084 131.516 16.3151 131.837 17.8522C132.075 18.6216 132.075 19.4669 131.837 20.3904C131.198 23.0044 126.008 23.6196 123.851 23.4654C125.768 24.9274 128.482 24.2348 131.038 23.2338C132.315 22.7728 132.315 23.6963 131.995 24.3874C130.319 26.3879 126.647 27.6182 123.292 27.925C118.581 27.925 114.669 24.5416 114.669 20.3904C114.669 16.3143 117.543 13.2385 123.292 13.0851V13.0851ZM124.091 15.1614C123.372 15.1614 122.813 16.3918 122.813 17.8522C122.813 19.3894 123.373 20.6205 124.091 20.6205C124.809 20.6205 125.368 19.3902 125.368 17.8522C125.369 16.3918 124.81 15.1614 124.091 15.1614ZM12.947 0.0131346C17.8971 -0.294449 26.2011 5.78051 25.802 13.7002C25.4826 21.4673 19.8938 27.2332 12.947 27.1572C6.00103 27.003 -0.307756 20.9288 0.0116275 13.7002C0.171706 8.16372 2.88608 5.62635 6.79833 4.01172C7.99699 1.93535 7.99699 0.319973 12.947 0.0131346V0.0131346ZM56.3832 26.7714C55.3454 26.7714 54.0678 27.3866 51.9118 27.3866C47.8395 27.464 44.4067 24.1573 44.6456 20.0813C44.8854 15.9285 47.5998 13.0069 51.8314 12.9302H54.3865V5.47218C53.5884 4.7036 51.8314 4.7036 54.4669 3.39581C56.0638 3.08822 57.5006 3.01152 59.0976 3.16494C60.2954 3.39581 61.2536 4.54869 61.2536 5.31802V25.3109C61.4137 25.5411 61.573 25.6178 61.8924 25.7719C62.0524 25.8494 61.9728 26.1562 61.8127 26.3104C59.8956 28.0025 57.5803 27.2332 56.3832 26.7714ZM53.0293 14.8524C51.5924 14.6997 50.9529 17.0069 50.9529 20.0046C50.9529 23.0037 51.5917 25.0026 52.9489 24.9267C54.306 24.8492 54.9456 22.8495 54.9456 20.0046C54.8659 17.2371 54.5465 15.0065 53.0293 14.8524ZM80.016 25.8494V5.54889C79.5373 5.1646 78.4995 5.01043 78.8986 4.47272C78.979 4.31856 79.1391 4.16514 79.4577 4.01098C79.6178 3.85756 79.8583 3.70339 80.1769 3.54997C81.6145 2.78064 83.131 2.55051 84.7279 2.85735C85.9258 3.01152 86.8847 3.7801 86.9636 4.54868V25.3102C87.044 25.5403 87.6023 25.617 87.9225 25.7712C88.0826 25.8487 88.0029 26.1555 87.8421 26.3097C84.6467 28.9245 81.2139 27.464 80.016 25.8494V25.8494ZM89.7584 25.7727V15.3908C89.8388 15.0065 89.2797 14.9298 88.9595 14.6997C88.7994 14.3139 89.5186 13.5461 90.077 13.3919C91.4349 12.9309 92.871 12.6233 94.4695 13.0076C95.6673 13.1618 96.6247 13.7769 96.7052 14.5455V25.2342C96.8652 25.4644 97.6625 25.3117 97.743 25.6952C97.8234 25.8494 97.743 26.0795 97.5829 26.2337C94.389 28.6944 90.2371 27.6182 89.7584 25.7727V25.7727ZM9.11444 13.0076V23.0811C9.83286 25.6178 15.6622 26.0788 17.2591 23.0811V12.9309C14.704 14.0078 12.0685 14.1612 9.11444 13.0076V13.0076ZM27.6387 26.9256H34.3457V16.1601C34.3457 14.623 36.4221 14.9298 36.4221 16.2376V25.3884C36.4221 26.542 38.6578 27.5415 40.8131 27.1572C41.8509 27.003 42.8894 27.003 44.0069 26.1562C44.8846 25.0801 43.1284 25.6952 42.8887 24.6191V14.3914C41.6915 11.7773 37.3795 12.5466 34.2653 13.6995C32.1889 12.239 28.5961 12.239 26.9991 13.8529C26.44 14.3914 27.7176 14.3139 27.6379 14.7749V26.9256H27.6387V26.9256ZM78.5799 13.2385H71.9525V23.9264C71.9525 25.4636 69.7965 25.1568 69.7965 23.9264L69.8762 14.6997C69.8762 13.6995 67.5608 12.6233 65.4845 13.0076C64.4467 13.2385 63.3292 13.2385 62.211 14.0845C61.4121 15.0065 63.0895 14.3914 63.3292 15.4675V25.6945C64.5263 28.3853 68.918 27.6175 71.9518 26.5413C74.0282 27.9243 77.6203 27.9243 79.1375 26.3097C79.6966 25.7712 78.4183 25.7712 78.5784 25.3102V13.2385H78.5799V13.2385ZM98.541 27.5415H105.247V16.7761C105.247 15.2389 107.403 15.5457 107.403 16.7761L107.324 26.0043C107.324 27.0805 109.639 28.0799 111.715 27.7716C112.752 27.5415 113.871 27.5415 114.989 26.6954C115.786 25.696 114.03 26.3111 113.791 25.235V15.0065C112.593 12.3924 108.281 13.1618 105.247 14.2387C103.091 12.8542 99.4976 12.8542 97.9015 14.3914C97.3424 14.9298 98.6207 14.9298 98.5402 15.3149V27.5415H98.541V27.5415ZM135.989 3.47327H139.741C140.219 3.47327 140.54 3.55072 140.858 3.78084C141.259 4.01172 141.497 4.24185 141.657 4.54943C141.817 4.85702 141.898 5.1646 141.898 5.54889C141.898 5.85648 141.817 6.08735 141.737 6.31823C141.577 6.62581 141.337 6.77923 141.018 6.93339C140.778 7.08755 140.379 7.16426 139.98 7.16426L141.577 9.77835H139.98L138.622 7.16426H137.345V9.77835H135.989V3.47327ZM137.345 4.47272V6.08735H139.342C139.741 6.08735 140.061 6.0099 140.219 5.85648C140.46 5.70231 140.54 5.54889 140.54 5.31802C140.54 5.08715 140.459 4.85627 140.219 4.70285C139.98 4.54869 139.741 4.47198 139.342 4.47198H137.345V4.47272V4.47272ZM132.556 6.47239C132.556 7.47185 132.714 8.31789 133.115 9.08647C133.514 9.85506 133.993 10.5477 134.551 11.0087C135.19 11.5471 135.828 11.9314 136.548 12.1623C137.186 12.3932 137.904 12.5473 138.463 12.5473C139.503 12.5473 140.46 12.3165 141.338 11.8555C142.297 11.3937 143.094 10.7786 143.733 9.85581C144.292 9.01051 144.613 8.01031 144.692 6.85743C144.692 6.01139 144.532 5.2428 144.214 4.55018C143.893 3.78159 143.415 3.16642 142.856 2.55125C142.297 2.0128 141.658 1.5518 140.939 1.24421C140.219 0.93663 139.503 0.705756 138.783 0.705756C137.824 0.705756 136.947 0.93663 136.148 1.24421C135.351 1.5518 134.712 2.0128 134.153 2.55125C133.68 3.09184 133.278 3.68581 132.955 4.32005C132.714 5.01192 132.556 5.62709 132.556 6.24226V6.47239V6.47239ZM133.673 6.62581V6.77923C133.673 7.24097 133.752 7.77943 133.992 8.31715C134.232 8.85486 134.551 9.39331 134.949 9.85431C135.429 10.3161 135.908 10.6237 136.467 10.9312C137.106 11.2388 137.745 11.393 138.462 11.393H138.622C139.182 11.393 139.74 11.2388 140.299 11.0854C140.858 10.8545 141.337 10.5469 141.817 10.1626C142.296 9.77835 142.614 9.3166 142.935 8.77889C143.253 8.16372 143.413 7.54856 143.494 6.85668V6.70252V6.47164C143.494 5.77976 143.253 5.01043 142.774 4.31856C142.296 3.54997 141.657 3.01151 140.938 2.54977C140.139 2.16547 139.421 1.9346 138.783 1.9346C137.505 1.9346 136.547 2.24218 135.828 2.70393C135.109 3.16493 134.551 3.7801 134.312 4.39527C133.992 5.08789 133.751 5.77976 133.673 6.62581V6.62581Z" fill="#1778F2"/>
<path fill-rule="evenodd" clip-rule="evenodd" d="M93.3512 0.858432C96.1453 0.858432 98.4606 3.01152 98.4606 5.70231C98.4627 6.34911 98.3321 6.98992 98.0761 7.58789C97.8201 8.18586 97.4438 8.72917 96.9689 9.18656C96.4941 9.64395 95.93 10.0064 95.3091 10.253C94.6882 10.4997 94.0228 10.6256 93.3512 10.6236C92.6795 10.6257 92.014 10.4998 91.393 10.2533C90.772 10.0067 90.2078 9.64426 89.7328 9.18687C89.2578 8.72948 88.8814 8.18615 88.6252 7.58812C88.3691 6.9901 88.2383 6.34921 88.2403 5.70231C88.2403 3.01152 90.5557 0.858432 93.3512 0.858432V0.858432ZM123.292 13.0851C125.449 13.0851 127.364 13.4694 128.882 14.3147C130.399 15.084 131.516 16.3151 131.837 17.8522C132.075 18.6216 132.075 19.4669 131.837 20.3904C131.198 23.0044 126.008 23.6196 123.851 23.4654C125.768 24.9274 128.482 24.2348 131.038 23.2338C132.315 22.7728 132.315 23.6963 131.995 24.3874C130.319 26.3879 126.647 27.6182 123.292 27.925C118.581 27.925 114.669 24.5416 114.669 20.3904C114.669 16.3143 117.543 13.2385 123.292 13.0851V13.0851ZM124.091 15.1614C123.372 15.1614 122.813 16.3918 122.813 17.8522C122.813 19.3894 123.373 20.6205 124.091 20.6205C124.809 20.6205 125.368 19.3902 125.368 17.8522C125.369 16.3918 124.81 15.1614 124.091 15.1614ZM12.947 0.0131346C17.8971 -0.294449 26.2011 5.78051 25.802 13.7002C25.4826 21.4673 19.8938 27.2332 12.947 27.1572C6.00103 27.003 -0.307756 20.9288 0.0116275 13.7002C0.171706 8.16372 2.88608 5.62635 6.79833 4.01172C7.99699 1.93535 7.99699 0.319973 12.947 0.0131346V0.0131346ZM56.3832 26.7714C55.3454 26.7714 54.0678 27.3866 51.9118 27.3866C47.8395 27.464 44.4067 24.1573 44.6456 20.0813C44.8854 15.9285 47.5998 13.0069 51.8314 12.9302H54.3865V5.47218C53.5884 4.7036 51.8314 4.7036 54.4669 3.39581C56.0638 3.08822 57.5006 3.01152 59.0976 3.16494C60.2954 3.39581 61.2536 4.54869 61.2536 5.31802V25.3109C61.4137 25.5411 61.573 25.6178 61.8924 25.7719C62.0524 25.8494 61.9728 26.1562 61.8127 26.3104C59.8956 28.0025 57.5803 27.2332 56.3832 26.7714ZM53.0293 14.8524C51.5924 14.6997 50.9529 17.0069 50.9529 20.0046C50.9529 23.0037 51.5917 25.0026 52.9489 24.9267C54.306 24.8492 54.9456 22.8495 54.9456 20.0046C54.8659 17.2371 54.5465 15.0065 53.0293 14.8524ZM80.016 25.8494V5.54889C79.5373 5.1646 78.4995 5.01043 78.8986 4.47272C78.979 4.31856 79.1391 4.16514 79.4577 4.01098C79.6178 3.85756 79.8583 3.70339 80.1769 3.54997C81.6145 2.78064 83.131 2.55051 84.7279 2.85735C85.9258 3.01152 86.8847 3.7801 86.9636 4.54868V25.3102C87.044 25.5403 87.6023 25.617 87.9225 25.7712C88.0826 25.8487 88.0029 26.1555 87.8421 26.3097C84.6467 28.9245 81.2139 27.464 80.016 25.8494V25.8494ZM89.7584 25.7727V15.3908C89.8388 15.0065 89.2797 14.9298 88.9595 14.6997C88.7994 14.3139 89.5186 13.5461 90.077 13.3919C91.4349 12.9309 92.871 12.6233 94.4695 13.0076C95.6673 13.1618 96.6247 13.7769 96.7052 14.5455V25.2342C96.8652 25.4644 97.6625 25.3117 97.743 25.6952C97.8234 25.8494 97.743 26.0795 97.5829 26.2337C94.389 28.6944 90.2371 27.6182 89.7584 25.7727V25.7727ZM9.11444 13.0076V23.0811C9.83286 25.6178 15.6622 26.0788 17.2591 23.0811V12.9309C14.704 14.0078 12.0685 14.1612 9.11444 13.0076V13.0076ZM27.6387 26.9256H34.3457V16.1601C34.3457 14.623 36.4221 14.9298 36.4221 16.2376V25.3884C36.4221 26.542 38.6578 27.5415 40.8131 27.1572C41.8509 27.003 42.8894 27.003 44.0069 26.1562C44.8846 25.0801 43.1284 25.6952 42.8887 24.6191V14.3914C41.6915 11.7773 37.3795 12.5466 34.2653 13.6995C32.1889 12.239 28.5961 12.239 26.9991 13.8529C26.44 14.3914 27.7176 14.3139 27.6379 14.7749V26.9256H27.6387V26.9256ZM78.5799 13.2385H71.9525V23.9264C71.9525 25.4636 69.7965 25.1568 69.7965 23.9264L69.8762 14.6997C69.8762 13.6995 67.5608 12.6233 65.4845 13.0076C64.4467 13.2385 63.3292 13.2385 62.211 14.0845C61.4121 15.0065 63.0895 14.3914 63.3292 15.4675V25.6945C64.5263 28.3853 68.918 27.6175 71.9518 26.5413C74.0282 27.9243 77.6203 27.9243 79.1375 26.3097C79.6966 25.7712 78.4183 25.7712 78.5784 25.3102V13.2385H78.5799V13.2385ZM98.541 27.5415H105.247V16.7761C105.247 15.2389 107.403 15.5457 107.403 16.7761L107.324 26.0043C107.324 27.0805 109.639 28.0799 111.715 27.7716C112.752 27.5415 113.871 27.5415 114.989 26.6954C115.786 25.696 114.03 26.3111 113.791 25.235V15.0065C112.593 12.3924 108.281 13.1618 105.247 14.2387C103.091 12.8542 99.4976 12.8542 97.9015 14.3914C97.3424 14.9298 98.6207 14.9298 98.5402 15.3149V27.5415H98.541V27.5415ZM135.989 3.47327H139.741C140.219 3.47327 140.54 3.55072 140.858 3.78084C141.259 4.01172 141.497 4.24185 141.657 4.54943C141.817 4.85702 141.898 5.1646 141.898 5.54889C141.898 5.85648 141.817 6.08735 141.737 6.31823C141.577 6.62581 141.337 6.77923 141.018 6.93339C140.778 7.08755 140.379 7.16426 139.98 7.16426L141.577 9.77835H139.98L138.622 7.16426H137.345V9.77835H135.989V3.47327ZM137.345 4.47272V6.08735H139.342C139.741 6.08735 140.061 6.0099 140.219 5.85648C140.46 5.70231 140.54 5.54889 140.54 5.31802C140.54 5.08715 140.459 4.85627 140.219 4.70285C139.98 4.54869 139.741 4.47198 139.342 4.47198H137.345V4.47272V4.47272ZM132.556 6.47239C132.556 7.47185 132.714 8.31789 133.115 9.08647C133.514 9.85506 133.993 10.5477 134.551 11.0087C135.19 11.5471 135.828 11.9314 136.548 12.1623C137.186 12.3932 137.904 12.5473 138.463 12.5473C139.503 12.5473 140.46 12.3165 141.338 11.8555C142.297 11.3937 143.094 10.7786 143.733 9.85581C144.292 9.01051 144.613 8.01031 144.692 6.85743C144.692 6.01139 144.532 5.2428 144.214 4.55018C143.893 3.78159 143.415 3.16642 142.856 2.55125C142.297 2.0128 141.658 1.5518 140.939 1.24421C140.219 0.93663 139.503 0.705756 138.783 0.705756C137.824 0.705756 136.947 0.93663 136.148 1.24421C135.351 1.5518 134.712 2.0128 134.153 2.55125C133.68 3.09184 133.278 3.68581 132.955 4.32005C132.714 5.01192 132.556 5.62709 132.556 6.24226V6.47239V6.47239ZM133.673 6.62581V6.77923C133.673 7.24097 133.752 7.77943 133.992 8.31715C134.232 8.85486 134.551 9.39331 134.949 9.85431C135.429 10.3161 135.908 10.6237 136.467 10.9312C137.106 11.2388 137.745 11.393 138.462 11.393H138.622C139.182 11.393 139.74 11.2388 140.299 11.0854C140.858 10.8545 141.337 10.5469 141.817 10.1626C142.296 9.77835 142.614 9.3166 142.935 8.77889C143.253 8.16372 143.413 7.54856 143.494 6.85668V6.70252V6.47164C143.494 5.77976 143.253 5.01043 142.774 4.31856C142.296 3.54997 141.657 3.01151 140.938 2.54977C140.139 2.16547 139.421 1.9346 138.783 1.9346C137.505 1.9346 136.547 2.24218 135.828 2.70393C135.109 3.16493 134.551 3.7801 134.312 4.39527C133.992 5.08789 133.751 5.77976 133.673 6.62581V6.62581Z" fill="#1778F2"/>
</svg>
