<svg width="128" height="23" viewBox="0 0 128 23" fill="none" xmlns="http://www.w3.org/2000/svg">
<path fill-rule="evenodd" clip-rule="evenodd" d="M10.0386 22.1804L11.663 18.188H12.1057L13.582 22.1804H13.1386L12.6958 20.85H10.9241L10.4814 22.1804H10.0386ZM11.0722 20.5549H12.5485L11.8096 18.4839L11.0722 20.5549ZM15.7958 19.3708H16.0919V22.1804H15.7958V19.3708ZM15.6485 18.188H16.0919V18.6315H15.6485V18.188ZM18.8965 22.1804H18.6004V19.3708H18.8965V19.8156C19.0439 19.3708 19.3393 19.2225 19.782 19.2225V19.6673C19.0446 19.5197 18.8965 20.1107 18.8965 20.7018V22.1804ZM28.0498 19.3708C27.9011 18.6321 27.459 18.4839 26.7209 18.4839C25.8354 18.4839 25.3919 19.2225 25.3919 20.1114C25.3919 20.9983 25.688 21.8852 26.8682 21.8852C27.459 21.8852 27.9018 21.4418 28.0498 20.8507H28.4926C28.1972 21.5894 27.7537 22.3287 26.7209 22.3287C25.5393 22.3287 25.0965 21.2942 25.0965 20.2597C25.0965 18.6321 25.8354 18.0411 26.8682 18.0411C27.6071 18.0411 28.1972 18.4846 28.3445 19.3714L28.0498 19.3708ZM32.036 20.5549C32.1834 20.5549 32.3314 20.4073 32.4788 20.4073C32.6261 20.4073 32.6261 20.2597 32.6261 20.1114C32.6261 19.8156 32.4788 19.5204 31.8887 19.5204C31.4452 19.5204 31.1498 19.668 31.0025 20.1114H30.7071C30.8544 19.5204 31.2972 19.2232 31.8887 19.2232C32.4788 19.2232 32.9222 19.5204 32.9222 20.1114V21.7369C32.9222 21.8845 33.0696 22.0328 33.2176 21.8845V22.1804H32.9216C32.6255 22.1804 32.6255 22.0328 32.6255 21.7369C32.3301 22.0328 32.0353 22.1804 31.5919 22.1804C31.0018 22.1804 30.559 22.0328 30.559 21.4418C30.559 20.9983 31.0018 20.7032 31.5919 20.5549H32.036ZM32.6261 20.7025C32.3307 20.85 32.036 20.85 31.7399 20.85C31.2972 20.85 31.0025 20.9976 31.0025 21.4411C31.0025 21.7369 31.2979 21.8845 31.5926 21.8845C32.036 21.8845 32.6261 21.7369 32.6261 21.1459V20.7025ZM35.4314 18.188H35.8742V22.1804H35.4314V18.188ZM39.1215 19.0749L39.7124 18.188H40.1551L39.4163 19.0749H39.1215ZM40.3032 20.5549C40.3032 19.9638 40.0077 19.5204 39.4169 19.5204C38.8261 19.5204 38.5307 19.9638 38.5307 20.5549H40.3032ZM38.5314 20.85C38.5314 21.4411 38.8268 21.8845 39.4176 21.8845C39.8611 21.8845 40.1565 21.7369 40.3038 21.2935H40.5979C40.4505 21.8845 40.1551 22.1804 39.4163 22.1804C38.5301 22.1804 38.0873 21.5894 38.0873 20.7025C38.0873 19.9638 38.6781 19.2225 39.4163 19.2225C40.1551 19.2225 40.7452 19.8156 40.7452 20.85H38.5314ZM45.1749 18.188H45.4703V22.1804H45.1749V21.5894C45.0275 22.0328 44.5848 22.1804 44.1413 22.1804C43.2551 22.1804 42.9597 21.5894 42.9597 20.7025C42.9597 19.9638 43.2551 19.2225 44.1413 19.2225C44.5848 19.2225 45.0275 19.3701 45.1749 19.8156V18.188ZM44.1413 19.5204C43.5512 19.5204 43.2551 20.1114 43.2551 20.8507C43.2551 21.59 43.6986 21.8852 44.1413 21.8852C44.8802 21.8852 45.1749 21.4418 45.1749 20.7032C45.1749 20.1114 44.7314 19.5204 44.1413 19.5204ZM47.8321 20.7025C47.8321 19.9638 48.2756 19.2225 49.0137 19.2225C49.8999 19.2225 50.342 19.9632 50.342 20.7025C50.342 21.5894 49.8992 22.1804 49.0137 22.1804C48.4222 22.1804 47.8321 21.7369 47.8321 20.7025ZM49.0123 19.5204C48.4222 19.5204 48.1261 20.1114 48.1261 20.7025C48.1261 21.4411 48.4222 21.8845 49.0123 21.8845C49.7512 21.8845 50.0459 21.2935 50.0459 20.7025C50.0459 20.1114 49.7512 19.5204 49.0123 19.5204ZM52.9992 22.1804H52.7038V19.3708H52.9992V19.668C53.2946 19.3708 53.442 19.2232 53.8847 19.2232C54.1801 19.2232 54.4749 19.3708 54.7703 19.668C54.9176 19.8156 54.9176 20.1114 54.9176 20.259V22.1804H54.6222V20.259C54.6222 19.8156 54.3268 19.5204 53.8847 19.5204C53.442 19.5204 53.1473 19.8163 52.9992 20.1114V22.1804ZM57.4282 19.3708H57.7236V22.1804H57.4282V19.3708ZM57.4282 18.188H57.7236V18.6315H57.4282V18.188ZM60.3808 20.85C60.3808 21.4411 60.6762 21.8845 61.2663 21.8845C61.7091 21.8845 62.1519 21.7369 62.1519 21.2935H62.5946C62.4473 21.8845 62.0045 22.1804 61.2663 22.1804C60.3808 22.1804 60.0861 21.5894 60.0861 20.7025C60.0861 19.9638 60.5289 19.2225 61.2663 19.2225C62.1519 19.2225 62.5946 19.8156 62.5946 20.85H60.3808ZM62.2999 20.5549C62.2999 19.9638 61.8571 19.5204 61.267 19.5204C60.8243 19.5204 60.3815 19.9638 60.3815 20.5549H62.2999ZM68.2045 18.188H68.6473V22.1804H68.2045V18.188ZM71.4532 22.1804H71.1578V19.3708H71.4532V19.668C71.7486 19.3708 72.0433 19.2232 72.4861 19.2232C72.7815 19.2232 73.0762 19.3708 73.2236 19.668C73.3709 19.8156 73.3709 20.1114 73.3709 20.259V22.1804H73.0755V20.259C73.0755 19.8156 72.9282 19.5204 72.3381 19.5204C72.0427 19.5204 71.7479 19.8163 71.5999 20.1114C71.4525 20.259 71.4525 20.4073 71.4525 20.7025V22.1804H71.4532ZM76.9151 22.1804H76.4723C76.1769 22.1804 76.0295 22.0328 76.0295 21.7369V19.668H75.5868V19.3708H76.0295V18.4839H76.3249V19.3708H76.9151V19.668H76.3249V21.5894C76.3249 21.8852 76.3249 21.8852 76.6203 21.8852H76.9157V22.1804H76.9151ZM79.2776 20.85C79.2776 21.4411 79.573 21.8845 80.1631 21.8845C80.6059 21.8845 80.9013 21.7369 81.0486 21.2935H81.344C81.1967 21.8845 80.9013 22.1804 80.1638 22.1804C79.2783 22.1804 78.8355 21.5894 78.8355 20.7025C78.8355 19.9638 79.4256 19.2225 80.1638 19.2225C80.9019 19.2225 81.4921 19.8156 81.4921 20.85H79.2776ZM81.0486 20.5549C81.0486 19.9638 80.7532 19.5204 80.1631 19.5204C79.573 19.5204 79.2776 19.9638 79.2776 20.5549H81.0486ZM84.0026 22.1804H83.7072V19.3708H84.0026V19.8156C84.298 19.3708 84.5927 19.2225 85.0355 19.2225V19.6673C84.298 19.5197 84.0026 20.1107 84.0026 20.7018V22.1804ZM87.544 22.1804H87.2486V19.3708H87.544V19.668C87.8394 19.3708 87.9881 19.2232 88.4309 19.2232C88.7263 19.2232 89.021 19.3708 89.3164 19.668C89.4638 19.8156 89.4638 20.1114 89.4638 20.259V22.1804H89.1684V20.259C89.1684 19.8156 88.873 19.5204 88.4302 19.5204C87.9875 19.5204 87.6907 19.8163 87.5433 20.1114V22.1804H87.544ZM93.1559 20.5549C93.3033 20.5549 93.4513 20.4073 93.5987 20.4073C93.7461 20.4073 93.7461 20.2597 93.7461 20.1114C93.7461 19.8156 93.4507 19.5204 93.0079 19.5204C92.5651 19.5204 92.2684 19.668 92.121 20.1114H91.8256C91.973 19.5204 92.4178 19.2232 93.0079 19.2232C93.598 19.2232 94.0408 19.5204 94.0408 20.1114V21.7369C94.0408 21.8845 94.0408 22.0328 94.3362 21.8845V22.1804H94.0408C93.7454 22.1804 93.7454 22.0328 93.7454 21.7369C93.45 22.0328 93.0072 22.1804 92.7104 22.1804C92.1203 22.1804 91.6776 22.0328 91.6776 21.4418C91.6776 20.9983 92.1203 20.7032 92.7104 20.5549H93.1559ZM93.7461 20.7025C93.4507 20.85 93.1559 20.85 92.8605 20.85C92.4178 20.85 92.121 20.9976 92.121 21.4411C92.121 21.7369 92.4178 21.8845 92.7111 21.8845C93.1553 21.8845 93.7461 21.7369 93.7461 21.1459V20.7025ZM97.5842 22.1804H97.1401C96.8447 22.1804 96.6973 22.0328 96.6973 21.7369V19.668H96.2546V19.3708H96.6973V18.4839H96.9927V19.3708H97.5849V19.668H96.9927V21.5894C96.9927 21.8852 96.9927 21.8852 97.2895 21.8852H97.5849V22.1804H97.5842ZM99.798 19.3708H100.093V22.1804H99.798V19.3708ZM99.798 18.188H100.093V18.6315H99.798V18.188ZM102.308 20.7025C102.308 19.9638 102.751 19.2225 103.636 19.2225C104.522 19.2225 104.964 19.9632 104.964 20.7025C104.964 21.5894 104.522 22.1804 103.636 22.1804C102.899 22.1804 102.308 21.7369 102.308 20.7025ZM103.637 19.5204C103.047 19.5204 102.751 20.1114 102.751 20.7025C102.751 21.4411 103.047 21.8845 103.637 21.8845C104.374 21.8845 104.67 21.2935 104.67 20.7025C104.67 20.1114 104.375 19.5204 103.637 19.5204ZM107.623 22.1804H107.18V19.3708H107.623V19.668C107.77 19.3708 108.066 19.2232 108.509 19.2232C108.804 19.2232 109.099 19.3708 109.394 19.668C109.541 19.8156 109.541 20.1114 109.541 20.259V22.1804H109.099V20.259C109.099 19.8156 108.951 19.5204 108.509 19.5204C108.066 19.5204 107.77 19.8163 107.623 20.1114V22.1804ZM113.233 20.5549C113.38 20.5549 113.528 20.4073 113.676 20.4073C113.823 20.4073 113.823 20.2597 113.823 20.1114C113.823 19.8156 113.528 19.5204 113.085 19.5204C112.642 19.5204 112.347 19.668 112.199 20.1114H111.904C111.904 19.5204 112.494 19.2232 113.084 19.2232C113.674 19.2232 114.117 19.5204 114.117 20.1114V21.7369C114.117 21.8845 114.117 22.0328 114.412 21.8845V22.1804H114.117C113.822 22.1804 113.822 22.0328 113.822 21.7369C113.526 22.0328 113.084 22.1804 112.789 22.1804C112.199 22.1804 111.756 22.0328 111.756 21.4418C111.756 20.9983 112.051 20.7032 112.789 20.5549H113.233ZM113.824 20.7025C113.528 20.85 113.234 20.85 112.938 20.85C112.495 20.85 112.201 20.9976 112.201 21.4411C112.201 21.7369 112.496 21.8845 112.791 21.8845C113.234 21.8845 113.824 21.7369 113.824 21.1459V20.7025ZM116.629 18.188H116.924V22.1804H116.629V18.188ZM-0.000244141 17.0059H127.848V16.5625H-0.000244141V17.0059Z" fill="#1778F2"/>
<path fill-rule="evenodd" clip-rule="evenodd" d="M16.8301 0.592984L4.1333 14.6404H9.59651L12.1057 11.8308H20.3728L21.4064 14.4908H27.6064C27.6064 14.4908 23.7682 0.74057 23.7682 0.592984H16.8301ZM14.6156 9.16877L19.1919 3.25434L20.2248 9.16877H14.6156ZM34.988 0.297812L34.1018 2.95917H39.2689L40.1551 0.297812H34.988ZM89.0217 14.3439L94.4842 14.4915L98.9132 0.297125H93.7467L89.0217 14.3439ZM84.8881 4.88053C81.05 4.14192 75.2921 3.6971 73.0769 7.54258H78.096C78.2433 7.09913 78.8355 6.36051 79.4256 6.21224C80.0157 6.06328 81.4914 5.76811 82.0815 6.5081C82.5242 7.09913 81.6387 8.42947 81.6387 8.42947C77.8006 8.28188 73.6656 8.13361 71.1571 10.9439C70.7144 11.535 70.2716 12.2743 70.8617 13.3087C71.5992 14.9363 73.5176 14.7887 75.1426 14.7887C77.061 14.9363 78.8334 14.048 80.1617 13.3087C80.1617 13.3087 80.0144 14.1956 80.0144 14.4908H85.0334C85.9189 10.9439 87.2465 6.655 87.2465 6.655C86.8065 5.02881 85.3309 5.02881 84.8881 4.88053ZM79.4256 12.2743C78.6861 12.5701 77.5058 13.0129 76.6203 12.5701C76.1776 12.1267 75.8829 11.3881 76.473 10.9446C77.8013 10.0563 79.2783 9.76049 81.0493 9.91013C81.0486 10.9439 80.1631 11.8308 79.4256 12.2743ZM125.192 5.62052C123.272 3.55089 119.138 4.58536 116.334 5.76811L116.63 4.58468H111.463L108.51 14.3425H113.676C113.676 14.3425 114.709 7.83706 117.515 6.655C118.547 6.35914 120.17 6.35914 120.318 7.54189C120.468 7.54189 118.695 14.3432 118.695 14.3432H124.011C124.011 14.3432 125.34 9.61222 125.488 9.46463C125.93 7.98602 126.077 7.09913 125.192 5.62052ZM47.6847 6.80396L48.2755 4.73295H42.9604L40.0084 14.4908H45.3236L47.0953 9.61222C48.1282 7.98671 50.3427 7.39568 52.4105 7.54326C53.0006 6.50879 53.1479 5.47362 53.4433 4.43778C51.3762 4.43778 48.8657 5.17639 47.6847 6.80396ZM69.6822 7.98602C69.5328 6.06397 67.3197 5.02812 67.3197 5.02812C62.8907 3.40261 58.1663 4.2895 54.9183 7.54258C53.8854 8.57705 53.1473 10.3522 53.59 12.126C53.8854 13.7515 55.8052 14.4908 56.9854 14.6404C61.4144 14.9363 66.7289 14.9363 68.9426 10.7963H63.4801C63.1847 11.535 62.5946 12.2743 62.0045 12.5701C61.119 12.7177 59.7893 13.0136 59.1992 12.1267C58.9038 10.2039 59.642 8.28257 60.8243 6.95223C61.8571 6.3612 63.1854 6.21361 64.2183 6.95223C64.661 7.54326 64.3677 7.98671 64.3677 7.98671H69.6822V7.98602ZM30.559 14.4915H35.7261L38.8261 4.73295H33.3636L30.559 14.4915ZM103.489 0.00195312L102.604 2.8109H107.77L108.509 0.00195312H103.489ZM99.0598 14.3439H104.227L107.328 4.58536H101.863L99.0598 14.3439Z" fill="#1778F2"/>
</svg>
