<svg width="127" height="29" viewBox="0 0 127 29" fill="none" xmlns="http://www.w3.org/2000/svg">
<path fill-rule="evenodd" clip-rule="evenodd" d="M47.8634 0.872696H44.8938V27.1338H47.8634V0.872696ZM40.6458 0.872696H43.7167V28.4633L25.9021 0.872696H29.3836L40.6458 17.355V0.872696ZM41.413 27.1338L23.7011 0.00195312V24.2153H13.0537C6.60332 24.2153 2.91758 18.9433 2.91758 13.8749C2.91758 8.49944 7.47335 3.73875 13.4118 3.73875H22.6262V0.872696H13.2069C6.34735 0.872696 -0.000244141 6.45236 -0.000244141 13.8239C-0.000244141 20.2735 4.7094 27.082 13.3097 27.082H26.7728V10.6501L37.9321 27.1338H41.413ZM13.0533 4.9158H22.6257V7.83434H13.8205C8.18979 7.83434 6.96097 12.2298 6.96097 13.721C6.96097 17.501 9.87879 20.1204 12.9505 20.1204H19.6569V14.0281H22.6257V23.0368C22.6257 23.0368 18.7351 23.0885 13.5653 23.0885C8.39544 23.0885 4.09492 19.5049 4.09492 13.9252C4.09492 8.14137 9.16264 4.9158 13.0533 4.9158ZM58.414 11.6682H54.5614V27.3006H57.5634V15.6099H57.608L63.5881 27.3006H67.417V11.6682H64.4172V23.3589H64.3719L58.414 11.6682ZM74.6489 27.5688C76.261 27.5688 77.5157 27.256 78.6122 26.6506H78.6115V24.2102C77.4927 24.8365 76.238 25.3743 74.782 25.3743C72.924 25.3743 71.624 24.3224 71.4903 22.463H79.4629C79.4629 18.4307 78.2534 15.497 73.9759 15.497C70.3923 15.497 68.6228 18.2524 68.6228 21.5894C68.6228 25.3736 70.8402 27.5688 74.6489 27.5688ZM74.1557 17.6922C75.8354 17.6922 76.5069 18.9469 76.5968 20.403H71.4903C71.624 18.8563 72.4746 17.6922 74.1557 17.6922ZM79.3241 17.9604H81.5416V23.8299C81.5416 26.1149 82.8409 27.5695 85.1928 27.5695C86.0887 27.5695 86.7826 27.4797 87.4103 27.3013L87.3204 24.9264C87.0076 25.1292 86.4921 25.2399 85.9542 25.2399C84.8124 25.2399 84.5428 24.3231 84.5428 23.3373V17.9612H87.2082V15.7667H84.5428V12.4965L81.5416 13.4593V15.766H79.3241V17.9604ZM93.814 17.8267C94.7322 17.8267 95.3153 18.005 95.8531 18.2524L96.122 15.8767C95.293 15.6315 94.4201 15.4963 93.2107 15.4963C89.604 15.4963 87.6339 18.1388 87.6339 21.4758C87.6339 24.9925 89.5365 27.5681 93.3229 27.5681C94.5531 27.5681 95.449 27.4559 96.3226 27.1877L96.1889 24.702C95.6734 24.9249 94.7329 25.2384 93.8815 25.2384C91.7762 25.2384 90.7682 23.6041 90.7682 21.4765C90.7682 19.3043 91.956 17.8267 93.814 17.8267ZM108.389 21.6117C108.389 17.8044 105.769 15.497 102.342 15.497C98.9378 15.497 96.3169 17.8044 96.3169 21.6117C96.3169 24.9257 98.5344 27.5688 102.342 27.5688C106.171 27.5688 108.389 24.9257 108.389 21.6117ZM105.253 21.2536C105.253 23.1791 104.649 25.2392 102.342 25.2392C100.057 25.2392 99.4526 23.1569 99.4526 21.2536C99.4526 19.5286 100.394 17.8267 102.342 17.8267C104.312 17.8267 105.253 19.4841 105.253 21.2536ZM112.235 15.766H109.437V27.3021H112.438V21.703C112.438 20.2016 112.684 17.8281 114.677 17.8281C116.401 17.8281 116.401 19.3503 116.401 20.426V27.3013H119.403V21.7023C119.403 20.2009 119.649 17.8274 121.642 17.8274C123.366 17.8274 123.366 19.3496 123.366 20.4253V27.3006H126.367V20.0204C126.367 17.4463 125.561 15.497 122.717 15.497C121.306 15.497 119.805 16.147 119.111 17.5348C118.462 16.1025 117.319 15.497 115.707 15.497C114.586 15.497 113.221 15.9673 112.28 17.3787H112.235V15.766Z" fill="#1778F2"/>
<path fill-rule="evenodd" clip-rule="evenodd" d="M47.8634 0.872696H44.8938V27.1338H47.8634V0.872696ZM40.6458 0.872696H43.7167V28.4633L25.9021 0.872696H29.3836L40.6458 17.355V0.872696ZM41.413 27.1338L23.7011 0.00195312V24.2153H13.0537C6.60332 24.2153 2.91758 18.9433 2.91758 13.8749C2.91758 8.49944 7.47335 3.73875 13.4118 3.73875H22.6262V0.872696H13.2069C6.34735 0.872696 -0.000244141 6.45236 -0.000244141 13.8239C-0.000244141 20.2735 4.7094 27.082 13.3097 27.082H26.7728V10.6501L37.9321 27.1338H41.413ZM13.0533 4.9158H22.6257V7.83434H13.8205C8.18979 7.83434 6.96097 12.2298 6.96097 13.721C6.96097 17.501 9.87879 20.1204 12.9505 20.1204H19.6569V14.0281H22.6257V23.0368C22.6257 23.0368 18.7351 23.0885 13.5653 23.0885C8.39544 23.0885 4.09492 19.5049 4.09492 13.9252C4.09492 8.14137 9.16264 4.9158 13.0533 4.9158ZM58.414 11.6682H54.5614V27.3006H57.5634V15.6099H57.608L63.5881 27.3006H67.417V11.6682H64.4172V23.3589H64.3719L58.414 11.6682ZM74.6489 27.5688C76.261 27.5688 77.5157 27.256 78.6122 26.6506H78.6115V24.2102C77.4927 24.8365 76.238 25.3743 74.782 25.3743C72.924 25.3743 71.624 24.3224 71.4903 22.463H79.4629C79.4629 18.4307 78.2534 15.497 73.9759 15.497C70.3923 15.497 68.6228 18.2524 68.6228 21.5894C68.6228 25.3736 70.8402 27.5688 74.6489 27.5688ZM74.1557 17.6922C75.8354 17.6922 76.5069 18.9469 76.5968 20.403H71.4903C71.624 18.8563 72.4746 17.6922 74.1557 17.6922ZM79.3241 17.9604H81.5416V23.8299C81.5416 26.1149 82.8409 27.5695 85.1928 27.5695C86.0887 27.5695 86.7826 27.4797 87.4103 27.3013L87.3204 24.9264C87.0076 25.1292 86.4921 25.2399 85.9542 25.2399C84.8124 25.2399 84.5428 24.3231 84.5428 23.3373V17.9612H87.2082V15.7667H84.5428V12.4965L81.5416 13.4593V15.766H79.3241V17.9604ZM93.814 17.8267C94.7322 17.8267 95.3153 18.005 95.8531 18.2524L96.122 15.8767C95.293 15.6315 94.4201 15.4963 93.2107 15.4963C89.604 15.4963 87.6339 18.1388 87.6339 21.4758C87.6339 24.9925 89.5365 27.5681 93.3229 27.5681C94.5531 27.5681 95.449 27.4559 96.3226 27.1877L96.1889 24.702C95.6734 24.9249 94.7329 25.2384 93.8815 25.2384C91.7762 25.2384 90.7682 23.6041 90.7682 21.4765C90.7682 19.3043 91.956 17.8267 93.814 17.8267ZM108.389 21.6117C108.389 17.8044 105.769 15.497 102.342 15.497C98.9378 15.497 96.3169 17.8044 96.3169 21.6117C96.3169 24.9257 98.5344 27.5688 102.342 27.5688C106.171 27.5688 108.389 24.9257 108.389 21.6117ZM105.253 21.2536C105.253 23.1791 104.649 25.2392 102.342 25.2392C100.057 25.2392 99.4526 23.1569 99.4526 21.2536C99.4526 19.5286 100.394 17.8267 102.342 17.8267C104.312 17.8267 105.253 19.4841 105.253 21.2536ZM112.235 15.766H109.437V27.3021H112.438V21.703C112.438 20.2016 112.684 17.8281 114.677 17.8281C116.401 17.8281 116.401 19.3503 116.401 20.426V27.3013H119.403V21.7023C119.403 20.2009 119.649 17.8274 121.642 17.8274C123.366 17.8274 123.366 19.3496 123.366 20.4253V27.3006H126.367V20.0204C126.367 17.4463 125.561 15.497 122.717 15.497C121.306 15.497 119.805 16.147 119.111 17.5348C118.462 16.1025 117.319 15.497 115.707 15.497C114.586 15.497 113.221 15.9673 112.28 17.3787H112.235V15.766Z" fill="#1778F2"/>
</svg>
