<svg width="127" height="45" viewBox="0 0 127 45" fill="none" xmlns="http://www.w3.org/2000/svg">
<g opacity="0.6">
<path fill-rule="evenodd" clip-rule="evenodd" d="M5.18844 20.0443C5.15068 20.044 5.11407 20.0309 5.08433 20.007C5.05458 19.9831 5.03338 19.9498 5.02401 19.9123L0.00480485 0.212133C-0.00134461 0.187264 -0.00188421 0.161285 0.00322707 0.13617C0.00833835 0.111056 0.0189658 0.0874685 0.034301 0.0672024C0.0496362 0.0469362 0.0692751 0.0305241 0.0917233 0.0192175C0.114172 0.00791098 0.138838 0.00200652 0.163845 0.00195312C0.186758 0.00195312 0.207649 0.00748672 0.227866 0.0164746L5.18844 2.33121L10.149 0.0164746C10.1691 0.00704704 10.1909 0.00209603 10.213 0.00195312C10.238 0.00200652 10.2627 0.00791098 10.2852 0.0192175C10.3076 0.0305241 10.3273 0.0469362 10.3426 0.0672024C10.3579 0.0874685 10.3685 0.111056 10.3737 0.13617C10.3788 0.161285 10.3782 0.187264 10.3721 0.212133L5.35288 19.9116C5.34364 19.9492 5.32248 19.9827 5.29273 20.0067C5.26298 20.0307 5.2263 20.044 5.18844 20.0443V20.0443ZM5.18844 18.5834L9.73457 0.752789L5.18844 2.87186L0.642314 0.752789L5.18844 18.5834ZM5.18844 17.1454L1.172 1.39785L5.18777 3.27079L9.20421 1.39785L5.18844 17.1454V17.1454ZM5.18507 3.82113L4.88317 5.27371L2.65997 5.58345L4.88317 5.8925L5.18507 7.34508L5.48631 5.8925L7.71018 5.58345L5.48631 5.27371L5.18507 3.82113ZM64.8165 14.9136H63.1607C63.0941 14.9136 63.0303 14.8865 62.9832 14.8383C62.9361 14.7901 62.9095 14.7247 62.9093 14.6564V5.19904C62.9093 5.05662 63.0219 4.94185 63.1607 4.94185H64.8165C64.956 4.94185 65.0678 5.05731 65.0678 5.19904V14.6564C65.0678 14.6902 65.0613 14.7237 65.0487 14.755C65.036 14.7862 65.0175 14.8146 64.9942 14.8385C64.9708 14.8624 64.9431 14.8813 64.9126 14.8942C64.8821 14.9071 64.8494 14.9137 64.8165 14.9136V14.9136ZM22.2347 4.94462C24.2376 4.94462 25.613 6.63988 25.613 8.71609C25.613 10.7923 24.2396 12.4889 22.2368 12.4889L17.4709 12.491C17.4044 12.491 17.3406 12.4639 17.2934 12.4157C17.2463 12.3675 17.2198 12.3021 17.2196 12.2338V10.7238C17.2196 10.5814 17.3321 10.466 17.4709 10.466L21.9362 10.4673C22.8628 10.4673 23.499 9.67226 23.499 8.71124C23.499 7.75023 22.8642 6.96551 21.9369 6.96551L16.7324 6.96621C16.6659 6.96639 16.6023 6.99355 16.5553 7.04174C16.5083 7.08993 16.4818 7.15524 16.4817 7.2234V14.6557C16.4817 14.7239 16.4552 14.7893 16.4082 14.8376C16.3612 14.8858 16.2975 14.9129 16.231 14.9129H14.5691C14.5026 14.9129 14.4387 14.8858 14.3916 14.8376C14.3445 14.7894 14.3179 14.724 14.3178 14.6557V5.20457C14.3178 5.06215 14.4303 4.94738 14.5685 4.94738L22.2347 4.94462V4.94462ZM30.8856 14.9129C28.124 14.7027 26.6454 12.5885 26.6454 9.93153C26.6454 7.30221 28.1442 5.10018 30.9166 4.95015C31.9996 4.89207 33.4067 4.90521 34.4397 4.9543C37.2829 5.08842 38.746 7.37273 38.746 9.93153C38.746 12.5954 37.2425 14.7352 34.4862 14.9136C33.4835 14.9793 31.9349 14.9931 30.8856 14.9129ZM34.0388 12.8885C35.6696 12.7648 36.5814 11.5653 36.5814 9.92876C36.5814 8.29227 35.6406 7.05816 34.0085 6.97243C33.3784 6.93924 31.9962 6.92265 31.3405 6.97105C29.6099 7.09964 28.8006 8.40082 28.8006 9.92876C28.8006 11.4367 29.5829 12.7102 31.3095 12.8885C31.9369 12.9528 33.3898 12.9376 34.0388 12.8885V12.8885ZM89.0081 12.8872C89.1463 12.8872 89.2514 13.0026 89.2514 13.1457V14.6557C89.2523 14.6892 89.2467 14.7225 89.2349 14.7537C89.2231 14.7849 89.2053 14.8133 89.1827 14.8374C89.16 14.8615 89.1329 14.8807 89.103 14.8939C89.073 14.9071 89.0407 14.914 89.0081 14.9143L82.9336 14.9177C79.9994 14.9177 78.403 12.5442 78.403 9.93291C78.403 7.27525 80.0311 4.93839 82.8844 4.93839L88.9953 4.94116C89.1335 4.94116 89.2494 5.05731 89.2494 5.19974V6.70971C89.2494 6.85213 89.1416 6.96759 89.0021 6.96759L83.1924 6.96482C81.4193 6.96482 80.5588 8.39459 80.5588 9.92945C80.5588 11.4857 81.4497 12.8879 83.1924 12.8879C84.396 12.8865 88.9306 12.8872 89.0081 12.8872V12.8872ZM46.9426 14.0494L42.6067 7.54696C42.5867 7.51811 42.5602 7.49459 42.5295 7.47835C42.4988 7.46212 42.4647 7.45364 42.4302 7.45363C42.402 7.45317 42.374 7.45846 42.3478 7.46919C42.3216 7.47992 42.2978 7.49588 42.2777 7.51614C42.2575 7.5364 42.2415 7.56056 42.2306 7.58721C42.2196 7.61386 42.2139 7.64249 42.2139 7.67141V14.6453C42.2139 14.7136 42.1875 14.7791 42.1405 14.8274C42.0935 14.8758 42.0297 14.903 41.9632 14.9032H40.3067C40.2737 14.9032 40.241 14.8966 40.2105 14.8836C40.18 14.8706 40.1523 14.8516 40.129 14.8277C40.1056 14.8038 40.0871 14.7753 40.0745 14.744C40.0619 14.7127 40.0554 14.6792 40.0554 14.6453L40.054 7.13628C40.056 6.53556 40.29 5.96015 40.7049 5.53621C41.1198 5.11228 41.6816 4.87442 42.2671 4.87479C43.0239 4.87479 43.6917 5.26542 44.0886 5.86208L48.4245 12.4074C48.4445 12.4363 48.471 12.4599 48.5017 12.4761C48.5324 12.4924 48.5665 12.5008 48.6011 12.5007C48.6293 12.5012 48.6573 12.496 48.6835 12.4854C48.7097 12.4747 48.7336 12.4589 48.7538 12.4387C48.774 12.4185 48.7901 12.3944 48.8011 12.3677C48.8121 12.3411 48.8179 12.3125 48.8181 12.2836V5.19904C48.8181 5.05662 48.9306 4.94185 49.0688 4.94185H50.7252C50.864 4.94185 50.9766 5.05731 50.9766 5.19904L50.9786 12.7752C50.9786 14.1669 50.2299 15.0152 48.8174 15.0152C48.0593 15.0152 47.3395 14.646 46.9426 14.0494V14.0494ZM58.0963 7.22962L58.099 14.6564C58.099 14.6902 58.0925 14.7237 58.0799 14.755C58.0672 14.7862 58.0487 14.8146 58.0254 14.8385C58.002 14.8624 57.9743 14.8813 57.9438 14.8942C57.9133 14.9071 57.8806 14.9137 57.8477 14.9136H56.1872C56.1206 14.9136 56.0568 14.8865 56.0097 14.8383C55.9625 14.7901 55.936 14.7247 55.9358 14.6564L55.9378 7.22271C55.9378 7.18887 55.9313 7.15537 55.9187 7.12413C55.906 7.09288 55.8875 7.06449 55.8642 7.0406C55.8408 7.01671 55.8131 6.99778 55.7826 6.98489C55.7521 6.97201 55.7194 6.96542 55.6865 6.96551L52.1101 6.96621C52.0771 6.96621 52.0444 6.95954 52.0139 6.94658C51.9834 6.93362 51.9557 6.91462 51.9323 6.89067C51.909 6.86673 51.8905 6.8383 51.8778 6.80701C51.8652 6.77572 51.8587 6.74219 51.8587 6.70832V5.19835C51.8587 5.05593 51.9713 4.94116 52.1101 4.94116H61.8641C62.0029 4.94116 62.1155 5.05662 62.1155 5.19835V6.71593C62.1155 6.78432 62.089 6.84992 62.0418 6.89828C61.9947 6.94664 61.9308 6.97381 61.8641 6.97381L58.347 6.9669C58.28 6.96835 58.2163 6.99666 58.1694 7.04577C58.1226 7.09489 58.0963 7.16089 58.0963 7.22962V7.22962ZM75.6528 13.0773L70.2366 13.078C70.0985 13.078 69.9981 12.9625 70.0776 12.8208L70.9254 11.3108C71.0056 11.1684 71.203 11.0529 71.3425 11.0529H74.2315C74.2751 11.0524 74.3178 11.0402 74.3553 11.0175C74.3928 10.9947 74.4239 10.9622 74.4453 10.9233C74.4667 10.8844 74.4778 10.8403 74.4774 10.7956C74.477 10.7509 74.4652 10.7071 74.4431 10.6685L72.6559 7.49926C72.6376 7.46713 72.6116 7.44038 72.5803 7.42156C72.549 7.40274 72.5135 7.39249 72.4772 7.3918C72.441 7.39111 72.4051 7.39999 72.3732 7.41759C72.3412 7.4352 72.3142 7.46094 72.2947 7.49234L68.2527 14.6564C68.1806 14.7954 68.0471 14.9136 67.9076 14.9136H66.1414C65.8913 14.9136 65.8873 14.7594 65.9648 14.6156L71.0258 5.6519C71.2785 5.21495 71.8338 4.88309 72.4733 4.88309C73.1263 4.88309 73.6762 5.23016 73.9276 5.67264L78.9805 14.6156C79.0593 14.7594 79.0539 14.9136 78.8039 14.9136H77.0376C76.8995 14.9136 76.7654 14.7954 76.6926 14.6564L75.8765 13.2107C75.8541 13.1701 75.8216 13.1363 75.7823 13.1129C75.743 13.0894 75.6983 13.0772 75.6528 13.0773ZM90.3256 5.94158C90.3259 5.82224 90.3491 5.70412 90.3939 5.59398C90.4387 5.48384 90.5043 5.38383 90.5867 5.29966C90.6692 5.2155 90.767 5.14882 90.8746 5.10344C90.9822 5.05806 91.0975 5.03487 91.2138 5.03518C91.3301 5.0355 91.4453 5.05933 91.5526 5.10529C91.66 5.15126 91.7575 5.21847 91.8395 5.30309C91.9215 5.3877 91.9865 5.48806 92.0308 5.59845C92.075 5.70883 92.0976 5.82707 92.0973 5.94642C92.0967 6.18745 92.0027 6.41836 91.8362 6.58834C91.6696 6.75833 91.444 6.85346 91.2091 6.85282C90.9741 6.85218 90.7491 6.75582 90.5834 6.58493C90.4177 6.41404 90.325 6.18262 90.3256 5.94158V5.94158ZM91.9908 5.94158C91.9908 5.50187 91.6431 5.14512 91.2145 5.14512C90.7825 5.14512 90.4354 5.50187 90.4354 5.94158C90.4311 6.04915 90.448 6.15652 90.4851 6.25722C90.5222 6.35793 90.5788 6.44989 90.6514 6.52759C90.7241 6.60529 90.8113 6.66711 90.9078 6.70934C91.0043 6.75158 91.1082 6.77335 91.2131 6.77335C91.3181 6.77335 91.4219 6.75158 91.5185 6.70934C91.615 6.66711 91.7022 6.60529 91.7748 6.52759C91.8475 6.44989 91.9041 6.35793 91.9412 6.25722C91.9783 6.15652 91.9952 6.04915 91.9908 5.94158V5.94158ZM91.6552 6.45044H91.4989L91.2158 5.98929H91.0056V6.45044H90.8856V5.4348H91.2502C91.3634 5.4348 91.4254 5.43964 91.4989 5.48458C91.5737 5.52745 91.5966 5.63392 91.5966 5.71965C91.5966 5.91877 91.4753 5.98929 91.356 5.98929L91.6552 6.45044V6.45044ZM91.2482 5.87176C91.3877 5.87176 91.4679 5.85931 91.4679 5.70168C91.4679 5.60903 91.4416 5.54058 91.2691 5.54058H91.0042V5.87176H91.2482ZM6.71415 19.2257C6.71112 19.1044 6.73183 18.9836 6.77506 18.8706C6.81829 18.7576 6.88316 18.6546 6.96584 18.5677C7.04852 18.4809 7.14733 18.4119 7.25643 18.3649C7.36553 18.3179 7.48272 18.2938 7.60105 18.294C7.71939 18.2942 7.83648 18.3188 7.94541 18.3662C8.05434 18.4137 8.15289 18.483 8.23524 18.5702C8.3176 18.6574 8.38209 18.7606 8.4249 18.8738C8.46771 18.987 8.48797 19.1078 8.48449 19.2292C8.4777 19.4657 8.38124 19.6902 8.21563 19.8548C8.05001 20.0195 7.82831 20.1114 7.59768 20.1109C7.36705 20.1105 7.14569 20.0177 6.98069 19.8524C6.81569 19.6871 6.72006 19.4623 6.71415 19.2257V19.2257ZM8.37869 19.2257C8.37869 19.0141 8.29675 18.8112 8.15091 18.6616C8.00507 18.5119 7.80726 18.4279 7.60101 18.4279C7.39475 18.4279 7.19695 18.5119 7.0511 18.6616C6.90526 18.8112 6.82333 19.0141 6.82333 19.2257C6.82333 19.4373 6.90526 19.6403 7.0511 19.7899C7.19695 19.9395 7.39475 20.0236 7.60101 20.0236C7.80726 20.0236 8.00507 19.9395 8.15091 19.7899C8.29675 19.6403 8.37869 19.4373 8.37869 19.2257ZM8.04308 19.7353H7.88741L7.60438 19.2734H7.39412V19.7353H7.27349V18.7196H7.6374C7.75129 18.7196 7.81328 18.7238 7.88741 18.768C7.96154 18.8109 7.98445 18.9181 7.98445 19.0045C7.98445 19.2029 7.86315 19.2734 7.74455 19.2734L8.04308 19.7353V19.7353ZM7.63672 19.1559C7.77622 19.1559 7.85709 19.1434 7.85709 18.9858C7.85709 18.8925 7.83013 18.8254 7.65829 18.8254H7.39412V19.1566H7.63672V19.1559ZM106.577 32.3218L101.962 36.4362C100.784 36.5116 99.7083 36.589 99.1058 36.6498C98.2385 36.739 97.378 36.8324 96.5208 36.9305L101.136 32.8148C101.992 32.7159 102.853 32.6232 103.721 32.5354C104.324 32.4725 105.399 32.3958 106.577 32.3218ZM95.489 33.5843L90.8742 37.7C88.8895 38.016 86.886 38.3914 84.8273 38.8505L89.4421 34.7347C91.5009 34.2756 93.5057 33.9002 95.489 33.5843ZM69.428 44.002L73.4464 40.4372C75.0099 39.0703 76.6609 38.4751 78.2796 37.9213C79.7303 37.417 81.1912 36.9442 82.6613 36.5033L78.0465 40.6177C76.5766 41.0594 75.1157 41.5321 73.6648 42.0357C72.3439 42.5328 70.552 43.1675 69.428 44.002V44.002ZM111.202 28.1977C113.1 28.0761 115.268 27.9599 116.164 27.9184L116.401 27.9157L111.787 32.0314L111.549 32.0328C110.653 32.0757 108.485 32.1918 106.586 32.3135L111.202 28.1977V28.1977ZM100.108 29.4602C101.998 29.1588 103.872 28.9092 105.76 28.6921L101.145 32.8065C99.2575 33.0249 97.3834 33.2738 95.4931 33.576L100.108 29.4602V29.4602ZM87.2627 32.3861C89.5074 31.7127 91.7744 31.1205 94.0597 30.6106L89.4448 34.7264C87.1596 35.2363 84.8925 35.8284 82.6479 36.5019L87.2627 32.3861ZM115.817 24.082L111.202 28.1977C110.022 28.2731 108.948 28.3505 108.344 28.4114C107.478 28.4992 106.618 28.5925 105.759 28.6921L110.374 24.5763C111.235 24.4773 112.097 24.3842 112.959 24.297C113.564 24.2341 114.639 24.1573 115.817 24.082ZM104.722 25.3458L100.107 29.4602C98.0806 29.7827 96.0636 30.1663 94.059 30.6106L98.6739 26.4963C100.734 26.0372 102.737 25.6618 104.722 25.3458ZM78.7655 35.684L82.6627 32.2057C84.2437 30.8091 85.8031 30.2504 87.4959 29.6897C88.9464 29.1848 90.4073 28.7121 91.8776 28.2717L87.2627 32.3861C85.7926 32.8272 84.3317 33.3 82.881 33.8041C81.6309 34.2321 79.8882 34.891 78.7655 35.684V35.684ZM120.431 19.962C122.085 19.8568 123.739 19.7637 125.393 19.6827L125.632 19.68L121.017 23.7943L120.778 23.7971C119.882 23.8393 117.716 23.9561 115.817 24.0764L120.431 19.962ZM109.337 21.2245C111.229 20.9217 113.101 20.6735 114.99 20.455L110.375 24.5708C108.487 24.7879 106.614 25.0381 104.722 25.3389L109.337 21.2245V21.2245ZM96.4945 24.1573C98.8531 23.4514 101.104 22.8693 103.293 22.3819L98.6779 26.4976C96.3921 27.0063 94.1246 27.5981 91.8796 28.2717L96.4945 24.1573V24.1573ZM65.2437 17.4406C65.2302 17.5713 65.0887 17.5574 65.0186 17.63C63.4929 18.683 61.8958 19.4311 60.2852 20.2372C60.1854 20.0927 59.9442 20.0063 59.9718 19.8175C60.5055 18.7397 61.5797 18.0815 62.6404 17.8008C63.0926 17.6245 63.5441 17.4917 63.997 17.33C64.4081 17.386 64.7989 17.4143 65.2437 17.4406V17.4406ZM69.124 22.9557C69.6335 22.2021 70.368 21.5432 70.9206 20.9652C69.2096 21.7714 66.1966 22.8866 64.4701 24.1456C64.4135 24.1753 64.2989 24.1442 64.2989 24.0861C64.2976 23.869 64.3252 23.6651 64.3238 23.4328C65.4715 22.3943 66.5774 21.2508 67.6751 20.3375C64.7915 21.3462 59.1382 23.9202 55.5766 25.4336C55.2794 25.5608 54.9411 25.6486 54.6695 25.6562C54.5011 25.6618 54.1453 25.6887 54.0368 25.444C53.9491 25.2469 54.0758 24.9012 54.2248 24.6282C54.5678 23.9962 55.5166 22.8852 56.1878 22.2394C54.0947 23.2751 52.3122 24.1608 49.1328 25.4792C46.5356 26.5785 44.4613 27.2291 43.9188 27.2941C43.3757 27.3577 43.2308 27.2844 43.1021 27.0971C42.9969 26.9443 43.1021 26.508 43.2092 26.1734C43.4714 25.352 44.84 23.9361 46.4075 22.6384C46.1993 22.7034 45.8947 22.8084 45.5847 22.9301C44.1359 23.4974 42.713 24.1318 41.3203 24.8314C39.6234 25.6784 36.9857 27.189 35.274 28.3353C35.0725 28.4487 34.9425 28.3948 34.8286 28.2931C34.8286 28.2931 34.5853 28.065 34.5786 28.0325C34.5617 27.9544 34.6399 27.5707 34.8515 27.1897C35.1042 26.7956 35.3044 26.4036 35.6878 25.9867L35.6117 25.995C33.6156 27.1641 31.6127 28.4771 29.3673 29.3344C29.1274 29.4367 28.7655 29.5183 28.5748 29.4547C28.376 29.3544 28.3288 29.2092 28.2608 28.9617C28.2385 28.8477 28.2378 28.7303 28.2587 28.616L28.3153 28.4245C28.8484 27.1579 30.0533 25.9694 31.1336 24.9946C29.0701 25.9183 26.6818 27.0874 24.6898 28.1722C23.5596 28.7882 22.2408 29.5425 21.2252 30.1924L21.3472 30.2477C26.2761 31.7777 31.3533 33.7156 35.022 35.2761C35.6478 35.5419 36.274 35.8065 36.9008 36.0698C37.0592 36.1375 37.2809 36.3449 37.3133 36.3843C37.411 36.4963 37.7661 36.9693 37.8834 37.2569C37.8834 37.2569 37.8504 37.3405 37.7466 37.3011C37.347 37.1483 36.7196 36.9976 36.4338 36.916C36.3577 36.896 36.0281 36.7501 35.5732 36.562C30.4159 34.4354 25.582 32.9226 19.7737 31.1243C18.9825 31.6512 18.3854 32.6841 17.4945 32.9931C17.3955 32.8625 17.5505 32.7463 17.5073 32.5866C17.508 32.112 17.5826 31.6405 17.7284 31.19C17.8969 31.0013 18.1853 30.8582 18.3686 30.6687C16.2283 30.0181 14.1985 29.3821 12.1525 28.7757C12.1242 28.7612 12.1101 28.7315 12.1242 28.6879L13.2389 27.8693C20.5433 25.4806 26.047 23.2634 27.7964 21.9684C28.5869 21.3835 29.9448 20.1992 29.3127 19.1946C28.8551 18.4694 27.378 18.3048 25.8677 18.5129C22.6182 18.9623 19.6625 20.2711 15.9634 22.3667C11.5608 24.8618 8.87805 26.9049 5.20933 30.5498C3.76449 31.9837 3.32241 32.6551 2.38502 33.7018C2.36817 33.7205 2.36076 33.7516 2.32572 33.7585C2.15395 33.767 1.98313 33.7897 1.8149 33.8262C1.79805 33.8193 1.77042 33.7979 1.76773 33.7751C1.85196 33.1957 2.09255 32.5749 2.28528 32.1669C2.33515 32.0605 2.50565 31.7784 2.75701 31.4334C3.32511 30.6542 3.83458 30.0928 5.17227 28.661C8.22167 25.3997 11.6336 22.3127 15.1029 19.8003C17.2007 18.2813 19.3376 16.7603 21.6127 15.6022L21.6269 15.6389C21.4692 15.9237 21.3688 16.156 21.2589 16.4014C21.2138 16.4713 21.2286 16.4934 21.1235 16.5535C21.0878 16.6483 20.9537 16.7298 20.8674 16.7824C18.8336 17.9826 13.4404 22.135 11.5952 23.7667L11.5676 23.9437C13.8272 22.4081 18.3322 19.709 21.3358 18.5447C23.5556 17.6846 25.7067 17.0859 28.2533 17.0859C29.5931 17.0859 30.8553 17.5166 31.0918 18.6069C31.2475 19.328 30.9213 20.083 30.3364 20.7606C29.0843 22.2097 27.5471 23.271 24.4997 24.7457C22.3837 25.7703 17.909 27.5962 15.6892 28.3768C16.9224 28.7764 18.3848 29.2652 19.6038 29.6607C23.0677 27.6771 28.1455 25.0831 31.6795 23.645C34.9014 22.3328 37.3604 21.7029 38.2405 21.5667C38.6139 21.5156 38.9279 21.537 39.2541 21.6476C39.4293 21.7057 39.6631 21.8613 39.7198 22.1012C39.7278 22.1378 39.6962 22.1917 39.6706 22.2215C39.4118 22.5105 39.0223 22.5443 38.7271 22.7697C37.8726 22.8644 37.0161 22.9792 36.0457 23.3422C35.3374 23.6084 33.7079 24.2728 32.6775 25.0181C31.9429 25.5 31.0689 26.2999 30.4786 26.8841C30.2461 27.1137 30.0351 27.3688 30.0917 27.4635C30.1625 27.581 30.3876 27.4863 30.6342 27.3826C30.8795 27.2775 31.5103 26.9491 31.9483 26.714C34.4633 25.4827 36.9729 24.0308 39.3929 22.7386C39.5493 22.8534 39.7602 22.964 39.8599 23.1382C39.3727 23.7985 37.5444 25.1176 36.9905 25.8768C39.6537 24.3779 41.7994 23.2986 43.8049 22.431C46.2869 21.3586 48.5317 20.6617 51.1269 20.007C52.0252 19.7816 52.9942 19.5922 53.9721 19.7913C54.0004 19.7913 54.0145 19.821 54.0287 19.8355C54.0691 20.0312 53.9128 20.1058 53.9734 20.2268C53.8663 20.585 53.6223 20.7426 53.4666 20.9037C53.4462 20.9221 53.4214 20.9345 53.3948 20.9397C53.3681 20.945 53.3406 20.9428 53.315 20.9334C53.2517 20.9134 53.0461 20.8442 52.7853 20.8442C52.4646 20.847 51.6714 20.9431 50.1807 21.575C48.217 22.4054 45.8907 23.7695 44.5792 25.7344C44.6204 25.78 44.7154 25.753 44.7882 25.733C46.7054 25.2034 48.8437 24.3502 51.1417 23.4065C54.1149 22.1855 58.0532 20.4557 59.1274 20.016C59.2972 20.0443 59.4953 20.0298 59.6234 20.1743C59.7508 20.3043 59.8761 20.4771 59.8498 20.7239C59.8646 20.762 59.7777 20.8539 59.6638 20.9051C58.2156 21.5612 56.6266 22.6321 55.6669 24.0391C55.764 24.0605 55.8684 24.0066 56.0861 23.9216C58.9205 22.8154 63.9903 20.3838 68.0849 19.1303C68.4837 19.0097 68.8921 18.9253 69.3053 18.878C69.3714 18.8793 69.9004 19.0363 69.9159 19.3841C69.8316 19.4864 69.9132 19.6786 69.7892 19.7768C69.4327 20.0498 68.8194 20.4737 68.3888 20.8408C69.3855 20.3962 70.5655 19.9337 71.5319 19.6689C72.7442 19.3391 73.3036 19.4138 73.5731 19.3612C73.6419 19.3758 73.6419 19.5113 73.7362 19.6392C73.8245 19.7823 73.7402 19.969 73.6715 20.0146C72.753 20.7156 71.3573 21.5515 70.5244 22.5692C70.4509 22.6342 70.614 22.6121 70.6996 22.5803C71.6471 22.3141 76.7715 20.5089 77.4939 20.2656C78.2176 20.0222 79.4738 19.588 80.4779 19.2783C82.5852 18.7169 84.7174 18.1541 86.9575 17.9861C88.0343 17.9052 88.5687 17.955 88.7985 18.1091C89.029 18.2619 89.1645 18.4929 89.217 18.7017C89.2157 18.7839 88.9657 18.8192 88.7339 18.907C88.4717 19.0072 88.2352 19.1732 88.1651 19.1718C88.0917 19.162 88.018 19.1553 87.944 19.1517C87.1003 19.1034 85.8239 19.3073 84.8535 19.4338C83.7544 19.5769 82.0306 19.9102 80.0715 20.5732C77.9932 21.277 76.2782 22.1371 75.0557 23.0891C74.6069 23.4376 74.4189 23.7536 74.5449 23.8967C74.7545 24.1345 75.5625 24.0128 76.0227 23.9465C76.483 23.8801 79.9017 22.8402 82.1458 21.9871C84.3885 21.1339 86.2168 20.3845 87.94 19.4622C88.1374 19.4179 88.3794 19.261 88.5492 19.1732C88.7332 19.2299 88.8033 19.4152 88.9596 19.5299C88.9791 19.615 88.7399 19.877 88.5937 20.054C88.4239 20.2607 86.638 22.1143 86.0046 22.6978C92.2685 21.0869 98.8046 19.8431 106.34 18.8669C116.038 17.6093 124.356 17.6245 125.762 17.684C125.946 17.8713 125.962 18.1486 126.077 18.394C126.063 18.4085 126.077 18.4237 126.048 18.4382C124.602 18.3656 116.009 18.6028 106.774 19.8466C98.1098 21.0593 91.3088 22.303 83.8063 24.5217C80.1066 27.4289 76.2937 30.2283 73.1385 32.2375C70.3627 34.0053 67.9528 35.3079 66.2337 36.0698C65.7505 36.2834 65.1817 36.5475 64.7834 36.3332C64.6332 36.2523 64.5819 35.9674 64.7187 35.639C64.7949 35.4551 65.0308 35.0825 65.2073 34.8018C66.7081 32.4172 69.7757 30.1931 73.0387 28.2295C76.4803 26.1582 80.3357 24.6793 83.6304 23.4846C84.4492 22.7988 85.303 22.1032 86.0221 21.3455C86.0221 21.331 86.0362 21.3158 86.0221 21.3158C84.3342 22.1807 82.6002 22.9475 80.8283 23.6125C78.899 24.3267 76.2007 25.4205 73.9869 25.399C73.3063 25.3935 72.6802 24.9897 73.0327 24.2161C73.3224 23.5828 74.1486 22.7628 74.7039 22.3134C74.3892 22.3293 71.8109 23.4196 70.7313 23.822C70.426 23.9368 69.8903 24.1152 69.4798 24.0972C68.9994 24.0771 68.8585 23.9893 68.8019 23.7999C68.7541 23.6402 68.8834 23.28 69.124 22.9557V22.9557ZM80.6093 25.8305C78.028 26.8745 75.5238 28.1088 73.1162 29.5238C70.9981 30.7766 67.6657 33.1929 66.2256 34.7886C66.977 34.6697 70.4031 32.906 73.1223 31.1714C75.609 29.5833 78.252 27.6412 80.6093 25.8305Z" fill="#1778F2"/>
<path fill-rule="evenodd" clip-rule="evenodd" d="M5.18844 20.0443C5.15068 20.044 5.11407 20.0309 5.08433 20.007C5.05458 19.9831 5.03338 19.9498 5.02401 19.9123L0.00480485 0.212133C-0.00134461 0.187264 -0.00188421 0.161285 0.00322707 0.13617C0.00833835 0.111056 0.0189658 0.0874685 0.034301 0.0672024C0.0496362 0.0469362 0.0692751 0.0305241 0.0917233 0.0192175C0.114172 0.00791098 0.138838 0.00200652 0.163845 0.00195312C0.186758 0.00195312 0.207649 0.00748672 0.227866 0.0164746L5.18844 2.33121L10.149 0.0164746C10.1691 0.00704704 10.1909 0.00209603 10.213 0.00195312C10.238 0.00200652 10.2627 0.00791098 10.2852 0.0192175C10.3076 0.0305241 10.3273 0.0469362 10.3426 0.0672024C10.3579 0.0874685 10.3685 0.111056 10.3737 0.13617C10.3788 0.161285 10.3782 0.187264 10.3721 0.212133L5.35288 19.9116C5.34364 19.9492 5.32248 19.9827 5.29273 20.0067C5.26298 20.0307 5.2263 20.044 5.18844 20.0443V20.0443ZM5.18844 18.5834L9.73457 0.752789L5.18844 2.87186L0.642314 0.752789L5.18844 18.5834ZM5.18844 17.1454L1.172 1.39785L5.18777 3.27079L9.20421 1.39785L5.18844 17.1454V17.1454ZM5.18507 3.82113L4.88317 5.27371L2.65997 5.58345L4.88317 5.8925L5.18507 7.34508L5.48631 5.8925L7.71018 5.58345L5.48631 5.27371L5.18507 3.82113ZM64.8165 14.9136H63.1607C63.0941 14.9136 63.0303 14.8865 62.9832 14.8383C62.9361 14.7901 62.9095 14.7247 62.9093 14.6564V5.19904C62.9093 5.05662 63.0219 4.94185 63.1607 4.94185H64.8165C64.956 4.94185 65.0678 5.05731 65.0678 5.19904V14.6564C65.0678 14.6902 65.0613 14.7237 65.0487 14.755C65.036 14.7862 65.0175 14.8146 64.9942 14.8385C64.9708 14.8624 64.9431 14.8813 64.9126 14.8942C64.8821 14.9071 64.8494 14.9137 64.8165 14.9136V14.9136ZM22.2347 4.94462C24.2376 4.94462 25.613 6.63988 25.613 8.71609C25.613 10.7923 24.2396 12.4889 22.2368 12.4889L17.4709 12.491C17.4044 12.491 17.3406 12.4639 17.2934 12.4157C17.2463 12.3675 17.2198 12.3021 17.2196 12.2338V10.7238C17.2196 10.5814 17.3321 10.466 17.4709 10.466L21.9362 10.4673C22.8628 10.4673 23.499 9.67226 23.499 8.71124C23.499 7.75023 22.8642 6.96551 21.9369 6.96551L16.7324 6.96621C16.6659 6.96639 16.6023 6.99355 16.5553 7.04174C16.5083 7.08993 16.4818 7.15524 16.4817 7.2234V14.6557C16.4817 14.7239 16.4552 14.7893 16.4082 14.8376C16.3612 14.8858 16.2975 14.9129 16.231 14.9129H14.5691C14.5026 14.9129 14.4387 14.8858 14.3916 14.8376C14.3445 14.7894 14.3179 14.724 14.3178 14.6557V5.20457C14.3178 5.06215 14.4303 4.94738 14.5685 4.94738L22.2347 4.94462V4.94462ZM30.8856 14.9129C28.124 14.7027 26.6454 12.5885 26.6454 9.93153C26.6454 7.30221 28.1442 5.10018 30.9166 4.95015C31.9996 4.89207 33.4067 4.90521 34.4397 4.9543C37.2829 5.08842 38.746 7.37273 38.746 9.93153C38.746 12.5954 37.2425 14.7352 34.4862 14.9136C33.4835 14.9793 31.9349 14.9931 30.8856 14.9129ZM34.0388 12.8885C35.6696 12.7648 36.5814 11.5653 36.5814 9.92876C36.5814 8.29227 35.6406 7.05816 34.0085 6.97243C33.3784 6.93924 31.9962 6.92265 31.3405 6.97105C29.6099 7.09964 28.8006 8.40082 28.8006 9.92876C28.8006 11.4367 29.5829 12.7102 31.3095 12.8885C31.9369 12.9528 33.3898 12.9376 34.0388 12.8885V12.8885ZM89.0081 12.8872C89.1463 12.8872 89.2514 13.0026 89.2514 13.1457V14.6557C89.2523 14.6892 89.2467 14.7225 89.2349 14.7537C89.2231 14.7849 89.2053 14.8133 89.1827 14.8374C89.16 14.8615 89.1329 14.8807 89.103 14.8939C89.073 14.9071 89.0407 14.914 89.0081 14.9143L82.9336 14.9177C79.9994 14.9177 78.403 12.5442 78.403 9.93291C78.403 7.27525 80.0311 4.93839 82.8844 4.93839L88.9953 4.94116C89.1335 4.94116 89.2494 5.05731 89.2494 5.19974V6.70971C89.2494 6.85213 89.1416 6.96759 89.0021 6.96759L83.1924 6.96482C81.4193 6.96482 80.5588 8.39459 80.5588 9.92945C80.5588 11.4857 81.4497 12.8879 83.1924 12.8879C84.396 12.8865 88.9306 12.8872 89.0081 12.8872V12.8872ZM46.9426 14.0494L42.6067 7.54696C42.5867 7.51811 42.5602 7.49459 42.5295 7.47835C42.4988 7.46212 42.4647 7.45364 42.4302 7.45363C42.402 7.45317 42.374 7.45846 42.3478 7.46919C42.3216 7.47992 42.2978 7.49588 42.2777 7.51614C42.2575 7.5364 42.2415 7.56056 42.2306 7.58721C42.2196 7.61386 42.2139 7.64249 42.2139 7.67141V14.6453C42.2139 14.7136 42.1875 14.7791 42.1405 14.8274C42.0935 14.8758 42.0297 14.903 41.9632 14.9032H40.3067C40.2737 14.9032 40.241 14.8966 40.2105 14.8836C40.18 14.8706 40.1523 14.8516 40.129 14.8277C40.1056 14.8038 40.0871 14.7753 40.0745 14.744C40.0619 14.7127 40.0554 14.6792 40.0554 14.6453L40.054 7.13628C40.056 6.53556 40.29 5.96015 40.7049 5.53621C41.1198 5.11228 41.6816 4.87442 42.2671 4.87479C43.0239 4.87479 43.6917 5.26542 44.0886 5.86208L48.4245 12.4074C48.4445 12.4363 48.471 12.4599 48.5017 12.4761C48.5324 12.4924 48.5665 12.5008 48.6011 12.5007C48.6293 12.5012 48.6573 12.496 48.6835 12.4854C48.7097 12.4747 48.7336 12.4589 48.7538 12.4387C48.774 12.4185 48.7901 12.3944 48.8011 12.3677C48.8121 12.3411 48.8179 12.3125 48.8181 12.2836V5.19904C48.8181 5.05662 48.9306 4.94185 49.0688 4.94185H50.7252C50.864 4.94185 50.9766 5.05731 50.9766 5.19904L50.9786 12.7752C50.9786 14.1669 50.2299 15.0152 48.8174 15.0152C48.0593 15.0152 47.3395 14.646 46.9426 14.0494V14.0494ZM58.0963 7.22962L58.099 14.6564C58.099 14.6902 58.0925 14.7237 58.0799 14.755C58.0672 14.7862 58.0487 14.8146 58.0254 14.8385C58.002 14.8624 57.9743 14.8813 57.9438 14.8942C57.9133 14.9071 57.8806 14.9137 57.8477 14.9136H56.1872C56.1206 14.9136 56.0568 14.8865 56.0097 14.8383C55.9625 14.7901 55.936 14.7247 55.9358 14.6564L55.9378 7.22271C55.9378 7.18887 55.9313 7.15537 55.9187 7.12413C55.906 7.09288 55.8875 7.06449 55.8642 7.0406C55.8408 7.01671 55.8131 6.99778 55.7826 6.98489C55.7521 6.97201 55.7194 6.96542 55.6865 6.96551L52.1101 6.96621C52.0771 6.96621 52.0444 6.95954 52.0139 6.94658C51.9834 6.93362 51.9557 6.91462 51.9323 6.89067C51.909 6.86673 51.8905 6.8383 51.8778 6.80701C51.8652 6.77572 51.8587 6.74219 51.8587 6.70832V5.19835C51.8587 5.05593 51.9713 4.94116 52.1101 4.94116H61.8641C62.0029 4.94116 62.1155 5.05662 62.1155 5.19835V6.71593C62.1155 6.78432 62.089 6.84992 62.0418 6.89828C61.9947 6.94664 61.9308 6.97381 61.8641 6.97381L58.347 6.9669C58.28 6.96835 58.2163 6.99666 58.1694 7.04577C58.1226 7.09489 58.0963 7.16089 58.0963 7.22962V7.22962ZM75.6528 13.0773L70.2366 13.078C70.0985 13.078 69.9981 12.9625 70.0776 12.8208L70.9254 11.3108C71.0056 11.1684 71.203 11.0529 71.3425 11.0529H74.2315C74.2751 11.0524 74.3178 11.0402 74.3553 11.0175C74.3928 10.9947 74.4239 10.9622 74.4453 10.9233C74.4667 10.8844 74.4778 10.8403 74.4774 10.7956C74.477 10.7509 74.4652 10.7071 74.4431 10.6685L72.6559 7.49926C72.6376 7.46713 72.6116 7.44038 72.5803 7.42156C72.549 7.40274 72.5135 7.39249 72.4772 7.3918C72.441 7.39111 72.4051 7.39999 72.3732 7.41759C72.3412 7.4352 72.3142 7.46094 72.2947 7.49234L68.2527 14.6564C68.1806 14.7954 68.0471 14.9136 67.9076 14.9136H66.1414C65.8913 14.9136 65.8873 14.7594 65.9648 14.6156L71.0258 5.6519C71.2785 5.21495 71.8338 4.88309 72.4733 4.88309C73.1263 4.88309 73.6762 5.23016 73.9276 5.67264L78.9805 14.6156C79.0593 14.7594 79.0539 14.9136 78.8039 14.9136H77.0376C76.8995 14.9136 76.7654 14.7954 76.6926 14.6564L75.8765 13.2107C75.8541 13.1701 75.8216 13.1363 75.7823 13.1129C75.743 13.0894 75.6983 13.0772 75.6528 13.0773ZM90.3256 5.94158C90.3259 5.82224 90.3491 5.70412 90.3939 5.59398C90.4387 5.48384 90.5043 5.38383 90.5867 5.29966C90.6692 5.2155 90.767 5.14882 90.8746 5.10344C90.9822 5.05806 91.0975 5.03487 91.2138 5.03518C91.3301 5.0355 91.4453 5.05933 91.5526 5.10529C91.66 5.15126 91.7575 5.21847 91.8395 5.30309C91.9215 5.3877 91.9865 5.48806 92.0308 5.59845C92.075 5.70883 92.0976 5.82707 92.0973 5.94642C92.0967 6.18745 92.0027 6.41836 91.8362 6.58834C91.6696 6.75833 91.444 6.85346 91.2091 6.85282C90.9741 6.85218 90.7491 6.75582 90.5834 6.58493C90.4177 6.41404 90.325 6.18262 90.3256 5.94158V5.94158ZM91.9908 5.94158C91.9908 5.50187 91.6431 5.14512 91.2145 5.14512C90.7825 5.14512 90.4354 5.50187 90.4354 5.94158C90.4311 6.04915 90.448 6.15652 90.4851 6.25722C90.5222 6.35793 90.5788 6.44989 90.6514 6.52759C90.7241 6.60529 90.8113 6.66711 90.9078 6.70934C91.0043 6.75158 91.1082 6.77335 91.2131 6.77335C91.3181 6.77335 91.4219 6.75158 91.5185 6.70934C91.615 6.66711 91.7022 6.60529 91.7748 6.52759C91.8475 6.44989 91.9041 6.35793 91.9412 6.25722C91.9783 6.15652 91.9952 6.04915 91.9908 5.94158V5.94158ZM91.6552 6.45044H91.4989L91.2158 5.98929H91.0056V6.45044H90.8856V5.4348H91.2502C91.3634 5.4348 91.4254 5.43964 91.4989 5.48458C91.5737 5.52745 91.5966 5.63392 91.5966 5.71965C91.5966 5.91877 91.4753 5.98929 91.356 5.98929L91.6552 6.45044V6.45044ZM91.2482 5.87176C91.3877 5.87176 91.4679 5.85931 91.4679 5.70168C91.4679 5.60903 91.4416 5.54058 91.2691 5.54058H91.0042V5.87176H91.2482ZM6.71415 19.2257C6.71112 19.1044 6.73183 18.9836 6.77506 18.8706C6.81829 18.7576 6.88316 18.6546 6.96584 18.5677C7.04852 18.4809 7.14733 18.4119 7.25643 18.3649C7.36553 18.3179 7.48272 18.2938 7.60105 18.294C7.71939 18.2942 7.83648 18.3188 7.94541 18.3662C8.05434 18.4137 8.15289 18.483 8.23524 18.5702C8.3176 18.6574 8.38209 18.7606 8.4249 18.8738C8.46771 18.987 8.48797 19.1078 8.48449 19.2292C8.4777 19.4657 8.38124 19.6902 8.21563 19.8548C8.05001 20.0195 7.82831 20.1114 7.59768 20.1109C7.36705 20.1105 7.14569 20.0177 6.98069 19.8524C6.81569 19.6871 6.72006 19.4623 6.71415 19.2257V19.2257ZM8.37869 19.2257C8.37869 19.0141 8.29675 18.8112 8.15091 18.6616C8.00507 18.5119 7.80726 18.4279 7.60101 18.4279C7.39475 18.4279 7.19695 18.5119 7.0511 18.6616C6.90526 18.8112 6.82333 19.0141 6.82333 19.2257C6.82333 19.4373 6.90526 19.6403 7.0511 19.7899C7.19695 19.9395 7.39475 20.0236 7.60101 20.0236C7.80726 20.0236 8.00507 19.9395 8.15091 19.7899C8.29675 19.6403 8.37869 19.4373 8.37869 19.2257ZM8.04308 19.7353H7.88741L7.60438 19.2734H7.39412V19.7353H7.27349V18.7196H7.6374C7.75129 18.7196 7.81328 18.7238 7.88741 18.768C7.96154 18.8109 7.98445 18.9181 7.98445 19.0045C7.98445 19.2029 7.86315 19.2734 7.74455 19.2734L8.04308 19.7353V19.7353ZM7.63672 19.1559C7.77622 19.1559 7.85709 19.1434 7.85709 18.9858C7.85709 18.8925 7.83013 18.8254 7.65829 18.8254H7.39412V19.1566H7.63672V19.1559ZM106.577 32.3218L101.962 36.4362C100.784 36.5116 99.7083 36.589 99.1058 36.6498C98.2385 36.739 97.378 36.8324 96.5208 36.9305L101.136 32.8148C101.992 32.7159 102.853 32.6232 103.721 32.5354C104.324 32.4725 105.399 32.3958 106.577 32.3218ZM95.489 33.5843L90.8742 37.7C88.8895 38.016 86.886 38.3914 84.8273 38.8505L89.4421 34.7347C91.5009 34.2756 93.5057 33.9002 95.489 33.5843ZM69.428 44.002L73.4464 40.4372C75.0099 39.0703 76.6609 38.4751 78.2796 37.9213C79.7303 37.417 81.1912 36.9442 82.6613 36.5033L78.0465 40.6177C76.5766 41.0594 75.1157 41.5321 73.6648 42.0357C72.3439 42.5328 70.552 43.1675 69.428 44.002V44.002ZM111.202 28.1977C113.1 28.0761 115.268 27.9599 116.164 27.9184L116.401 27.9157L111.787 32.0314L111.549 32.0328C110.653 32.0757 108.485 32.1918 106.586 32.3135L111.202 28.1977V28.1977ZM100.108 29.4602C101.998 29.1588 103.872 28.9092 105.76 28.6921L101.145 32.8065C99.2575 33.0249 97.3834 33.2738 95.4931 33.576L100.108 29.4602V29.4602ZM87.2627 32.3861C89.5074 31.7127 91.7744 31.1205 94.0597 30.6106L89.4448 34.7264C87.1596 35.2363 84.8925 35.8284 82.6479 36.5019L87.2627 32.3861ZM115.817 24.082L111.202 28.1977C110.022 28.2731 108.948 28.3505 108.344 28.4114C107.478 28.4992 106.618 28.5925 105.759 28.6921L110.374 24.5763C111.235 24.4773 112.097 24.3842 112.959 24.297C113.564 24.2341 114.639 24.1573 115.817 24.082ZM104.722 25.3458L100.107 29.4602C98.0806 29.7827 96.0636 30.1663 94.059 30.6106L98.6739 26.4963C100.734 26.0372 102.737 25.6618 104.722 25.3458ZM78.7655 35.684L82.6627 32.2057C84.2437 30.8091 85.8031 30.2504 87.4959 29.6897C88.9464 29.1848 90.4073 28.7121 91.8776 28.2717L87.2627 32.3861C85.7926 32.8272 84.3317 33.3 82.881 33.8041C81.6309 34.2321 79.8882 34.891 78.7655 35.684V35.684ZM120.431 19.962C122.085 19.8568 123.739 19.7637 125.393 19.6827L125.632 19.68L121.017 23.7943L120.778 23.7971C119.882 23.8393 117.716 23.9561 115.817 24.0764L120.431 19.962ZM109.337 21.2245C111.229 20.9217 113.101 20.6735 114.99 20.455L110.375 24.5708C108.487 24.7879 106.614 25.0381 104.722 25.3389L109.337 21.2245V21.2245ZM96.4945 24.1573C98.8531 23.4514 101.104 22.8693 103.293 22.3819L98.6779 26.4976C96.3921 27.0063 94.1246 27.5981 91.8796 28.2717L96.4945 24.1573V24.1573ZM65.2437 17.4406C65.2302 17.5713 65.0887 17.5574 65.0186 17.63C63.4929 18.683 61.8958 19.4311 60.2852 20.2372C60.1854 20.0927 59.9442 20.0063 59.9718 19.8175C60.5055 18.7397 61.5797 18.0815 62.6404 17.8008C63.0926 17.6245 63.5441 17.4917 63.997 17.33C64.4081 17.386 64.7989 17.4143 65.2437 17.4406V17.4406ZM69.124 22.9557C69.6335 22.2021 70.368 21.5432 70.9206 20.9652C69.2096 21.7714 66.1966 22.8866 64.4701 24.1456C64.4135 24.1753 64.2989 24.1442 64.2989 24.0861C64.2976 23.869 64.3252 23.6651 64.3238 23.4328C65.4715 22.3943 66.5774 21.2508 67.6751 20.3375C64.7915 21.3462 59.1382 23.9202 55.5766 25.4336C55.2794 25.5608 54.9411 25.6486 54.6695 25.6562C54.5011 25.6618 54.1453 25.6887 54.0368 25.444C53.9491 25.2469 54.0758 24.9012 54.2248 24.6282C54.5678 23.9962 55.5166 22.8852 56.1878 22.2394C54.0947 23.2751 52.3122 24.1608 49.1328 25.4792C46.5356 26.5785 44.4613 27.2291 43.9188 27.2941C43.3757 27.3577 43.2308 27.2844 43.1021 27.0971C42.9969 26.9443 43.1021 26.508 43.2092 26.1734C43.4714 25.352 44.84 23.9361 46.4075 22.6384C46.1993 22.7034 45.8947 22.8084 45.5847 22.9301C44.1359 23.4974 42.713 24.1318 41.3203 24.8314C39.6234 25.6784 36.9857 27.189 35.274 28.3353C35.0725 28.4487 34.9425 28.3948 34.8286 28.2931C34.8286 28.2931 34.5853 28.065 34.5786 28.0325C34.5617 27.9544 34.6399 27.5707 34.8515 27.1897C35.1042 26.7956 35.3044 26.4036 35.6878 25.9867L35.6117 25.995C33.6156 27.1641 31.6127 28.4771 29.3673 29.3344C29.1274 29.4367 28.7655 29.5183 28.5748 29.4547C28.376 29.3544 28.3288 29.2092 28.2608 28.9617C28.2385 28.8477 28.2378 28.7303 28.2587 28.616L28.3153 28.4245C28.8484 27.1579 30.0533 25.9694 31.1336 24.9946C29.0701 25.9183 26.6818 27.0874 24.6898 28.1722C23.5596 28.7882 22.2408 29.5425 21.2252 30.1924L21.3472 30.2477C26.2761 31.7777 31.3533 33.7156 35.022 35.2761C35.6478 35.5419 36.274 35.8065 36.9008 36.0698C37.0592 36.1375 37.2809 36.3449 37.3133 36.3843C37.411 36.4963 37.7661 36.9693 37.8834 37.2569C37.8834 37.2569 37.8504 37.3405 37.7466 37.3011C37.347 37.1483 36.7196 36.9976 36.4338 36.916C36.3577 36.896 36.0281 36.7501 35.5732 36.562C30.4159 34.4354 25.582 32.9226 19.7737 31.1243C18.9825 31.6512 18.3854 32.6841 17.4945 32.9931C17.3955 32.8625 17.5505 32.7463 17.5073 32.5866C17.508 32.112 17.5826 31.6405 17.7284 31.19C17.8969 31.0013 18.1853 30.8582 18.3686 30.6687C16.2283 30.0181 14.1985 29.3821 12.1525 28.7757C12.1242 28.7612 12.1101 28.7315 12.1242 28.6879L13.2389 27.8693C20.5433 25.4806 26.047 23.2634 27.7964 21.9684C28.5869 21.3835 29.9448 20.1992 29.3127 19.1946C28.8551 18.4694 27.378 18.3048 25.8677 18.5129C22.6182 18.9623 19.6625 20.2711 15.9634 22.3667C11.5608 24.8618 8.87805 26.9049 5.20933 30.5498C3.76449 31.9837 3.32241 32.6551 2.38502 33.7018C2.36817 33.7205 2.36076 33.7516 2.32572 33.7585C2.15395 33.767 1.98313 33.7897 1.8149 33.8262C1.79805 33.8193 1.77042 33.7979 1.76773 33.7751C1.85196 33.1957 2.09255 32.5749 2.28528 32.1669C2.33515 32.0605 2.50565 31.7784 2.75701 31.4334C3.32511 30.6542 3.83458 30.0928 5.17227 28.661C8.22167 25.3997 11.6336 22.3127 15.1029 19.8003C17.2007 18.2813 19.3376 16.7603 21.6127 15.6022L21.6269 15.6389C21.4692 15.9237 21.3688 16.156 21.2589 16.4014C21.2138 16.4713 21.2286 16.4934 21.1235 16.5535C21.0878 16.6483 20.9537 16.7298 20.8674 16.7824C18.8336 17.9826 13.4404 22.135 11.5952 23.7667L11.5676 23.9437C13.8272 22.4081 18.3322 19.709 21.3358 18.5447C23.5556 17.6846 25.7067 17.0859 28.2533 17.0859C29.5931 17.0859 30.8553 17.5166 31.0918 18.6069C31.2475 19.328 30.9213 20.083 30.3364 20.7606C29.0843 22.2097 27.5471 23.271 24.4997 24.7457C22.3837 25.7703 17.909 27.5962 15.6892 28.3768C16.9224 28.7764 18.3848 29.2652 19.6038 29.6607C23.0677 27.6771 28.1455 25.0831 31.6795 23.645C34.9014 22.3328 37.3604 21.7029 38.2405 21.5667C38.6139 21.5156 38.9279 21.537 39.2541 21.6476C39.4293 21.7057 39.6631 21.8613 39.7198 22.1012C39.7278 22.1378 39.6962 22.1917 39.6706 22.2215C39.4118 22.5105 39.0223 22.5443 38.7271 22.7697C37.8726 22.8644 37.0161 22.9792 36.0457 23.3422C35.3374 23.6084 33.7079 24.2728 32.6775 25.0181C31.9429 25.5 31.0689 26.2999 30.4786 26.8841C30.2461 27.1137 30.0351 27.3688 30.0917 27.4635C30.1625 27.581 30.3876 27.4863 30.6342 27.3826C30.8795 27.2775 31.5103 26.9491 31.9483 26.714C34.4633 25.4827 36.9729 24.0308 39.3929 22.7386C39.5493 22.8534 39.7602 22.964 39.8599 23.1382C39.3727 23.7985 37.5444 25.1176 36.9905 25.8768C39.6537 24.3779 41.7994 23.2986 43.8049 22.431C46.2869 21.3586 48.5317 20.6617 51.1269 20.007C52.0252 19.7816 52.9942 19.5922 53.9721 19.7913C54.0004 19.7913 54.0145 19.821 54.0287 19.8355C54.0691 20.0312 53.9128 20.1058 53.9734 20.2268C53.8663 20.585 53.6223 20.7426 53.4666 20.9037C53.4462 20.9221 53.4214 20.9345 53.3948 20.9397C53.3681 20.945 53.3406 20.9428 53.315 20.9334C53.2517 20.9134 53.0461 20.8442 52.7853 20.8442C52.4646 20.847 51.6714 20.9431 50.1807 21.575C48.217 22.4054 45.8907 23.7695 44.5792 25.7344C44.6204 25.78 44.7154 25.753 44.7882 25.733C46.7054 25.2034 48.8437 24.3502 51.1417 23.4065C54.1149 22.1855 58.0532 20.4557 59.1274 20.016C59.2972 20.0443 59.4953 20.0298 59.6234 20.1743C59.7508 20.3043 59.8761 20.4771 59.8498 20.7239C59.8646 20.762 59.7777 20.8539 59.6638 20.9051C58.2156 21.5612 56.6266 22.6321 55.6669 24.0391C55.764 24.0605 55.8684 24.0066 56.0861 23.9216C58.9205 22.8154 63.9903 20.3838 68.0849 19.1303C68.4837 19.0097 68.8921 18.9253 69.3053 18.878C69.3714 18.8793 69.9004 19.0363 69.9159 19.3841C69.8316 19.4864 69.9132 19.6786 69.7892 19.7768C69.4327 20.0498 68.8194 20.4737 68.3888 20.8408C69.3855 20.3962 70.5655 19.9337 71.5319 19.6689C72.7442 19.3391 73.3036 19.4138 73.5731 19.3612C73.6419 19.3758 73.6419 19.5113 73.7362 19.6392C73.8245 19.7823 73.7402 19.969 73.6715 20.0146C72.753 20.7156 71.3573 21.5515 70.5244 22.5692C70.4509 22.6342 70.614 22.6121 70.6996 22.5803C71.6471 22.3141 76.7715 20.5089 77.4939 20.2656C78.2176 20.0222 79.4738 19.588 80.4779 19.2783C82.5852 18.7169 84.7174 18.1541 86.9575 17.9861C88.0343 17.9052 88.5687 17.955 88.7985 18.1091C89.029 18.2619 89.1645 18.4929 89.217 18.7017C89.2157 18.7839 88.9657 18.8192 88.7339 18.907C88.4717 19.0072 88.2352 19.1732 88.1651 19.1718C88.0917 19.162 88.018 19.1553 87.944 19.1517C87.1003 19.1034 85.8239 19.3073 84.8535 19.4338C83.7544 19.5769 82.0306 19.9102 80.0715 20.5732C77.9932 21.277 76.2782 22.1371 75.0557 23.0891C74.6069 23.4376 74.4189 23.7536 74.5449 23.8967C74.7545 24.1345 75.5625 24.0128 76.0227 23.9465C76.483 23.8801 79.9017 22.8402 82.1458 21.9871C84.3885 21.1339 86.2168 20.3845 87.94 19.4622C88.1374 19.4179 88.3794 19.261 88.5492 19.1732C88.7332 19.2299 88.8033 19.4152 88.9596 19.5299C88.9791 19.615 88.7399 19.877 88.5937 20.054C88.4239 20.2607 86.638 22.1143 86.0046 22.6978C92.2685 21.0869 98.8046 19.8431 106.34 18.8669C116.038 17.6093 124.356 17.6245 125.762 17.684C125.946 17.8713 125.962 18.1486 126.077 18.394C126.063 18.4085 126.077 18.4237 126.048 18.4382C124.602 18.3656 116.009 18.6028 106.774 19.8466C98.1098 21.0593 91.3088 22.303 83.8063 24.5217C80.1066 27.4289 76.2937 30.2283 73.1385 32.2375C70.3627 34.0053 67.9528 35.3079 66.2337 36.0698C65.7505 36.2834 65.1817 36.5475 64.7834 36.3332C64.6332 36.2523 64.5819 35.9674 64.7187 35.639C64.7949 35.4551 65.0308 35.0825 65.2073 34.8018C66.7081 32.4172 69.7757 30.1931 73.0387 28.2295C76.4803 26.1582 80.3357 24.6793 83.6304 23.4846C84.4492 22.7988 85.303 22.1032 86.0221 21.3455C86.0221 21.331 86.0362 21.3158 86.0221 21.3158C84.3342 22.1807 82.6002 22.9475 80.8283 23.6125C78.899 24.3267 76.2007 25.4205 73.9869 25.399C73.3063 25.3935 72.6802 24.9897 73.0327 24.2161C73.3224 23.5828 74.1486 22.7628 74.7039 22.3134C74.3892 22.3293 71.8109 23.4196 70.7313 23.822C70.426 23.9368 69.8903 24.1152 69.4798 24.0972C68.9994 24.0771 68.8585 23.9893 68.8019 23.7999C68.7541 23.6402 68.8834 23.28 69.124 22.9557V22.9557ZM80.6093 25.8305C78.028 26.8745 75.5238 28.1088 73.1162 29.5238C70.9981 30.7766 67.6657 33.1929 66.2256 34.7886C66.977 34.6697 70.4031 32.906 73.1223 31.1714C75.609 29.5833 78.252 27.6412 80.6093 25.8305Z" fill="#1778F2"/>
</g>
</svg>
