<svg width="125" height="39" viewBox="0 0 125 39" fill="none" xmlns="http://www.w3.org/2000/svg">
<path d="M65.5057 9.55003C65.5057 10.9195 64.3792 12.0223 62.9812 12.0223C61.5833 12.0223 60.4576 10.9195 60.4576 9.55003C60.4576 8.18053 61.5449 7.07779 62.9812 7.07779C64.4188 7.11579 65.5057 8.21891 65.5057 9.55003V9.55003ZM55.0992 14.5333V15.142C55.0992 15.142 53.8959 13.6197 51.3331 13.6197C47.1012 13.6197 43.8002 16.7771 43.8002 21.1512C43.8002 25.4877 47.0624 28.6826 51.3331 28.6826C53.9347 28.6826 55.0992 27.1232 55.0992 27.1232V27.7695C55.0992 28.0739 55.3327 28.3015 55.643 28.3015H58.7877V13.999H55.643C55.3327 14.0001 55.0992 14.2669 55.0992 14.5333V14.5333ZM55.0992 23.6998C54.5173 24.5369 53.3521 25.2597 51.9545 25.2597C49.4697 25.2597 47.5666 23.7382 47.5666 21.1512C47.5666 18.5646 49.4697 17.0431 51.9545 17.0431C53.3137 17.0431 54.5561 17.8038 55.0992 18.6026V23.6998ZM61.1178 14.0001H64.8451V28.3026H61.1178V14.0001V14.0001ZM116.798 13.6194C114.235 13.6194 113.031 15.1416 113.031 15.1416V7.11579H109.304V28.3026H112.45C112.76 28.3026 112.993 28.0363 112.993 27.7699V27.1235C112.993 27.1235 114.197 28.683 116.759 28.683C120.991 28.683 124.292 25.4888 124.292 21.1523C124.292 16.8159 120.991 13.6194 116.798 13.6194V13.6194ZM116.177 25.2213C114.74 25.2213 113.614 24.4993 113.031 23.6618V18.5646C113.614 17.8038 114.856 17.0051 116.177 17.0051C118.662 17.0051 120.564 18.5266 120.564 21.1132C120.564 23.6998 118.662 25.2213 116.177 25.2213ZM107.363 19.8205V28.3407H103.635V20.2384C103.635 17.8806 102.858 16.9291 100.763 16.9291C99.6374 16.9291 98.4721 17.4998 97.7332 18.337V28.303H94.0067V14.0005H96.9567C97.2674 14.0005 97.5005 14.2669 97.5005 14.5333V15.142C98.5877 14.0385 100.024 13.6197 101.461 13.6197C103.092 13.6197 104.451 14.0769 105.538 14.9896C106.858 16.0547 107.363 17.4239 107.363 19.8205V19.8205ZM84.9583 13.6194C82.3962 13.6194 81.1922 15.1416 81.1922 15.1416V7.11579H77.4649V28.3026H80.6096C80.9203 28.3026 81.1534 28.0363 81.1534 27.7699V27.1235C81.1534 27.1235 82.3574 28.683 84.9195 28.683C89.1522 28.683 92.4524 25.4888 92.4524 21.1523C92.4912 16.8155 89.191 13.6194 84.9583 13.6194V13.6194ZM84.3369 25.2213C82.9005 25.2213 81.7748 24.4993 81.1922 23.6618V18.5646C81.7748 17.8038 83.0172 17.0051 84.3369 17.0051C86.8225 17.0051 88.7247 18.5266 88.7247 21.1132C88.7247 23.6998 86.8225 25.2213 84.3369 25.2213ZM74.2419 13.6194C75.3675 13.6194 75.9501 13.8101 75.9501 13.8101V17.1951C75.9501 17.1951 72.8439 16.168 70.9029 18.3366V28.3403H67.1748V14.0001H70.3202C70.6309 14.0001 70.8633 14.2665 70.8633 14.5329V15.1416C71.563 14.3425 73.0774 13.6194 74.2419 13.6194V13.6194ZM35.5302 27.0092C35.3363 26.5528 35.142 26.0584 34.948 25.6397C34.6369 24.9553 34.3262 24.3082 34.0551 23.6998L34.0163 23.6618C31.3367 17.9558 28.4639 12.1746 25.4349 6.46943L25.3185 6.24067C24.9999 5.64882 24.6894 5.05281 24.3872 4.45281C23.9985 3.76768 23.6106 3.04569 22.9892 2.36057C21.7467 0.839076 19.9605 0.00195312 18.0582 0.00195312C16.1164 0.00195312 14.3694 0.839081 13.0885 2.28419C12.5059 2.96856 12.0784 3.69131 11.6905 4.37643C11.3875 4.97606 11.077 5.57206 10.7592 6.16429L10.6425 6.39304C7.65255 12.0982 4.74061 17.8798 2.06142 23.5854L2.02225 23.661C1.75072 24.2706 1.43962 24.9169 1.12892 25.6009C0.93497 26.0197 0.741022 26.476 0.547074 26.9704C0.042034 28.3775 -0.11352 29.709 0.081204 31.0789C0.508277 33.9319 2.44931 36.3273 5.12889 37.3932C6.13859 37.812 7.18707 38.002 8.27395 38.002C8.58466 38.002 8.97256 37.964 9.28366 37.9256C10.5653 37.7736 11.8853 37.3556 13.1669 36.6328C14.7588 35.7577 16.2731 34.503 17.9814 32.6771C19.6897 34.503 21.2429 35.7577 22.796 36.6328C24.078 37.3556 25.3976 37.7736 26.6788 37.9256C26.9895 37.9643 27.3782 38.002 27.6889 38.002C28.7762 38.002 29.8631 37.812 30.8336 37.3932C33.552 36.3273 35.4542 33.8939 35.8817 31.0789C36.19 29.7478 36.0349 28.417 35.5302 27.0092V27.0092ZM18.0191 28.987C15.9221 26.4004 14.5629 23.9662 14.0974 21.9127C13.9035 21.0376 13.8643 20.2768 13.9811 19.5921C14.0583 18.9833 14.2918 18.4506 14.6025 17.9942C15.3403 16.9679 16.5827 16.3207 18.0195 16.3207C19.4566 16.3207 20.7378 16.9295 21.4368 17.9942C21.7475 18.4506 21.9803 18.9837 22.0586 19.5921C22.1746 20.2772 22.1358 21.0756 21.9419 21.9127C21.4744 23.9282 20.1153 26.3628 18.0191 28.987ZM33.5108 30.7749C33.2393 32.7527 31.8801 34.465 29.9779 35.2257C29.0462 35.6057 28.0361 35.7201 27.0272 35.6057C26.0567 35.4913 25.0854 35.187 24.0764 34.617C22.6785 33.8555 21.2809 32.6771 19.6498 30.9269C22.2122 27.8463 23.7654 25.0309 24.348 22.5211C24.6199 21.3416 24.6591 20.2768 24.5419 19.2873C24.3872 18.3366 24.0373 17.4615 23.4938 16.7007C22.2894 14.9885 20.27 14.0001 18.0187 14.0001C15.7673 14.0001 13.7479 15.0272 12.5443 16.7007C12.0009 17.4615 11.651 18.3366 11.4958 19.2873C11.3407 20.2768 11.3791 21.3796 11.6898 22.5211C12.272 25.0309 13.8639 27.8839 16.3876 30.9649C14.7957 32.7147 13.3589 33.8942 11.9609 34.655C10.9512 35.2257 9.98109 35.5301 9.01057 35.6437C7.96248 35.7581 6.9524 35.6057 6.05946 35.2637C4.15722 34.503 2.79803 32.7907 2.52651 30.8129C2.41014 29.8621 2.48733 28.9114 2.876 27.8463C2.99198 27.4655 3.1867 27.0855 3.38065 26.6292C3.65257 26.0204 3.9625 25.3733 4.27359 24.7269L4.31277 24.6513C6.99158 18.9833 9.86472 13.2017 12.8546 7.57254L12.971 7.34379C13.2821 6.7738 13.5928 6.16505 13.9031 5.5943C14.2138 4.98556 14.5629 4.41481 14.9904 3.92006C15.8057 3.00807 16.8926 2.51294 18.0966 2.51294C19.3007 2.51294 20.3876 3.00807 21.2029 3.92006C21.6304 4.41595 21.9795 4.9867 22.2902 5.5943C22.6013 6.16505 22.912 6.7738 23.2219 7.34379L23.3387 7.57254C26.283 13.2251 29.118 18.9317 31.8421 24.6893V24.7273C32.1532 25.3368 32.4247 26.0208 32.7354 26.6303C32.9294 27.0859 33.1237 27.4659 33.2401 27.8467C33.55 28.8346 33.6664 29.7861 33.5108 30.7749V30.7749Z" fill="#1778F2"/>
</svg>
