<svg width="133" height="26" viewBox="0 0 133 26" fill="none" xmlns="http://www.w3.org/2000/svg">
<path fill-rule="evenodd" clip-rule="evenodd" d="M132.334 25.8333V0.00195312H-0.000244141V25.8333H132.334Z" fill="#1778F2"/>
<path fill-rule="evenodd" clip-rule="evenodd" d="M93.3394 24.6029L94.8749 22.373C95.9501 20.6821 97.9455 20.6821 99.0968 20.6054C100.248 20.5286 107.502 20.2978 108.577 20.221C108.577 20.221 108.538 19.6832 108.538 19.3756L93.301 8.99712C92.6096 8.61278 91.3817 8.45869 91.3817 9.07387L91.229 10.8031C91.229 11.5724 90.0394 11.6486 89.4246 11.6486C88.8116 11.6486 87.8908 11.6486 87.6597 10.9572L87.3143 8.45869C87.2377 7.76734 87.3143 6.99806 88.0824 6.7678C89.4647 6.46021 92.8035 6.42184 95.4131 8.03655L108.615 16.3386C108.615 15.3403 108.846 12.2254 109.614 11.6108L105.237 6.38288C103.856 5.99853 103.856 3.84597 104.7 3.15345C105.544 2.4621 106.85 2.6156 107.311 2.99936C107.901 3.49186 108.155 4.30648 107.848 5.22926C107.541 6.76722 108.232 7.53533 109.536 8.22785L112.531 9.68848C114.603 10.6107 115.678 13.5325 115.678 15.4548V19.9902C116.753 20.0687 124.121 20.5292 125.272 20.6054C126.424 20.6816 128.42 20.6821 129.494 22.373L131.259 24.6029V1.07764H85.5099V24.6023H93.3394V24.6029ZM48.8191 2.30859V7.07481H54.807V23.3731H60.4866V7.07481H66.4745V2.30859H48.8191ZM61.2547 23.3731L68.9314 2.30859H75.6863L83.6684 23.3731H77.987L76.6831 19.6838H68.24L66.9337 23.3731H61.2547Z" fill="white"/>
<path fill-rule="evenodd" clip-rule="evenodd" d="M40.2221 2.30859V23.3731H53.1175V18.6069H45.9017V2.30859H40.2221ZM23.4892 2.30859V23.3731H38.5338V18.6069H29.1694V14.917H38.5338V10.1502H29.1694V7.07482H38.5338V2.30859H23.4892ZM13.1645 23.3557C18.35 23.3557 22.5539 18.6052 22.5539 12.8417C22.5539 7.07773 18.35 2.32778 13.1645 2.32778H2.14893V23.3743L13.1645 23.3557Z" fill="white"/>
<path fill-rule="evenodd" clip-rule="evenodd" d="M72.3073 8.53543L75.2235 15.9921H69.6205L72.3073 8.53543ZM13.1645 7.07829C14.9927 7.07829 16.4754 9.65823 16.4754 12.8406C16.4754 16.0229 14.9927 18.6022 13.1645 18.6022H7.82971V7.07422L13.1645 7.07829Z" fill="#1778F2"/>
</svg>
