<svg width="131" height="28" viewBox="0 0 131 28" fill="none" xmlns="http://www.w3.org/2000/svg">
<g opacity="0.6">
<path fill-rule="evenodd" clip-rule="evenodd" d="M108.684 18.3871C108.82 18.3871 108.945 18.4615 109.007 18.5724L110.182 20.5983C110.287 20.7932 110.476 20.9585 110.677 20.9585H113.217C113.575 20.9585 113.58 20.7426 113.468 20.5402L106.204 8.00916C105.846 7.38994 105.051 6.90245 104.114 6.90245C103.195 6.90245 102.395 7.36686 102.032 7.98087L94.7584 20.5409C94.6452 20.7434 94.6497 20.9592 95.0099 20.9592H97.5478C97.7495 20.9592 97.9401 20.7933 98.0465 20.599L103.857 10.5605C103.885 10.5173 103.923 10.4818 103.968 10.4574C104.013 10.4329 104.063 10.4202 104.114 10.4205C104.168 10.421 104.22 10.4349 104.266 10.4611C104.312 10.4873 104.351 10.5248 104.379 10.5701L106.946 15.0111C106.978 15.0674 106.995 15.1314 106.995 15.1964C106.995 15.291 106.957 15.3817 106.89 15.4485C106.823 15.5154 106.733 15.5529 106.638 15.5529H102.487C102.287 15.5529 102.003 15.7107 101.888 15.9102L100.668 18.0254C100.555 18.2278 100.697 18.3886 100.896 18.3886H108.684V18.3871ZM83.8066 9.82291H88.8638C89.0633 9.82291 89.2241 9.65917 89.2241 9.45897V7.34751C89.2244 7.29995 89.2153 7.25279 89.1973 7.20875C89.1794 7.1647 89.1529 7.12463 89.1194 7.09082C89.086 7.05702 89.0462 7.03015 89.0023 7.01174C88.9585 6.99334 88.9114 6.98376 88.8638 6.98357H74.8406C74.7931 6.98376 74.7461 6.99335 74.7023 7.01177C74.6585 7.03019 74.6188 7.05709 74.5855 7.09091C74.5522 7.12474 74.5258 7.16482 74.508 7.20886C74.4902 7.2529 74.4813 7.30002 74.4818 7.34751V9.46194C74.4818 9.66215 74.6433 9.82291 74.8406 9.82291L79.9834 9.81993C80.1828 9.81993 80.3451 9.98144 80.3451 10.1816L80.3421 20.5983C80.3421 20.7985 80.5036 20.9585 80.6994 20.9585H83.0892C83.1365 20.9586 83.1834 20.9493 83.2271 20.9313C83.2709 20.9132 83.3106 20.8867 83.3441 20.8532C83.3776 20.8197 83.4041 20.78 83.4222 20.7362C83.4402 20.6925 83.4495 20.6456 83.4494 20.5983L83.4449 10.1913C83.4447 10.0947 83.4825 10.0019 83.5502 9.93294C83.6179 9.864 83.71 9.82447 83.8066 9.82291ZM67.4114 19.7468C67.9815 20.5841 69.016 21.1006 70.1063 21.1006C72.1374 21.1006 73.2114 19.9128 73.2114 17.9614L73.2084 7.34751C73.2088 7.29992 73.1998 7.25272 73.1819 7.20863C73.1639 7.16455 73.1375 7.12443 73.104 7.09061C73.0705 7.05678 73.0307 7.02991 72.9868 7.01154C72.9429 6.99317 72.8958 6.98366 72.8482 6.98357H70.4688C70.4211 6.98347 70.3738 6.99283 70.3297 7.01111C70.2857 7.02939 70.2457 7.05623 70.212 7.09008C70.1784 7.12392 70.1518 7.1641 70.1338 7.20829C70.1158 7.25248 70.1067 7.2998 70.1071 7.34751V17.2737C70.1071 17.4441 69.9687 17.5788 69.796 17.5788C69.7461 17.5785 69.697 17.5663 69.6528 17.5433C69.6085 17.5202 69.5704 17.487 69.5415 17.4463L63.3076 8.27262C63.0166 7.84661 62.6262 7.49801 62.17 7.25704C61.7139 7.01607 61.2059 6.89001 60.69 6.88979C58.9388 6.88979 57.5098 8.31207 57.5098 10.0603L57.512 20.5834C57.512 20.7806 57.6728 20.9443 57.873 20.9443H60.2524C60.348 20.9439 60.4396 20.9058 60.5072 20.8382C60.5748 20.7706 60.613 20.679 60.6134 20.5834V10.809C60.6134 10.6386 60.7533 10.5039 60.9259 10.5039C61.0287 10.5039 61.1232 10.5567 61.1782 10.6364L67.4114 19.7468ZM119.523 18.1176C117.018 18.1176 115.739 16.1543 115.739 13.9729C115.739 11.8198 116.976 9.81845 119.523 9.81845C120.584 9.81845 124.762 9.82101 126.778 9.82225L127.876 9.82291C128.076 9.82291 128.232 9.66215 128.232 9.46194V7.34751C128.232 7.25098 128.193 7.15852 128.125 7.09033C128.056 7.02215 127.964 6.98376 127.867 6.98357L119.081 6.98208C114.979 6.98208 112.639 10.2561 112.639 13.9773C112.639 17.6398 114.936 20.9644 119.151 20.9644C120.34 20.9644 124.52 20.9615 126.637 20.9601L127.882 20.9592C128.081 20.9592 128.235 20.7955 128.235 20.596V18.4816C128.236 18.4344 128.228 18.3874 128.211 18.3434C128.194 18.2995 128.168 18.2594 128.135 18.2256C128.102 18.1917 128.062 18.1648 128.019 18.1464C127.975 18.128 127.929 18.1185 127.882 18.1184L119.523 18.1176ZM44.3275 20.9592C45.8361 21.0723 48.0637 21.0537 49.5076 20.9592C53.467 20.7121 55.6276 17.712 55.6276 13.9773C55.6276 10.3938 53.5251 7.19122 49.4376 7.00292C47.9536 6.93594 45.9277 6.91659 44.3714 6.99846C40.3874 7.20759 38.2343 10.2918 38.2343 13.9773C38.2343 17.7016 40.3584 20.663 44.3275 20.9592ZM31.8925 6.98878L20.8738 6.99324C20.7788 6.99363 20.6877 7.03156 20.6205 7.09875C20.5534 7.16594 20.5154 7.25696 20.515 7.35198L20.5195 20.5983C20.5195 20.7985 20.681 20.9585 20.8812 20.9585H23.2628C23.3102 20.9587 23.3572 20.9495 23.401 20.9315C23.4449 20.9134 23.4847 20.8869 23.5183 20.8535C23.5518 20.82 23.5784 20.7802 23.5965 20.7364C23.6146 20.6926 23.6239 20.6456 23.6238 20.5983V10.1839C23.6238 9.98367 23.7853 9.82291 23.9825 9.82291L31.4638 9.81993C32.7975 9.81993 33.7107 10.9214 33.7107 12.2671C33.7107 13.6149 32.7968 14.7283 31.4638 14.7283L25.0431 14.7268C24.9476 14.7276 24.8562 14.7662 24.789 14.8341C24.7218 14.902 24.6842 14.9937 24.6844 15.0893V17.2037C24.6842 17.2509 24.6933 17.2976 24.7113 17.3412C24.7292 17.3848 24.7557 17.4245 24.789 17.4578C24.8224 17.4912 24.862 17.5176 24.9056 17.5355C24.9492 17.5535 24.9959 17.5626 25.0431 17.5624H31.8947C34.775 17.5624 36.7473 15.1853 36.7473 12.2745C36.7473 9.36593 34.7728 6.98878 31.8925 6.98878ZM90.726 20.9592C90.6786 20.9594 90.6317 20.9502 90.5879 20.9322C90.5441 20.9142 90.5043 20.8876 90.4708 20.8542C90.4373 20.8207 90.4108 20.7809 90.3928 20.7371C90.3747 20.6933 90.3656 20.6464 90.3658 20.599V7.34751C90.3658 7.14582 90.5258 6.98357 90.726 6.98357H93.1069C93.3048 6.98357 93.4656 7.14508 93.4656 7.34751V20.5983C93.4657 20.6455 93.4565 20.6922 93.4385 20.7359C93.4205 20.7795 93.3941 20.8192 93.3608 20.8527C93.3275 20.8861 93.2879 20.9127 93.2444 20.9308C93.2008 20.949 93.1541 20.9584 93.1069 20.9585H90.726V20.9592ZM44.9363 18.1199C42.4535 17.8698 41.3304 16.0873 41.3304 13.9729C41.3304 11.8324 42.4944 10.0082 44.9795 9.82812C45.9255 9.76039 47.9126 9.78495 48.8169 9.83035C51.165 9.95092 52.5173 11.6776 52.5173 13.9729C52.5173 16.2652 51.206 17.9472 48.8608 18.1199C47.929 18.1876 45.8391 18.2114 44.9363 18.1199ZM128.807 19.9656C128.807 19.7011 128.912 19.4475 129.099 19.2604C129.286 19.0734 129.539 18.9683 129.804 18.9683C130.068 18.9683 130.322 19.0734 130.509 19.2604C130.696 19.4475 130.801 19.7011 130.801 19.9656C130.801 20.2301 130.696 20.4838 130.509 20.6708C130.322 20.8579 130.068 20.9629 129.804 20.9629C129.539 20.9629 129.286 20.8579 129.099 20.6708C128.912 20.4838 128.807 20.2301 128.807 19.9656ZM130.679 19.9656C130.679 19.4826 130.288 19.0926 129.805 19.0926C129.32 19.0926 128.927 19.4819 128.927 19.9656C128.927 20.198 129.019 20.4208 129.184 20.5851C129.348 20.7493 129.571 20.8416 129.803 20.8416C130.035 20.8416 130.258 20.7493 130.423 20.5851C130.587 20.4208 130.679 20.198 130.679 19.9656ZM129.964 20.0192C130.099 20.0192 130.233 19.9433 130.233 19.7245C130.233 19.6285 130.21 19.5102 130.126 19.4625C130.044 19.4141 129.974 19.4097 129.846 19.4097H129.434V20.5261H129.569V20.0185H129.806L130.126 20.5261H130.303L129.964 20.0192ZM129.57 19.8912V19.528H129.865C130.063 19.528 130.095 19.6002 130.095 19.7007C130.095 19.8763 130 19.8912 129.846 19.8912H129.57ZM8.64564 26.8753C8.64564 26.3268 9.09368 25.8788 9.64667 25.8788C10.1982 25.8788 10.6425 26.3268 10.6425 26.8753C10.6429 27.0064 10.6174 27.1363 10.5676 27.2575C10.5177 27.3788 10.4444 27.489 10.352 27.5819C10.2595 27.6748 10.1496 27.7486 10.0285 27.799C9.90753 27.8494 9.77776 27.8754 9.64667 27.8756C9.51524 27.8757 9.38509 27.8499 9.26365 27.7997C9.1422 27.7494 9.03184 27.6758 8.93888 27.5829C8.84592 27.49 8.77217 27.3797 8.72185 27.2583C8.67154 27.1369 8.64564 27.0067 8.64564 26.8753ZM10.5219 26.8753C10.5219 26.3893 10.1297 25.9993 9.64592 25.9993C9.15992 25.9993 8.7677 26.3886 8.7677 26.8753C8.76428 26.9926 8.78444 27.1095 8.82698 27.2189C8.86952 27.3283 8.93358 27.428 9.01536 27.5122C9.09715 27.5964 9.195 27.6634 9.30311 27.7091C9.41123 27.7548 9.52742 27.7783 9.6448 27.7783C9.76219 27.7783 9.87838 27.7548 9.9865 27.7091C10.0946 27.6634 10.1925 27.5964 10.2742 27.5122C10.356 27.428 10.4201 27.3283 10.4626 27.2189C10.5052 27.1095 10.5253 26.9926 10.5219 26.8753ZM9.80519 26.9282C9.9399 26.9282 10.0768 26.8508 10.0768 26.6327C10.0768 26.5359 10.0508 26.4206 9.9667 26.3729C9.88483 26.3223 9.81487 26.3164 9.6876 26.3164H9.27677V27.4328H9.41148V26.9282H9.6489L9.9667 27.4328H10.1446L9.80519 26.9282ZM9.41074 26.7979V26.4347H9.70918C9.9012 26.4347 9.93246 26.5099 9.93246 26.6104C9.93246 26.783 9.84092 26.7979 9.68462 26.7979H9.41074ZM10.0868 18.3505L10.1001 18.2998L10.1006 18.2978C12.167 10.4036 14.7928 0.372271 14.8118 0.305353C14.8743 0.0887744 14.7128 -0.0652839 14.5059 0.0314694C14.4121 0.0724035 7.39678 3.24815 7.39678 3.24815C7.39678 3.24815 0.405976 0.0746379 0.319642 0.028494C0.13209 -0.0630495 -0.0435549 0.0954727 0.00928737 0.305353C0.0253357 0.364634 1.40901 5.65212 2.95561 11.5623L2.95646 11.5655L2.95798 11.5713C4.92534 19.0893 7.15529 27.6107 7.16904 27.659C7.20476 27.7803 7.27919 27.851 7.35808 27.8748H7.47269C7.5501 27.8525 7.61931 27.7818 7.64983 27.659C7.66409 27.606 8.75806 23.4268 10.0868 18.3505ZM7.39698 25.8623L13.8921 1.04208L7.39698 4.01538L0.898877 1.04208L7.39698 25.8623ZM7.39749 23.8415L13.1283 1.96107L7.39749 4.53545L1.66522 1.96107L7.39749 23.8415ZM7.39722 5.30271L6.96704 7.35536L3.81065 7.78257L6.96704 8.21423L7.39722 10.2059L7.82368 8.21423L10.9823 7.78257L7.82368 7.35536L7.39722 5.30271Z" fill="#1778F2"/>
<path fill-rule="evenodd" clip-rule="evenodd" d="M108.684 18.3871C108.82 18.3871 108.945 18.4615 109.007 18.5724L110.182 20.5983C110.287 20.7932 110.476 20.9585 110.677 20.9585H113.217C113.575 20.9585 113.58 20.7426 113.468 20.5402L106.204 8.00916C105.846 7.38994 105.051 6.90245 104.114 6.90245C103.195 6.90245 102.395 7.36686 102.032 7.98087L94.7584 20.5409C94.6452 20.7434 94.6497 20.9592 95.0099 20.9592H97.5478C97.7495 20.9592 97.9401 20.7933 98.0465 20.599L103.857 10.5605C103.885 10.5173 103.923 10.4818 103.968 10.4574C104.013 10.4329 104.063 10.4202 104.114 10.4205C104.168 10.421 104.22 10.4349 104.266 10.4611C104.312 10.4873 104.351 10.5248 104.379 10.5701L106.946 15.0111C106.978 15.0674 106.995 15.1314 106.995 15.1964C106.995 15.291 106.957 15.3817 106.89 15.4485C106.823 15.5154 106.733 15.5529 106.638 15.5529H102.487C102.287 15.5529 102.003 15.7107 101.888 15.9102L100.668 18.0254C100.555 18.2278 100.697 18.3886 100.896 18.3886H108.684V18.3871ZM83.8066 9.82291H88.8638C89.0633 9.82291 89.2241 9.65917 89.2241 9.45897V7.34751C89.2244 7.29995 89.2153 7.25279 89.1973 7.20875C89.1794 7.1647 89.1529 7.12463 89.1194 7.09082C89.086 7.05702 89.0462 7.03015 89.0023 7.01174C88.9585 6.99334 88.9114 6.98376 88.8638 6.98357H74.8406C74.7931 6.98376 74.7461 6.99335 74.7023 7.01177C74.6585 7.03019 74.6188 7.05709 74.5855 7.09091C74.5522 7.12474 74.5258 7.16482 74.508 7.20886C74.4902 7.2529 74.4813 7.30002 74.4818 7.34751V9.46194C74.4818 9.66215 74.6433 9.82291 74.8406 9.82291L79.9834 9.81993C80.1828 9.81993 80.3451 9.98144 80.3451 10.1816L80.3421 20.5983C80.3421 20.7985 80.5036 20.9585 80.6994 20.9585H83.0892C83.1365 20.9586 83.1834 20.9493 83.2271 20.9313C83.2709 20.9132 83.3106 20.8867 83.3441 20.8532C83.3776 20.8197 83.4041 20.78 83.4222 20.7362C83.4402 20.6925 83.4495 20.6456 83.4494 20.5983L83.4449 10.1913C83.4447 10.0947 83.4825 10.0019 83.5502 9.93294C83.6179 9.864 83.71 9.82447 83.8066 9.82291ZM67.4114 19.7468C67.9815 20.5841 69.016 21.1006 70.1063 21.1006C72.1374 21.1006 73.2114 19.9128 73.2114 17.9614L73.2084 7.34751C73.2088 7.29992 73.1998 7.25272 73.1819 7.20863C73.1639 7.16455 73.1375 7.12443 73.104 7.09061C73.0705 7.05678 73.0307 7.02991 72.9868 7.01154C72.9429 6.99317 72.8958 6.98366 72.8482 6.98357H70.4688C70.4211 6.98347 70.3738 6.99283 70.3297 7.01111C70.2857 7.02939 70.2457 7.05623 70.212 7.09008C70.1784 7.12392 70.1518 7.1641 70.1338 7.20829C70.1158 7.25248 70.1067 7.2998 70.1071 7.34751V17.2737C70.1071 17.4441 69.9687 17.5788 69.796 17.5788C69.7461 17.5785 69.697 17.5663 69.6528 17.5433C69.6085 17.5202 69.5704 17.487 69.5415 17.4463L63.3076 8.27262C63.0166 7.84661 62.6262 7.49801 62.17 7.25704C61.7139 7.01607 61.2059 6.89001 60.69 6.88979C58.9388 6.88979 57.5098 8.31207 57.5098 10.0603L57.512 20.5834C57.512 20.7806 57.6728 20.9443 57.873 20.9443H60.2524C60.348 20.9439 60.4396 20.9058 60.5072 20.8382C60.5748 20.7706 60.613 20.679 60.6134 20.5834V10.809C60.6134 10.6386 60.7533 10.5039 60.9259 10.5039C61.0287 10.5039 61.1232 10.5567 61.1782 10.6364L67.4114 19.7468ZM119.523 18.1176C117.018 18.1176 115.739 16.1543 115.739 13.9729C115.739 11.8198 116.976 9.81845 119.523 9.81845C120.584 9.81845 124.762 9.82101 126.778 9.82225L127.876 9.82291C128.076 9.82291 128.232 9.66215 128.232 9.46194V7.34751C128.232 7.25098 128.193 7.15852 128.125 7.09033C128.056 7.02215 127.964 6.98376 127.867 6.98357L119.081 6.98208C114.979 6.98208 112.639 10.2561 112.639 13.9773C112.639 17.6398 114.936 20.9644 119.151 20.9644C120.34 20.9644 124.52 20.9615 126.637 20.9601L127.882 20.9592C128.081 20.9592 128.235 20.7955 128.235 20.596V18.4816C128.236 18.4344 128.228 18.3874 128.211 18.3434C128.194 18.2995 128.168 18.2594 128.135 18.2256C128.102 18.1917 128.062 18.1648 128.019 18.1464C127.975 18.128 127.929 18.1185 127.882 18.1184L119.523 18.1176ZM44.3275 20.9592C45.8361 21.0723 48.0637 21.0537 49.5076 20.9592C53.467 20.7121 55.6276 17.712 55.6276 13.9773C55.6276 10.3938 53.5251 7.19122 49.4376 7.00292C47.9536 6.93594 45.9277 6.91659 44.3714 6.99846C40.3874 7.20759 38.2343 10.2918 38.2343 13.9773C38.2343 17.7016 40.3584 20.663 44.3275 20.9592ZM31.8925 6.98878L20.8738 6.99324C20.7788 6.99363 20.6877 7.03156 20.6205 7.09875C20.5534 7.16594 20.5154 7.25696 20.515 7.35198L20.5195 20.5983C20.5195 20.7985 20.681 20.9585 20.8812 20.9585H23.2628C23.3102 20.9587 23.3572 20.9495 23.401 20.9315C23.4449 20.9134 23.4847 20.8869 23.5183 20.8535C23.5518 20.82 23.5784 20.7802 23.5965 20.7364C23.6146 20.6926 23.6239 20.6456 23.6238 20.5983V10.1839C23.6238 9.98367 23.7853 9.82291 23.9825 9.82291L31.4638 9.81993C32.7975 9.81993 33.7107 10.9214 33.7107 12.2671C33.7107 13.6149 32.7968 14.7283 31.4638 14.7283L25.0431 14.7268C24.9476 14.7276 24.8562 14.7662 24.789 14.8341C24.7218 14.902 24.6842 14.9937 24.6844 15.0893V17.2037C24.6842 17.2509 24.6933 17.2976 24.7113 17.3412C24.7292 17.3848 24.7557 17.4245 24.789 17.4578C24.8224 17.4912 24.862 17.5176 24.9056 17.5355C24.9492 17.5535 24.9959 17.5626 25.0431 17.5624H31.8947C34.775 17.5624 36.7473 15.1853 36.7473 12.2745C36.7473 9.36593 34.7728 6.98878 31.8925 6.98878ZM90.726 20.9592C90.6786 20.9594 90.6317 20.9502 90.5879 20.9322C90.5441 20.9142 90.5043 20.8876 90.4708 20.8542C90.4373 20.8207 90.4108 20.7809 90.3928 20.7371C90.3747 20.6933 90.3656 20.6464 90.3658 20.599V7.34751C90.3658 7.14582 90.5258 6.98357 90.726 6.98357H93.1069C93.3048 6.98357 93.4656 7.14508 93.4656 7.34751V20.5983C93.4657 20.6455 93.4565 20.6922 93.4385 20.7359C93.4205 20.7795 93.3941 20.8192 93.3608 20.8527C93.3275 20.8861 93.2879 20.9127 93.2444 20.9308C93.2008 20.949 93.1541 20.9584 93.1069 20.9585H90.726V20.9592ZM44.9363 18.1199C42.4535 17.8698 41.3304 16.0873 41.3304 13.9729C41.3304 11.8324 42.4944 10.0082 44.9795 9.82812C45.9255 9.76039 47.9126 9.78495 48.8169 9.83035C51.165 9.95092 52.5173 11.6776 52.5173 13.9729C52.5173 16.2652 51.206 17.9472 48.8608 18.1199C47.929 18.1876 45.8391 18.2114 44.9363 18.1199ZM128.807 19.9656C128.807 19.7011 128.912 19.4475 129.099 19.2604C129.286 19.0734 129.539 18.9683 129.804 18.9683C130.068 18.9683 130.322 19.0734 130.509 19.2604C130.696 19.4475 130.801 19.7011 130.801 19.9656C130.801 20.2301 130.696 20.4838 130.509 20.6708C130.322 20.8579 130.068 20.9629 129.804 20.9629C129.539 20.9629 129.286 20.8579 129.099 20.6708C128.912 20.4838 128.807 20.2301 128.807 19.9656ZM130.679 19.9656C130.679 19.4826 130.288 19.0926 129.805 19.0926C129.32 19.0926 128.927 19.4819 128.927 19.9656C128.927 20.198 129.019 20.4208 129.184 20.5851C129.348 20.7493 129.571 20.8416 129.803 20.8416C130.035 20.8416 130.258 20.7493 130.423 20.5851C130.587 20.4208 130.679 20.198 130.679 19.9656ZM129.964 20.0192C130.099 20.0192 130.233 19.9433 130.233 19.7245C130.233 19.6285 130.21 19.5102 130.126 19.4625C130.044 19.4141 129.974 19.4097 129.846 19.4097H129.434V20.5261H129.569V20.0185H129.806L130.126 20.5261H130.303L129.964 20.0192ZM129.57 19.8912V19.528H129.865C130.063 19.528 130.095 19.6002 130.095 19.7007C130.095 19.8763 130 19.8912 129.846 19.8912H129.57ZM8.64564 26.8753C8.64564 26.3268 9.09368 25.8788 9.64667 25.8788C10.1982 25.8788 10.6425 26.3268 10.6425 26.8753C10.6429 27.0064 10.6174 27.1363 10.5676 27.2575C10.5177 27.3788 10.4444 27.489 10.352 27.5819C10.2595 27.6748 10.1496 27.7486 10.0285 27.799C9.90753 27.8494 9.77776 27.8754 9.64667 27.8756C9.51524 27.8757 9.38509 27.8499 9.26365 27.7997C9.1422 27.7494 9.03184 27.6758 8.93888 27.5829C8.84592 27.49 8.77217 27.3797 8.72185 27.2583C8.67154 27.1369 8.64564 27.0067 8.64564 26.8753ZM10.5219 26.8753C10.5219 26.3893 10.1297 25.9993 9.64592 25.9993C9.15992 25.9993 8.7677 26.3886 8.7677 26.8753C8.76428 26.9926 8.78444 27.1095 8.82698 27.2189C8.86952 27.3283 8.93358 27.428 9.01536 27.5122C9.09715 27.5964 9.195 27.6634 9.30311 27.7091C9.41123 27.7548 9.52742 27.7783 9.6448 27.7783C9.76219 27.7783 9.87838 27.7548 9.9865 27.7091C10.0946 27.6634 10.1925 27.5964 10.2742 27.5122C10.356 27.428 10.4201 27.3283 10.4626 27.2189C10.5052 27.1095 10.5253 26.9926 10.5219 26.8753ZM9.80519 26.9282C9.9399 26.9282 10.0768 26.8508 10.0768 26.6327C10.0768 26.5359 10.0508 26.4206 9.9667 26.3729C9.88483 26.3223 9.81487 26.3164 9.6876 26.3164H9.27677V27.4328H9.41148V26.9282H9.6489L9.9667 27.4328H10.1446L9.80519 26.9282ZM9.41074 26.7979V26.4347H9.70918C9.9012 26.4347 9.93246 26.5099 9.93246 26.6104C9.93246 26.783 9.84092 26.7979 9.68462 26.7979H9.41074ZM10.0868 18.3505L10.1001 18.2998L10.1006 18.2978C12.167 10.4036 14.7928 0.372271 14.8118 0.305353C14.8743 0.0887744 14.7128 -0.0652839 14.5059 0.0314694C14.4121 0.0724035 7.39678 3.24815 7.39678 3.24815C7.39678 3.24815 0.405976 0.0746379 0.319642 0.028494C0.13209 -0.0630495 -0.0435549 0.0954727 0.00928737 0.305353C0.0253357 0.364634 1.40901 5.65212 2.95561 11.5623L2.95646 11.5655L2.95798 11.5713C4.92534 19.0893 7.15529 27.6107 7.16904 27.659C7.20476 27.7803 7.27919 27.851 7.35808 27.8748H7.47269C7.5501 27.8525 7.61931 27.7818 7.64983 27.659C7.66409 27.606 8.75806 23.4268 10.0868 18.3505ZM7.39698 25.8623L13.8921 1.04208L7.39698 4.01538L0.898877 1.04208L7.39698 25.8623ZM7.39749 23.8415L13.1283 1.96107L7.39749 4.53545L1.66522 1.96107L7.39749 23.8415ZM7.39722 5.30271L6.96704 7.35536L3.81065 7.78257L6.96704 8.21423L7.39722 10.2059L7.82368 8.21423L10.9823 7.78257L7.82368 7.35536L7.39722 5.30271Z" fill="#1778F2"/>
</g>
</svg>
