<svg width="145" height="26" viewBox="0 0 145 26" fill="none" xmlns="http://www.w3.org/2000/svg">
<path d="M27.6242 16.717C27.3105 17.176 26.8505 17.4892 26.223 17.4892C24.9684 17.4892 24.4244 16.6337 24.3409 14.9014H33.4167C34.4416 14.9014 34.3575 14.0459 34.3575 14.0459C34.3575 11.3122 33.5002 9.28818 32.0781 8.1821C30.6768 7.15936 28.8788 6.61703 26.1186 6.61703C23.4627 6.61703 21.4136 7.15936 20.1591 8.1821C18.821 9.35069 17.8797 11.3122 17.8797 14.0459C17.8797 16.7796 18.7369 18.7411 20.0755 19.9097C21.3301 21.0783 23.3589 21.4748 26.035 21.4748C28.7744 21.4748 30.8026 21.0783 31.9945 19.9097C32.9353 19.1376 33.6464 17.8856 33.9602 16.2366H28.398C27.8539 16.2372 27.6242 16.717 27.6242 16.717ZM24.3409 12.8779C24.487 11.3962 25.0519 10.6032 26.223 10.6032C27.394 10.6032 27.9374 11.3753 28.1051 12.8779H24.3409ZM52.7597 9.83109V6.93016H50.7314V3.42438H45.1692C44.6258 3.42438 44.2285 3.82086 44.2285 4.36319V20.9949H49.9374C50.4809 20.9949 50.7111 20.5985 50.7111 20.0561V10.5401H52.1124C52.5294 10.5401 52.7597 10.2276 52.7597 9.83109ZM119.07 25.002C119.613 25.002 120.095 24.6055 120.324 24.2298L129.546 7.01351H123.838C123.294 7.01351 122.75 7.40998 122.436 7.78562L119.927 12.2516L117.02 7.01351H111.227C110.767 7.01351 110.516 7.32663 110.684 7.78562L116.476 18.7411L113.193 25.0014H119.07V25.002ZM36.8671 0.00195312C36.3237 0.00195312 35.9264 0.315084 35.9264 0.940764V21.0158H41.5727C42.0326 21.0158 42.3464 20.5568 42.3464 20.077V0.00195312H36.8671ZM102.947 17.0302C101.609 17.0302 101.065 16.0074 101.065 13.9834C101.065 12.0218 101.608 10.9366 102.947 10.9366C104.286 10.9366 104.829 12.0218 104.829 13.9834C104.808 16.008 104.264 17.0302 102.947 17.0302ZM107.234 7.18078C106.063 6.7843 104.578 6.55452 102.926 6.55452C101.212 6.55452 99.7896 6.7843 98.535 7.18078C96.3392 7.89038 94.7082 10.2276 94.7082 13.984C94.7082 17.4897 96.1095 19.7644 98.1586 20.6199H98.2421C98.3257 20.6199 98.3883 20.7032 98.4724 20.7032C99.6434 21.1622 101.128 21.3295 102.927 21.3295C104.641 21.3295 106.063 21.0997 107.234 20.7032C109.43 19.9936 111.082 17.6564 111.082 13.9C111.082 10.2276 109.43 7.89038 107.234 7.18078ZM61.2915 17.1766C59.9534 17.1766 59.4094 16.1539 59.4094 14.1298C59.4094 12.1683 59.9529 11.083 61.2915 11.083C62.6296 11.083 63.1736 12.1683 63.1736 14.1298C63.1736 16.0914 62.6296 17.1766 61.2915 17.1766ZM68.3385 7.09685C68.3385 7.09685 63.4033 6.70037 61.1448 6.70037C60.371 6.70037 59.5764 6.78372 58.8654 6.84623C58.7192 6.84623 58.6351 6.92958 58.5516 6.92958C57.4641 7.07544 56.2095 7.63918 55.3523 8.32795C54.4115 9.10007 53.7005 10.2895 53.3867 11.8337C53.2405 12.46 53.1564 13.169 53.1564 13.9411C53.1564 14.5674 53.2399 15.1931 53.3026 15.736C53.6164 17.8434 54.5571 19.2418 55.8122 20.1181C55.8122 20.1181 55.8958 20.1181 55.8958 20.2014C55.9793 20.2848 56.0419 20.2848 56.126 20.3473H56.2095C56.2931 20.4306 56.3557 20.4306 56.4398 20.4931C57.0674 20.8062 57.6943 21.0355 58.4054 21.0355H68.5055C68.5055 21.0355 69.2793 21.0355 69.2793 20.0966V7.05518H68.3385V7.09685ZM8.21802 17.0927C6.87996 17.0927 6.2524 16.0074 6.2524 14.0459C6.2524 12.0844 6.79586 10.9991 8.1345 10.9991C9.47314 10.9991 10.0166 12.0844 10.0166 14.0459C10.0792 16.008 9.53578 17.0927 8.21802 17.0927ZM10.7903 0.00195312C9.84956 0.00195312 9.84956 0.940764 9.84956 0.940764V6.63787C9.3061 6.55452 8.76206 6.55452 8.13508 6.55452C7.04758 6.55452 6.10682 6.63787 5.22812 6.7843C4.76818 6.93016 4.20326 7.01409 3.82684 7.18078C1.63096 7.89038 0 10.3109 0 13.9834C0 15.0686 0.08352 16.0074 0.31378 16.8843C0.54404 17.6564 0.94134 18.2827 1.25454 18.9084C1.4007 19.0542 1.56832 19.3048 1.65184 19.4507C2.5926 20.4734 3.76362 21.0158 5.10226 21.0158H15.4326C15.4326 21.0158 16.2899 21.0158 16.2899 20.077V0.00195312H10.7903ZM79.0662 0.00195312C78.5227 0.00195312 78.1254 0.315084 78.1254 0.940764V21.0158H83.7717C84.2317 21.0158 84.629 20.5568 84.629 20.077V0.00195312H79.0662ZM87.5145 0.00195312C86.971 0.00195312 86.5737 0.315084 86.5737 0.940764V21.0158H92.22C92.6799 21.0158 93.0772 20.5568 93.0772 20.077V0.00195312H87.5145ZM136.907 17.0927C135.569 17.0927 135.025 16.0699 135.025 14.0459C135.025 12.0844 135.569 10.9991 136.907 10.9991C138.246 10.9991 138.789 12.0844 138.789 14.0459C138.789 16.0074 138.245 17.0927 136.907 17.0927ZM139.584 0.00195312C138.643 0.00195312 138.643 0.940764 138.643 0.940764V6.63787C138.1 6.55452 137.556 6.55452 136.929 6.55452C135.841 6.55452 134.9 6.63787 134.022 6.7843C133.478 6.86765 132.997 7.01409 132.537 7.18078C130.341 7.89038 128.71 10.2276 128.71 13.984C128.71 15.0692 128.794 16.008 129.024 16.8849C129.254 17.657 129.651 18.2833 129.965 18.909C130.111 19.0548 130.278 19.3054 130.362 19.4513C131.303 20.474 132.474 21.0164 133.812 21.0164H144.143C144.143 21.0164 145 21.0163 145 20.0775V0.00195312H139.584Z" fill="#1778F2"/>
</svg>
