<svg width="60" height="60" viewBox="0 0 60 60" fill="none" xmlns="http://www.w3.org/2000/svg">
<path d="M0 10C0 4.47715 4.47715 0 10 0H50C55.5228 0 60 4.47715 60 10V50C60 55.5228 55.5228 60 50 60H10C4.47715 60 0 55.5228 0 50V10Z" fill="#FFBB0B"/>
<path d="M34.6818 29.1703C34.7065 31.8231 33.6473 34.1812 32.1326 36.329C31.8454 36.7358 31.5369 37.1287 31.2149 37.5063C30.71 38.1002 30.1254 38.1154 29.6306 37.5273C27.7535 35.2989 26.415 32.7958 26.1626 29.7829C26.0077 27.9333 26.4577 26.1913 27.1959 24.5253C27.8029 23.155 28.6119 21.9204 29.57 20.791C30.0761 20.1947 30.6539 20.1106 31.1173 20.6484C33.1963 23.0591 34.6504 25.7938 34.6818 29.1703Z" fill="white"/>
<path d="M19.4037 27.7135C19.4037 27.3242 19.3812 26.9337 19.4093 26.5467C19.453 25.9341 19.7459 25.5845 20.317 25.5564C21.7172 25.4875 23.1152 25.5003 24.484 25.9013C24.8565 26.0112 25.0013 26.1925 24.9036 26.6157C24.0891 30.1383 24.9867 33.3056 26.7796 36.281C26.9973 36.6435 27.2452 36.986 27.4719 37.3426C27.5594 37.4794 27.7535 37.6127 27.6245 37.7916C27.5324 37.9202 27.3451 37.8535 27.1992 37.8255C25.5914 37.5133 24.1272 36.8691 22.8616 35.776C20.4393 33.682 19.3655 30.9544 19.4037 27.7135Z" fill="white"/>
<path d="M39.3672 25.5459C39.7408 25.5459 40.1155 25.5202 40.4869 25.5518C41.0647 25.6021 41.38 25.9189 41.4182 26.5222C41.6145 29.5854 41.0479 32.4147 39.0036 34.7623C37.5462 36.4354 35.7252 37.4315 33.5979 37.8325C33.4566 37.8594 33.2714 37.9249 33.1862 37.7705C33.0998 37.6139 33.2557 37.4853 33.341 37.3649C34.6245 35.5398 35.5951 33.564 36.0237 31.325C36.3165 29.7958 36.321 28.2666 35.953 26.7572C35.8161 26.1948 35.9855 25.9832 36.4837 25.8616C37.434 25.6301 38.391 25.505 39.3672 25.5459Z" fill="white"/>
<path d="M28.6858 39.709C27.4404 40.5753 26.1749 41.1447 24.7701 41.3773C22.6417 41.7281 20.7489 41.0406 18.9605 39.9358C18.0102 39.3489 17.1462 38.6345 16.3766 37.8044C15.8739 37.2619 15.8728 36.7592 16.3833 36.2272C17.1384 35.4404 17.99 34.7775 18.8853 34.1719C19.2129 33.9509 19.3936 34.0176 19.6045 34.3508C21.5074 37.3555 24.1833 39.0718 27.611 39.5149C27.777 39.5359 27.9453 39.5406 28.1125 39.5546C28.2718 39.5675 28.4435 39.5266 28.6858 39.709Z" fill="white"/>
<path d="M32.2425 39.6271C32.8809 39.5382 33.5261 39.4821 34.1566 39.3535C37.1254 38.7444 39.4479 37.1041 41.1264 34.4922C41.4192 34.0362 41.638 33.931 42.089 34.2619C42.9159 34.8675 43.7316 35.4813 44.4452 36.2296C44.9535 36.7615 44.9647 37.2759 44.4486 37.8044C42.5962 39.7019 40.4869 41.1224 37.839 41.4264C35.7566 41.6638 33.9266 40.9132 32.2425 39.6271Z" fill="white"/>
<path d="M30.545 44.9947C30.2476 45.0169 30.067 44.969 29.9054 44.8626C29.0202 44.2745 28.2023 43.6034 27.4999 42.785C27.2452 42.488 27.2643 42.2998 27.6368 42.1455C28.4906 41.79 29.2738 41.2943 30.0154 40.7343C30.3037 40.5168 30.5304 40.5204 30.8165 40.7366C31.5581 41.2967 32.3435 41.7842 33.194 42.1513C33.4431 42.2589 33.6529 42.3805 33.3937 42.695C32.6588 43.5917 31.787 44.3154 30.8165 44.9128C30.7088 44.9783 30.5697 44.9877 30.545 44.9947Z" fill="white"/>
<path d="M31.3113 16.8124C31.3113 17.1432 31.345 17.4788 31.3034 17.8038C31.2361 18.3369 30.8535 18.6877 30.3958 18.6573C29.9021 18.6246 29.5689 18.3323 29.5307 17.8249C29.4813 17.1666 29.478 16.5002 29.5229 15.842C29.5599 15.3065 29.9515 14.9908 30.4317 15.0002C30.9063 15.0084 31.2574 15.3381 31.3158 15.8782C31.3494 16.1857 31.3214 16.5002 31.3214 16.8124C31.318 16.8124 31.3147 16.8124 31.3113 16.8124Z" fill="white"/>
<path d="M24.2607 21.9169C24.1519 21.8865 24.0027 21.8853 23.9051 21.8105C23.2857 21.3381 22.7214 20.7957 22.3018 20.1269C22.0583 19.7388 22.1828 19.326 22.5205 19.0303C22.8594 18.7345 23.2689 18.6935 23.601 18.994C24.0924 19.4383 24.5502 19.9282 24.9844 20.4332C25.2245 20.7115 25.2369 21.0739 25.0585 21.4177C24.8902 21.7368 24.613 21.8724 24.2607 21.9169Z" fill="white"/>
<path d="M36.6093 21.9075C35.8901 21.9216 35.4155 21.1488 35.7824 20.5502C36.1751 19.9106 36.7226 19.3927 37.3072 18.9426C37.6415 18.6842 38.0275 18.7684 38.3372 19.0572C38.6289 19.3296 38.7579 19.7084 38.5571 20.058C38.1419 20.7805 37.545 21.3405 36.8887 21.8269C36.8023 21.89 36.6755 21.89 36.6093 21.9075Z" fill="white"/>
</svg>
