<svg width="60" height="60" viewBox="0 0 60 60" fill="none" xmlns="http://www.w3.org/2000/svg">
<rect width="60" height="60" rx="10" fill="#FFBB0B"/>
<path d="M17.154 39.7767C17.1501 38.5719 17.4651 37.6126 18.0096 36.7333C19.2296 34.7653 20.4263 32.7814 21.693 30.8454C24.8849 25.9635 31.8769 25.9061 35.1246 30.7507C36.4483 32.7253 37.6852 34.7653 38.9078 36.8094C39.9916 38.6239 40.0448 40.5238 38.9895 42.3717C37.9458 44.1996 36.3187 45.0228 34.278 44.9975C33.5986 44.9895 32.9595 44.7707 32.3372 44.5105C29.6586 43.3898 27.006 43.4765 24.3339 44.5825C21.1212 45.9128 17.7789 43.9408 17.2058 40.4238C17.163 40.1623 17.163 39.8941 17.154 39.7767Z" fill="white"/>
<path d="M21.0422 20.7934C21.0565 19.3978 21.4182 18.1129 22.2583 17.0028C24.3768 14.201 28.0874 14.3531 29.953 17.3697C31.2988 19.5459 31.3169 21.8394 30.0516 24.0622C29.0999 25.734 27.644 26.7 25.7122 26.5665C23.7973 26.4344 22.4865 25.2977 21.649 23.5672C21.2276 22.7 21.0202 21.7713 21.0422 20.7934Z" fill="white"/>
<path d="M31.4141 22.8281C31.4983 21.2404 32.2749 19.5339 34.0291 18.3985C36.3109 16.9215 39.1334 17.8421 40.2017 20.3878C41.3556 23.1376 40.0941 26.5252 37.4492 27.7781C35.4721 28.7147 33.2823 28.0289 32.1427 26.1183C31.6448 25.2831 31.4128 24.3945 31.4141 22.8281Z" fill="white"/>
<path d="M46.2822 30.6907C46.2705 33.3111 44.2363 35.642 41.725 35.9142C39.6377 36.1397 37.8874 34.7414 37.4622 32.5093C36.8269 29.1724 39.9774 25.8755 43.1966 26.5079C45.07 26.8762 46.2913 28.532 46.2822 30.6907Z" fill="white"/>
<path d="M13 26.0834C13.0013 23.7579 14.3315 22.0154 16.415 21.6431C17.447 21.459 18.3843 21.7779 19.2478 22.3329C21.1251 23.5391 22.0573 26.0794 21.4427 28.2689C20.5961 31.2896 17.377 32.3409 14.9914 30.3756C13.6975 29.3109 12.9987 27.8046 13 26.0834Z" fill="white"/>
</svg>
