<svg width="60" height="60" viewBox="0 0 60 60" fill="none" xmlns="http://www.w3.org/2000/svg">
<path d="M0 10C0 4.47715 4.47715 0 10 0H50C55.5228 0 60 4.47715 60 10V50C60 55.5228 55.5228 60 50 60H10C4.47715 60 0 55.5228 0 50V10Z" fill="#F96438"/>
<path d="M29.9715 15.0219C31.8783 15.0219 33.7866 15.0834 35.69 15.0108C40.9103 14.8078 46.2181 19.0965 47.2783 25.7951C47.9094 29.7896 48.347 33.8251 48.7946 37.8513C49.0959 40.5534 48.2325 42.7528 46.0734 44.1718C43.4178 45.9167 40.0924 44.8143 38.5879 41.7118C37.5681 39.6074 36.5836 37.4807 35.6244 35.3428C35.3484 34.7264 35.0051 34.5048 34.3874 34.5104C31.4155 34.5421 28.4435 34.5421 25.4732 34.5104C24.8556 34.503 24.5106 34.7246 24.2346 35.341C23.2905 37.4528 22.3077 39.546 21.3131 41.6298C20.1519 44.0619 17.9995 45.2817 15.5862 44.9167C13.4658 44.5964 11.6096 42.5982 11.1131 40.073C10.8691 38.8346 11.0744 37.598 11.2242 36.3745C11.6449 32.9052 12.0421 29.4321 12.5486 25.9776C13.5213 19.3461 18.8039 14.7705 24.2548 15.0089C26.1564 15.0908 28.0665 15.0219 29.9715 15.0219ZM25.83 25.5735C25.83 24.1023 25.83 24.106 24.7832 24.0967C22.9236 24.0781 23.1188 24.3164 23.1559 22.2475C23.1727 21.3461 22.9186 21.0668 22.1108 21.1022C20.374 21.1748 20.581 20.9271 20.5676 22.7894C20.5592 24.093 20.5625 24.0892 19.4384 24.1004C17.6966 24.119 17.9288 23.8527 17.8564 25.8379C17.8228 26.7746 18.1442 26.9757 18.9217 26.9627C20.7813 26.9273 20.5861 26.7262 20.5491 28.7952C20.5322 29.6965 20.7864 29.9758 21.5941 29.9423C23.3326 29.8697 23.1239 30.1155 23.1373 28.2551C23.1458 26.9478 23.1424 26.9478 24.349 26.9441C24.4332 26.9441 24.5173 26.9441 24.6015 26.9441C25.83 26.9385 25.83 26.9385 25.83 25.5735ZM39.6566 21.4858C39.6397 20.4858 38.8807 19.6552 37.9955 19.6645C37.0733 19.6738 36.3312 20.5566 36.3598 21.605C36.3884 22.6497 37.0935 23.4132 38.0191 23.4058C38.9783 23.3983 39.6767 22.579 39.6566 21.4858ZM34.3824 27.3426C35.3686 27.3556 36.104 26.5735 36.1006 25.512C36.0972 24.4859 35.4039 23.7187 34.4564 23.6926C33.509 23.6684 32.7163 24.5027 32.7197 25.5213C32.7231 26.5083 33.4753 27.3314 34.3824 27.3426ZM41.639 23.6926C40.6511 23.6777 39.9157 24.4561 39.9157 25.5176C39.9157 26.5437 40.6074 27.3147 41.5548 27.3426C42.5023 27.3705 43.2966 26.5381 43.2966 25.5195C43.2966 24.5362 42.5444 23.7075 41.639 23.6926ZM39.6582 29.5159C39.6633 28.4246 38.9514 27.6182 37.9905 27.6294C37.0632 27.6406 36.3766 28.4134 36.3598 29.4618C36.343 30.5084 37.107 31.3837 38.0258 31.3688C38.9161 31.3558 39.6532 30.5196 39.6582 29.5159Z" fill="white"/>
</svg>
