<svg width="60" height="60" viewBox="0 0 60 60" fill="none" xmlns="http://www.w3.org/2000/svg">
<rect width="60" height="60" rx="10" fill="#F96438"/>
<path d="M25.787 26.7C25.2412 27.3633 24.749 27.948 24.2698 28.5463C23.8338 29.091 23.3299 29.4282 22.6333 29.1946C21.9108 28.9523 21.6046 28.3939 21.5368 27.6057C21.4047 26.0529 21.2259 24.5064 21.0809 22.9549C21.0482 22.6001 20.9161 22.4502 20.5736 22.4253C19.2375 22.3303 19.2387 22.3203 19.2375 23.7344C19.2375 24.1504 19.2398 24.5676 19.2223 24.9824C19.1989 25.527 18.9511 25.7943 18.4099 25.8106C16.7126 25.8593 16.6787 25.8381 16.6787 24.013C16.6787 23.8468 16.6787 23.6795 16.6787 23.5133C16.6787 22.5727 16.6787 22.5727 15.8417 22.4115C15.3321 22.3141 15.0059 21.9118 15.0001 21.3772C14.9942 20.81 15.297 20.3229 15.8616 20.3154C16.6623 20.3054 16.7266 19.8569 16.6869 19.1973C16.6565 18.7002 16.6857 18.1992 16.7021 17.6996C16.7196 17.1786 16.9791 16.9201 17.4712 16.8738C19.0411 16.7264 19.2363 16.9088 19.2363 18.594C19.2363 18.7601 19.2363 18.9275 19.2363 19.0937C19.2363 20.3041 19.262 20.3241 20.3737 20.2504C20.6355 20.2329 20.7817 20.163 20.8717 19.8569C21.0996 19.0874 21.635 18.6602 22.2697 18.6577C22.8834 18.6564 23.4071 19.0612 23.6467 19.7982C23.7554 20.1317 23.9179 20.2941 24.237 20.2454C25.3966 20.0668 26.167 20.489 26.977 21.5071C28.7819 23.7731 32.0748 23.3572 33.578 20.8313C33.848 20.3778 34.1438 20.1904 34.6195 20.2442C34.8311 20.2679 35.0486 20.2329 35.2613 20.2504C35.8376 20.2991 36.2841 20.2492 36.4969 19.4909C36.6652 18.89 37.2251 18.6277 37.8178 18.6727C38.4291 18.7189 38.9306 19.0637 39.0802 19.707C39.2883 20.6027 39.909 20.1929 40.3567 20.2204C40.8734 20.2529 40.7425 19.7595 40.7553 19.4334C40.7775 18.8513 40.7658 18.2679 40.7845 17.6858C40.8009 17.1599 41.0733 16.9138 41.563 16.8713C43.1388 16.7352 43.3188 16.9063 43.3188 18.6027C43.3188 18.7689 43.3188 18.9363 43.3188 19.1024C43.3188 20.073 43.3188 20.073 44.1651 20.2966C44.7414 20.4478 45.043 20.8738 44.995 21.4696C44.9506 22.0105 44.5824 22.4253 44.0108 22.4065C43.4065 22.3865 43.2826 22.6726 43.3118 23.2322C43.3422 23.8131 43.3223 24.3977 43.3036 24.9799C43.2861 25.5233 43.0359 25.7943 42.4935 25.8093C40.7951 25.8593 40.76 25.8356 40.76 24.013C40.76 23.9293 40.76 23.8468 40.76 23.7631C40.76 22.3403 40.76 22.3528 39.4531 22.4215C39.0802 22.4415 38.9505 22.6076 38.9154 22.9874C38.774 24.5389 38.5986 26.0866 38.4619 27.6382C38.3952 28.4002 38.0901 28.9448 37.3934 29.1834C36.7026 29.4208 36.1848 29.096 35.7452 28.5588C35.2075 27.9017 34.671 27.2447 34.1368 26.5913C33.9462 26.645 34.0175 26.7974 34.0164 26.8986C34.0105 28.3764 34.0234 29.8542 34.0059 31.332C34.0012 31.748 34.1379 31.9679 34.5038 32.1228C35.9708 32.7411 37.4238 33.3982 38.8873 34.0253C39.66 34.3563 40.1089 34.9272 40.234 35.8216C40.5507 38.1039 40.9026 40.3812 41.2194 42.6622C41.3772 43.794 40.6887 44.7671 39.6331 44.9707C38.6991 45.1506 37.75 44.4861 37.5641 43.4067C37.2555 41.6079 37.0042 39.7978 36.7646 37.9865C36.7073 37.558 36.5576 37.3157 36.1848 37.1595C34.9527 36.6424 33.7288 36.1015 32.5038 35.5643C32.2279 35.4431 31.9438 35.4169 31.6504 35.3907C29.2179 35.1833 26.9233 35.5868 24.6894 36.7335C23.6993 37.242 23.1499 37.7304 23.0833 38.9496C23.0097 40.3125 22.7303 41.6654 22.5245 43.0195C22.2791 44.626 21.0704 45.4105 19.8313 44.7846C19.1042 44.4173 18.6565 43.5916 18.7746 42.7409C19.0937 40.4387 19.4444 38.1401 19.76 35.8366C19.8862 34.9135 20.355 34.3413 21.1487 34.0041C22.5771 33.3957 23.9962 32.7611 25.4235 32.1465C25.6947 32.0291 25.9039 31.8967 25.9016 31.5319C25.8934 30.0129 25.8958 28.4926 25.8911 26.9736C25.8934 26.9249 25.8537 26.8699 25.787 26.7Z" fill="white"/>
<path d="M29.987 21.8019C28.2488 21.7982 26.818 20.2779 26.8145 18.4328C26.8121 16.5703 28.2803 14.9913 30.0069 15C31.7065 15.0075 33.1782 16.5803 33.1829 18.3941C33.1899 20.2704 31.7486 21.8057 29.987 21.8019Z" fill="white"/>
</svg>
