<svg width="60" height="60" viewBox="0 0 60 60" fill="none" xmlns="http://www.w3.org/2000/svg">
<path d="M0 10C0 4.47715 4.47715 0 10 0H50C55.5228 0 60 4.47715 60 10V50C60 55.5228 55.5228 60 50 60H10C4.47715 60 0 55.5228 0 50V10Z" fill="#1778F2"/>
<path d="M19.1456 33.6365C18.8114 33.6378 18.6006 33.4176 18.3872 33.2052C17.418 32.2357 16.4462 31.2688 15.4822 30.2941C14.8395 29.6452 14.8382 29.3208 15.4848 28.6731C18.4643 25.6836 21.4464 22.6978 24.4286 19.7121C25.669 18.4684 26.9081 17.2221 28.1536 15.9835C28.7719 15.3694 29.1113 15.3681 29.727 15.9771C30.7154 16.9569 31.7001 17.9418 32.6783 18.9345C33.2567 19.5216 33.2605 19.8808 32.6795 20.464C28.43 24.7269 24.1741 28.986 19.9207 33.2464C19.7047 33.4614 19.4811 33.6597 19.1456 33.6365Z" fill="white"/>
<path d="M25.3901 34.7721C25.3901 36.3802 25.394 37.9882 25.3876 39.5963C25.385 40.3727 25.0302 40.8117 24.4004 40.8542C23.7538 40.898 23.3451 40.5362 23.2332 39.7701C23.0983 38.8444 22.6844 38.1492 21.737 37.8891C20.8758 37.6522 20.1817 37.947 19.6393 38.6307C19.2871 39.0749 19.2266 39.6092 19.2228 40.1513C19.2151 41.2662 19.2266 42.3812 19.2176 43.4962C19.2099 44.4232 18.7112 44.9742 17.8963 44.9781C17.08 44.982 16.5607 44.4309 16.5581 43.5142C16.5517 40.6418 16.571 37.7681 16.5427 34.8957C16.5376 34.324 16.8859 34.1206 17.2625 33.8695C17.6636 33.603 17.8397 33.9699 18.0762 34.145C18.9091 34.763 19.7241 34.7 20.5493 33.8888C21.8489 32.6129 23.1201 31.3087 24.4197 30.0328C24.6819 29.7753 24.9261 29.2319 25.2667 29.3864C25.5701 29.5229 25.3798 30.0894 25.3837 30.4641C25.3991 31.8996 25.3901 33.3352 25.3901 34.7721Z" fill="white"/>
<path d="M39.7659 43.0211C39.5114 43.0056 39.334 42.855 39.1643 42.6851C37.8789 41.3963 36.5987 40.1036 35.3056 38.8213C34.8853 38.4041 34.8763 38.0539 35.3223 37.6329C36.1308 36.8681 36.911 36.0724 37.6848 35.2729C38.0293 34.9175 38.3545 34.9278 38.681 35.2536C40.0307 36.5977 41.3765 37.947 42.7185 39.3002C43.0115 39.5963 43.0887 39.9105 42.7467 40.2491C41.8932 41.0911 41.0513 41.9447 40.2029 42.7919C40.0834 42.9142 39.96 43.0378 39.7659 43.0211Z" fill="white"/>
<path d="M38.757 20.213C38.7917 21.0486 38.514 21.7747 37.9562 22.3863C36.0924 24.4257 34.2272 26.4638 32.3531 28.4929C31.3055 29.6272 31.3107 30.437 32.4045 31.5366C32.5704 31.7039 32.7387 31.8687 32.9046 32.0361C33.4277 32.5653 33.3982 32.8009 32.7837 33.2296C32.6218 33.3429 32.483 33.3906 32.3261 33.2464C31.3042 32.3091 30.3016 31.3756 30.4327 29.7894C30.4983 29.0053 30.7669 28.3345 31.2914 27.7629C33.0987 25.7879 34.9034 23.8115 36.7209 21.8455C37.9266 20.5426 37.9279 19.8241 36.6811 18.5701C36.0924 17.9779 35.5114 17.3766 34.9059 16.8024C34.1283 16.0646 33.2542 15.9835 32.4213 16.6492C31.8595 17.0985 31.6667 16.6221 31.3968 16.3466C31.0549 15.9964 31.4135 15.8149 31.6346 15.6436C32.8133 14.7295 34.5872 14.7887 35.717 15.8239C36.505 16.5462 37.2492 17.3199 37.987 18.0963C38.5449 18.6808 38.7827 19.4044 38.757 20.213Z" fill="white"/>
<path d="M41.7981 45C41.2235 44.9125 40.9253 44.5146 40.6798 44.091C40.4664 43.7228 40.7865 43.5027 41.0075 43.2786C41.7608 42.519 42.5282 41.7735 43.2698 41.0023C43.6079 40.6508 43.9151 40.5556 44.3162 40.8955C44.9152 41.4014 45.1517 41.919 44.7943 42.3053C43.9691 43.1988 43.0757 44.0318 42.1965 44.8751C42.1027 44.964 41.9227 44.9627 41.7981 45Z" fill="white"/>
<path d="M36.6912 33.3545C36.9354 33.4459 37.1025 33.6377 37.2337 33.8592C37.3648 34.0794 37.3828 34.3163 37.1912 34.5107C36.2915 35.4209 35.402 36.3428 34.4713 37.2222C34.0947 37.5788 33.7708 37.2582 33.4829 36.9853C33.1808 36.6981 33.3826 36.4986 33.5883 36.2926C34.479 35.4016 35.3673 34.5094 36.2593 33.6197C36.3776 33.5026 36.4843 33.3571 36.6912 33.3545Z" fill="white"/>
<path d="M33.0099 34.8609C33.0099 33.9596 34.1038 32.9605 34.9637 33.0416C35.3005 33.0738 35.4277 33.1871 35.1655 33.4601C34.5871 34.0639 33.9907 34.6497 33.3994 35.2407C33.3261 35.3141 33.231 35.4274 33.1295 35.3669C32.9225 35.2458 33.0472 35.0192 33.0099 34.8609Z" fill="white"/>
</svg>
