<svg width="60" height="60" viewBox="0 0 60 60" fill="none" xmlns="http://www.w3.org/2000/svg">
<path d="M0 10C0 4.47715 4.47715 0 10 0H50C55.5228 0 60 4.47715 60 10V50C60 55.5228 55.5228 60 50 60H10C4.47715 60 0 55.5228 0 50V10Z" fill="#1778F2"/>
<path d="M29.0137 45C25.0434 44.8922 21.2802 43.2843 18.2634 40.0321C18.0114 39.7598 17.7826 39.6506 17.3876 39.6857C16.2803 39.7841 15.1675 39.8258 14.0847 39.466C12.246 38.8568 11.546 37.3351 12.2978 35.5628C12.7105 34.591 13.3615 33.7864 14.1324 33.0788C14.447 32.7904 14.5574 32.5033 14.4988 32.0774C14.0003 28.4195 14.7562 25.0285 16.7406 21.903C21.6112 14.2327 32.559 12.6693 39.4303 18.6548C40.2012 19.3273 40.904 20.0552 41.5155 20.8665C41.7702 21.2048 42.0086 21.3544 42.4812 21.2547C43.5027 21.039 44.5269 21.1967 45.4858 21.5768C47.236 22.2709 47.5329 24.5163 46.0592 25.7105C45.9366 25.8102 45.8113 25.9275 45.6669 25.9746C44.4861 26.3507 44.3621 27.1135 44.5174 28.2564C45.3251 34.1854 42.2442 40.1264 36.9719 43.0444C34.6415 44.3301 32.1504 44.9811 29.0137 45ZM15.8976 29.7269C15.869 32.6907 16.6453 35.1571 18.1299 37.4227C18.4077 37.8459 18.721 37.9713 19.2154 37.8352C20.4208 37.5036 21.5935 37.0952 22.7267 36.5696C23.8176 36.0628 24.8691 35.4914 25.8674 34.8229C26.272 34.552 26.6874 34.4886 27.0088 34.9199C27.3616 35.393 27.1191 35.7636 26.7119 36.0615C26.4926 36.2219 26.2624 36.3661 26.0322 36.5103C24.2385 37.6343 22.3235 38.4983 20.2859 39.0846C19.7657 39.2342 19.6962 39.4148 20.1211 39.7612C20.4889 40.0604 20.8308 40.3919 21.2094 40.6776C23.8776 42.6912 26.8917 43.6091 30.2422 43.4339C30.4438 43.4231 30.708 43.5093 30.7475 43.1481C30.8565 42.1683 30.5568 41.764 29.5571 41.5955C28.3095 41.3866 27.5236 40.4418 27.5482 39.187C27.5727 37.9996 28.4294 37.0858 29.6743 36.9685C30.0992 36.9281 30.456 36.8001 30.7965 36.5507C31.9679 35.6935 32.9962 35.6787 34.1757 36.513C35.554 37.4874 36.7349 38.664 37.6992 40.0415C37.9566 40.4108 38.135 40.458 38.4837 40.1412C41.9595 36.9995 43.4482 33.099 43.0451 28.4802C43.0219 28.2147 43.1077 27.7119 42.7223 27.7268C42.36 27.7416 41.9405 27.9734 41.7825 28.402C41.7212 28.5691 41.694 28.7497 41.6613 28.9249C41.3902 30.4264 41.1028 31.9251 40.8604 33.4306C40.7664 34.0169 40.5008 34.4131 39.971 34.6881C39.3091 35.0318 38.6744 35.4294 38.0247 35.7973C37.0945 36.3229 36.5456 36.0035 36.566 34.9266C36.5864 33.8727 36.6327 32.8187 36.6913 31.7661C36.7226 31.2108 36.5742 31.1501 36.0975 31.4318C34.2438 32.5289 32.2321 33.2028 30.0924 33.4818C28.6705 33.6678 27.2458 33.6961 26.1099 32.6367C24.9222 31.5289 23.7822 30.3671 22.6449 29.2066C22.1669 28.7187 22.2431 28.2281 22.8261 27.8629C23.3818 27.5152 23.9715 27.2213 24.5313 26.879C24.9576 26.6189 25.3608 26.6162 25.8211 26.8008C26.9557 27.255 28.1107 27.6621 29.2466 28.1176C29.617 28.2659 29.914 28.2726 30.2626 28.057C30.9355 27.6405 31.6369 27.2685 32.3234 26.8736C32.4773 26.786 32.7183 26.7267 32.7211 26.5421C32.7238 26.3048 32.4446 26.2792 32.2757 26.1876C31.6001 25.8196 30.9096 25.4773 30.2368 25.1053C29.4699 24.6808 29.4441 24.0716 30.1932 23.616C31.1207 23.0526 32.0768 22.5351 33.0153 21.9879C33.383 21.7736 33.7426 21.7965 34.1239 21.938C34.9098 22.2278 35.7365 22.434 36.4829 22.8019C37.7332 23.4192 38.8419 23.426 39.9833 22.527C40.4327 22.1739 40.5308 22.0067 40.159 21.5606C37.7482 18.6656 34.666 16.997 30.9055 16.5657C29.914 16.4525 29.0246 17.4337 29.1921 18.4041C29.3188 19.1333 29.4427 19.8638 29.5653 20.5943C29.8213 22.1173 29.4659 22.5809 27.8791 22.7292C27.416 22.7723 27.0715 22.9435 26.7745 23.2939C26.1017 24.0877 25.3826 24.1174 24.6267 23.3923C23.992 22.7831 23.3804 22.1483 22.743 21.5418C22.2976 21.1186 22.0838 21.1806 21.904 21.7749C21.5921 22.8073 21.3075 23.8465 20.9928 24.8775C20.7504 25.67 20.3377 25.9692 19.4987 25.9827C18.7047 25.9949 17.9092 26.0056 17.1166 25.98C16.6521 25.9639 16.4233 26.1242 16.3089 26.5852C16.0324 27.7052 15.8676 28.8319 15.8976 29.7269ZM45.4939 23.7737C45.4272 23.3289 45.1807 23.0338 44.7081 22.8922C43.6089 22.5634 42.6269 22.6631 41.6041 23.2804C39.068 24.8115 36.472 26.2442 33.8992 27.7146C31.8562 28.8832 29.8118 30.0463 27.7729 31.2202C27.6095 31.3146 27.3289 31.3604 27.3711 31.6097C27.4079 31.8294 27.6721 31.8577 27.8573 31.9265C28.2891 32.0882 28.7331 32.1138 29.1948 32.072C31.6614 31.851 33.9196 31.0477 36.0157 29.7579C36.4434 29.4951 36.882 29.2956 36.8602 28.6702C36.8493 28.367 37.1326 28.1756 37.3995 28.0246C38.5014 27.4006 39.6033 26.7739 40.6997 26.1391C41.0593 25.9315 41.4134 25.8277 41.7689 26.1215C41.9595 26.2792 42.1312 26.255 42.3259 26.1418C43.2071 25.6309 44.0911 25.1282 44.9723 24.6188C45.2869 24.4368 45.4585 24.1578 45.4939 23.7737ZM40.2489 28.1271C39.5719 28.5314 39.0367 28.84 38.5137 29.1702C38.3312 29.2848 38.2849 29.4964 38.2767 29.7053C38.2317 30.9803 38.2971 32.258 38.1418 33.5303C38.1255 33.6611 38.0914 33.9387 38.3339 33.8457C38.7438 33.6867 39.2655 33.5425 39.3636 33.0559C39.6795 31.4817 39.9356 29.898 40.2489 28.1271ZM15.7995 38.2112C15.9575 38.2112 16.1155 38.2085 16.2735 38.2112C16.6072 38.2166 16.7488 38.1263 16.5432 37.7812C15.9698 36.8149 15.4794 35.8094 15.1253 34.742C15.0463 34.5034 14.9251 34.3754 14.7113 34.6274C14.2169 35.2124 13.7429 35.8094 13.5645 36.579C13.4296 37.1613 13.6407 37.5858 14.1569 37.8689C14.669 38.1479 15.2288 38.2058 15.7995 38.2112ZM36.5823 24.4341C35.8223 24.1578 35.189 24.0163 34.6497 23.7117C33.7603 23.2103 33.0997 23.6376 32.4037 24.0783C32.0932 24.2751 32.1926 24.422 32.4487 24.5581C33.0275 24.8654 33.6104 25.1687 34.1879 25.48C34.4127 25.6013 34.6197 25.569 34.8294 25.4463C35.3552 25.139 35.8836 24.8371 36.5823 24.4341ZM27.8887 29.3643C27.8396 29.2915 27.8165 29.2093 27.7688 29.1905C26.9298 28.8616 26.1276 28.4128 25.2191 28.309C24.9467 28.278 24.609 28.4775 24.4905 28.7349C24.3679 29.0018 24.7057 29.1419 24.8677 29.3064C26.1358 30.5949 26.1398 30.5922 27.6067 29.5665C27.6966 29.5045 27.7852 29.4384 27.8887 29.3643Z" fill="white"/>
</svg>
