<svg width="60" height="60" viewBox="0 0 60 60" fill="none" xmlns="http://www.w3.org/2000/svg">
<rect width="60" height="60" rx="10" fill="#0F4ECC"/>
<path d="M40.0067 28.9806C40.0067 27.5275 40.0093 26.0733 40.0042 24.6202C40.0029 24.2626 40.0106 23.9498 40.5239 23.9697C41.0015 23.9884 41.5046 23.9361 41.6093 24.5617C41.6502 24.8047 41.617 25.0589 41.6348 25.3069C41.6451 25.4602 41.5493 25.6845 41.7625 25.7405C41.9362 25.7866 42.0614 25.6084 42.175 25.4888C42.4687 25.181 42.553 24.7984 42.5555 24.3959C42.5606 23.4825 42.5721 22.5691 42.553 21.6556C42.5325 20.6412 42.0013 20.0954 40.9811 20.0842C39.1729 20.063 37.3647 20.0842 35.5553 20.0717C35.153 20.0693 34.9526 20.1914 34.987 20.6063C35.0049 20.812 34.9832 21.0213 34.9883 21.2294C35.0024 21.7964 34.7278 22.0756 34.1404 22.0706C33.4177 22.0644 32.6936 22.0855 31.9709 22.0656C31.5597 22.0544 31.4013 22.2014 31.409 22.6089C31.4358 24.2364 31.2456 23.9573 32.7192 23.9697C34.5695 23.9847 36.421 23.9922 38.2714 23.9623C38.8588 23.9523 39.095 24.0931 39.0886 24.7174C39.058 27.5824 39.0605 30.4485 39.0873 33.3135C39.0924 33.9041 38.8754 34.0562 38.3109 34.0437C36.9293 34.0138 35.5438 34.0001 34.1634 34.0487C33.4904 34.0724 33.3053 33.8294 33.3551 33.2225C33.3985 32.6866 33.3742 32.1433 33.3615 31.6037C33.3372 30.6018 32.9784 29.7694 32.0028 29.3145C31.6721 29.16 31.6338 28.9556 31.7295 28.6653C31.8623 28.2603 31.847 27.8428 31.8266 27.4291C31.7678 26.2265 31.0374 25.5536 29.8179 25.5636C28.6253 25.5723 27.8348 26.234 27.8693 27.4029C27.8999 28.4335 28.0059 29.3482 26.8682 29.98C26.3689 30.2566 26.3216 30.9831 26.3114 31.5763C26.2999 32.1994 26.2923 32.8225 26.3114 33.4443C26.3242 33.8605 26.1824 34.045 25.7291 34.04C24.2185 34.0225 22.7078 34.025 21.1972 34.04C20.7682 34.0437 20.5728 33.9079 20.5919 33.468C20.6341 32.5246 20.6877 31.6187 20.9533 30.6691C21.2904 29.4703 21.3607 28.1269 20.809 26.8945C20.4221 26.0296 20.6277 25.1361 20.6302 24.2551C20.6315 23.9 21.0018 23.981 21.2381 23.981C23.2595 23.9735 25.2809 23.9847 27.3011 23.9672C27.6126 23.9648 28.0902 24.1691 28.2039 23.7554C28.3379 23.2669 28.3354 22.7223 28.1847 22.2201C28.1234 22.017 27.8552 22.0768 27.6701 22.0756C26.9678 22.0706 26.2654 22.0818 25.5644 22.0693C24.8953 22.0581 24.7025 21.8612 24.6846 21.202C24.6744 20.8282 24.6718 20.4543 24.6833 20.0805C24.6935 19.7527 24.5862 19.5671 24.2134 19.5783C23.7664 19.592 23.3195 19.5907 22.8739 19.5783C22.6057 19.5708 22.4461 19.7116 22.2877 19.8923C21.8587 20.3808 21.3109 20.5926 20.6494 20.5802C19.7555 20.5627 18.8617 20.5864 17.9691 20.5727C16.7585 20.5515 15.9962 19.7477 16 18.5178C16.0038 17.324 16.7649 16.5214 17.9423 16.5015C18.8783 16.4853 19.8143 16.5052 20.7503 16.4953C21.3402 16.4903 21.8229 16.7034 22.229 17.1121C22.5457 17.4311 24.1138 17.6579 24.5007 17.4523C24.6884 17.3526 24.6782 17.1844 24.6795 17.0211C24.6833 16.6685 24.6782 16.3146 24.6833 15.9619C24.6935 15.1843 24.8685 15.0049 25.6627 15.0036C27.9829 14.9974 30.3019 15.0011 32.6208 15.0011C33.0039 15.0011 33.387 15.0011 33.7701 15.0011C34.8772 15.0036 34.9896 15.1095 34.9909 16.1625C34.9921 16.8479 35.0266 17.5346 34.9806 18.2175C34.9411 18.8044 35.1237 19.0162 35.757 19.0013C37.5218 18.9627 39.2891 18.9838 41.0538 18.9888C42.6807 18.9938 43.6652 19.9596 43.6729 21.5509C43.678 22.5479 43.6652 23.5448 43.6754 24.5405C43.6882 25.6608 43.1761 26.4621 42.1239 26.8845C41.7 27.054 41.6221 27.302 41.6246 27.6945C41.6387 29.4803 41.6336 31.266 41.6285 33.0518C41.6259 33.8531 41.4101 34.0275 40.6056 34.04C40.1114 34.0475 39.9952 33.8356 39.9991 33.4019C40.017 31.929 40.0067 30.4548 40.0067 28.9806ZM22.5993 25.0689C22.1651 25.0477 21.814 25.1112 21.7501 25.5175C21.7016 25.819 21.5369 26.2265 21.9059 26.4135C22.2584 26.5917 22.5993 26.4695 22.7411 26.0446C22.75 26.0172 22.8087 25.9972 22.847 25.986C23.2646 25.8701 23.1765 25.5387 23.1178 25.277C23.0488 24.9766 22.7462 25.0888 22.5993 25.0689ZM37.0621 25.0614C36.8029 25.0502 36.5117 25.0477 36.5219 25.4863C36.5296 25.8539 37.1157 26.4459 37.4937 26.4658C37.9828 26.492 37.9687 26.1804 37.9623 25.8552C37.9508 25.2408 37.7619 25.0614 37.0621 25.0614ZM21.7157 32.1047C21.7003 32.501 21.7616 32.8449 22.1792 32.9085C22.4882 32.9558 22.9058 33.1166 23.0973 32.7564C23.2799 32.4125 23.1548 32.0798 22.7206 31.9414C22.6925 31.9327 22.6721 31.8754 22.6606 31.838C22.5418 31.4305 22.2022 31.5165 21.934 31.5738C21.625 31.6399 21.7386 31.9352 21.7157 32.1047ZM37.9598 32.162C37.9687 31.843 38.0019 31.5177 37.5052 31.5402C37.1808 31.5551 36.5539 32.1271 36.5232 32.4461C36.4811 32.8848 36.7301 32.9571 37.1042 32.9496C37.7567 32.9359 37.9496 32.7714 37.9598 32.162Z" fill="white"/>
<path d="M27.7493 41.4422C27.8272 40.3642 27.5309 39.0583 28.0966 37.8246C28.1911 37.6189 28.0864 37.4395 27.9766 37.2451C27.7046 36.7691 27.5463 36.3528 28.1005 35.8506C28.5065 35.483 28.2486 34.8225 28.2282 34.2967C28.2141 33.9415 27.8463 34.0462 27.6127 34.0287C27.3394 34.0076 27.2423 33.8642 27.2436 33.6225C27.2449 32.8125 27.213 32.0012 27.2577 31.1937C27.296 30.4822 27.8617 29.9874 28.6189 29.9638C29.4272 29.9388 30.2368 29.9388 31.0438 29.9638C31.8547 29.9887 32.3987 30.5183 32.4281 31.3071C32.4549 32.0324 32.4281 32.7601 32.4395 33.4867C32.4447 33.8281 32.3578 34.0649 31.9466 34.03C31.5112 33.9926 31.3605 34.2182 31.4218 34.5957C31.5048 35.1004 31.1703 35.6699 31.8343 36.0974C32.0807 36.2556 32.0296 36.8463 31.75 37.1878C31.5572 37.4233 31.4818 37.6563 31.6121 37.933C31.962 38.6757 31.9364 39.4645 31.93 40.2558C31.9198 41.502 31.9313 42.7469 31.9262 43.9931C31.9224 44.8205 31.7525 44.9912 30.9289 44.9975C30.1423 45.0037 29.3544 44.9962 28.5678 44.9975C28.0136 44.9987 27.748 44.7295 27.7506 44.1912C27.7519 43.3401 27.7493 42.4889 27.7493 41.4422ZM29.3302 39.5044C29.5383 39.7673 29.0888 40.3044 29.6967 40.4041C30.5279 40.5412 30.3083 39.8919 30.2815 39.5006C30.2572 39.1467 30.6173 38.5212 29.818 38.5299C29.0582 38.5386 29.5128 39.153 29.3302 39.5044Z" fill="white"/>
<path d="M18.0431 28.9869C18.0431 27.6186 18.0367 26.2503 18.0457 24.882C18.0508 24.1106 18.7454 23.6932 19.4541 24.0085C19.6546 24.0982 19.6572 24.2577 19.661 24.4209C19.6699 24.8147 19.684 25.2098 19.6648 25.6023C19.6355 26.1942 19.7095 26.75 20.0262 27.2746C20.3008 27.7295 20.168 28.2491 20.1743 28.7401C20.1858 29.6249 20.2241 30.491 19.7747 31.3421C19.4669 31.9241 19.6955 32.6481 19.6738 33.3086C19.661 33.6974 19.7006 34.0513 19.1043 34.0413C18.356 34.0288 18.061 33.8743 18.0533 33.2762C18.0342 31.8456 18.0469 30.415 18.0469 28.9856C18.0444 28.9869 18.0444 28.9869 18.0431 28.9869Z" fill="white"/>
<path d="M28.7682 27.7183C28.7695 26.6778 28.993 26.4385 29.9392 26.4659C30.6288 26.4859 30.879 26.7338 30.902 27.4205C30.9071 27.565 30.9046 27.7108 30.9033 27.8554C30.8995 28.7987 30.6875 29.0405 29.86 29.0467C28.9866 29.0517 28.7708 28.8149 28.767 27.8417C28.7682 27.8018 28.7682 27.7607 28.7682 27.7183Z" fill="white"/>
</svg>
