<svg width="60" height="60" viewBox="0 0 60 60" fill="none" xmlns="http://www.w3.org/2000/svg">
<path d="M-7.62939e-06 10C-7.62939e-06 4.47715 4.47715 0 9.99999 0H50C55.5228 0 60 4.47715 60 10V50C60 55.5228 55.5228 60 50 60H9.99999C4.47715 60 -7.62939e-06 55.5228 -7.62939e-06 50V10Z" fill="#C83EDE"/>
<path d="M21.2687 26.5742C22.4082 26.8635 23.339 27.3625 24.2378 27.9198C26.5058 29.3237 28.3317 31.1969 29.8457 33.3928C30.2472 33.9762 30.2619 33.9911 30.6893 33.4027C32.6576 30.6966 33.7566 27.7262 33.36 24.3088C33.3563 24.2728 33.3833 24.2331 33.4115 24.1524C33.6878 24.3014 33.6964 24.5819 33.7627 24.8153C34.497 27.3848 34.3325 29.9692 33.8327 32.5462C33.0162 36.7617 31.4174 40.6867 29.4503 44.4728C29.2538 44.8514 29.0021 45.014 28.5785 44.9991C27.8847 44.9742 27.1873 44.978 26.4935 44.9978C25.9925 45.0127 25.8746 44.8762 26.1165 44.3933C26.9441 42.7349 27.4242 40.9797 27.5802 39.1202C27.8245 36.2006 27.0915 33.5541 25.5087 31.1311C24.5313 29.6341 23.3071 28.3667 21.9195 27.2532C21.7095 27.0832 21.4492 26.9516 21.2687 26.5742Z" fill="white"/>
<path d="M31.5623 29.1785C31.5561 30.1306 31.2921 30.7761 30.5873 31.1497C29.8432 31.5445 29.158 31.3161 28.5342 30.8406C27.6538 30.1691 27.2265 28.8707 27.531 27.859C27.8908 26.6673 29.0328 26.1857 30.106 26.8051C31.0711 27.3612 31.5414 28.2326 31.5623 29.1785Z" fill="white"/>
<path d="M24.8665 36.635C24.2796 37.669 23.7172 38.6224 23.4102 39.7085C24.0377 39.099 24.4859 38.358 24.9292 37.6144C25.0028 37.4903 25.0544 37.3525 25.1305 37.2309C25.1907 37.1365 25.2263 36.9764 25.3921 37.0397C25.5026 37.0819 25.4989 37.2023 25.5198 37.3029C25.8648 38.9724 25.1588 40.7277 23.7553 41.6984C23.2788 42.0273 22.7705 42.2855 22.2241 42.4717C21.9515 42.5648 21.7378 42.5536 21.6691 42.211C21.1951 39.8265 21.809 37.6616 24.5903 36.6189C24.6394 36.599 24.7045 36.6226 24.8665 36.635Z" fill="white"/>
<path d="M23.2702 17.6913C23.5441 18.2971 23.7626 18.8222 24.0156 19.3311C24.2685 19.8413 24.5559 20.3353 24.7695 20.8964C23.5011 20.4806 22.4218 19.8252 21.8717 18.5205C21.4407 17.4977 21.4505 16.4326 21.6592 15.3577C21.7218 15.0374 21.8852 14.9704 22.186 15.0386C24.4392 15.555 25.9852 17.9545 25.5186 20.2286C25.494 20.3465 25.4952 20.5029 25.338 20.5054C25.1968 20.5066 25.1575 20.354 25.1035 20.2484C24.7364 19.531 24.3152 18.8495 23.824 18.2127C23.6926 18.0439 23.5956 17.8328 23.2702 17.6913Z" fill="white"/>
<path d="M34.4799 20.8704C35.0729 19.8326 35.6586 18.852 36.0602 17.5871C35.1478 18.5516 34.626 19.5744 33.9776 20.534C33.7247 19.5496 33.7075 18.5839 34.082 17.6504C34.6518 16.2353 35.8195 15.5141 37.1751 15.0374C37.4293 14.948 37.6172 15.0114 37.6761 15.308C38.1599 17.7422 37.5067 19.8984 34.7082 20.9088C34.6751 20.92 34.6309 20.8977 34.4799 20.8704Z" fill="white"/>
<path d="M34.4614 36.6189C36.205 36.8722 37.6539 38.5169 37.7964 40.3019C37.8443 40.9002 37.8172 41.4973 37.7018 42.0919C37.6306 42.4569 37.4968 42.5822 37.1173 42.4705C34.7843 41.789 33.452 39.7334 33.8204 37.3563C33.8388 37.2359 33.8228 37.0795 33.9591 37.0373C34.1532 36.9789 34.1839 37.1751 34.2453 37.2893C34.7082 38.1631 35.2411 38.9861 35.9349 39.7073C35.6181 38.6324 35.0741 37.6641 34.4614 36.6189Z" fill="white"/>
<path d="M20.5455 28.5007C19.8566 28.5007 19.2869 28.4759 18.7208 28.5082C18.156 28.5405 17.5948 28.6298 17.0349 28.7428C18.1498 29.0208 19.282 29.0556 20.4399 29.1139C19.7559 29.8699 18.9087 30.323 17.9313 30.4533C16.4406 30.6507 15.2311 29.9965 14.1542 29.0283C13.9737 28.8669 13.9418 28.7142 14.1112 28.5007C15.5688 26.6561 18.9971 26.5817 20.5455 28.5007Z" fill="white"/>
<path d="M38.8966 29.0096C39.5229 29.0096 40.1159 29.0543 40.6992 28.9972C41.2653 28.9414 41.8461 28.9637 42.4293 28.7564C41.2604 28.4647 40.0889 28.4871 38.8905 28.4089C39.5597 27.6827 40.3701 27.2197 41.3242 27.0794C42.8345 26.8572 44.0747 27.4866 45.1774 28.4672C45.3554 28.6248 45.4033 28.7688 45.2339 28.991C43.8709 30.7847 40.4524 30.9399 38.9593 29.2641C38.9273 29.2269 38.9322 29.1574 38.8966 29.0096Z" fill="white"/>
<path d="M35.4843 32.4146C36.2235 32.7336 36.7908 33.178 37.4883 33.3282C37.0352 32.7498 36.3328 32.5214 35.7864 32.0608C36.6066 31.5941 37.9266 31.8548 38.7579 32.6393C39.2466 33.0998 39.5511 33.6795 39.7722 34.3089C39.8618 34.5633 39.836 34.7284 39.5352 34.8178C37.8763 35.3143 36.1068 34.4119 35.5273 32.7547C35.5027 32.684 35.5064 32.602 35.4843 32.4146Z" fill="white"/>
<path d="M23.6164 32.0099C23.0123 32.5226 22.3075 32.746 21.7193 33.4051C22.5568 33.1867 23.1241 32.741 23.8203 32.5052C23.6091 33.3294 23.21 34.0208 22.472 34.4677C21.6407 34.9717 20.737 35.0151 19.8099 34.814C19.6024 34.7694 19.471 34.6738 19.5361 34.4305C19.9831 32.7795 21.5253 31.352 23.6164 32.0099Z" fill="white"/>
<path d="M23.8792 25.1131C23.1192 24.7296 22.4524 24.3944 21.7856 24.058C22.1724 24.5657 22.6832 24.8922 23.2137 25.1938C23.3426 25.2671 23.5698 25.3068 23.5047 25.5228C23.4556 25.6879 23.2628 25.6332 23.1278 25.6432C21.3964 25.7723 20.1673 24.9456 19.5975 23.3045C19.4624 22.9148 19.5435 22.7621 19.9536 22.6702C21.7353 22.2693 23.4507 23.2698 23.8792 25.1131Z" fill="white"/>
<path d="M37.5594 24.0568C36.8926 24.3932 36.2271 24.7284 35.537 25.0759C35.6168 23.8197 36.8779 22.7063 38.2925 22.6032C38.7996 22.5672 39.4872 22.458 39.7316 22.8577C40.0103 23.3145 39.5204 23.8483 39.2367 24.2852C38.4926 25.4309 37.3924 25.776 36.097 25.6395C35.9987 25.6296 35.8759 25.642 35.8342 25.5265C35.7765 25.3664 35.9214 25.3105 36.0196 25.2547C36.5832 24.9295 37.1505 24.6117 37.5594 24.0568Z" fill="white"/>
<path d="M29.8923 21.8721C29.8702 21.0404 29.8665 20.3081 29.6676 19.4131C29.4994 20.3056 29.4404 21.0293 29.4036 21.7914C28.8572 21.2825 28.5158 20.6643 28.4176 19.9282C28.2739 18.8483 28.7049 17.9533 29.3668 17.1464C29.5338 16.9429 29.6909 16.8746 29.9279 17.0819C31.2553 18.2487 31.2884 20.5489 29.8923 21.8721Z" fill="white"/>
<path d="M26.017 23.137C26.0109 22.5797 26.1963 22.4717 26.6801 22.741C27.1479 23.0005 27.3837 23.4101 27.4549 23.929C27.4832 24.1388 27.4807 24.3423 27.2818 24.4826C27.0485 24.6477 26.8545 24.5223 26.6666 24.3957C26.2221 24.1003 26.0134 23.6758 26.017 23.137Z" fill="white"/>
<path d="M31.8742 24.1115C31.9381 23.389 32.234 22.9434 32.8099 22.674C33.1819 22.499 33.2851 22.6802 33.3268 22.9993C33.4017 23.5665 33.0923 24.181 32.5938 24.4541C32.428 24.5459 32.2659 24.6179 32.0805 24.4975C31.9025 24.3821 31.8693 24.2095 31.8742 24.1115Z" fill="white"/>
<path d="M34.5793 28.9042C34.8101 28.7304 35.0496 28.8347 35.2804 28.7726C35.0557 28.6845 34.8064 28.7987 34.6063 28.6522C35.0238 28.0191 36.162 27.9893 36.6102 28.5827C36.7514 28.7701 36.6667 28.8756 36.528 28.9948C35.941 29.4988 35.025 29.5075 34.5793 28.9042Z" fill="white"/>
</svg>
