<svg width="60" height="60" viewBox="0 0 60 60" fill="none" xmlns="http://www.w3.org/2000/svg">
<rect width="60" height="60" rx="10" fill="#A5DD2A"/>
<path d="M25.7663 29.5096C26.1895 29.5096 26.6127 29.5154 27.0358 29.5084C27.4916 29.5003 27.6585 29.6402 27.4723 30.1033C27.2317 30.6993 27.054 31.3186 26.8484 31.9275C26.7469 32.2261 26.7868 32.492 27.1313 32.583C27.4541 32.6681 27.598 32.4348 27.6875 32.1771C27.9124 31.5332 28.1663 30.8964 28.3512 30.2432C28.5217 29.6437 28.8917 29.4233 29.5059 29.5049C29.6643 29.5259 29.8275 29.5061 29.9883 29.5084C31.4947 29.5353 31.242 29.2845 31.8321 30.7891C32.2891 31.9543 32.5684 33.1696 32.7932 34.3955C32.8513 34.7151 32.9045 35.0837 33.3288 35.0265C33.8088 34.9623 33.7266 34.5506 33.6662 34.2299C33.4038 32.8326 33.0749 31.4504 32.5188 30.1313C32.3108 29.6391 32.4861 29.5014 32.9722 29.5061C33.7774 29.5154 34.5838 29.5271 35.389 29.5003C35.8835 29.4839 36.2088 29.6682 36.511 30.0391C38.8759 32.9457 40.2578 36.2663 41.0219 39.8576C41.3169 41.2432 41.433 42.6638 41.9492 44.0063C42.1342 44.4857 41.7872 44.7271 41.3339 44.81C40.0668 45.0397 38.7925 45.0642 37.581 44.6175C35.782 43.9538 34.0398 43.9597 32.2274 44.6117C30.6931 45.1622 29.09 45.1132 27.5509 44.5545C25.9102 43.9597 24.3022 43.9387 22.6627 44.5475C21.3921 45.0199 20.0682 45.0631 18.737 44.824C18.0031 44.6922 17.8665 44.4239 18.1119 43.7579C18.569 42.5239 18.6766 41.2187 18.9413 39.9451C19.6656 36.4705 20.981 33.2525 23.1814 30.3809C23.6808 29.7289 24.2091 29.3906 25.0409 29.5026C25.2779 29.5341 25.5233 29.5073 25.7651 29.5073C25.7663 29.5073 25.7663 29.5084 25.7663 29.5096ZM26.0239 36.3293C26.0541 36.6489 25.9235 37.0863 26.3999 37.1248C26.9028 37.1656 26.8883 36.7212 26.9258 36.3795C26.9717 35.9584 27.0201 35.5374 27.0527 35.1163C27.0733 34.8539 27.0479 34.5903 26.69 34.5611C26.3588 34.5331 26.2221 34.7536 26.181 35.0195C26.1133 35.4546 26.0746 35.8966 26.0239 36.3293Z" fill="white"/>
<path d="M29.9326 26.0233C28.2194 26.0233 26.5074 26.0105 24.7942 26.0315C24.3167 26.0373 24.0761 25.8542 23.8814 25.4471C23.1475 23.911 23.0206 22.3528 23.5804 20.7432C24.0567 19.3739 24.3421 17.9707 24.4074 16.5221C24.4509 15.5447 25.1751 14.9743 26.2415 15.0023C27.2353 15.028 27.841 15.6182 27.8531 16.5933C27.864 17.468 27.835 18.3428 27.8628 19.2176C27.9148 20.8458 29.4635 21.7614 30.9772 21.0756C31.8151 20.6954 32.0896 19.9862 32.1149 19.1663C32.1415 18.3113 32.1161 17.4564 32.1258 16.6003C32.1379 15.6345 32.7533 15.0292 33.7326 15.0012C34.8075 14.9709 35.5244 15.5284 35.5679 16.5128C35.6332 17.9812 35.927 19.4019 36.4118 20.7898C36.9753 22.4053 36.7987 23.9612 36.0745 25.4926C35.8883 25.8868 35.6344 26.035 35.1907 26.0303C33.4388 26.014 31.6857 26.0233 29.9326 26.0233Z" fill="white"/>
<path d="M30.0039 28.7024C28.4153 28.7024 26.8278 28.6896 25.2391 28.7094C24.7168 28.7152 24.4738 28.5822 24.4944 28.0201C24.5391 26.7417 24.3964 26.8934 25.6611 26.891C28.6764 26.884 31.6917 26.905 34.7071 26.8759C35.3285 26.87 35.5582 27.066 35.4736 27.6422C35.4591 27.7366 35.4724 27.8358 35.4712 27.9326C35.4663 28.6861 35.4567 28.7001 34.6466 28.7012C33.1003 28.7047 31.5527 28.7024 30.0039 28.7024Z" fill="white"/>
<path d="M31.2251 18.9002C31.2347 19.1591 31.2275 19.4694 31.0945 19.761C30.9071 20.1727 30.5649 20.3885 30.1116 20.4281C29.6364 20.469 29.2265 20.3185 28.9739 19.9149C28.6402 19.3819 28.7429 18.7859 28.7865 18.2109C28.8058 17.9555 29.0464 18.0091 29.2157 18.0616C29.6098 18.1852 30.0112 18.1841 30.4102 18.1386C31.2287 18.0441 31.2275 18.0348 31.2251 18.9002Z" fill="white"/>
</svg>
