<svg width="60" height="61" viewBox="0 0 60 61" fill="none" xmlns="http://www.w3.org/2000/svg">
<path d="M0 10.0012C0 4.47837 4.47715 0.0012207 10 0.0012207H50C55.5228 0.0012207 60 4.47837 60 10.0012V50.0012C60 55.5241 55.5228 60.0012 50 60.0012H10C4.47715 60.0012 0 55.5241 0 50.0012V10.0012Z" fill="#A5DD2A"/>
<path d="M29.501 44.9987C26.0499 44.9987 22.5987 44.9999 19.1488 44.9987C17.6967 44.9976 17.0108 44.3386 17.0096 42.9434C17.0072 38.8351 17.0192 34.7268 17 30.6185C16.9953 29.6452 17.3628 28.9605 18.3192 28.631C18.5898 28.5375 18.7059 28.3891 18.6879 28.1157C18.6616 27.7254 18.8914 27.6168 19.2493 27.6191C20.3267 27.6261 21.4041 27.6273 22.4802 27.6179C22.8585 27.6144 23.1039 27.7137 23.0836 28.1391C23.0752 28.3155 23.0812 28.5048 23.3266 28.541C23.5624 28.5749 23.7635 28.5317 23.8712 28.291C24.0628 27.8633 24.2675 27.4403 24.4518 27.0092C24.8205 26.1468 25.4514 25.621 26.421 25.5206C26.6065 25.5019 26.7885 25.4972 26.816 25.2588C26.84 25.0438 26.7741 24.8791 26.5586 24.7844C25.7075 24.4082 25.2 23.7924 25.1437 22.8565C25.1246 22.548 24.8768 22.576 24.6553 22.5632C23.6055 22.5013 23.238 22.1274 23.2356 21.105C23.232 19.5275 23.2296 17.9513 23.2368 16.3739C23.2404 15.4461 23.6821 15.0056 24.6242 15.0044C27.8754 14.9986 31.1267 14.9986 34.3779 15.0044C35.3212 15.0056 35.7653 15.445 35.7689 16.3704C35.7761 17.9863 35.7761 19.6023 35.7689 21.2183C35.7641 22.1133 35.3451 22.5258 34.415 22.5609C34.1193 22.5725 33.8715 22.5632 33.8452 22.9686C33.7913 23.776 33.3412 24.3439 32.6122 24.7038C32.3704 24.823 32.137 24.9305 32.1909 25.2553C32.2483 25.607 32.5476 25.4867 32.7607 25.5299C33.4382 25.6678 33.9769 26.0055 34.3384 26.5874C34.4306 26.7358 34.5 26.8993 34.5718 27.0606C35.2422 28.5679 35.2422 28.5667 36.9348 28.5562C37.2592 28.5539 37.5621 28.5854 37.6674 28.1566C37.7297 27.8984 38.0038 27.8551 38.2576 27.8551C38.6969 27.8563 39.1351 27.861 39.5744 27.8516C40.052 27.8411 40.5105 27.8259 40.6039 28.4569C40.6314 28.6438 40.8672 28.6754 41.0204 28.7619C41.6597 29.1241 41.9996 29.6522 41.9996 30.3848C41.9972 34.6485 42.0044 38.9134 41.9949 43.1771C41.9925 44.2673 41.2299 44.9929 40.0975 44.9952C36.5614 45.0034 33.0312 44.9987 29.501 44.9987ZM29.5968 43.2951C33.346 43.2928 36.3662 40.3903 36.3602 36.6945C36.3543 32.9963 33.4083 30.1138 29.6016 30.0612C25.838 30.0098 22.8142 33.0291 22.8214 36.7167C22.8274 40.3845 25.8272 43.2975 29.5968 43.2951ZM29.4998 16.7232C28.1843 16.7232 26.8687 16.7338 25.5531 16.7174C25.1461 16.7127 24.9498 16.8366 24.9941 17.2514C25.0108 17.4056 25.012 17.5645 24.9941 17.7176C24.9426 18.1616 25.1533 18.2925 25.5854 18.2796C26.4425 18.2563 27.2996 18.2726 28.1567 18.2726C29.9116 18.2726 31.6653 18.2621 33.4202 18.2796C33.8536 18.2843 34.0619 18.1569 34.0092 17.7153C33.9936 17.5809 33.9912 17.4407 34.0092 17.3075C34.0726 16.8319 33.8464 16.7069 33.3879 16.7151C32.0927 16.7373 30.7963 16.7232 29.4998 16.7232ZM29.4412 20.8432C30.7771 20.8432 32.113 20.8327 33.4478 20.8491C33.8524 20.8537 34.0511 20.7322 34.008 20.3162C33.99 20.1433 33.9924 19.9657 34.008 19.7916C34.0427 19.4037 33.8572 19.2775 33.4777 19.2892C32.86 19.3079 32.2423 19.2938 31.6234 19.2938C29.61 19.2938 27.5965 19.3032 25.583 19.2868C25.1509 19.2833 24.9402 19.406 24.9929 19.85C25.0084 19.9844 25.0108 20.1246 24.9929 20.2578C24.9294 20.7311 25.1521 20.8607 25.613 20.8514C26.889 20.828 28.1651 20.8432 29.4412 20.8432ZM29.4484 28.5539C30.2827 28.5539 31.1183 28.5422 31.9526 28.5585C32.4231 28.5679 32.5751 28.3552 32.5775 27.9194C32.5799 27.4719 32.4542 27.2288 31.9395 27.2335C30.3103 27.2487 28.6799 27.2464 27.0506 27.2347C26.5802 27.2312 26.4282 27.438 26.4258 27.8738C26.4234 28.3213 26.5479 28.5726 27.0638 28.5597C27.8575 28.5387 28.6523 28.5539 29.4484 28.5539ZM19.6958 32.2696C20.3004 32.2754 20.8414 31.7519 20.8438 31.1584C20.845 30.5402 20.353 30.0483 19.7198 30.0378C19.1105 30.0273 18.5682 30.5391 18.5586 31.135C18.5467 31.7122 19.1009 32.2637 19.6958 32.2696Z" fill="white"/>
<path d="M29.6231 31.3617C32.6637 31.3617 35.0494 33.6881 35.0494 36.6525C35.0494 39.6028 32.6433 41.9561 29.6243 41.9573C26.6077 41.9584 24.1944 39.6017 24.1944 36.6536C24.1932 33.6963 26.5885 31.3605 29.6231 31.3617ZM29.6063 39.4649C31.2451 39.4708 32.5416 38.2275 32.5535 36.6373C32.5643 35.1346 31.2092 33.8096 29.6399 33.7909C28.0621 33.7711 26.6963 35.1078 26.7034 36.663C26.7094 38.2217 27.9915 39.4591 29.6063 39.4649Z" fill="white"/>
</svg>
