<svg width="27" height="27" viewBox="0 0 27 27" fill="none" xmlns="http://www.w3.org/2000/svg">
<path d="M-5.89736e-07 13.4916C0.0232637 6.1131 6.04979 -0.151629 13.8338 0.00279492C21.0151 0.144526 27.0734 6.10464 26.9993 13.6608C26.9264 21.0118 20.8586 27.1475 13.2205 26.9973C5.97999 26.8545 0.0274935 20.9483 -5.89782e-07 13.4926L-5.89736e-07 13.4916ZM13.5504 25.3156C19.9978 25.3145 25.2228 20.0377 25.3201 13.7C25.4226 7.04282 20.0369 1.77338 13.6995 1.68136C7.02583 1.58405 1.66763 6.99839 1.68455 13.5159C1.70147 19.9509 6.91797 25.3399 13.5504 25.3156Z" fill="#405FF2"/>
<path d="M14.3453 18.6639C14.4416 18.5656 14.5114 18.4947 14.5811 18.4238C15.4303 17.5703 16.2784 16.7146 17.1296 15.8631C17.4522 15.5405 17.8879 15.4824 18.2358 15.7024C18.6788 15.9827 18.755 16.6141 18.3796 16.9938C17.7187 17.6633 17.0525 18.3265 16.3862 18.9907C15.6576 19.7163 14.9269 20.4398 14.1983 21.1664C14.0239 21.3409 13.8356 21.4911 13.5808 21.5155C13.2879 21.543 13.0542 21.4171 12.8522 21.214C12.3795 20.7359 11.9047 20.26 11.4288 19.784C10.5057 18.8606 9.58037 17.9405 8.65825 17.016C8.27862 16.6353 8.30929 16.245 8.5726 15.8621C8.80419 15.5257 9.34667 15.4612 9.69669 15.7278C9.87752 15.8653 10.0383 16.0303 10.2 16.1921C10.9762 16.9695 11.7503 17.7501 12.5244 18.5285C12.5582 18.5624 12.5942 18.5941 12.6565 18.6533C12.6565 18.5751 12.6565 18.5254 12.6565 18.4767C12.6565 14.4596 12.6566 10.4414 12.6555 6.42427C12.6555 6.10801 12.7359 5.83196 13.0013 5.6384C13.2646 5.4459 13.5533 5.42263 13.8494 5.55061C14.1814 5.69446 14.3125 5.97474 14.3411 6.31638C14.3464 6.38196 14.3453 6.44859 14.3453 6.51417C14.3453 10.4837 14.3453 14.4522 14.3453 18.4217C14.3453 18.4873 14.3453 18.5529 14.3453 18.6629L14.3453 18.6639Z" fill="#405FF2"/>
</svg>
