<svg width="27" height="27" viewBox="0 0 27 27" fill="none" xmlns="http://www.w3.org/2000/svg">
<g id="Icon">
<path id="Vector" d="M13.4916 27C6.1131 26.9767 -0.151628 20.9502 0.00279549 13.1662C0.144527 5.98489 6.10464 -0.0733517 13.6608 0.000671256C21.0118 0.0736367 27.1475 6.1414 26.9973 13.7795C26.8545 21.02 20.9483 26.9725 13.4926 27H13.4916ZM25.3156 13.4496C25.3145 7.00218 20.0377 1.77722 13.7 1.67993C7.04282 1.57736 1.77338 6.96305 1.68136 13.3005C1.58405 19.9742 6.99839 25.3324 13.5159 25.3154C19.9509 25.2985 25.3399 20.082 25.3156 13.4496Z" fill="#0D274E"/>
<path id="Vector_2" d="M18.6639 12.6537C18.5656 12.5575 18.4947 12.4877 18.4238 12.4179C17.5703 11.5687 16.7146 10.7206 15.8631 9.86937C15.5405 9.54685 15.4824 9.11117 15.7024 8.76326C15.9827 8.32018 16.6141 8.24404 16.9938 8.61945C17.6633 9.28036 18.3265 9.94657 18.9907 10.6128C19.7163 11.3414 20.4398 12.0721 21.1664 12.8007C21.3409 12.9752 21.4911 13.1634 21.5155 13.4182C21.543 13.7112 21.4171 13.9449 21.214 14.1468C20.7359 14.6195 20.26 15.0943 19.784 15.5702C18.8606 16.4934 17.9405 17.4187 17.016 18.3408C16.6353 18.7204 16.245 18.6897 15.8621 18.4264C15.5257 18.1948 15.4612 17.6524 15.7278 17.3023C15.8653 17.1215 16.0303 16.9608 16.1921 16.799C16.9695 16.0228 17.7501 15.2487 18.5285 14.4747C18.5624 14.4408 18.5941 14.4049 18.6533 14.3425C18.5751 14.3425 18.5254 14.3425 18.4767 14.3425C14.4596 14.3425 10.4414 14.3425 6.42427 14.3435C6.10801 14.3435 5.83196 14.2632 5.6384 13.9977C5.4459 13.7344 5.42263 13.4457 5.55061 13.1496C5.69446 12.8176 5.97475 12.6865 6.31638 12.6579C6.38196 12.6526 6.44859 12.6537 6.51417 12.6537C10.4837 12.6537 14.4522 12.6537 18.4217 12.6537C18.4873 12.6537 18.5529 12.6537 18.6629 12.6537H18.6639Z" fill="#0D274E"/>
</g>
</svg>
