<svg width="107" height="98" viewBox="0 0 107 98" fill="none" xmlns="http://www.w3.org/2000/svg">
<ellipse cx="61" cy="51.8301" rx="46" ry="45.9656" fill="#FF603D"/>
<path d="M83.7826 14.428H7.74609V79.4591H83.7826V14.428Z" fill="#E9EAEB"/>
<path d="M83.7823 14.428H74.1289V79.4591H83.7823V14.428Z" fill="#B9BBC1"/>
<path d="M84.0477 14.4277H7.48096V3.75229C7.48096 2.89932 8.17278 2.20801 9.02639 2.20801H82.5022C83.3558 2.20801 84.0477 2.89932 84.0477 3.75229V14.4277Z" fill="#FDC74F"/>
<path d="M82.502 2.20801H74.394V10.2445H84.0474V3.75229C84.0474 2.89932 83.3554 2.20801 82.502 2.20801Z" fill="#FCA629"/>
<path d="M7.74653 33.7861C4.247 33.7861 1.41016 30.9514 1.41016 27.4545V22.2961H14.0827V27.4545C14.0827 30.9514 11.2459 33.7861 7.74653 33.7861Z" fill="#E60D28"/>
<path d="M20.4189 33.7861C16.9194 33.7861 14.0825 30.9514 14.0825 27.4545V22.2961H26.7551V27.4545C26.7553 30.9514 23.9184 33.7861 20.4189 33.7861Z" fill="#F2F2F2"/>
<path d="M33.0917 33.7861C29.5922 33.7861 26.7554 30.9514 26.7554 27.4545V22.2961H39.4279V27.4545C39.4279 30.9514 36.5911 33.7861 33.0917 33.7861Z" fill="#E60D28"/>
<path d="M45.7641 33.7861C42.2646 33.7861 39.4277 30.9514 39.4277 27.4545V22.2961H52.1003V27.4545C52.1005 30.9514 49.2636 33.7861 45.7641 33.7861Z" fill="#F2F2F2"/>
<path d="M58.437 33.7861C54.9374 33.7861 52.1006 30.9514 52.1006 27.4545V22.2961H64.7732V27.4545C64.7732 30.9514 61.9363 33.7861 58.437 33.7861Z" fill="#E60D28"/>
<path d="M71.1093 33.7861C67.6098 33.7861 64.7729 30.9514 64.7729 27.4545V22.2961H77.4455V27.4545C77.4457 30.9514 74.6088 33.7861 71.1093 33.7861Z" fill="#F2F2F2"/>
<path d="M83.7822 33.7861C80.2826 33.7861 77.4458 30.9514 77.4458 27.4545V22.2961H90.1184V27.4545C90.1185 30.9514 87.2817 33.7861 83.7822 33.7861Z" fill="#E60D28"/>
<path d="M14.0827 22.2964H1.41016L7.47463 10.2444H18.4146L14.0827 22.2964Z" fill="#FC502A"/>
<path d="M26.7553 22.2964H14.0825L18.4144 10.2444H29.3543L26.7553 22.2964Z" fill="white"/>
<path d="M39.4279 22.2964H26.7554L29.3545 10.2444H40.2944L39.4279 22.2964Z" fill="#FC502A"/>
<path d="M52.1005 22.2964H39.4277L40.2942 10.2444H51.234L52.1005 22.2964Z" fill="white"/>
<path d="M64.7729 22.2964H52.1004L51.2339 10.2444H62.1739L64.7729 22.2964Z" fill="#FC502A"/>
<path d="M77.4457 22.2964H64.7729L62.1738 10.2444H73.1138L77.4457 22.2964Z" fill="white"/>
<path d="M90.1182 22.2964H77.4456L73.1138 10.2444H84.0537L90.1182 22.2964Z" fill="#FC502A"/>
<path d="M87.2936 73.5178H4.23469C2.63634 73.5178 1.34082 74.8125 1.34082 76.4097V80.6474C1.34082 81.1001 1.70819 81.4671 2.16118 81.4671H89.3673C89.8203 81.4671 90.1877 81.1001 90.1877 80.6474V76.4097C90.1877 74.8125 88.892 73.5178 87.2936 73.5178Z" fill="#8B8996"/>
<path d="M87.2936 73.5178H80.5044V81.467H89.3673C89.8203 81.467 90.1876 81.1001 90.1876 80.6472V76.4095C90.1874 74.8125 88.8918 73.5178 87.2936 73.5178Z" fill="#706F7F"/>
<path d="M76.2929 65.0185H37.2639C36.6271 65.0185 36.1108 64.5026 36.1108 63.8663V42.4063C36.1108 41.77 36.6271 41.2542 37.2639 41.2542H76.2929C76.9296 41.2542 77.4459 41.77 77.4459 42.4063V63.8663C77.4459 64.5028 76.9296 65.0185 76.2929 65.0185Z" fill="#00C6C8"/>
<path d="M76.2929 41.2542H67.7627V65.0185H76.2929C76.9297 65.0185 77.4459 64.5026 77.4459 63.8663V42.4063C77.4459 41.7699 76.9297 41.2542 76.2929 41.2542Z" fill="#0FB0C0"/>
<path d="M30.629 73.5177H12.8223V42.4063C12.8223 41.77 13.3385 41.2542 13.9753 41.2542H29.476C30.1127 41.2542 30.629 41.77 30.629 42.4063V73.5177Z" fill="#00C6C8"/>
<path d="M29.476 41.2542H20.9458V73.5179H30.629V42.4063C30.629 41.7699 30.1128 41.2542 29.476 41.2542Z" fill="#0FB0C0"/>
<path d="M25.6528 59.4782C26.3932 59.4782 26.9935 58.8784 26.9935 58.1385V55.727C26.9935 54.9871 26.3932 54.3872 25.6528 54.3872C24.9123 54.3872 24.312 54.9871 24.312 55.727V58.1385C24.312 58.8784 24.9123 59.4782 25.6528 59.4782Z" fill="black"/>
<path d="M87.2937 72.1779H85.123V35.0064C88.7189 34.3705 91.4594 31.2275 91.4594 27.4546V22.2964C91.4594 22.2701 91.4569 22.2444 91.4554 22.2185C91.4545 22.204 91.4545 22.1896 91.4533 22.1751C91.4484 22.1222 91.4411 22.0702 91.4304 22.0195C91.4299 22.0165 91.4288 22.0136 91.4281 22.0107C91.4175 21.962 91.4038 21.9145 91.388 21.8678C91.3841 21.856 91.3794 21.8443 91.3752 21.8326C91.3603 21.7926 91.3439 21.7537 91.3255 21.7156C91.3221 21.7087 91.3199 21.7014 91.3165 21.6946L85.3883 9.91393V3.75219C85.3883 2.162 84.0935 0.868164 82.5021 0.868164H21.5335C20.793 0.868164 20.1927 1.46801 20.1927 2.20791C20.1927 2.9478 20.793 3.54765 21.5335 3.54765H82.5021C82.6149 3.54765 82.7068 3.63947 82.7068 3.75219V8.90466H8.82158V3.75219C8.82158 3.63947 8.91347 3.54765 9.02627 3.54765H15.2952C16.0357 3.54765 16.636 2.9478 16.636 2.20791C16.636 1.46801 16.0357 0.868164 15.2952 0.868164H9.02627C7.43489 0.868164 6.14009 2.162 6.14009 3.75219V9.91393L0.212017 21.6946C0.20862 21.7015 0.206296 21.7089 0.203079 21.7156C0.184666 21.7537 0.168219 21.7926 0.153381 21.8326C0.149091 21.8444 0.144443 21.856 0.14051 21.8678C0.124779 21.9145 0.111014 21.962 0.100467 22.0107C0.0997516 22.0136 0.0988578 22.0165 0.0981427 22.0195C0.0874167 22.0704 0.0799085 22.1222 0.0752606 22.1751C0.0740093 22.1896 0.0740093 22.204 0.0731154 22.2185C0.0716853 22.2444 0.0691826 22.2701 0.0691826 22.2964V27.4546C0.0691826 31.2273 2.80967 34.3705 6.40556 35.0064V72.1779H4.23462C1.89957 72.1779 0 74.0762 0 76.4095V80.647C0 81.8378 0.96945 82.8065 2.16111 82.8065H89.3673C90.5589 82.8065 91.5284 81.8378 91.5284 80.647V76.4095C91.5284 74.0762 89.6288 72.1779 87.2937 72.1779ZM88.7777 27.4547C88.7777 30.2073 86.5367 32.4466 83.7821 32.4466C81.0274 32.4466 78.7864 30.2073 78.7864 27.4547V23.6363H88.7777V27.4547ZM83.2273 11.5841L87.9436 20.9566H78.3889L75.0202 11.5841H83.2273ZM72.1708 11.5841L75.5395 20.9566H65.8557L63.8344 11.5841H72.1708ZM76.1051 23.6361V27.4546C76.1051 30.2071 73.8641 32.4465 71.1095 32.4465C68.3549 32.4465 66.1139 30.2071 66.1139 27.4546V23.6361H76.1051ZM61.0914 11.5841L63.1127 20.9566H53.3485L52.6748 11.5841H61.0914ZM63.4324 23.6361V27.4546C63.4324 30.2071 61.1914 32.4465 58.4369 32.4465C55.6825 32.4465 53.4413 30.2071 53.4413 27.4546V23.6361H63.4324ZM41.5421 11.5841H49.9861L50.6599 20.9566H40.8683L41.5421 11.5841ZM40.7686 23.6361H50.7598V27.4546C50.7598 30.2071 48.5188 32.4465 45.7642 32.4465C43.0096 32.4465 40.7686 30.2071 40.7686 27.4546V23.6361ZM45.7642 35.1259C48.3928 35.1259 50.7162 33.7985 52.1006 31.7798C53.4849 33.7985 55.8083 35.1259 58.4369 35.1259C61.0655 35.1259 63.3889 33.7985 64.7731 31.7798C66.1575 33.7985 68.4809 35.1259 71.1095 35.1259C73.7381 35.1259 76.0615 33.7985 77.4459 31.7798C78.5892 33.4472 80.3739 34.6408 82.4415 35.0064V72.1779H31.9699V42.4063C31.9699 41.0322 30.8511 39.9144 29.4761 39.9144H13.9754C12.6003 39.9144 11.4816 41.0322 11.4816 42.4063V72.1779H9.08705V35.0064C11.1547 34.6408 12.9393 33.4472 14.0827 31.7798C15.467 33.7985 17.7905 35.1259 20.419 35.1259C23.0476 35.1259 25.3711 33.7985 26.7554 31.7798C28.1398 33.7985 30.4632 35.1259 33.0916 35.1259C35.72 35.1259 38.0436 33.7985 39.428 31.7798C40.8122 33.7985 43.1356 35.1259 45.7642 35.1259ZM29.2884 42.5938V72.1779H14.1631V42.5938H29.2884ZM15.4232 27.4547V23.6363H25.4145V27.4547C25.4145 30.2073 23.1735 32.4466 20.4189 32.4466C17.6643 32.4466 15.4232 30.2071 15.4232 27.4547ZM30.4369 11.5841H38.8536L38.1798 20.9566H28.4156L30.4369 11.5841ZM28.096 23.6361H38.0871V27.4546C38.0871 30.2071 35.846 32.4465 33.0914 32.4465C30.3368 32.4465 28.096 30.2071 28.096 27.4546V23.6361ZM27.6938 11.5841L25.6725 20.9566H15.9887L19.3574 11.5841H27.6938ZM8.30101 11.5841H16.5082L13.1395 20.9566H3.5848L8.30101 11.5841ZM2.75068 27.4547V23.6363H12.7419V27.4547C12.7419 30.2073 10.5009 32.4466 7.7463 32.4466C4.99169 32.4466 2.75068 30.2071 2.75068 27.4547ZM88.8469 80.127H2.68149V76.4093C2.68149 75.5535 3.37815 74.8574 4.23462 74.8574H87.2936C88.15 74.8574 88.8467 75.5535 88.8467 76.4093V80.127H88.8469Z" fill="black"/>
<path d="M34.77 42.4062V63.8664C34.77 65.2405 35.8887 66.3583 37.2638 66.3583H76.2926C77.6677 66.3583 78.7864 65.2405 78.7864 63.8664V42.4062C78.7864 41.0322 77.6677 39.9143 76.2926 39.9143H59.8974C59.157 39.9143 58.5567 40.5142 58.5567 41.2541C58.5567 41.9939 59.157 42.5938 59.8974 42.5938H76.1051V63.6787H37.4515V42.5938H53.5852C54.3256 42.5938 54.9259 41.9939 54.9259 41.2541C54.9259 40.5142 54.3256 39.9143 53.5852 39.9143H37.2638C35.8887 39.9143 34.77 41.032 34.77 42.4062Z" fill="black"/>
</svg>
