<svg width="118" height="93" viewBox="0 0 118 93" fill="none" xmlns="http://www.w3.org/2000/svg">
<ellipse cx="72" cy="46.8315" rx="46" ry="45.9656" fill="#FF603D"/>
<path d="M102.916 26.225L101.078 22.5522L102.916 20.7158H110.267L112.105 24.3849L110.267 26.225H102.916Z" fill="#F5B953"/>
<path d="M11.0272 26.225L12.865 22.5522L11.0272 20.7158H3.67615L1.83838 24.3849L3.67615 26.225H11.0272Z" fill="#F5B953"/>
<path d="M80.8626 67.9388L86.376 70.3004L104.754 68.464V62.9548L99.2404 55.6093V55.8921L77.1853 59.2802L36.7561 59.2821L14.7028 55.8921L14.7009 55.6074L9.18945 62.9548V68.464L27.5672 70.3004L33.0805 67.9388L34.9183 66.6258L36.7561 70.2986H77.1871L79.0249 66.6258L80.8626 67.9388Z" fill="#243242"/>
<path d="M106.592 67.0336L108.63 65.6343C109.654 64.9328 110.267 63.7519 110.267 62.4867V46.4255L101.08 55.6057L100.617 57.4421L104.754 62.9531V68.4623L106.592 67.0336Z" fill="#F2C351"/>
<path d="M7.35182 67.0336L5.31373 65.6343C4.29009 64.9328 3.67627 63.7519 3.67627 62.4867V46.4255L12.8633 55.6057L13.3264 57.4421L9.18959 62.9531V68.4623L7.35182 67.0336Z" fill="#F2C351"/>
<path d="M99.2407 29.8979L95.8941 23.2079C94.4662 20.356 92.4373 17.8474 89.9453 15.855L89.9434 15.8531C86.4259 13.0398 82.1292 11.3723 77.634 11.073L56.9719 9.69751L36.3098 11.0748C31.8146 11.3741 27.5179 13.0416 24.0004 15.855L23.9986 15.8568C21.5066 17.8493 19.4777 20.3578 18.0497 23.2097L14.7031 29.8979" fill="#C7E2FC"/>
<path d="M108.429 66.626V70.1868C108.429 72.2766 106.784 73.9716 104.754 73.9716H97.4026C95.3719 73.9716 93.7271 72.3886 93.7271 70.2988" fill="#4D5D7A"/>
<path d="M5.51416 66.626V70.1868C5.51416 72.2766 7.15897 73.9716 9.18971 73.9716H16.5408C18.5715 73.9716 20.2164 72.3886 20.2164 70.2988" fill="#4D5D7A"/>
<path d="M104.754 73.9713H97.4026C95.3719 73.9713 93.7271 72.2763 93.7271 70.1865" fill="#4D5D7A"/>
<path d="M14.7031 29.8979H99.2407V51.9347H14.7031V29.8979Z" fill="#F5B953"/>
<path d="M15.4711 29.8981L29.4051 44.5893L42.2695 48.2621H49.6206L53.2962 46.4257H60.6473L64.3228 48.2621H71.6739L84.5383 44.5893L99.2387 29.8962L106.592 33.5709L110.267 39.0801V46.4257L101.078 55.6076L77.1854 59.2786L36.7562 59.2804L12.8651 55.6076L3.67627 46.4257V39.0801L7.35182 33.5709L14.7029 29.8981H15.4711Z" fill="#F5B953"/>
<path d="M23.8918 46.4256L17.8657 50.7062L10.5146 46.1997L11.0274 38.0222L23.8918 46.4256Z" fill="#C7E2FC"/>
<path d="M90.0518 46.4256L96.0778 50.7062L103.429 46.1997L102.916 38.0222L90.0518 46.4256Z" fill="#C7E2FC"/>
<path d="M8.1493 69.8084L4.27343 67.1474C2.74808 66.1025 1.83838 64.3598 1.83838 62.4867V45.5918H5.51393V62.4867C5.51393 63.1496 5.82819 63.7611 6.35379 64.1229L10.2297 66.7838L8.1493 69.8084Z" fill="black"/>
<path d="M14.7031 28.0615H99.2389V31.7343H14.7031V28.0615Z" fill="black"/>
<path d="M17.8655 52.5427C17.5329 52.5427 17.2002 52.4527 16.9062 52.2728L9.5551 47.7662C8.97436 47.41 8.63805 46.7636 8.68032 46.0859L9.19306 37.9085C9.23349 37.2565 9.61759 36.6744 10.2038 36.3806C10.7864 36.0868 11.4848 36.1253 12.0324 36.4853L24.8968 44.8886C25.4059 45.221 25.7165 45.7829 25.7294 46.3889C25.7404 46.9968 25.4519 47.5697 24.9557 47.9205L18.9296 52.203C18.6117 52.4289 18.2386 52.5427 17.8655 52.5427ZM12.4184 45.2118L17.7902 48.5045L20.6314 46.4881L12.6646 41.2856L12.4184 45.2118Z" fill="black"/>
<path d="M96.0775 52.5426C95.7045 52.5426 95.3314 52.4287 95.0134 52.2029L88.9874 47.9222C88.4912 47.5715 88.2027 46.9967 88.2137 46.3907C88.2265 45.7828 88.5371 45.2209 89.0462 44.8903L101.911 36.487C102.456 36.127 103.155 36.0885 103.739 36.3823C104.324 36.6761 104.708 37.2564 104.75 37.9102L105.263 46.0877C105.305 46.7653 104.971 47.4117 104.388 47.768L97.0368 52.2745C96.7446 52.4526 96.4102 52.5426 96.0775 52.5426ZM93.3117 46.4898L96.1529 48.5062L101.525 45.2135L101.278 41.2873L93.3117 46.4898Z" fill="black"/>
<path d="M11.2203 30.7189L9.89161 28.0616H3.67626C3.18741 28.0616 2.71878 27.8688 2.37512 27.5236L0.537344 25.6853C-0.0213396 25.1271 -0.159173 24.2731 0.19368 23.5661L2.03145 19.8952C2.34388 19.2726 2.97975 18.8796 3.67626 18.8796H11.0274C11.5162 18.8796 11.983 19.0725 12.3267 19.4177L14.1644 21.2541C14.725 21.8124 14.8628 22.6663 14.5099 23.3733L13.082 26.2252L14.5081 29.0772L11.2203 30.7189ZM4.43894 24.3888H9.89161L10.6286 22.9142L10.2665 22.5524H4.81201L4.07506 24.0252L4.43894 24.3888Z" fill="black"/>
<path d="M102.723 30.7189L99.4353 29.0753L100.861 26.2252L99.4353 23.3733C99.0824 22.6663 99.2203 21.8124 99.7808 21.2541L101.619 19.4177C101.96 19.0725 102.427 18.8796 102.916 18.8796H110.267C110.964 18.8796 111.6 19.2726 111.912 19.8952L113.75 23.5661C114.103 24.2731 113.965 25.1271 113.406 25.6853L111.568 27.5236C111.225 27.8688 110.756 28.0616 110.267 28.0616H104.052L102.723 30.7189ZM104.052 24.3888H109.504L109.868 24.0252L109.131 22.5524H103.677L103.315 22.9142L104.052 24.3888Z" fill="black"/>
<path d="M27.5676 72.1349C27.5069 72.1349 27.4463 72.1331 27.3838 72.1257L9.00605 70.2893C8.06878 70.1957 7.35205 69.406 7.35205 68.4621V62.9529C7.35205 62.5563 7.48069 62.1688 7.71961 61.8511L13.2311 54.5037L16.1715 56.7055L11.0276 63.5645V66.8002L27.279 68.4236L39.7097 63.1017L41.1561 66.477L28.2916 71.9862C28.0638 72.0853 27.8157 72.1349 27.5676 72.1349Z" fill="black"/>
<path d="M86.3761 72.135C86.128 72.135 85.8799 72.0854 85.652 71.9863L72.7876 66.4771L74.2339 63.1018L86.6646 68.4237L102.916 66.8003V63.5646L97.7703 56.7093L100.711 54.5056L106.224 61.8512C106.463 62.1689 106.592 62.5564 106.592 62.953V68.4622C106.592 69.4061 105.875 70.1958 104.938 70.2895L86.5599 72.1258C86.4974 72.1332 86.4367 72.135 86.3761 72.135Z" fill="black"/>
<path d="M36.7561 61.1166C36.6624 61.1166 36.5686 61.1093 36.4767 61.0946L12.5857 57.4218C12.1997 57.363 11.8432 57.1812 11.5657 56.9058L2.37685 47.7238C2.03135 47.3804 1.83838 46.9121 1.83838 46.4254V39.0799C1.83838 38.7181 1.94681 38.3618 2.14712 38.0606L5.82267 32.5515C6.00094 32.2852 6.24352 32.0703 6.53022 31.9271L13.8813 28.2543C14.1349 28.1276 14.4179 28.0615 14.7028 28.0615H15.471C15.9745 28.0615 16.4579 28.269 16.8052 28.6344L30.3955 42.962L42.5267 46.4254H49.1868L52.4746 44.7819C52.7282 44.6552 53.0112 44.589 53.2961 44.589H60.6472C60.932 44.589 61.215 44.6552 61.4686 44.7819L64.7564 46.4254H71.4165L83.5734 42.9547L97.9374 28.5977C98.4961 28.0376 99.3525 27.9017 100.058 28.2524L107.411 31.9271C107.696 32.0703 107.94 32.2852 108.119 32.5515L111.794 38.0606C111.996 38.3618 112.105 38.7181 112.105 39.0799V46.4254C112.105 46.9121 111.912 47.3804 111.566 47.7238L102.377 56.9058C102.102 57.1812 101.743 57.363 101.358 57.4218L77.4646 61.0946C77.3727 61.1093 77.279 61.1166 77.1853 61.1166H36.7561ZM13.7398 53.8849L36.8958 57.4438H77.0456L100.205 53.8849L108.429 45.6652V39.6363L105.333 34.9957L99.6006 32.1309L85.8375 45.8874C85.617 46.1077 85.3432 46.2693 85.0418 46.3538L72.1773 50.0266C72.0156 50.0744 71.8447 50.0982 71.6738 50.0982H64.3227C64.0378 50.0982 63.7548 50.0321 63.5012 49.9054L60.2134 48.2618H53.7316L50.4438 49.9054C50.1884 50.0321 49.9054 50.0982 49.6205 50.0982H42.2694C42.0985 50.0982 41.9276 50.0744 41.7659 50.0266L28.9014 46.3538C28.5835 46.2638 28.2987 46.0894 28.0726 45.8525L14.8278 31.8885L8.61058 34.9957L5.51393 39.6363V45.6652L13.7398 53.8849Z" fill="black"/>
<path d="M105.794 69.8084L103.712 66.782L107.588 64.1211C108.115 63.7611 108.429 63.1496 108.429 62.4867V45.5918H112.105V62.4867C112.105 64.3616 111.195 66.1044 109.672 67.1493L105.794 69.8084Z" fill="black"/>
<path d="M55.1338 50.0964H58.8093V53.7692H55.1338V50.0964Z" fill="black"/>
<path d="M77.1871 72.1351H36.756C36.0595 72.1351 35.4236 71.7421 35.1112 71.1196L33.2734 67.4468L36.5612 65.8032L37.8918 68.4623H76.0513L77.3819 65.8051L80.6696 67.4486L78.8319 71.1214C78.5194 71.7421 77.8836 72.1351 77.1871 72.1351Z" fill="black"/>
<path d="M16.5407 75.808H9.18959C6.14991 75.808 3.67627 73.2866 3.67627 70.1868V66.626H7.35182V70.1868C7.35182 71.261 8.17514 72.1352 9.18959 72.1352H16.5407C17.5551 72.1352 18.3785 71.261 18.3785 70.1868H22.054C22.054 73.2866 19.5804 75.808 16.5407 75.808Z" fill="black"/>
<path d="M16.5405 75.8077H9.18945V72.1349H16.5405C17.555 72.1349 18.3783 71.2608 18.3783 70.1865H22.0539C22.0539 73.2864 19.5802 75.8077 16.5405 75.8077Z" fill="black"/>
<path d="M104.754 75.808H97.403C94.31 75.808 91.8896 73.3876 91.8896 70.2988H95.5652C95.5652 71.3455 96.3554 72.1352 97.403 72.1352H104.754C105.769 72.1352 106.592 71.261 106.592 70.1868V66.626H110.267V70.1868C110.267 73.2866 107.794 75.808 104.754 75.808Z" fill="black"/>
<path d="M104.754 75.8077H97.403C94.3633 75.8077 91.8896 73.2864 91.8896 70.1865H95.5652C95.5652 71.2608 96.3885 72.1349 97.403 72.1349H104.754V75.8077Z" fill="black"/>
<path d="M97.5958 30.7187L94.2493 24.0287C92.9591 21.4486 91.0864 19.1292 88.8352 17.3185C88.8205 17.3075 88.8076 17.2965 88.7947 17.2854C85.5547 14.6943 81.6531 13.1793 77.5108 12.9038L56.9718 11.5375L36.4329 12.9056C32.2905 13.1811 28.3889 14.698 25.1489 17.2873C25.1342 17.2983 25.1195 17.3093 25.1067 17.3203C22.8554 19.131 20.9845 21.4504 19.6944 24.0305L16.3478 30.7205L13.0601 29.077L16.4066 22.387C17.9412 19.3202 20.1686 16.5674 22.8499 14.4225C22.8646 14.4115 22.8811 14.3986 22.8958 14.3876C26.7147 11.3465 31.311 9.56707 36.1884 9.24203L56.8487 7.86473C56.9314 7.85922 57.0104 7.85922 57.0931 7.86473L77.7534 9.24203C82.6308 9.56707 87.2271 11.3465 91.0479 14.3876C91.0626 14.3986 91.0791 14.4096 91.092 14.4225C93.7733 16.5674 96.0006 19.3202 97.5352 22.387L100.882 29.077L97.5958 30.7187Z" fill="black"/>
<path d="M50.395 22.8965L63.2632 13.7186L65.3987 16.7083L52.5305 25.8861L50.395 22.8965Z" fill="black"/>
</svg>
