<svg width="118" height="99" viewBox="0 0 118 99" fill="none" xmlns="http://www.w3.org/2000/svg">
<ellipse cx="72" cy="52.1386" rx="46" ry="45.9656" fill="#FD8D14"/>
<path d="M12.9343 19.3301L7.65318 22.1869C7.26484 22.3908 6.81085 22.0612 6.88497 21.6293L7.87739 15.9493C7.89222 15.8636 7.623 15.652 7.59679 15.5715C7.57059 15.4911 7.52532 15.4171 7.46285 15.3562L2.76837 10.7838C2.45415 10.4777 2.62754 9.94446 3.06168 9.88151L9.54934 8.93956C9.72167 8.91443 9.87097 8.80624 9.948 8.65017L12.8493 2.77576C13.0436 2.38269 13.6045 2.38269 13.7988 2.77576L16.7001 8.65017C16.7771 8.80624 16.9262 8.91443 17.0988 8.93956L17.4956 8.99722L23.0372 10.0072C23.4713 10.0701 23.6447 10.6034 23.3305 10.9094L18.7178 15.2025C18.5931 15.324 18.5362 15.4991 18.5656 15.6707L19.724 21.7018C19.7981 22.134 19.3441 22.4636 18.9558 22.2594L13.4269 19.3303C13.2726 19.2491 13.0883 19.2491 12.9343 19.3301Z" fill="#FFEF57"/>
<path d="M19.1838 15.3549C19.0594 15.4766 19.0038 15.6538 19.0329 15.8231L20.1421 22.28C20.2162 22.7138 19.7609 23.0418 19.3718 22.8381L13.5692 19.7909C13.4157 19.7089 13.2304 19.7089 13.0768 19.7909L7.27425 22.8381C6.88512 23.0418 6.43246 22.7138 6.50658 22.28L7.61573 15.8231C7.63162 15.7358 7.62368 15.6459 7.59456 15.5612C7.90428 15.593 8.21929 15.6088 8.53695 15.6088C12.7539 15.6088 16.3196 12.8261 17.4949 8.99854L23.5861 9.88202C24.0202 9.94551 24.1949 10.4772 23.8799 10.784L19.1838 15.3549Z" fill="#F9DB48"/>
<path d="M91.965 22.8763L86.7686 23.3376H37.9428C36.1687 23.3376 34.7305 21.9005 34.7305 20.1277V11.0918C34.7305 9.31896 36.1687 7.88184 37.9428 7.88184H86.806L91.6643 8.42595C93.4384 8.42595 94.8766 9.86308 94.8766 11.6359L95.1771 19.6664C95.1773 21.4392 93.7391 22.8763 91.965 22.8763Z" fill="#B2E5FB"/>
<path d="M95.6157 11.0912V20.1271C95.6157 21.8994 94.1756 23.3383 92.402 23.3383H86.0488C87.8224 23.3383 89.2625 21.8994 89.2625 20.1271V11.0912C89.2625 9.3189 87.8224 7.88257 86.0488 7.88257H92.402C94.1756 7.88257 95.6157 9.3189 95.6157 11.0912Z" fill="#90D8F9"/>
<path d="M12.9343 47.8862L7.65318 50.743C7.26484 50.947 6.81085 50.6174 6.88497 50.1854L7.87739 44.5054C7.89222 44.4197 7.623 44.2081 7.59679 44.1277C7.57059 44.0473 7.52532 43.9732 7.46285 43.9124L2.76837 39.3399C2.45415 39.0339 2.62754 38.5006 3.06168 38.4377L9.54934 37.4957C9.72167 37.4706 9.87097 37.3624 9.948 37.2063L12.8493 31.3319C13.0436 30.9388 13.6045 30.9388 13.7988 31.3319L16.7001 37.2063C16.7771 37.3624 16.9262 37.4706 17.0988 37.4957L17.4956 37.5534L23.0372 38.5633C23.4713 38.6263 23.6447 39.1595 23.3305 39.4656L18.7178 43.7587C18.5931 43.8801 18.5362 44.0552 18.5656 44.2269L19.724 50.2579C19.7981 50.6901 19.3441 51.0197 18.9558 50.8155L13.4269 47.8865C13.2726 47.8053 13.0883 47.8053 12.9343 47.8862Z" fill="#FFEF57"/>
<path d="M19.1838 43.9111C19.0594 44.0327 19.0038 44.21 19.0329 44.3792L20.1421 50.8361C20.2162 51.2699 19.7609 51.5979 19.3718 51.3943L13.5692 48.347C13.4157 48.265 13.2304 48.265 13.0768 48.347L7.27425 51.3943C6.88512 51.5979 6.43246 51.2699 6.50658 50.8361L7.61573 44.3792C7.63162 44.292 7.62368 44.202 7.59456 44.1174C7.90428 44.1491 8.21929 44.165 8.53695 44.165C12.7539 44.165 16.3196 41.3823 17.4949 37.5547L23.5861 38.4382C24.0202 38.5017 24.1949 39.0333 23.8799 39.3402L19.1838 43.9111Z" fill="#F9DB48"/>
<path d="M91.965 51.4324L86.7686 51.8938H37.9428C36.1687 51.8938 34.7305 50.4566 34.7305 48.6838V39.6479C34.7305 37.8751 36.1687 36.438 37.9428 36.438H86.806L91.6643 36.9821C93.4384 36.9821 94.8766 38.4192 94.8766 40.192L95.1771 48.2225C95.1773 49.9953 93.7391 51.4324 91.965 51.4324Z" fill="#B2E5FB"/>
<path d="M95.6157 39.6471V48.683C95.6157 50.4553 94.1756 51.8943 92.402 51.8943H86.0488C87.8224 51.8943 89.2625 50.4553 89.2625 48.683V39.6471C89.2625 37.8748 87.8224 36.4385 86.0488 36.4385H92.402C94.1756 36.4385 95.6157 37.8748 95.6157 39.6471Z" fill="#90D8F9"/>
<path d="M12.9343 76.4424L7.65318 79.2992C7.26484 79.5031 6.81085 79.1735 6.88497 78.7416L7.87739 73.0616C7.89222 72.9759 7.623 72.7643 7.59679 72.6839C7.57059 72.6034 7.52532 72.5294 7.46285 72.4685L2.76837 67.8961C2.45415 67.59 2.62754 67.0568 3.06168 66.9938L9.54934 66.0519C9.72167 66.0267 9.87097 65.9185 9.948 65.7625L12.8493 59.8881C13.0436 59.495 13.6045 59.495 13.7988 59.8881L16.7001 65.7625C16.7771 65.9185 16.9262 66.0267 17.0988 66.0519L17.4956 66.1095L23.0372 67.1195C23.4713 67.1824 23.6447 67.7157 23.3305 68.0217L18.7178 72.3148C18.5931 72.4363 18.5362 72.6114 18.5656 72.7831L19.724 78.8141C19.7981 79.2463 19.3441 79.5759 18.9558 79.3717L13.4269 76.4427C13.2726 76.3614 13.0883 76.3614 12.9343 76.4424Z" fill="#FFEF57"/>
<path d="M19.1838 72.4672C19.0594 72.5889 19.0038 72.7661 19.0329 72.9354L20.1421 79.3923C20.2162 79.8261 19.7609 80.1541 19.3718 79.9504L13.5692 76.9032C13.4157 76.8212 13.2304 76.8212 13.0768 76.9032L7.27425 79.9504C6.88512 80.1541 6.43246 79.8261 6.50658 79.3923L7.61573 72.9354C7.63162 72.8481 7.62368 72.7582 7.59456 72.6735C7.90428 72.7053 8.21929 72.7211 8.53695 72.7211C12.7539 72.7211 16.3196 69.9384 17.4949 66.1108L23.5861 66.9943C24.0202 67.0578 24.1949 67.5895 23.8799 67.8963L19.1838 72.4672Z" fill="#F9DB48"/>
<path d="M91.965 79.9886L86.7686 80.4499H37.9428C36.1687 80.4499 34.7305 79.0128 34.7305 77.24V68.2041C34.7305 66.4313 36.1687 64.9941 37.9428 64.9941H86.806L91.6643 65.5383C93.4384 65.5383 94.8766 66.9754 94.8766 68.7482L95.1771 76.7787C95.1773 78.5515 93.7391 79.9886 91.965 79.9886Z" fill="#B2E5FB"/>
<path d="M95.6157 68.2032V77.2392C95.6157 79.0114 94.1756 80.4504 92.402 80.4504H86.0488C87.8224 80.4504 89.2625 79.0114 89.2625 77.2392V68.2032C89.2625 66.431 87.8224 64.9946 86.0488 64.9946H92.402C94.1756 64.9946 95.6157 66.431 95.6157 68.2032Z" fill="#90D8F9"/>
<path d="M13.324 19.661L6.32546 23.3375L7.66202 15.5504L2 10.0354L9.82475 8.89932L13.324 1.81421L16.8233 8.89932L24.6478 10.0354L18.986 15.5504L20.3226 23.3375L13.324 19.661Z" stroke="black" stroke-width="3" stroke-miterlimit="10" stroke-linecap="round" stroke-linejoin="round"/>
<path d="M13.324 48.5501L6.32546 52.2266L7.66202 44.4395L2 38.9246L9.82475 37.7885L13.324 30.7036L16.8233 37.7885L24.6478 38.9246L18.986 44.4395L20.3226 52.2266L13.324 48.5501Z" stroke="black" stroke-width="3" stroke-miterlimit="10" stroke-linecap="round" stroke-linejoin="round"/>
<path d="M13.324 77.44L6.32546 81.1166L7.66202 73.3294L2 67.8145L9.82475 66.6784L13.324 59.5933L16.8233 66.6784L24.6478 67.8145L18.986 73.3294L20.3226 81.1166L13.324 77.44Z" stroke="black" stroke-width="3" stroke-miterlimit="10" stroke-linecap="round" stroke-linejoin="round"/>
<path d="M55.7918 23.3381H92.402C94.1756 23.3381 95.6157 21.8991 95.6157 20.1269V11.0909C95.6157 9.31866 94.1756 7.88232 92.402 7.88232H37.942C36.1684 7.88232 34.731 9.31866 34.731 11.0909V20.1269C34.731 21.8991 36.1684 23.3381 37.942 23.3381H46.5267" stroke="black" stroke-width="3" stroke-miterlimit="10" stroke-linecap="round" stroke-linejoin="round"/>
<path d="M92.4023 52.2268H37.9428C36.1687 52.2268 34.7305 50.7896 34.7305 49.0168V39.9809C34.7305 38.2081 36.1687 36.771 37.9428 36.771H92.4023C94.1764 36.771 95.6147 38.2081 95.6147 39.9809V49.0168C95.6147 50.7896 94.1764 52.2268 92.4023 52.2268Z" stroke="black" stroke-width="3" stroke-miterlimit="10" stroke-linecap="round" stroke-linejoin="round"/>
<path d="M78.7347 65.6611H92.402C94.1756 65.6611 95.6157 67.0975 95.6157 68.8697V77.9057C95.6157 79.6806 94.1756 81.1169 92.402 81.1169H37.942C36.1684 81.1169 34.731 79.6806 34.731 77.9057V68.8697C34.731 67.0975 36.1684 65.6611 37.942 65.6611H69.4697" stroke="black" stroke-width="3" stroke-miterlimit="10" stroke-linecap="round" stroke-linejoin="round"/>
</svg>
