<svg width="107" height="98" viewBox="0 0 107 98" fill="none" xmlns="http://www.w3.org/2000/svg">
<ellipse cx="61" cy="51.7761" rx="46" ry="45.9656" fill="#FF603D"/>
<path d="M44.8438 76.3516H52.5312V81.4727H44.8438V76.3516Z" fill="#6B6B6D"/>
<path d="M70.4688 76.3516H78.1562V81.4727H70.4688V76.3516Z" fill="#6B6B6D"/>
<path d="M73.8857 59.7075H77.5155C78.0252 59.7075 78.5141 59.9098 78.8745 60.27C79.2349 60.6302 79.4374 61.1186 79.4374 61.628C79.4374 62.1373 79.2349 62.6258 78.8745 62.9859C78.5141 63.3461 78.0252 63.5484 77.5155 63.5484H75.5936L73.8857 59.7075Z" fill="#0071BC"/>
<path d="M49.1142 59.7075H45.4844C44.9747 59.7075 44.4858 59.9098 44.1254 60.27C43.765 60.6302 43.5625 61.1186 43.5625 61.628C43.5625 62.1373 43.765 62.6258 44.1254 62.9859C44.4858 63.3461 44.9747 63.5484 45.4844 63.5484H47.4062L49.1142 59.7075Z" fill="#0071BC"/>
<path d="M75.5938 63.5485H47.4062L52.5312 52.0259H70.4688L75.5938 63.5485Z" fill="#7FCAE5"/>
<path d="M79.4375 76.3512H43.5625V68.6695C43.5625 67.3113 44.1025 66.0087 45.0636 65.0483C46.0247 64.0879 47.3283 63.5483 48.6875 63.5483H74.3125C75.6717 63.5483 76.9753 64.0879 77.9364 65.0483C78.8975 66.0087 79.4375 67.3113 79.4375 68.6695V76.3512Z" fill="#0071BC"/>
<path d="M62.6265 26.2652L73.4979 15.4006H78.9342V20.8329L77.1212 22.6432L74.4037 21.7381V25.36L68.0615 31.6962L62.6265 26.2652Z" fill="#89898A"/>
<path d="M68.9672 32.6014L61.7205 25.3601C61.3636 25.0033 60.9398 24.7204 60.4734 24.5273C60.007 24.3342 59.5071 24.2349 59.0023 24.2349C58.4975 24.2349 57.9976 24.3342 57.5312 24.5273C57.0648 24.7204 56.6411 25.0033 56.2842 25.3601L48.1303 33.5078C47.4097 34.2281 47.0049 35.2049 47.0049 36.2233C47.0049 37.2418 47.4097 38.2185 48.1303 38.9388L55.3783 46.1814C56.0991 46.9015 57.0766 47.306 58.0958 47.306C59.1151 47.306 60.0926 46.9015 60.8134 46.1814L68.9672 38.0337C69.3242 37.677 69.6074 37.2535 69.8006 36.7875C69.9938 36.3215 70.0933 35.822 70.0933 35.3175C70.0933 34.8131 69.9938 34.3136 69.8006 33.8475C69.6074 33.3815 69.3242 32.958 68.9672 32.6014ZM59.4501 42.1075C59.2716 42.286 59.0597 42.4276 58.8265 42.5242C58.5932 42.6207 58.3432 42.6705 58.0907 42.6705C57.8382 42.6705 57.5882 42.6207 57.355 42.5242C57.1217 42.4276 56.9098 42.286 56.7313 42.1075L52.2021 37.5804C51.8526 37.2176 51.6598 36.7321 51.6651 36.2285C51.6704 35.725 51.8734 35.2437 52.2304 34.8882C52.5875 34.5328 53.0699 34.3318 53.5739 34.3284C54.0778 34.325 54.563 34.5195 54.9247 34.8701L59.4501 39.392C59.8104 39.7522 60.0128 40.2406 60.0128 40.7498C60.0128 41.259 59.8104 41.7474 59.4501 42.1075Z" fill="#802A1F"/>
<path d="M44.8438 76.8634V81.4725H1.28125V76.8634C1.28125 76.4921 1.29406 76.1337 1.31969 75.7624C1.56865 72.7721 2.62814 69.9062 4.38437 67.4723C6.14059 65.0384 8.52719 63.1286 11.2878 61.948L15.4391 60.1044L19.2188 58.4272L23.0625 62.2681L26.9062 58.4272L30.6859 60.1044L34.8372 61.948C37.5978 63.1286 39.9844 65.0384 41.7406 67.4723C43.4969 69.9062 44.5564 72.7721 44.8053 75.7624C44.8309 76.1337 44.8438 76.4921 44.8438 76.8634Z" fill="#44997F"/>
<path d="M30.6859 60.1044L30.0069 64.1758C29.9501 64.504 29.8089 64.8119 29.597 65.0691C29.3851 65.3264 29.11 65.5241 28.7985 65.6429C28.487 65.7617 28.15 65.7975 27.8205 65.7468C27.4909 65.6961 27.1803 65.5606 26.9191 65.3536L23.0625 62.2681L26.9062 58.4272L30.6859 60.1044Z" fill="#3A8E72"/>
<path d="M26.6835 65.1628L24.344 68.6695H21.7815L19.4419 65.1628L23.0627 62.2681L26.6835 65.1628Z" fill="#EAA253"/>
<path d="M23.0624 62.2681L19.2058 65.3536C18.9446 65.5606 18.634 65.6961 18.3044 65.7468C17.9749 65.7975 17.6379 65.7617 17.3264 65.6429C17.0149 65.5241 16.7398 65.3264 16.5279 65.0691C16.316 64.8119 16.1748 64.504 16.118 64.1758L15.439 60.1044L19.2187 58.4272L23.0624 62.2681Z" fill="#3A8E72"/>
<path d="M26.9062 81.4728V76.4106C26.9063 73.8678 26.1529 71.382 24.7409 69.2665L24.3438 68.6699H21.7812L21.3841 69.2665C19.9721 71.382 19.2187 73.8678 19.2188 76.4106V81.4728H26.9062Z" fill="#F4B05D"/>
<path d="M26.9062 52.7686V58.4274L23.0625 62.2683L19.2188 58.4274V52.7686C21.731 53.4855 24.394 53.4855 26.9062 52.7686Z" fill="#F9B4AD"/>
<path d="M26.9062 52.7686V54.9963C25.706 55.5694 24.3927 55.8668 23.0625 55.8668C21.7323 55.8668 20.419 55.5694 19.2188 54.9963V52.7686C21.731 53.4855 24.394 53.4855 26.9062 52.7686Z" fill="#EA9A96"/>
<path d="M23.0625 2.09448C17.2858 2.09448 11.7456 4.38757 7.66083 8.46929C3.57605 12.551 1.28125 18.087 1.28125 23.8594C1.28111 25.5564 1.55453 27.2424 2.091 28.8526L3.84375 34.1017H4.0795C4.34193 33.3544 4.82987 32.7068 5.47607 32.2482C6.12227 31.7896 6.89491 31.5426 7.6875 31.5412V20.0185C12.4613 22.4036 17.7252 23.6453 23.0625 23.6453C28.3998 23.6453 33.6637 22.4036 38.4375 20.0185V31.5412C39.2301 31.5426 40.0027 31.7896 40.6489 32.2482C41.2951 32.7068 41.7831 33.3544 42.0455 34.1017H42.2812L44.034 28.8526C44.5705 27.2424 44.8439 25.5564 44.8438 23.8594C44.8438 18.087 42.5489 12.551 38.4642 8.46929C34.3794 4.38757 28.8392 2.09448 23.0625 2.09448Z" fill="#B86E27"/>
<path d="M38.4375 20.0186V31.5412C39.4569 31.5412 40.4346 31.9458 41.1554 32.6661C41.8763 33.3864 42.2812 34.3634 42.2812 35.382C42.2812 36.4007 41.8763 37.3776 41.1554 38.0979C40.4346 38.8183 39.4569 39.2229 38.4375 39.2229H37.1562C37.1562 41.0723 36.7917 42.9037 36.0834 44.6123C35.3751 46.321 34.337 47.8735 33.0283 49.1812C31.7196 50.489 30.1659 51.5263 28.4559 52.2341C26.746 52.9418 24.9133 53.3061 23.0625 53.3061C19.3246 53.3061 15.7398 51.8223 13.0967 49.1812C10.4536 46.5401 8.96875 42.958 8.96875 39.2229H7.6875C6.66807 39.2229 5.6904 38.8183 4.96956 38.0979C4.24872 37.3776 3.84375 36.4007 3.84375 35.382C3.84375 34.3634 4.24872 33.3864 4.96956 32.6661C5.6904 31.9458 6.66807 31.5412 7.6875 31.5412V20.0186C12.4613 22.4036 17.7252 23.6454 23.0625 23.6454C28.3998 23.6454 33.6637 22.4036 38.4375 20.0186Z" fill="#FBCBC1"/>
<path d="M17.9375 35.3819C17.5977 35.3819 17.2718 35.247 17.0315 35.0069C16.7912 34.7668 16.6562 34.4412 16.6562 34.1016V32.8213C16.6562 32.4818 16.7912 32.1561 17.0315 31.916C17.2718 31.6759 17.5977 31.541 17.9375 31.541C18.2773 31.541 18.6032 31.6759 18.8435 31.916C19.0838 32.1561 19.2188 32.4818 19.2188 32.8213V34.1016C19.2188 34.4412 19.0838 34.7668 18.8435 35.0069C18.6032 35.247 18.2773 35.3819 17.9375 35.3819Z" fill="black"/>
<path d="M28.1875 35.3819C27.8477 35.3819 27.5218 35.247 27.2815 35.0069C27.0412 34.7668 26.9062 34.4412 26.9062 34.1016V32.8213C26.9062 32.4818 27.0412 32.1561 27.2815 31.916C27.5218 31.6759 27.8477 31.541 28.1875 31.541C28.5273 31.541 28.8532 31.6759 29.0935 31.916C29.3338 32.1561 29.4688 32.4818 29.4688 32.8213V34.1016C29.4688 34.4412 29.3338 34.7668 29.0935 35.0069C28.8532 35.247 28.5273 35.3819 28.1875 35.3819Z" fill="black"/>
<path d="M45.2473 29.2546C45.8293 27.5153 46.1256 25.6934 46.125 23.8594C46.125 17.7475 43.6952 11.8858 39.3702 7.564C35.0451 3.24218 29.1791 0.814209 23.0625 0.814209C16.9459 0.814209 11.0799 3.24218 6.75485 7.564C2.42979 11.8858 1.50226e-06 17.7475 1.41112e-06 23.8594C-0.000746285 25.6929 0.295642 27.5145 0.877658 29.2533L2.62913 34.5025V34.5153C2.50269 35.251 2.53874 36.0055 2.73477 36.7258C2.93079 37.4462 3.28205 38.115 3.76393 38.6854C4.24581 39.2559 4.84667 39.7141 5.52443 40.0281C6.20218 40.3421 6.94044 40.5043 7.6875 40.5032H7.74003C7.99305 43.4477 9.08924 46.2571 10.8976 48.5956C12.706 50.9341 15.15 52.7027 17.9375 53.6902V57.5951L10.7625 60.7805C7.78235 62.0463 5.20673 64.1047 3.3159 66.7316C1.42508 69.3585 0.29147 72.4533 0.0384389 75.6792C0.0140951 76.0735 1.41112e-06 76.4704 1.41112e-06 76.8673V81.4725C1.41112e-06 81.8121 0.13499 82.1377 0.375271 82.3778C0.615552 82.6179 0.941443 82.7528 1.28125 82.7528H41C41.3398 82.7528 41.6657 82.6179 41.906 82.3778C42.1463 82.1377 42.2812 81.8121 42.2812 81.4725C42.2812 81.133 42.1463 80.8073 41.906 80.5672C41.6657 80.3271 41.3398 80.1922 41 80.1922H28.1875V76.4102C28.1899 73.6606 27.3884 70.9702 25.8813 68.6696L27.0779 66.8772C27.4075 66.9921 27.7539 67.0514 28.1029 67.0526C28.4973 67.0527 28.8883 66.9797 29.2561 66.8375C29.7767 66.6415 30.2363 66.3118 30.5886 65.8815C30.9409 65.4513 31.1733 64.9358 31.2625 64.387L31.6699 61.9468L34.3144 63.1221C35.9801 63.8593 37.5082 64.8741 38.8334 66.1231C39.0806 66.3564 39.4104 66.482 39.7503 66.4722C40.0902 66.4625 40.4123 66.3183 40.6457 66.0713C40.8792 65.8242 41.0049 65.4947 40.9951 65.155C40.9854 64.8154 40.8411 64.4936 40.5938 64.2603C39.0594 62.8135 37.2906 61.6374 35.3625 60.7817L28.1875 57.5951V53.6902C30.975 52.7027 33.4191 50.9341 35.2274 48.5956C37.0358 46.2571 38.132 43.4477 38.385 40.5032H38.4375C39.1835 40.5032 39.9205 40.3405 40.5971 40.0264C41.2736 39.7123 41.8734 39.2543 42.3545 38.6846C42.8355 38.1149 43.1864 37.4471 43.3824 36.7278C43.5784 36.0086 43.615 35.2552 43.4895 34.5204L43.4959 34.5063L45.2473 29.2546ZM2.5625 23.8594C2.5625 18.4266 4.72232 13.2162 8.56681 9.3746C12.4113 5.53299 17.6256 3.37479 23.0625 3.37479C28.4994 3.37479 33.7137 5.53299 37.5582 9.3746C41.4027 13.2162 43.5625 18.4266 43.5625 23.8594C43.5631 25.4182 43.3117 26.9668 42.8181 28.4454L41.7931 31.5181C41.1958 30.9974 40.4857 30.6223 39.7188 30.4222V20.0186C39.7189 19.8003 39.6631 19.5856 39.5568 19.395C39.4505 19.2043 39.2972 19.0439 39.1115 18.9291C38.9257 18.8143 38.7137 18.7489 38.4955 18.739C38.2773 18.7291 38.0602 18.7751 37.8648 18.8727C33.2655 21.1576 28.1989 22.3467 23.0625 22.3467C17.9261 22.3467 12.8595 21.1576 8.26022 18.8727C8.06483 18.7751 7.84773 18.7291 7.62953 18.739C7.41133 18.7489 7.19928 18.8143 7.01352 18.9291C6.82776 19.0439 6.67446 19.2043 6.56817 19.395C6.46189 19.5856 6.40615 19.8003 6.40625 20.0186V30.4222C5.63962 30.6246 4.93043 31.0019 4.33447 31.5245L3.30947 28.4442C2.81498 26.9661 2.56274 25.4179 2.5625 23.8594ZM23.6583 67.3893H22.4667L21.1586 65.4292L23.0625 63.9082L24.9664 65.4292L23.6583 67.3893ZM18.4052 64.355C18.3195 64.4233 18.2175 64.4682 18.1093 64.4851C18.001 64.5021 17.8902 64.4907 17.7877 64.452C17.6852 64.4132 17.5946 64.3485 17.5247 64.2642C17.4548 64.1798 17.4081 64.0788 17.3891 63.9709L16.8766 60.8778L18.942 59.9598L21.1406 62.1619L18.4052 64.355ZM2.5625 76.8635C2.5625 76.5216 2.57403 76.1798 2.59581 75.8392C2.82003 73.0797 3.79715 70.4345 5.42091 68.1912C7.04467 65.9479 9.2529 64.1924 11.8054 63.1157L14.4499 61.9417L14.8574 64.3819C14.9459 64.9318 15.1784 65.4486 15.5312 65.8798C15.884 66.3111 16.3446 66.6415 16.8664 66.8375C17.2342 66.9795 17.6252 67.0524 18.0195 67.0526C18.3707 67.0521 18.7193 66.9928 19.0509 66.8772L20.2437 68.6696C18.7366 70.9702 17.9351 73.6606 17.9375 76.4102V80.1922H2.5625V76.8635ZM20.5 80.1922V76.4102C20.4977 74.1202 21.1759 71.8811 22.4488 69.9768L22.4667 69.9499H23.6583L23.6762 69.9768C24.9491 71.8811 25.6273 74.1202 25.625 76.4102V80.1922H20.5ZM28.741 63.9658C28.722 64.0737 28.6753 64.1747 28.6054 64.259C28.5355 64.3434 28.4449 64.4081 28.3424 64.4468C28.2399 64.4856 28.1291 64.497 28.0208 64.48C27.9126 64.463 27.8106 64.4182 27.725 64.3499L24.9844 62.1619L27.1945 59.9547L29.2599 60.8726L28.741 63.9658ZM25.625 57.8972L23.0625 60.4578L20.5 57.8972V54.3598C22.195 54.6619 23.93 54.6619 25.625 54.3598V57.8972ZM38.4375 37.9426H37.1563C36.8164 37.9426 36.4906 38.0775 36.2503 38.3176C36.01 38.5577 35.875 38.8834 35.875 39.2229C35.875 42.6185 34.5251 45.8749 32.1223 48.2759C29.7195 50.677 26.4606 52.0258 23.0625 52.0258C19.6644 52.0258 16.4055 50.677 14.0027 48.2759C11.5999 45.8749 10.25 42.6185 10.25 39.2229C10.25 38.8834 10.115 38.5577 9.87473 38.3176C9.63445 38.0775 9.30856 37.9426 8.96875 37.9426H7.6875C7.00788 37.9426 6.3561 37.6729 5.87554 37.1927C5.39498 36.7125 5.125 36.0612 5.125 35.3821C5.125 34.7029 5.39498 34.0517 5.87554 33.5714C6.3561 33.0912 7.00788 32.8215 7.6875 32.8215C8.02731 32.8215 8.3532 32.6866 8.59348 32.4465C8.83376 32.2064 8.96875 31.8807 8.96875 31.5412V22.0235C13.4237 23.9253 18.218 24.9057 23.0625 24.9057C27.907 24.9057 32.7013 23.9253 37.1563 22.0235V31.5412C37.1563 31.8807 37.2912 32.2064 37.5315 32.4465C37.7718 32.6866 38.0977 32.8215 38.4375 32.8215C39.1171 32.8215 39.7689 33.0912 40.2495 33.5714C40.73 34.0517 41 34.7029 41 35.3821C41 36.0612 40.73 36.7125 40.2495 37.1927C39.7689 37.6729 39.1171 37.9426 38.4375 37.9426Z" fill="black"/>
<path d="M47.4062 68.6699L53.8125 69.9502V72.5108H47.4062V68.6699Z" fill="#F4B05D"/>
<path d="M75.5938 68.6699L69.1875 69.9502V72.5108H75.5938V68.6699Z" fill="#F4B05D"/>
<path d="M54.0688 68.6948L47.6625 67.4145C47.4763 67.3766 47.284 67.3804 47.0995 67.4259C46.9151 67.4713 46.743 67.5572 46.5958 67.6773C46.4486 67.7974 46.33 67.9487 46.2486 68.1203C46.1672 68.2918 46.125 68.4794 46.125 68.6692V72.5101C46.125 72.8496 46.26 73.1753 46.5003 73.4154C46.7405 73.6555 47.0664 73.7904 47.4062 73.7904H53.8125C54.1523 73.7904 54.4782 73.6555 54.7185 73.4154C54.9588 73.1753 55.0938 72.8496 55.0938 72.5101V69.9495C55.0938 69.6544 54.9918 69.3683 54.805 69.1396C54.6183 68.911 54.3582 68.7539 54.0688 68.6948ZM52.5312 71.2298H48.6875V70.2312L52.5312 70.9994V71.2298Z" fill="black"/>
<path d="M75.3375 67.4145L68.9312 68.6948C68.6418 68.7539 68.3817 68.911 68.195 69.1396C68.0082 69.3683 67.9062 69.6544 67.9063 69.9495V72.5101C67.9063 72.8496 68.0412 73.1753 68.2815 73.4154C68.5218 73.6555 68.8477 73.7904 69.1875 73.7904H75.5938C75.9336 73.7904 76.2595 73.6555 76.4997 73.4154C76.74 73.1753 76.875 72.8496 76.875 72.5101V68.6692C76.875 68.4794 76.8328 68.2918 76.7514 68.1203C76.67 67.9487 76.5514 67.7974 76.4042 67.6773C76.257 67.5572 76.0849 67.4713 75.9005 67.4259C75.716 67.3804 75.5237 67.3766 75.3375 67.4145ZM74.3125 71.2298H70.4688V70.9994L74.3125 70.2312V71.2298Z" fill="black"/>
<path d="M80.7188 61.6281C80.7188 60.7792 80.3813 59.9651 79.7806 59.3648C79.1799 58.7646 78.3651 58.4274 77.5156 58.4274H74.7187L71.6437 51.5061C71.5427 51.2791 71.3779 51.0864 71.1693 50.9513C70.9607 50.8163 70.7173 50.7448 70.4688 50.7456H52.5312C52.2833 50.7456 52.0408 50.8174 51.8329 50.9524C51.625 51.0874 51.4608 51.2797 51.3602 51.5061L48.2813 58.4274H45.4844C44.775 58.4254 44.0851 58.6595 43.5237 59.0929C42.9623 59.5262 42.5613 60.134 42.384 60.8204C42.2066 61.5068 42.2632 62.2326 42.5445 62.8833C42.8259 63.5341 43.3162 64.0726 43.9379 64.414C42.8766 65.5782 42.2862 67.0949 42.2812 68.6697V76.3514C42.2812 76.691 42.4162 77.0166 42.6565 77.2567C42.8968 77.4968 43.2227 77.6317 43.5625 77.6317V81.4726C43.5625 81.8121 43.6975 82.1378 43.9378 82.3779C44.178 82.618 44.5039 82.7529 44.8438 82.7529H52.5312C52.8711 82.7529 53.197 82.618 53.4372 82.3779C53.6775 82.1378 53.8125 81.8121 53.8125 81.4726V77.6317H69.1875V81.4726C69.1875 81.8121 69.3225 82.1378 69.5628 82.3779C69.803 82.618 70.1289 82.7529 70.4688 82.7529H78.1562C78.4961 82.7529 78.8219 82.618 79.0622 82.3779C79.3025 82.1378 79.4375 81.8121 79.4375 81.4726V77.6317C79.7773 77.6317 80.1032 77.4968 80.3435 77.2567C80.5838 77.0166 80.7188 76.691 80.7188 76.3514V68.6697C80.7138 67.0949 80.1234 65.5782 79.0621 64.414C79.5621 64.1398 79.9794 63.7368 80.2707 63.2469C80.5621 62.7569 80.7168 62.198 80.7188 61.6281ZM78.1562 75.0711H44.8438V68.6697C44.8438 67.651 45.2487 66.6741 45.9696 65.9538C46.6904 65.2335 47.6681 64.8288 48.6875 64.8288H74.3125C75.3319 64.8288 76.3096 65.2335 77.0304 65.9538C77.7513 66.6741 78.1562 67.651 78.1562 68.6697V75.0711ZM77.5156 60.9879C77.6855 60.9879 77.8485 61.0554 77.9686 61.1754C78.0888 61.2955 78.1562 61.4583 78.1562 61.6281C78.1562 61.7979 78.0888 61.9607 77.9686 62.0807C77.8485 62.2008 77.6855 62.2682 77.5156 62.2682H76.4266L75.8577 60.9879H77.5156ZM53.3628 53.3062H69.6347L73.6193 62.2682H49.3781L53.3628 53.3062ZM45.4844 60.9879H47.1423L46.5734 62.2682H45.4844C45.3145 62.2682 45.1515 62.2008 45.0314 62.0807C44.9112 61.9607 44.8438 61.7979 44.8438 61.6281C44.8438 61.4583 44.9112 61.2955 45.0314 61.1754C45.1515 61.0554 45.3145 60.9879 45.4844 60.9879ZM51.25 80.1923H46.125V77.6317H51.25V80.1923ZM76.875 80.1923H71.75V77.6317H76.875V80.1923Z" fill="black"/>
<path d="M78.9325 14.1216H73.4975C73.1577 14.1217 72.8319 14.2566 72.5916 14.4967L62.6261 24.4548C61.6639 23.4962 60.3607 22.9579 59.0021 22.9579C57.6434 22.9579 56.3402 23.4962 55.378 24.4548L47.2242 32.6039C46.2634 33.5642 45.7236 34.8666 45.7236 36.2245C45.7236 37.5825 46.2634 38.8848 47.2242 39.8452L54.4722 47.0878C54.9481 47.5634 55.5131 47.9406 56.1349 48.198C56.7567 48.4554 57.4232 48.5878 58.0962 48.5878C58.7693 48.5878 59.4357 48.4554 60.0575 48.198C60.6793 47.9406 61.2443 47.5634 61.7202 47.0878L69.8728 38.94C70.8336 37.9797 71.3734 36.6773 71.3734 35.3194C71.3734 33.9614 70.8336 32.659 69.8728 31.6987L75.3092 26.2664C75.5495 26.0264 75.6845 25.7008 75.6846 25.3613V23.5138L76.7096 23.8582C76.9353 23.9332 77.1775 23.944 77.409 23.8893C77.6405 23.8345 77.8521 23.7165 78.0203 23.5484L79.832 21.738C80.0723 21.498 80.2073 21.1724 80.2074 20.8329V15.4019C80.2074 15.0634 80.0733 14.7387 79.8344 14.4988C79.5955 14.2589 79.2712 14.1233 78.9325 14.1216ZM68.0611 37.1284L59.9085 45.2762C59.6706 45.5141 59.388 45.7028 59.0771 45.8315C58.7661 45.9602 58.4328 46.0265 58.0962 46.0265C57.7596 46.0265 57.4263 45.9602 57.1153 45.8315C56.8044 45.7028 56.5218 45.5141 56.2839 45.2762L49.0358 38.0336C48.5555 37.5534 48.2856 36.9022 48.2856 36.2232C48.2856 35.5443 48.5555 34.8931 49.0358 34.4129L57.1897 26.2639C57.6711 25.785 58.3228 25.5162 59.0021 25.5162C59.6813 25.5162 60.333 25.785 60.8144 26.2639L61.7189 27.169L68.0586 33.5052C68.539 33.9854 68.8088 34.6365 68.8088 35.3155C68.8088 35.9945 68.539 36.6457 68.0586 37.1258L68.0611 37.1284ZM77.6513 20.3028L76.7749 21.1785L74.8095 20.5307C74.6169 20.4664 74.4118 20.4487 74.211 20.4792C74.0102 20.5096 73.8196 20.5873 73.6548 20.7059C73.49 20.8244 73.3558 20.9804 73.2631 21.161C73.1705 21.3415 73.1222 21.5415 73.1221 21.7444V24.8351L68.0611 29.8922L64.4378 26.2715L74.0279 16.6886H77.6513V20.3028Z" fill="black"/>
<path d="M58.0956 43.9497C57.6748 43.9508 57.2579 43.8685 56.8691 43.7076C56.4803 43.5468 56.1272 43.3105 55.8303 43.0125L51.3011 38.4854C50.7006 37.8852 50.3633 37.0712 50.3633 36.2225C50.3633 35.3738 50.7006 34.5598 51.3011 33.9596C51.9018 33.3595 52.7164 33.0225 53.5657 33.0225C54.4151 33.0225 55.2297 33.3595 55.8303 33.9596L60.3596 38.4867C60.8071 38.9343 61.1119 39.5045 61.2353 40.1251C61.3587 40.7457 61.2953 41.389 61.053 41.9736C60.8108 42.5582 60.4005 43.0579 59.8741 43.4097C59.3477 43.7614 58.7288 43.9493 58.0956 43.9497ZM57.642 41.2022C57.7016 41.2616 57.7724 41.3087 57.8502 41.3408C57.928 41.3728 58.0114 41.3893 58.0956 41.3891C58.2221 41.3888 58.3457 41.3511 58.4508 41.2808C58.5558 41.2104 58.6377 41.1106 58.6861 40.9938C58.7345 40.877 58.7472 40.7485 58.7226 40.6245C58.698 40.5005 58.6372 40.3865 58.5479 40.297L54.0186 35.7661C53.929 35.6768 53.8148 35.616 53.6906 35.5915C53.5664 35.5669 53.4377 35.5797 53.3208 35.6282C53.2039 35.6767 53.1039 35.7587 53.0336 35.8639C52.9633 35.9691 52.9258 36.0928 52.9257 36.2193C52.9253 36.3033 52.9416 36.3865 52.9737 36.4641C53.0058 36.5417 53.0531 36.6121 53.1128 36.6712L57.642 41.2022Z" fill="black"/>
<path d="M65.3438 35.3824C66.0514 35.3824 66.625 34.8092 66.625 34.1021C66.625 33.395 66.0514 32.8218 65.3438 32.8218C64.6361 32.8218 64.0625 33.395 64.0625 34.1021C64.0625 34.8092 64.6361 35.3824 65.3438 35.3824Z" fill="black"/>
<path d="M62.7812 37.9429C63.4889 37.9429 64.0625 37.3697 64.0625 36.6626C64.0625 35.9555 63.4889 35.3823 62.7812 35.3823C62.0736 35.3823 61.5 35.9555 61.5 36.6626C61.5 37.3697 62.0736 37.9429 62.7812 37.9429Z" fill="black"/>
</svg>
