<svg width="151" height="40" viewBox="0 0 151 40" fill="none" xmlns="http://www.w3.org/2000/svg">
<path d="M19.9765 0C8.9321 0 0 8.9426 0 20C0 31.0574 8.9321 40 19.9765 40C31.021 40 39.9531 31.0574 39.9531 20C39.9531 8.9426 31.021 0 19.9765 0ZM19.9765 36.0121C11.1651 36.0121 4.04359 28.8822 4.04359 20.0604C4.04359 11.2387 11.1651 4.04834 19.9765 4.04834C28.7879 4.04834 35.9095 11.1782 35.9095 20C35.9095 28.8218 28.7879 36.0121 19.9765 36.0121Z" fill="#405FF2"/>
<path d="M19.9786 4.89648C11.6501 4.89648 4.89062 11.6639 4.89062 20.0022C4.89062 28.3406 11.6501 35.1684 20.039 35.1684C28.3676 35.1684 35.127 28.401 35.127 20.0022C35.127 11.6034 28.3676 4.89648 19.9786 4.89648ZM30.842 12.4494C31.9283 13.9599 32.6526 15.7122 33.0147 17.6457L24.4447 19.2167C24.324 18.5521 24.0826 17.9478 23.7205 17.4645L30.842 12.4494ZM27.5226 9.12609L22.5738 16.3164C22.0306 15.9539 21.4271 15.7122 20.8236 15.5913L22.3324 7.01129C24.2636 7.3134 26.0138 8.0989 27.5226 9.12609ZM17.6249 7.01129L19.1941 15.5913C18.5302 15.7122 17.9267 15.9539 17.4439 16.3164L12.495 9.18651C14.0038 8.0989 15.754 7.3134 17.6249 7.01129ZM9.11527 12.4494L16.2972 17.4645C15.9351 18.0083 15.6936 18.6125 15.5729 19.2167L7.00295 17.6457C7.30471 15.7726 8.08928 14.0204 9.11527 12.4494ZM9.11527 27.5551C8.02893 26.0445 7.30471 24.2923 6.94259 22.3587L15.5126 20.7877C15.6333 21.4524 15.8747 22.0566 16.2368 22.54L9.11527 27.5551ZM12.4346 30.8784L17.3835 23.7484C17.9267 24.111 18.5302 24.3527 19.1337 24.4735L17.5646 33.0536C15.754 32.691 14.0038 31.966 12.4346 30.8784ZM22.3324 33.0536L20.7632 24.4735C21.4271 24.3527 22.0306 24.111 22.5134 23.7484L27.4623 30.8784C26.0138 31.966 24.2636 32.691 22.3324 33.0536ZM30.842 27.5551L23.7205 22.6004C24.0826 22.0566 24.324 21.4524 24.4447 20.8481L33.0147 22.3587C32.6526 24.2923 31.9283 26.0445 30.842 27.5551Z" fill="#405FF2"/>
<path d="M138.67 29.2296V26.6665L147.082 13.7203H138.748V10.9219H150.948V13.485L142.484 26.4311H151V29.2296H138.67Z" fill="#0D274E"/>
<path d="M119.726 29.2296L126.413 10.9219H130.175L136.862 29.2296H133.31L131.847 24.9926H124.715L123.226 29.2296H119.726ZM125.629 22.3773H130.932L128.268 14.7665L125.629 22.3773Z" fill="#0D274E"/>
<path d="M104.576 29.2296V10.9219H111.917C113.815 10.9219 115.261 11.3665 116.253 12.2557C117.263 13.1275 117.768 14.2521 117.768 15.6296C117.768 16.7803 117.455 17.7044 116.828 18.4019C116.218 19.0819 115.47 19.5439 114.581 19.788C115.626 19.9973 116.488 20.5203 117.168 21.3573C117.847 22.1767 118.186 23.1357 118.186 24.2342C118.186 25.6814 117.664 26.8757 116.619 27.8173C115.574 28.7588 114.094 29.2296 112.178 29.2296H104.576ZM107.92 18.6111H111.42C112.361 18.6111 113.084 18.3932 113.589 17.9573C114.094 17.5214 114.346 16.9024 114.346 16.1003C114.346 15.3332 114.094 14.7316 113.589 14.2957C113.101 13.8424 112.361 13.6157 111.368 13.6157H107.92V18.6111ZM107.92 26.5096H111.656C112.648 26.5096 113.415 26.2829 113.954 25.8296C114.512 25.3588 114.79 24.705 114.79 23.868C114.79 23.0137 114.503 22.3424 113.928 21.8542C113.354 21.366 112.579 21.1219 111.603 21.1219H107.92V26.5096Z" fill="#0D274E"/>
<path d="M88.2959 29.2296V10.9219H95.0095C96.4724 10.9219 97.6741 11.1747 98.6145 11.6803C99.5724 12.1685 100.286 12.8398 100.757 13.6942C101.227 14.5311 101.462 15.4639 101.462 16.4926C101.462 17.6085 101.166 18.6285 100.574 19.5526C99.9991 20.4767 99.0935 21.148 97.857 21.5665L101.645 29.2296H97.8047L94.4087 22.0111H91.6397V29.2296H88.2959ZM91.6397 19.5526H94.8006C95.9152 19.5526 96.7337 19.2824 97.2561 18.7419C97.7786 18.2014 98.0398 17.4865 98.0398 16.5973C98.0398 15.7255 97.7786 15.028 97.2561 14.505C96.7511 13.9819 95.9239 13.7203 94.7744 13.7203H91.6397V19.5526Z" fill="#0D274E"/>
<path d="M68.8066 29.2296L75.4942 10.9219H79.2559L85.9434 29.2296H82.3907L80.9278 24.9926H73.7962L72.3071 29.2296H68.8066ZM74.7105 22.3773H80.0135L77.3489 14.7665L74.7105 22.3773Z" fill="#0D274E"/>
<path d="M59.2305 29.5448C57.3845 29.5448 55.7997 29.1525 54.4761 28.3678C53.1525 27.5658 52.1337 26.4586 51.4197 25.0463C50.7056 23.6166 50.3486 21.9689 50.3486 20.1032C50.3486 18.2376 50.7056 16.5899 51.4197 15.1601C52.1337 13.7304 53.1525 12.6145 54.4761 11.8125C55.7997 11.0104 57.3845 10.6094 59.2305 10.6094C61.4249 10.6094 63.2186 11.1586 64.6119 12.2571C66.0225 13.3381 66.902 14.8637 67.2503 16.834H63.5669C63.3406 15.8401 62.8529 15.0642 62.1041 14.5063C61.3726 13.9309 60.3973 13.6432 59.1783 13.6432C57.489 13.6432 56.1654 14.2186 55.2075 15.3694C54.2497 16.5201 53.7708 18.0981 53.7708 20.1032C53.7708 22.1083 54.2497 23.6863 55.2075 24.8371C56.1654 25.9704 57.489 26.5371 59.1783 26.5371C60.3973 26.5371 61.3726 26.2755 62.1041 25.7525C62.8529 25.2119 63.3406 24.4709 63.5669 23.5294H67.2503C66.902 25.4125 66.0225 26.8858 64.6119 27.9494C63.2186 29.013 61.4249 29.5448 59.2305 29.5448Z" fill="#0D274E"/>
</svg>
