<svg width="330" height="118" viewBox="0 0 330 118" fill="none" xmlns="http://www.w3.org/2000/svg">
<path d="M329.289 88.2941C321.023 84.9869 312.939 81.8636 299.529 86.4566C286.302 91.2335 267.931 104.093 238.721 111.074C209.511 118.054 169.463 119.524 149.071 111.992C128.493 104.461 127.575 87.9263 126.473 79.6598C125.188 71.2094 123.902 71.0255 122.616 71.7596C121.514 72.3113 120.228 73.9634 120.044 75.9848C119.677 77.8223 120.228 80.0261 122.066 81.6797C123.719 83.3333 126.659 84.6191 128.312 82.7816C130.15 81.128 130.884 76.3511 130.7 72.1259C130.516 67.7168 129.414 64.0433 127.027 62.756C124.823 61.4702 121.332 62.756 119.31 66.0632C117.289 69.1865 116.739 74.5136 117.473 79.4744C118.391 84.2513 120.412 88.6604 122.8 90.4964C125.372 92.5178 128.127 91.9661 130.148 89.7608C132.17 87.7394 133.456 84.0659 133.822 78.7388C134.006 73.5956 133.27 66.6134 131.801 62.2042C130.515 57.6112 128.309 55.4074 126.29 54.304C124.268 53.0182 122.064 52.8343 120.227 53.7523C118.205 54.6703 116.369 56.6917 115.084 59.2633C113.614 61.651 112.696 64.5904 111.96 67.7137C111.409 70.837 110.858 74.1443 110.674 77.4499C110.491 80.5733 110.491 83.6966 111.226 87.1862C111.96 90.6773 113.43 94.7186 115.819 97.8419C118.207 100.965 121.33 103.353 125.555 104.089C129.781 105.006 135.108 104.272 138.231 103.354C141.17 102.436 142.088 101.151 143.374 97.4756C144.844 93.6182 146.681 87.3716 147.232 80.7587C147.783 74.1458 146.864 67.3475 145.028 61.8364C143.19 56.5093 140.435 52.6504 137.863 50.4466C135.292 48.4252 132.902 48.0589 129.963 47.6911C127.024 47.5072 123.532 47.3233 120.593 48.0589C117.838 48.6106 115.632 50.0803 113.98 52.6519C112.327 55.2235 111.225 58.8986 110.489 62.9399C109.755 66.9812 109.387 71.2064 109.203 74.6975C109.019 78.0047 109.019 80.2085 108.835 81.128C108.652 81.8621 108.284 81.128 107.917 78.9242C107.734 76.7189 107.734 73.0454 108.101 68.2685C108.653 63.3077 109.571 57.2465 110.857 52.8374C112.327 48.4283 113.98 45.6728 115.634 44.387C117.471 43.1012 119.125 43.2851 121.145 44.387C122.982 45.6728 125.186 48.2444 127.024 51.3677C128.677 54.491 129.779 58.3484 130.881 62.9414C131.983 67.7183 132.902 73.2293 133.453 78.1886C134.004 82.9655 134.188 87.0068 134.554 89.7623C135.106 92.3339 136.024 93.4358 139.515 94.3553C143.189 95.2733 149.435 95.825 161.009 96.5591C172.399 97.2932 188.933 98.0288 205.283 98.0288C221.449 98.0288 237.432 97.4771 248.27 96.5591C259.108 95.4572 264.805 94.1714 269.03 93.4358C273.255 92.5178 276.011 92.15 277.297 91.7822C278.766 91.4144 278.766 90.8642 278.031 90.1286C277.479 89.5769 276.193 88.6589 275.459 88.2911C274.725 87.9233 274.541 87.9233 273.438 88.1072C272.336 88.2911 270.13 88.8413 267.559 89.393C265.171 89.7608 262.232 90.1271 260.21 90.6788C258.189 91.2305 256.719 91.7807 255.249 92.3324C253.78 92.8841 252.126 93.2504 245.145 93.8021C237.981 94.3538 225.489 94.904 216.855 95.2718C208.037 95.6396 203.077 95.6396 199.402 95.2718C195.545 95.0879 192.972 94.5377 186.543 94.1699C180.112 93.8021 169.826 93.6182 164.131 93.068C158.436 92.3339 157.518 91.2305 157.15 88.1072C156.966 84.9839 157.702 79.6568 157.702 76.9013C157.886 73.9619 157.518 73.778 155.864 73.4102C154.395 73.2263 151.823 73.0424 150.353 72.4922C148.884 72.1244 148.7 71.3903 149.435 70.2884C150.17 69.3704 151.823 67.9007 153.661 66.7973C155.498 65.6954 157.518 64.9598 163.213 65.3276C168.908 65.8793 178.278 67.349 182.869 68.6348C187.646 69.9206 187.83 70.8386 187.278 71.2064C186.911 71.7581 185.809 71.7581 181.951 71.7581C178.278 71.7581 171.663 71.5742 167.622 71.5742C163.581 71.5742 162.111 71.5742 161.192 71.7581C160.274 71.942 159.906 72.3098 160.274 72.6761C160.641 72.86 161.743 73.0439 165.785 73.0439C170.01 73.2278 177.174 73.2278 180.849 73.2278C184.707 73.4117 184.891 73.5956 185.075 74.5136C185.442 75.4316 185.626 76.9013 185.81 78.5549C185.994 80.3924 186.178 82.2284 186.178 83.5157C186.362 84.8015 186.362 85.3532 187.832 86.4551C189.485 87.3731 192.609 88.6589 194.996 89.2106C197.2 89.7623 198.67 89.7623 199.405 89.2106C200.141 88.6589 199.957 87.7409 198.854 85.1693C197.752 82.4138 195.73 78.0047 194.077 75.617C192.607 73.2293 191.505 72.8615 190.586 72.6776C189.851 72.4937 189.116 72.4937 188.932 73.2293C188.564 73.9634 188.748 75.2507 189.116 77.0867C189.484 78.9242 190.218 81.3119 190.769 82.9655C191.504 84.6191 192.239 85.5371 193.157 86.4566C194.075 87.1907 195.363 87.9263 197.566 88.6604C199.588 89.3945 202.343 89.9462 204.915 90.4979C207.67 90.8657 210.058 91.0496 217.407 90.4979C224.755 89.9462 237.063 88.6604 243.493 86.8229C250.106 84.8015 250.842 82.046 251.394 80.0261C251.761 78.1886 252.128 77.2706 251.394 76.7189C250.659 76.1672 249.006 76.1672 245.147 76.3511C241.106 76.3511 235.043 76.535 228.43 76.9028C222 77.0867 214.835 77.2706 210.06 77.4545C205.467 77.6384 203.447 77.6384 202.343 78.1886C201.241 78.5564 201.057 79.4744 201.241 80.21C201.425 81.128 201.609 82.0475 201.975 83.3333C202.343 84.4352 202.893 85.721 203.997 86.8244C205.099 87.9263 206.568 88.8458 210.794 89.396C215.019 89.9477 222 90.314 228.246 90.1301C234.493 89.9462 240.004 89.396 243.493 89.0282C246.984 88.4765 248.27 87.9263 249.372 87.3746C250.474 86.6405 251.21 85.9049 252.128 83.8835C253.046 81.8621 254.331 78.7403 255.251 76.3511C255.987 73.7795 256.537 72.1259 256.905 71.942C257.272 71.942 257.456 73.2278 257.272 75.0653C257.088 77.0867 256.538 79.6583 256.171 81.4958C255.803 83.3333 255.436 84.2513 254.885 84.9869C254.517 85.7225 253.967 86.0888 253.967 86.2727C253.783 86.4566 254.151 86.6405 255.62 86.4566C257.09 86.2727 259.662 85.7225 262.601 85.1708C265.54 84.4352 268.664 83.5172 270.501 81.4973C272.339 79.6598 272.707 76.5365 272.889 74.3327C272.889 72.1289 272.705 70.6592 271.603 69.9236C270.501 69.3719 268.664 69.3719 266.46 69.5558C264.439 69.7397 262.051 69.9236 260.949 69.7397C259.847 69.5558 259.847 69.0056 260.581 67.9022C261.315 66.8003 262.969 65.1467 265.174 64.0448C267.562 62.9429 270.685 62.3912 272.339 62.5751C273.992 62.9429 273.992 63.8609 274.176 65.3306C274.36 66.9842 274.544 69.0041 274.544 71.5772C274.544 74.1503 274.36 77.456 274.176 79.4774C273.992 81.6812 273.808 82.7847 273.625 83.8866C273.441 84.8045 273.441 85.7241 273.625 86.4582C273.808 87.0099 274.359 87.1938 274.726 86.826C275.094 86.2742 275.278 85.3563 275.461 82.7847C275.644 80.2131 275.644 76.1717 275.644 72.8645C275.828 69.5573 275.828 66.9857 275.644 65.1482C275.461 63.3107 275.093 62.5766 274.175 60.7391C273.441 59.0855 272.153 56.5139 270.501 53.3906C269.032 50.4512 267.194 46.9601 265.54 44.3885C263.887 42.0008 262.417 40.3472 260.947 39.0614C259.294 37.5917 257.456 36.6737 256.171 36.122C254.885 35.5703 253.967 35.3879 253.047 35.3879C252.129 35.5718 251.21 35.7557 250.659 36.4898C249.925 37.0415 249.742 37.9595 249.925 39.6131C250.109 41.0828 250.843 43.1042 252.129 45.1241C253.415 46.9616 255.436 48.9815 257.456 50.4512C259.478 52.1048 261.498 53.2067 263.335 53.7584C264.989 54.3101 266.275 54.1262 267.009 53.7584C267.743 53.3906 268.111 52.8404 267.927 51.737C267.559 50.4512 266.825 48.6137 265.723 46.5938C264.805 44.5724 263.519 42.1847 262.232 40.3472C260.762 38.5097 259.292 37.2239 257.639 36.122C255.985 35.204 254.148 34.4684 252.312 33.7343C250.474 33.1826 248.454 32.6324 245.331 32.2646C242.024 31.8968 237.431 31.5305 233.941 31.3466C230.45 31.1627 227.878 30.9788 225.675 30.9788C223.469 30.9788 221.633 30.9788 222.367 31.1627C223.103 31.3466 226.593 31.7144 229.716 32.4485C232.839 33.1841 235.595 34.286 238.166 36.122C240.738 37.9595 243.309 40.5311 245.147 43.2866C246.984 45.8582 248.27 48.6137 249.004 50.2673C249.738 52.1048 249.922 53.2067 249.372 53.9408C248.82 54.6764 247.719 55.0427 241.656 55.5944C235.777 55.9622 224.939 56.33 215.753 56.5124C206.567 56.6963 199.036 56.5124 194.075 55.9607C189.114 55.409 186.727 54.3071 183.419 52.6535C180.112 50.9999 175.887 48.98 170.376 46.4068C164.865 43.6513 157.884 40.3441 153.659 38.6905C149.25 36.853 147.412 36.4867 145.577 36.853C143.555 37.2208 141.719 38.3227 140.983 40.3441C140.249 42.3655 140.616 45.4873 142.637 48.2428C144.841 50.9983 148.884 53.386 152.373 54.8557C156.047 56.3254 159.17 56.6932 161.375 56.5093C163.581 56.3254 164.867 55.4074 165.601 53.9377C166.335 52.6519 166.703 50.8144 165.233 48.4267C163.947 46.039 160.824 42.9157 157.884 40.8943C155.129 38.689 152.189 37.4032 148.882 36.3013C145.759 35.3833 142.269 34.6477 138.41 33.9136C134.369 33.3619 129.776 32.8117 126.103 32.6278C122.245 32.4439 119.122 32.6278 118.57 32.4439C118.018 32.4439 120.04 32.0761 124.817 31.7083C129.594 31.3405 137.125 30.7903 146.127 30.4225C155.129 29.8708 165.601 29.5045 175.521 29.3206C185.441 29.1367 194.995 29.1367 201.975 29.3206C208.956 29.5045 213.365 29.8723 215.753 30.0547C218.141 30.2386 218.325 30.2386 218.325 30.0547C218.325 29.8708 218.325 29.503 217.407 28.585C216.305 27.4831 214.467 25.8295 211.344 23.074C208.404 20.3185 204.363 16.8274 201.056 14.2558C197.749 11.5003 195.361 9.84667 193.523 8.92867C191.87 7.82677 190.952 7.45897 188.93 7.09116C186.727 6.72336 183.787 6.35555 179.194 5.80536C174.601 5.43756 168.722 5.07127 160.088 4.88737C151.454 4.88737 140.064 5.25517 132.348 5.62146C124.815 5.98927 120.958 6.72336 118.202 7.27507C115.631 7.82677 114.161 8.56087 113.609 10.5823C113.242 12.7861 113.609 16.2772 114.161 19.7683C114.529 23.4418 115.079 26.9329 115.815 28.7704C116.55 30.424 117.284 30.424 118.202 30.2401C118.936 30.0562 119.672 29.6884 119.488 27.1168C119.488 24.3613 118.202 19.5844 117.835 16.645C117.467 13.7056 117.835 12.9715 119.12 12.052C120.406 11.3179 122.794 10.5823 131.428 9.84819C140.062 8.93019 155.127 8.19458 166.333 8.01068C177.539 8.01068 184.888 8.56239 188.563 8.74477C192.236 8.74477 192.236 8.19306 191.686 7.64287C190.952 6.90878 189.665 6.35707 187.277 5.62146C184.889 4.88737 181.214 3.96785 175.887 3.23376C170.376 2.31577 163.211 1.58016 155.495 1.21235C147.595 0.844547 139.328 1.02845 132.532 1.21235C125.735 1.58016 120.224 2.13035 114.895 2.86596C109.384 3.78395 104.239 4.88737 100.014 6.53945C95.9729 8.37696 93.0335 10.5808 89.9102 13.888C86.603 17.0113 83.1134 21.0526 81.092 23.6242C79.0706 26.1958 78.7043 27.1153 78.8867 28.0333C79.0706 28.7674 79.6223 29.503 82.7441 30.2371C85.6835 30.9712 91.1945 31.7068 96.1553 32.0746C101.298 32.6263 105.708 32.9926 108.281 32.8087C110.668 32.8087 111.22 32.4409 110.852 29.5015C110.668 26.3782 109.75 20.8672 109.015 17.0098C108.281 13.1524 108.097 11.1309 107.177 9.84515C106.259 8.74325 104.973 8.19154 102.952 8.37544C100.931 8.55935 98.1752 9.66124 95.6036 11.1309C93.2159 12.7846 90.8267 14.9883 88.439 17.1937C86.0513 19.5814 83.662 22.3369 81.6422 24.1744C79.6207 26.1958 78.151 27.4816 77.4169 27.6655C76.8652 27.8494 77.0491 27.1138 76.8652 26.1958C76.8652 25.2778 76.4974 24.5422 76.3135 23.992C76.3135 23.6242 76.6813 23.4403 77.2315 23.4403C77.9656 23.2564 79.069 23.2564 79.987 22.7062C80.7211 22.1545 81.2728 21.2365 81.6406 20.5024C82.1923 19.7683 82.5586 19.0327 81.2728 18.8488C80.1709 18.6649 77.5978 19.0327 74.8423 19.4005C72.2707 19.7683 69.6991 20.1346 67.6777 20.3185C65.6563 20.6863 64.3705 20.6863 63.6364 20.8702C62.7184 21.0541 62.5345 21.0541 62.3506 21.238C62.1667 21.6058 62.1667 21.9721 62.1667 22.5238C62.3506 23.0755 62.7184 23.6257 62.9008 23.8096C63.0847 23.9935 63.2686 23.8096 63.4525 23.4418C63.6364 23.2579 63.6364 22.8901 63.6364 22.3399C63.6364 21.7882 63.4525 21.238 63.0847 20.6863C62.7169 20.1346 62.1667 19.7683 61.7989 19.4005C61.4311 19.2166 61.2472 19.2166 60.8809 19.5844C60.5131 19.9522 60.1468 20.6863 59.9629 21.6058C59.9629 22.3399 59.9629 23.2594 60.1468 23.9935C60.3307 24.5452 60.5146 24.9115 61.0648 25.2793C61.6165 25.4632 62.7184 25.831 63.2686 25.6471C63.8203 25.6471 63.8203 25.0954 64.5544 24.913C65.4724 24.5452 66.9421 24.5452 68.5957 24.3613C70.0654 24.1774 71.719 23.9935 72.4531 24.3613C73.1872 24.5452 73.1872 25.2793 73.1872 26.1988C73.1872 27.1168 73.3711 28.2202 73.3711 29.1382C73.555 29.8723 73.9228 30.2401 73.7389 30.6079C73.7389 30.7918 73.3711 30.7918 72.4531 31.1596C71.3512 31.5274 69.5137 32.0776 67.6762 32.9971C65.6548 33.7328 63.451 34.6507 61.6135 35.7526C59.776 36.8545 58.3063 38.1403 57.0205 40.1618C55.5508 42.3655 54.2649 45.4889 53.347 48.4283C52.2451 51.5516 51.3255 54.3071 51.1416 57.4304C50.7738 60.5537 50.9577 64.0433 51.3255 65.6969C51.6934 67.3505 52.0596 67.5344 52.2435 65.6969C52.2435 63.8594 52.2435 60.3698 52.9791 56.8787C53.8971 53.5715 55.5508 50.4482 57.0205 48.9784C58.4902 47.3248 59.592 47.1409 60.8778 48.4267C62.1636 49.5286 63.4494 52.1002 64.369 56.8771C65.4709 61.6541 66.2065 68.6348 66.7567 73.2278C67.1245 77.8208 67.3084 80.2085 67.6747 81.6782C68.2264 83.1479 68.9605 83.6996 70.9819 84.2498C73.0033 84.8015 76.309 85.1678 82.5556 86.0873C88.9861 87.0053 98.3545 88.2911 103.499 89.0267C108.46 89.5784 109.194 89.3945 109.562 89.2106C109.746 89.0267 109.93 88.6589 109.378 88.4765C109.01 88.1087 108.092 87.7424 104.969 87.1907C101.662 86.4566 96.3346 85.721 91.0075 84.803C85.6804 83.885 80.1679 82.7816 75.7603 82.2314C71.1673 81.6797 67.3099 81.6797 64.5544 81.1295C61.7989 80.7617 59.9614 79.8437 58.6756 78.1901C57.3898 76.3526 56.6542 73.781 56.6542 71.3933C56.4703 69.0056 57.2059 66.8003 58.3078 65.8823C59.4097 65.1482 60.6955 65.5145 61.615 66.9842C62.533 68.27 63.2686 70.6577 63.0847 73.781C63.0847 76.9043 62.3506 80.7617 61.615 83.3333C60.697 85.9049 59.7775 87.0068 58.8595 87.3746C57.7576 87.7424 56.6557 87.3746 55.7362 86.0888C54.6343 84.6191 53.7148 82.2314 53.3485 78.1886C52.9807 74.1473 53.1646 68.4524 53.7163 64.0433C54.0841 59.8181 54.6343 56.8787 55.5538 55.0412C56.4718 53.2037 57.9415 52.2857 60.3307 51.9179C62.7184 51.3661 66.2095 51.3661 69.3328 52.1018C72.2722 52.8374 75.0277 54.3056 77.233 56.1431C79.4368 57.7967 81.0904 60.0005 82.1939 65.3291C83.2973 70.6577 83.6636 78.9242 83.4797 83.6996C83.4797 88.4765 82.928 89.3945 82.1939 90.1301C81.4583 90.8642 80.3564 91.5998 77.233 91.9676C74.1097 92.5193 68.9665 92.7017 65.2915 92.7017C61.618 92.8856 59.5966 92.5178 58.4947 91.9676C57.2089 91.2335 56.6572 90.1301 57.5767 89.5799C58.4947 88.8458 60.7 88.478 62.1697 89.5799C63.6394 90.8657 64.1911 93.4373 57.2089 95.2748C50.0443 96.9285 35.5312 97.8464 24.8755 96.7445C14.2258 95.8266 7.6129 93.0711 1 90.314" stroke="black" stroke-opacity="0.06" stroke-miterlimit="22.9256"/>
</svg>
